<?xml version="1.0" encoding="UTF-8"?><svg id="a" xmlns="http://www.w3.org/2000/svg" width="2048" height="2048" viewBox="0 0 2048 2048"><defs><style>.b{stroke-width:0px;}</style></defs><path class="b" d="m1616.2,843.6h0c8.6-15.1,14.9-31.4,21.6-47.4,13.8-32.6,33-61.6,59.5-85.4,18-16.2,37.9-29.8,58.3-42.7,3-1.9,6.1-2.1,9.5-1.4,30.8,6.8,61.7,6.6,92.5-.1,3.2-.7,6-.5,9,1.4,26.3,16.6,51.5,34.4,72.9,57.2,18.2,19.4,31.9,41.6,42.7,65.8,8.8,19.7,16,40.3,27.5,58.7l-126.8-98.9h-146.1s-109.3,85.3-120.7,92.8Zm-970.4,407.7l91.5-393.9,80.1-7.8v-60l-95.4,7.4-95.4,170,19.2,284.3Zm393.4-282.5l-95.4-170-95.4-7.4v60s80.1,7.8,80.1,7.8l91.5,393.9,19.2-284.3Zm-439.3-3.3l-104.3,104.6,1.6,178,102.7-16.5v-266Zm467.8,265.1l102.7,16.5,1.6-178-104.3-104.6v266Zm633.6,71l18.7-299.7-62.8,86.4-13.4,198.6,57.5,14.8Zm275.5-13l-13.4-198.6-62.8-86.4,18.7,299.7,57.5-14.8Zm-469.1,24.3h-254.4v33h254.4v-33Zm-1133.6,25.8H119.7v33h254.4v-33Z"/></svg>