<?xml version="1.0" encoding="UTF-8"?><svg id="a" xmlns="http://www.w3.org/2000/svg" width="2048" height="2048" viewBox="0 0 2048 2048"><defs><style>.b{stroke-width:0px;}</style></defs><path class="b" d="m662.2,1310.1c14.7-73.9,31.1-153.2,46.5-227.2,8.5-40.4,20.1-95.7,28.8-136.1,22.8-15.3,56.4-36,79.9-51.1-22.8,14.9-57.5,38.2-78.6,51.4-8.2,40.5-19.7,95.8-28.1,136.3-15.5,74-32.3,153.1-48.4,226.8h0Z"/><path class="b" d="m817.3,915.4c-15.9,11-32.9,21.9-49.4,32.1-4.9,3.1-11.9,7.3-16.8,10.2,1.1-2.3-78.8,350.7-78.5,350.3,0,0,77.6-351.2,77.6-351.2,4.8-3.2,11.8-7.7,16.7-10.8,16.4-10.4,33.5-21,50.4-30.6h0Z"/><path class="b" d="m994,1312.1c-16.6-70.8-33.8-147.1-49.8-218.3-8.6-38.9-20.5-92.2-29-131.2,0,0,.3.4.3.4,0,0-33.6-20.7-33.6-20.7,0,0-33.5-20.9-33.5-20.9,0,0,33.9,20.2,33.9,20.2l33.8,20.3s.2.1.2.1v.3c9,38.9,20.9,92.1,29.7,131,15.8,71.2,32.7,147.5,47.9,218.7h0Z"/><path class="b" d="m1004.4,1314.9c-16.3-73.5-33.2-152.5-48.9-226.3-8.5-40.4-20.1-95.6-28.4-136-21-13.1-56-36.5-78.6-51.2,23.7,15.2,57,35.6,79.9,50.9,8.7,40.3,20.5,95.5,29.1,135.8,15.5,73.8,32.1,152.9,46.9,226.7h0Z"/></svg>