<?xml version="1.0" encoding="UTF-8"?><svg id="a" xmlns="http://www.w3.org/2000/svg" width="2048" height="2048" viewBox="0 0 2048 2048"><defs><style>.b{fill:#f55;stroke-width:0px;}</style></defs><path class="b" d="m1740,748.3l-98.4,357.4c-.7-14.2-1.5-28.3-2.6-42.5-2.1-28-5.5-55.9-9.5-83.7-5.7-39.3-12.8-78.4-20.9-117.3-.7-3.6,0-6.6,1.9-9.5,1.3-1.9,2.5-3.9,3.7-5.9l125.7-98.5Zm142.3,0l98.4,357.4c.7-14.2,1.5-28.3,2.6-42.5,2.1-28,5.5-55.9,9.5-83.7,5.7-39.3,12.8-78.4,20.9-117.3.7-3.6,0-6.6-1.9-9.5-1.3-1.9-2.5-3.9-3.7-5.9l-125.7-98.5Z"/></svg>