<?xml version="1.0" encoding="UTF-8"?><svg id="a" xmlns="http://www.w3.org/2000/svg" width="2048" height="2048" viewBox="0 0 2048 2048"><defs><style>.b{fill:#f68e11;stroke-width:0px;}</style></defs><path class="b" d="m79.7,738.4v-163.2c.5-2.4,1.9-2.7,6.9-3.1.6,0,1.3-.2,1.9-.2h931.3c.6.2,1.2.4,1.8.6,3.7,1.3,4.5,3.4,4.7,6.2v159.7H79.7Zm1937.3-141.8l-.6-19.6c-1.1-1.6-4.2-8.5-6.4-9.7-23.4-13.2-43.4-30-58.1-52.7-20.8-32-28.3-68.1-30.3-105.4-1.2-22.4-1-44.9,0-67.3.8-22.1,2.8-44.1,5.2-66.1,2.7-24.4,6.3-48.7,9.6-73.1.5-4-.3-6.1-4.7-7.4-74.3-22.6-148.6-45.3-222.8-68.1-3.3-1-5.5-.6-8.1,1.7-11.1,10.1-23.5,17.9-38.5,20.9-34.5,7-69.4,10.3-104.5,11.9-33.2,1.5-66.3-1.3-99.2-5.1-15-1.8-29.9-5.1-44.5-8.7-10.4-2.6-20.2-7.4-26.3-16.8-2.9-4.4-5.7-4.8-10.4-3.4-47.8,14.2-95.7,28.2-143.6,42.2-27,7.9-53.9,15.9-80.9,23.8-3.6,1.1-6.4,2.3-5.7,7,1.6,11.1,3.1,22.2,4,33.4,2.7,32.3,6.1,64.8,7.5,97.2,1.6,37.7,1.1,75.4-4.7,112.8-3.8,24.9-9.4,49.3-20.9,72-12.2,24-29.4,42.8-56.1,51.2-2.3.7-6.5,7.2-7.6,8.3l.4,20.2h0c.4.3,232.7,175.7,305.7,331.7,73.1,156.1,73.5,523.6,73.5,523.6h220.9s7-399.9,61.9-522.2c55.5-123.5,285.3-332.3,285.3-332.3Zm-215.7,1176.3h-812.9v-31.8h812.9v31.8Zm-988.4-63.6H0v31.8h812.9v-31.8Z"/></svg>