<?xml version="1.0" encoding="UTF-8"?><svg id="a" xmlns="http://www.w3.org/2000/svg" width="2048" height="2048" viewBox="0 0 2048 2048"><defs><style>.b{fill:#fff;stroke-width:0px;}</style></defs><path class="b" d="m79.7,758.3h946.6m0-1.5H79.7v3h946.6v-3Zm-946.8-15.3h946.8m0-4H79.5v8h946.8v-8Zm-946.7,36.9h946.8m0-4H79.6v8h946.8v-8Zm517.9-334.5l3.8,3.4,3.7-3.5c3.4-3.2,9.9-8.8,12.9-10.5l371.6-208.7c.1-2,3.5-13.8,1-16.2-1.3-1.2-2.5,2.8-5.1,2.2l-372.9,213.1c-3.3,1.8-8,5.8-11.3,8.7-3.5-3-8.4-7.1-11.2-8.7l-385.2-217.1c-2.2.7-.4.3-2.4,1.2-2.4,1.1.8,5.3,1.2,8.4l381.1,217c2.5,1.4,9.3,7.2,13,10.6Z"/></svg>