<?xml version="1.0" encoding="UTF-8"?><svg id="a" xmlns="http://www.w3.org/2000/svg" width="2048" height="2048" viewBox="0 0 2048 2048"><defs><style>.b{fill:#05235e;stroke-width:0px;}</style></defs><path class="b" d="m1938.9,202.6c.5-4-.3-6.2-4.7-7.5-74.3-22.8-148.6-45.7-222.8-68.7-3.3-1-6.2-.7-8.8,1.6-11.1,10.2-22.8,17.4-37.8,21.2-34.1,8.7-69.4,10.4-104.5,12-33.2,1.5-66.3-1.3-99.2-5.1-15-1.8-29.9-5.1-44.5-8.8-10.4-2.6-20.2-7.5-26.3-16.9-2.9-4.4-5.7-4.8-10.4-3.4-47.8,14.3-95.7,28.4-143.6,42.6-27,8-53.9,16-80.9,24-2.9.9-5.6,1.5-6.1,4.2l-.3,2.5,382.8,216.5c3.9,2.2,14,11.3,14,11.3,0,0,9.2-8.6,14-11.3l379.2-214.2Z"/></svg>