<?xml version="1.0" encoding="UTF-8"?><svg id="a" xmlns="http://www.w3.org/2000/svg" width="2048" height="2048" xmlns:xlink="http://www.w3.org/1999/xlink" viewBox="0 0 2048 2048"><defs><style>.c{fill:url(#b);stroke-width:0px;}</style><linearGradient id="b" x1="521.9" y1="568.8" x2="521.9" y2="746.1" gradientUnits="userSpaceOnUse"><stop offset="0" stop-color="#fff"/><stop offset="1" stop-color="#ea0011"/></linearGradient></defs><path class="c" d="m365.1,568.8c-6.6,0-6.4,0-6.3,6.6.7,29.6,1.2,59.3,2,88.9.7,25-.3,50,.9,74.9.3,6.8.3,6.8,7.4,6.8,67,0,134,0,201,0,35.5,0,71,0,106.5,0,4.2,0,6-.9,5.8-5.5-.2-6.3.3-12.6.4-19,.3-26.6,0-53.3,1-79.9.7-21.8.8-43.6,1.3-65.4.2-7.5.3-7.5-7.1-7.5-52.2,0-104.3,0-156.5,0-52.2,0-104.3,0-156.5,0Z"/></svg>