<?xml version="1.0" encoding="UTF-8"?><svg id="a" xmlns="http://www.w3.org/2000/svg" width="1966.7" height="1314.8" viewBox="0 0 1966.7 1314.8"><defs><style>.b{stroke-width:0px;}</style></defs><path class="b" d="m828.2,751.8c32.6,4.8,62.2,9.2,92.7,22,14.4,6,28.9,12,41.9,20.9,2.7,1.8,3,3.6,1.9,6.3-3.2,7.9-7.4,15.2-12.8,21.8-1.3,1.6-2.6,1.7-4.3,1-2.8-1.1-5.7-1.9-8.3-3.4-33.2-18-68.6-28.9-105.8-34.4-10.2-1.5-20.5-2.4-30.6-4.4-11.8-2.3-12.9-2.8-7.6-14.4,3.1-6.7,6.2-13.6,12-19.3-.5,0-1-.2-1.5-.3m394.8-615.4c2.6,0,5.3.1,7.9-.7,2.4-.7,3.5-1.8,3.7-4.5.6-7.6-.8-14.9-2.1-22.3-1.7-9.9-2.6-10.6-12.5-10.6-127.6,0-255.2,0-382.9,0-1.8,0-3.7,0-5.5.2-3,.4-5.1,1.7-6,5-1.7,6.3-2.4,12.8-3.2,19.2-1.5,12.1-.1,13.6,12.1,13.6,64.6,0,129.3,0,193.9,0,64.8,0,129.6,0,194.4,0Zm-5.8-41c3.2,0,6.3-.3,9.4-.8,2.8-.5,3.9-1.8,4.3-4.5,1.1-7.3-.8-14.2-2-21.2-2-11.4-2.4-11.5-13.8-11.5-123.1,0-246.2,0-369.3,0-1.8,0-3.7,0-5.5.1-3.6.3-6,1.8-7,5.8-1.3,5.5-1.8,11.1-2.7,16.7-2.2,13.9-.4,15.3,13.8,15.3,62,0,123.9,0,185.9,0,62.3,0,124.6,0,186.9,0Zm44,736c-2.3,0-4.6.4-6.9.6-2.5.3-3.5,1.7-4,4.2-1.3,5.9.3,11.6,1,17.3,1.4,11.7,2.2,12.2,14,12.2,55,0,109.9,0,164.9,0,2.2,0,4.3-.2,6.5-.3,3.3,0,5.1-1.5,6-4.8,1.6-5.7,2.1-11.5,2.8-17.2,1.3-10.2-.5-12-10.8-12-28.8,0-57.6,0-86.4,0-29,0-58,0-86.9,0Zm-1126,31.7c-2.3,0-4.7.2-7,.4-3,.3-4.6,1.8-5,5.1-.8,5.8.7,11.2,1.5,16.8,1.6,11.3,2.4,12,13.7,12,55.3,0,110.6,0,166,0,1.8,0,3.7,0,5.5-.2,3.5-.3,5.6-1.9,6.5-5.6,1.2-4.9,1.3-9.9,2.1-14.8,1.8-11.7.1-13.6-11.7-13.6-28.7,0-57.3,0-86,0-28.5,0-57,0-85.5,0Zm645.4-109.8c-2.6.4-5.3.7-7.9,1-35.6,4.6-70.3,12.5-103.2,27.3-10.6,4.8-21.2,9.6-31,15.9-3.4,2.2-4.8,4.8-3,8.8,3.4,7.2,7.3,14.1,12.3,20.4,1,1.3,2.3,1.8,4,1.2,2.5-.9,5.2-1.4,7.5-2.7,37.3-20.8,77.6-31.6,119.7-37,8-1,16.2-1.4,24-3.9,3.9-1.2,5.4-3,4.1-7.3-2.4-7.8-7-14.3-10.8-21.2-1.6-3-4.4-3.9-7.7-3.6-2.6.4-5.3.8-7.9,1.1Zm-191.3,59c-21.9,8.1-44.7,13.7-66.1,23.1-7.3,3.2-15,5.2-21.8,9.5-3.1,2-4,4.3-1.8,7.5,6.7,11.8,9.2,10.3,18.6,6.6,20.3-8.1,40.7-16,61.8-22.1,7.1-2,14.4-4,21.1-7.4,6.2-3.2,6.3-3.9,3.1-9.8-1.6-3-3.7-5.4-6.8-7-2.7-1.3-5.3-1.4-8.1-.3Zm534.8,37.2c-11.6-4.7-23.2-9.4-35-13.7-15.8-5.9-32.3-9.6-47.8-16.1-2.2-.9-4.6-.8-6.9-.4-1.7,1.5-3.5,3-5.2,4.7-6.1,6.1-5.3,10.7,2.5,14.1,1.2.5,2.5.9,3.8,1.3,26.4,8.5,52.8,16.7,78.3,27.7,9.2,4,10.4,3.3,16.6-4.8,1-1.3,2.1-2.6,3.1-3.8-.3-5.9-5.4-7.3-9.4-8.9Zm-637.6-20c-2.6,1.6-3.1,3.4-1.7,6.2,2,4.1,5.1,7.2,8.7,9.8,5.5.6,10-2.2,14.7-4.2,23.7-9.9,47.8-18.5,72.4-25.8,3-.9,5.9-2.1,8.5-3.9,2.3-1.6,3.5-3.5,2.6-6.3-5.3-9.4-8.2-11.6-15-9.4-15.2,4.8-30.5,9.2-45.5,14.7-10.6,3.9-20.7,8.9-31.6,11.9-1.6.6-3.2,1.1-4.8,1.7-2.7,1.8-5.4,3.6-8.2,5.3Zm554.1-17.1c-2.7,3.1-1.5,5.4,1.6,7.2,2.7,1.6,5.6,2.7,8.6,3.6,22.3,7.1,44.5,14.4,66.2,23.2,6.7,2.7,12.9,7,20.6,6.9,3-2.5,5.9-5.1,8-8.5,2.2-3.6,2.1-6.3-1.7-8.5-3.5-1.6-6.8-3.4-10.4-4.8-24.2-9.8-48.6-19-73.7-26.3-3.2-.9-5.9-3.2-9.4-3-4.9,1.7-8.3,5-9.8,10Zm-791.5,397.6c0-4.9-.7-5.9-5.8-5.9-16.1-.3-32.3-.3-48.4,0-5.9.1-7.1,1.9-5.5,7.5.4,1.6.5,3.3,1.1,4.8,2.4,32.5,3.8,65.1,7.1,97.6.3,3.4,1.3,5,5.1,5,11.3-.2,22.7-.2,34,0,3.4,0,4.6-1.1,4.9-4.5,3.3-33,4.9-66,7.1-99.1.8-1.8.4-3.6.4-5.4Z"/></svg>