<?xml version="1.0" encoding="UTF-8"?><svg id="a" xmlns="http://www.w3.org/2000/svg" width="1966.7" height="1314.8" viewBox="0 0 1966.7 1314.8"><defs><style>.b{opacity:.3;stroke-width:0px;}</style></defs><path class="b" d="m703.1,198.7l6.7,12.1,6.7,12.1-11.3,23-24.7-1.2-6.7-12.1-6.1-11c-.3.2-.5.5-.8.7l12.7,23-11.3,23-24.7-1.2-6.8-12.3c-.2.3-.5.6-.7.9l6.6,12-11.3,23-12.3-.6-7.2-.4c-.2.3-.4.7-.7,1l20.2,1,13.4,24.3-11.3,23-12.3-.6-12.3-.6-13.3-24c-.2.3-.4.6-.7.9l6.4,11.5,6.7,12.1-5.7,11.5-5.7,11.5-24.7-1.2-6.2-11.2c-.6,2.2-.6,4.5,0,7.1.8,4.3,1.6,8.6,2.4,12.9l3.8-7.7,12.4.6,12.4.6,6.7,12.1,6.7,12.1-5.7,11.5-5.7,11.5-12.3-.6-11.3-.6c0,.4.1.7.2,1.1l23.5,1.2,6.7,12.1,6.7,12.1-5.7,11.5-5.7,11.5-18.6-.9c0,.4,0,.7.1,1.1l6.1.3,12.4.6,6.7,12.1,6.7,12.1-11.3,23-12.4-.6h-2.7c0,.2,0,.6.1.9l14.9.7,13.4,24.3-11.3,23-12.3-.6h-1c0,.3,0,.7,0,1l13.2.7,13.4,24.3-11.3,23-12.4-.6h-.3c0,.3,0,.7,0,1l12.6.6,13.4,24.3-11.3,23-12.6-.6c0,.3,0,.7,0,1h.2s12.4.6,12.4.6l13.4,24.3-11.3,23-13.2-.7c0,.3,0,.7,0,1h.8s12.4.7,12.4.7l13.4,24.3-11.3,23-13.8-.7c0,.3,0,.7,0,1h1.4c0,0,12.4.7,12.4.7l13.4,24.3-2.1,4.3c.5-.2.9-.4,1.4-.6l1.6-3.3,5.8.3c.8-.3,1.5-.6,2.3-.9l-8.1-.4-13.4-24.3,11.3-23,24.7,1.2,6.7,12.1,6.7,12.1-5.7,11.5-1.3,2.6c.5-.2.9-.3,1.4-.5l6.5-13.1,24.7,1.2,1.3,2.3c.3,0,.7-.2,1-.2l-1.4-2.6,11.3-23,24.7,1.2,6.7,12.1,3.1,5.6c.4,0,.7,0,1.1,0l-10.1-18.2,11.3-23,24.7,1.2,6.7,12.1.5,1v-2.1l-6.4-11.5,6.4-12.9c0-.8,0-1.5,0-2.3l-1.6,3.2-5.7,11.5-12.4-.6-12.4-.6-6.7-12.1-6.7-12.1,5.7-11.5,5.7-11.5,24.7,1.2,6.7,12.1,2.6,4.8c0-.7,0-1.4,0-2.1l-8.5-15.3,8.5-17.2v-2.3l-3.7,7.5-5.7,11.5-12.4-.6-12.4-.6-6.7-12.1-6.7-12.1,5.7-11.5,5.7-11.5,24.7,1.2,6.7,12.1,4.7,8.6c0-.7,0-1.4,0-2.1l-10.6-19.1,10.6-21.4c0-1.3,0-2.6,0-3.9l-12.7-22.9,11.3-23h1.3c0-.3,0-.6,0-1h-1.3c0,0-13.4-24.3-13.4-24.3l11.3-23,3.4.2v-1l-3.4-.2-13.4-24.3,11.3-23,5.5.3v-1l-5.5-.3-13.4-24.3,11.3-23,7.6.4c0-.3,0-.7,0-1l-7.6-.4-13.4-24.3,11.3-23,9.7.5c0-.3,0-.7,0-1l-9.7-.5-13.4-24.3,11.3-23,11.8.6c0-.3,0-.7,0-1l-11.8-.6-13.4-24.3,11.3-23,12.4.6h1.6v-1l-13.9-.7-13.4-24.3,7.1-14.4c-.3-.1-.6-.2-1-.3l-1.4,2.8-5.7,11.5-24.7-1.2-13.4-24.3,1-2c-.8.4-1.6.8-2.4,1.3-.7.4-1.3.7-2,1.1h2.5Zm-28.3,58.5l5.7-11.5,12.4.6,12.4.6,13.4,24.3-11.3,23-12.4-.6-12.4-.6-6.7-12.1-6.7-12.1,5.7-11.5Zm10.3,397.2l-24.7-1.2-13.4-24.3,11.3-23,12.4.6,12.4.6,13.4,24.3-11.3,23Zm0,1l13.4,24.3-11.3,23-24.7-1.2-13.4-24.3,11.3-23,12.4.6,12.4.6Zm-2.1-49.3l-24.7-1.2-13.4-24.3,11.3-23,12.4.6,12.4.6,13.4,24.3-11.3,23Zm-33.1-193.3l12.4.6,12.4.6,13.4,24.3-11.3,23-24.7-1.2-6.7-12.1-6.7-12.1,5.7-11.5,5.7-11.5Zm0-1l-6.7-12.1-6.7-12.1,5.7-11.5,5.7-11.5,24.7,1.2,13.4,24.3-11.3,23-24.7-1.2Zm2.1,49.3l12.4.6,12.4.6,13.4,24.3-11.3,23-12.4-.6-12.4-.6-13.4-24.3,5.7-11.5,5.7-11.5Zm2.1,48.3l24.7,1.2,13.4,24.3-11.3,23-24.7-1.2-13.4-24.3,11.3-23Zm34.4,61.1l-6.7-12.1,5.7-11.5,5.7-11.5,12.4.6,12.4.6,13.4,24.3-11.3,23-12.3-.6-12.3-.6-6.7-12.1Zm29.3-34.9l-24.7-1.2-6.7-12.1-6.7-12.1,5.7-11.5,5.7-11.5,24.7,1.2,13.4,24.3-11.3,23Zm-2.1-48.3l-12.4-.6-12.4-.6-6.7-12.1-6.7-12.1,5.7-11.5,5.7-11.5,12.4.6,12.4.6,13.4,24.3-11.3,23Zm-2.1-48.3l-24.7-1.2-6.7-12.1-6.7-12.1,5.7-11.5,5.7-11.5,12.4.6,12.4.6,13.4,24.3-11.3,23Zm-2.1-48.3l-24.7-1.2-6.7-12.1-6.7-12.1,5.7-11.5,5.7-11.5,24.7,1.2,13.4,24.3-11.3,23Zm-2.1-48.3l-12.4-.6-12.4-.6-6.7-12.1-6.7-12.1,11.3-23,24.7,1.2,13.4,24.3-11.3,23Zm-70.4-39.4l-6.7-12.1,5.7-11.5,5.7-11.5,12.4.6,12.4.6,13.4,24.3-5.7,11.5-5.7,11.5-12.4-.6-12.4-.6-6.7-12.1Zm1,24.7l5.7-11.5,24.7,1.2,13.4,24.3-11.3,23-12.4-.6-12.4-.6-6.7-12.1-6.7-12.1,5.7-11.5Zm-42.6,33.7l11.3-23,24.7,1.2,13.4,24.3-11.3,23-24.7-1.2-13.4-24.3Zm2.1,48.3l11.3-23,12.4.6,12.4.6,13.4,24.3-11.3,23-24.7-1.2-13.4-24.3Zm2.1,48.3l11.3-23,12.4.6,12.4.6,13.4,24.3-11.3,23-24.7-1.2-13.4-24.3Zm8.8,60.4l-6.7-12.1,5.7-11.5,5.7-11.5,12.4.6,12.4.6,6.7,12.1,6.7,12.1-5.7,11.5-5.7,11.5-24.7-1.2-6.7-12.1Zm2.1,48.3l-6.7-12.1,5.7-11.5,5.7-11.5,12.4.6,12.4.6,6.7,12.1,6.7,12.1-5.7,11.5-5.7,11.5-24.7-1.2-6.7-12.1Zm-4.6,36.1l5.7-11.5,5.7-11.5,12.3.6,12.4.6,6.7,12.1,6.7,12.1-5.7,11.5-5.7,11.5-24.7-1.2-13.4-24.3Zm2.1,48.3l11.3-23,12.4.6,12.4.6,6.7,12.1,6.7,12.1-5.7,11.5-5.7,11.5-12.4-.6-12.4-.6-13.4-24.3Zm40.2,73.8l-12.3-.6-12.3-.6-13.4-24.3,11.3-23,24.7,1.2,6.7,12.1,6.7,12.1-5.7,11.5-5.7,11.5Zm44.7,14.6l-5.7,11.5-12.4-.6-12.4-.6-13.4-24.3,11.3-23,12.4.6,12.4.6,13.4,24.3-5.7,11.5Zm42.6-33.7l-5.7,11.5-5.7,11.5-12.4-.6-12.4-.6-6.7-12.1-6.7-12.1,5.7-11.5,5.7-11.5,12.4.6,12.4.6,13.4,24.3Zm-2.1-48.3l-11.3,23-24.7-1.2-6.7-12.1-6.7-12.1,5.7-11.5,5.7-11.5,12.4.6,12.4.6,13.4,24.3Zm-13.4-25.3l-24.7-1.2-6.7-12.1-6.7-12.1,5.7-11.5,5.7-11.5,24.7,1.2,13.4,24.3-11.3,23Zm41.5-57.3l6.7,12.1-5.7,11.5-5.7,11.5-12.4-.6-12.4-.6-6.7-12.1-6.7-12.1,5.7-11.5,5.7-11.5,24.7,1.2,6.7,12.1Zm-2.1-48.3l6.7,12.1-5.7,11.5-5.7,11.5-12.4-.6-12.4-.6-6.7-12.1-6.7-12.1,5.7-11.5,5.7-11.5,12.4.6,12.4.6,6.7,12.1Zm-2.1-48.3l6.7,12.1-5.7,11.5-5.7,11.5-24.7-1.2-6.7-12.1-6.7-12.1,5.7-11.5,5.7-11.5,12.4.6,12.4.6,6.7,12.1Zm-2.1-48.3l6.7,12.1-5.7,11.5-5.7,11.5-24.7-1.2-6.7-12.1-6.7-12.1,5.7-11.5,5.7-11.5,12.4.6,12.4.6,6.7,12.1Zm-2.1-48.3l6.7,12.1-5.7,11.5-5.7,11.5-24.7-1.2-6.7-12.1-6.7-12.1,5.7-11.5,5.7-11.5,12.4.6,12.4.6,6.7,12.1Zm-2.1-48.3l6.7,12.1-5.7,11.5-5.7,11.5-24.7-1.2-6.7-12.1-6.7-12.1,5.7-11.5,5.7-11.5,24.7,1.2,6.7,12.1Zm-2.1-48.3l6.7,12.1-5.7,11.5-5.7,11.5-12.3-.6-12.3-.6-6.7-12.1-6.7-12.1,5.7-11.5,5.7-11.5,12.4.6,12.4.6,6.7,12.1Zm-33.5-61.7l12.4.6,12.4.6,6.7,12.1,6.7,12.1-5.7,11.5-5.7,11.5-24.7-1.2-6.7-12.1-6.7-12.1,5.7-11.5,5.7-11.5Zm-28.1,528.5l1.3,2.3c-11,2.6-21.8,5.8-32.4,9.6l6.5-13.1,24.7,1.2Zm-96.6-198.6h-1c-.8-13.9-1.8-27.7-3.1-41.6-.2-1.9-.4-3.9-.6-5.8l14.9.7,13.4,24.3-11.3,23-12.3-.6Zm65.4,208.3l-1.3,2.6c-2.3.8-4.5,1.6-6.8,2.4-4.8,1.8-9.5,3.7-14.2,5.6l-8.1-.4-13.4-24.3,11.3-23,24.7,1.2,6.7,12.1,6.7,12.1-5.7,11.5Zm-48.8-111.1l-12.6-.6c-.6-15.8-1.2-31.5-2.1-47.2l12.6.6,13.4,24.3-11.3,23Zm2.1,48.3l-13.2-.7c-.3-12.3-.7-24.6-1.1-36.9-.1-3.4-.2-6.9-.4-10.3h.2s12.4.6,12.4.6l13.4,24.3-11.3,23Zm-16.5-97.2h-.3c0-1.2-.1-2.5-.2-3.7-.9-14.5-1.6-29-2.5-43.6l13.2.7,13.4,24.3-11.3,23-12.4-.6Zm32.1,170.8l-2.1,4.3c-3.2,1.2-6.3,2.4-9.5,3.5-13.6,4.7-14,4.4-14.7-10.2-.3-7.5-.6-15.1-.9-22.6h1.4c0,0,12.4.7,12.4.7l13.4,24.3Zm-36.3-267.4h-2.7c-1.6-16-3.4-31.8-5.5-47.5l6.1.3,12.4.6,6.7,12.1,6.7,12.1-11.3,23-12.4-.6Zm37.1,267.9l5.8.3c-2.5,1-5,2-7.4,3l1.6-3.3Zm-14.3-25.8l-13.8-.7c-.6-15.7-1-31.5-1.4-47.2h.8s12.4.7,12.4.7l13.4,24.3-11.3,23Zm139.2-281.1l6.7,12.1,6.7,12.1-5.7,11.5-5.7,11.5-24.7-1.2-6.7-12.1-6.7-12.1,5.7-11.5,5.7-11.5,12.4.6,12.4.6Zm-2.1-48.3l6.7,12.1,6.7,12.1-5.7,11.5-5.7,11.5-24.7-1.2-6.7-12.1-6.7-12.1,5.7-11.5,5.7-11.5,12.4.6,12.4.6Zm-2.1-48.3l6.7,12.1,6.7,12.1-5.7,11.5-5.7,11.5-24.7-1.2-6.7-12.1-6.7-12.1,5.7-11.5,5.7-11.5,12.4.6,12.4.6Zm6.3,144.8l6.7,12.1,6.7,12.1-5.7,11.5-5.7,11.5-12.4-.6-12.4-.6-6.7-12.1-6.7-12.1,5.7-11.5,5.7-11.5,12.4.6,12.4.6Zm2.1,48.3l6.7,12.1,6.7,12.1-5.7,11.5-5.7,11.5-12.4-.6-12.4-.6-6.7-12.1-6.7-12.1,5.7-11.5,5.7-11.5,24.7,1.2Zm-45.1-327.7l5.7-11.5,12.4.6,12.4.6,6.7,12.1,6.7,12.1-5.7,11.5-5.7,11.5-24.7-1.2-6.7-12.1-6.7-12.1,5.7-11.5Zm8.2,350l13.4,24.3-11.3,23-24.7-1.2-6.7-12.1-6.7-12.1,5.7-11.5,5.7-11.5,24.7,1.2Zm-76.3-318l-6.8-12.3c5.6-7,11.4-13.9,17.6-20.4,4-4.2,8.2-8.2,12.5-12l12.7,23-11.3,23-24.7-1.2Zm100.6,6.1l6.7,12.1,6.7,12.1-5.7,11.5-5.7,11.5-12.3-.6-12.3-.6-6.7-12.1-6.7-12.1,5.7-11.5,5.7-11.5,12.4.6,12.4.6Zm2.1,48.3l6.7,12.1,6.7,12.1-5.7,11.5-5.7,11.5-24.7-1.2-6.7-12.1-6.7-12.1,5.7-11.5,5.7-11.5,24.7,1.2Zm-137.5,16.2l-13.3-24c5.4-7.5,10.5-15.3,15.7-23l20.2,1,13.4,24.3-11.3,23-12.3-.6-12.3-.6Zm12.6,289.7l-13.4-24.3,5.7-11.5,5.7-11.5,12.3.6,12.4.6,6.7,12.1,6.7,12.1-5.7,11.5-5.7,11.5-24.7-1.2Zm-20.6-169.6l-18.6-.9c-2.1-15.9-4.5-31.7-7.1-47.5l23.5,1.2,6.7,12.1,6.7,12.1-5.7,11.5-5.7,11.5Zm75.1-176.7l-6.7-12.1,5.7-11.5,5.7-11.5,12.4.6,12.4.6,13.4,24.3-11.3,23-12.4-.6-12.4-.6-6.7-12.1Zm-104,78.9l-6.2-11.2c.6-2.1,1.8-4.1,4-5.9,9.7-8.4,17.8-18.1,25.2-28.3l6.4,11.5,6.7,12.1-5.7,11.5-5.7,11.5-24.7-1.2Zm14.4,48.9l-11.3-.6c-2.2-13.2-4.5-26.4-6.9-39.6l3.8-7.7,12.4.6,12.4.6,6.7,12.1,6.7,12.1-5.7,11.5-5.7,11.5-12.3-.6Zm87.4-176.1l-6.1-11c10.1-8.7,21.2-16.3,32.9-22.9h2.5c0,.1,6.7,12.3,6.7,12.3l6.7,12.1-11.3,23-24.7-1.2-6.7-12.1Zm-50.3,442.9l-13.4-24.3,11.3-23,12.4.6,12.4.6,6.7,12.1,6.7,12.1-5.7,11.5-5.7,11.5-12.4-.6-12.4-.6Zm100.6,6.1l13.4,24.3-5.7,11.5-5.7,11.5-12.4-.6-12.4-.6-6.7-12.1-6.7-12.1,5.7-11.5,5.7-11.5,12.4.6,12.4.6Zm-36.9,22.2l13.4,24.3-5.7,11.5-5.7,11.5-12.4-.6-12.4-.6-13.4-24.3,11.3-23,12.4.6,12.4.6Zm-31.2,9.7l-5.7,11.5-12.3-.6-12.3-.6-13.4-24.3,11.3-23,24.7,1.2,6.7,12.1,6.7,12.1-5.7,11.5Zm66-80.2l13.4,24.3-11.3,23-24.7-1.2-6.7-12.1-6.7-12.1,5.7-11.5,5.7-11.5,12.4.6,12.4.6Zm-79.2-100.9l11.3-23,24.7,1.2,13.4,24.3-11.3,23-24.7-1.2-13.4-24.3Zm3.6-59.8l5.7-11.5,12.4.6,12.4.6,13.4,24.3-11.3,23-12.4-.6-12.4-.6-13.4-24.3,5.7-11.5Zm82.8,40.1l-11.3,23-24.7-1.2-6.7-12.1-6.7-12.1,5.7-11.5,5.7-11.5,24.7,1.2,13.4,24.3Zm29.4-214.8l11.8.6c0,15.7,0,31.4,0,47.1l-9.7-.5-13.4-24.3,11.3-23Zm-63.3,284.8l-6.7-12.1-6.7-12.1,5.7-11.5,5.7-11.5,12.4.6,12.4.6,13.4,24.3-11.3,23-12.3-.6-12.3-.6Zm27.6-214.8l-11.3,23-24.7-1.2-6.7-12.1-6.7-12.1,5.7-11.5,5.7-11.5,24.7,1.2,13.4,24.3Zm4.2,96.6l-11.3,23-12.4-.6-12.4-.6-6.7-12.1-6.7-12.1,5.7-11.5,5.7-11.5,12.4.6,12.4.6,13.4,24.3Zm-2.1-48.3l-11.3,23-24.7-1.2-6.7-12.1-6.7-12.1,5.7-11.5,5.7-11.5,12.4.6,12.4.6,13.4,24.3Zm35.7-70l9.7.5c0,15.7,0,31.4,0,47.1l-7.6-.4-13.4-24.3,11.3-23Zm2.1,48.3l7.6.4c0,15.7,0,31.4,0,47.1l-5.5-.3-13.4-24.3,11.3-23Zm-58.7-196.2l1-2c3.9-2.1,7.8-4.2,11.7-6.3,4.1-2.2,7.4-1.8,10.6,1.9,4.2,4.7,8.2,9.7,13.4,13.4,2.6,1.9,5.5,3.2,8.5,4.3l-1.4,2.8-5.7,11.5-24.7-1.2-13.4-24.3Zm-31.2,456.7l12.4.6,13.4,24.3-11.3,23-24.7-1.2-13.4-24.3,11.3-23,12.4.6Zm23.7-23.4l-11.3,23-24.7-1.2-13.4-24.3,11.3-23,12.4.6,12.4.6,13.4,24.3Zm-2.1-48.3l-11.3,23-24.7-1.2-13.4-24.3,11.3-23,12.4.6,12.4.6,13.4,24.3Zm-50.1-158.9l5.7-11.5,12.4.6,12.4.6,13.4,24.3-11.3,23-24.7-1.2-6.7-12.1-6.7-12.1,5.7-11.5Zm30.4-11.3l-24.7-1.2-6.7-12.1-6.7-12.1,5.7-11.5,5.7-11.5,24.7,1.2,13.4,24.3-11.3,23Zm94.1-162.9h1.6c0,15.8,0,31.5,0,47.2l-11.8-.6-13.4-24.3,11.3-23,12.4.6Zm-35.8,491.8l3.1,5.6c-5.7.4-11.4,1-17.1,1.7-9.2,1.1-18.4,2.8-27.3,4.9l-1.4-2.6,11.3-23,24.7,1.2,6.7,12.1Zm10.1-517.7l7.1-14.4c3.6,1.2,7.4,1.9,11.1,2.7,7.5,1.5,8,2,8.9,9.5.3,2.3.2,4.7.2,7,0,6.8,0,13.5,0,20.3l-13.9-.7-13.4-24.3Zm22.6,398.9l4.7,8.6c0,2.5,0,5.1,0,7.6l-3.7,7.5-5.7,11.5-12.4-.6-12.4-.6-6.7-12.1-6.7-12.1,5.7-11.5,5.7-11.5,24.7,1.2,6.7,12.1Zm2.1,48.3l2.6,4.8c0,5.2,0,10.4,0,15.7l-1.6,3.2-5.7,11.5-12.4-.6-12.4-.6-6.7-12.1-6.7-12.1,5.7-11.5,5.7-11.5,24.7,1.2,6.7,12.1Zm-5.8-12.7l8.5-17.2c0,10.8,0,21.7,0,32.5l-8.5-15.3Zm-148.8-224.7l-13.4-24.3,11.3-23,12.4.6,12.4.6,13.4,24.3-11.3,23-24.7-1.2Zm2.1,48.3l-13.4-24.3,11.3-23,12.4.6,12.4.6,13.4,24.3-11.3,23-24.7-1.2Zm148.8,224.7l6.4-12.9c0,8.2,0,16.3,0,24.5l-6.4-11.5Zm5.8,12.7l.5,1c0,2.9,0,5.8,0,8.7,0,2.2,0,4.3,0,6.5-.8,8.8-2.5,10.4-11.5,10.6-7.2.2-14.4.5-21.6,1.1l-10.1-18.2,11.3-23,24.7,1.2,6.7,12.1Zm-150.5-140.8l-6.7-12.1-6.7-12.1,5.7-11.5,5.7-11.5,12.4.6,12.4.6,6.7,12.1,6.7,12.1-5.7,11.5-5.7,11.5-24.7-1.2Zm-2.1-48.3l-6.7-12.1-6.7-12.1,5.7-11.5,5.7-11.5,12.4.6,12.4.6,6.7,12.1,6.7,12.1-5.7,11.5-5.7,11.5-24.7-1.2Zm149.7-39.6l3.4.2c0,15.7,0,31.4,0,47.1h-1.3c0,0-13.4-24.3-13.4-24.3l11.3-23Zm-125.8-139.6l-6.7-12.1,5.7-11.5,5.7-11.5,24.7,1.2,13.4,24.3-11.3,23-12.4-.6-12.4-.6-6.7-12.1Zm118.7,259.1l10.6-21.4c0,13.5,0,27,0,40.6l-10.6-19.1Zm-148.8-224.7l-13.4-24.3,11.3-23,24.7,1.2,13.4,24.3-11.3,23-24.7-1.2Zm34.8-70.5l-6.7-12.1-6.7-12.1,5.7-11.5,5.7-11.5,12.4.6,12.4.6,13.4,24.3-5.7,11.5-5.7,11.5-12.4-.6-12.4-.6Zm119.1,127.4l5.5.3c0,12.1,0,24.3,0,36.4s0,7.1,0,10.7l-3.4-.2-13.4-24.3,11.3-23Zm4.2,96.6h1.3c0,15.3,0,30.6,0,45.9l-12.7-22.9,11.3-23Zm-48.3-219.7l-11.3,23-12.4-.6-12.4-.6-6.7-12.1-6.7-12.1,11.3-23,24.7,1.2,13.4,24.3Zm-101.7-29.7l-7.2-.4c.9-1.3,1.8-2.7,2.7-4,6.9-10.2,14-20.3,21.6-29.9l6.6,12-11.3,23-12.3-.6Zm249.1-90.4c-.7-.4-1.3-.8-2-1.1-.8-.4-1.6-.9-2.4-1.3l1,2-13.4,24.3-24.7,1.2-5.7-11.5-1.4-2.8c-.3.1-.6.2-1,.3l7.1,14.4-13.4,24.3-13.9.7v1s1.6,0,1.6,0l12.4-.6,11.3,23-13.4,24.3-11.8.6c0,.3,0,.7,0,1l11.8-.6,11.3,23-13.4,24.3-9.7.5c0,.3,0,.7,0,1l9.7-.5,11.3,23-13.4,24.3-7.6.4c0,.3,0,.7,0,1l7.6-.4,11.3,23-13.4,24.3-5.5.3v1s5.5-.3,5.5-.3l11.3,23-13.4,24.3-3.4.2v1s3.4-.2,3.4-.2l11.3,23-13.4,24.3h-1.3c0,.4,0,.8,0,1.1h1.3c0,0,11.3,22.9,11.3,22.9l-12.7,22.9c0,1.3,0,2.6,0,3.9l10.6,21.4-10.6,19.1c0,.7,0,1.4,0,2.1l4.7-8.6,6.7-12.1,24.7-1.2,5.7,11.5,5.7,11.5-6.7,12.1-6.7,12.1-12.4.6-12.4.6-5.7-11.5-3.7-7.5v2.3s8.5,17.2,8.5,17.2l-8.5,15.3c0,.7,0,1.4,0,2.1l2.6-4.8,6.7-12.1,24.7-1.2,5.7,11.5,5.7,11.5-6.7,12.1-6.7,12.1-12.4.6-12.4.6-5.7-11.5-1.6-3.2c0,.8,0,1.5,0,2.3l6.4,12.9-6.4,11.5v2.1s.5-1,.5-1l6.7-12.1,24.7-1.2,11.3,23-10.1,18.2c.4,0,.7,0,1.1,0l3.1-5.6,6.7-12.1,24.7-1.2,11.3,23-1.4,2.6c.3,0,.7.2,1,.2l1.3-2.3,24.7-1.2,6.5,13.1c.5.2.9.3,1.4.5l-1.3-2.6-5.7-11.5,6.7-12.1,6.7-12.1,24.7-1.2,11.3,23-13.4,24.3-8.1.4c.8.3,1.5.6,2.3.9l5.8-.3,1.6,3.3c.5.2.9.4,1.4.6l-2.1-4.3,13.4-24.3,12.4-.6h1.4c0-.4,0-.8,0-1.1l-13.8.7-11.3-23,13.4-24.3,12.4-.6h.8c0-.4,0-.7,0-1.1l-13.2.7-11.3-23,13.4-24.3,12.4-.6h.2c0-.4,0-.7,0-1.1l-12.6.6-11.3-23,13.4-24.3,12.6-.6c0-.3,0-.7,0-1h-.3s-12.4.6-12.4.6l-11.3-23,13.4-24.3,13.2-.7c0-.3,0-.7,0-1h-1s-12.3.7-12.3.7l-11.3-23,13.4-24.3,14.9-.7c0-.4,0-.7.1-1.1h-2.7c0,.1-12.4.8-12.4.8l-11.3-23,6.7-12.1,6.7-12.1,12.4-.6,6.1-.3c0-.4,0-.7.1-1.1l-18.6.9-5.7-11.5-5.7-11.5,6.7-12.1,6.7-12.1,23.5-1.2c0-.4.1-.7.2-1.1l-11.3.6-12.3.6-5.7-11.5-5.7-11.5,6.7-12.1,6.7-12.1,12.4-.6,12.4-.6,3.8,7.7c.8-4.3,1.6-8.6,2.4-12.9.5-2.5.5-4.9,0-7.1l-6.2,11.2-24.7,1.2-5.7-11.5-5.7-11.5,6.7-12.1,6.4-11.5c-.2-.3-.4-.6-.7-.9l-13.3,24-12.3.6-12.3.6-11.3-23,13.4-24.3,20.2-1c-.2-.3-.4-.7-.7-1l-7.2.4-12.3.6-11.3-23,6.6-12c-.2-.3-.4-.6-.7-.9l-6.8,12.3-24.7,1.2-11.3-23,12.7-23c-.3-.2-.5-.5-.8-.7l-6.1,11-6.7,12.1-24.7,1.2-11.3-23,6.7-12.1,6.7-12.1h2.5Zm31.4,70.1l-6.7,12.1-6.7,12.1-12.4.6-12.4.6-11.3-23,13.4-24.3,12.4-.6,12.4-.6,5.7,11.5,5.7,11.5Zm-27.2,362.8l13.4-24.3,12.4-.6,12.4-.6,11.3,23-13.4,24.3-24.7,1.2-11.3-23Zm23.7,23.4l12.4-.6,11.3,23-13.4,24.3-24.7,1.2-11.3-23,13.4-24.3,12.4-.6Zm-21.6-71.7l13.4-24.3,12.4-.6,12.4-.6,11.3,23-13.4,24.3-24.7,1.2-11.3-23Zm50.1-158.9l5.7,11.5-6.7,12.1-6.7,12.1-24.7,1.2-11.3-23,13.4-24.3,12.4-.6,12.4-.6,5.7,11.5Zm-30.4-11.3l-11.3-23,13.4-24.3,24.7-1.2,5.7,11.5,5.7,11.5-6.7,12.1-6.7,12.1-24.7,1.2Zm28.3,59.6l5.7,11.5-13.4,24.3-12.4.6-12.4.6-11.3-23,13.4-24.3,12.4-.6,12.4-.6,5.7,11.5Zm3.6,59.8l-13.4,24.3-24.7,1.2-11.3-23,13.4-24.3,24.7-1.2,11.3,23Zm-52.4,50.3l-12.3.6-12.3.6-11.3-23,13.4-24.3,12.4-.6,12.4-.6,5.7,11.5,5.7,11.5-6.7,12.1-6.7,12.1Zm-33.9-70l13.4-24.3,24.7-1.2,5.7,11.5,5.7,11.5-6.7,12.1-6.7,12.1-24.7,1.2-11.3-23Zm2.1-48.3l13.4-24.3,12.4-.6,12.4-.6,5.7,11.5,5.7,11.5-6.7,12.1-6.7,12.1-12.4.6-12.4.6-11.3-23Zm2.1-48.3l13.4-24.3,12.4-.6,12.4-.6,5.7,11.5,5.7,11.5-6.7,12.1-6.7,12.1-24.7,1.2-11.3-23Zm2.1-48.3l13.4-24.3,24.7-1.2,5.7,11.5,5.7,11.5-6.7,12.1-6.7,12.1-24.7,1.2-11.3-23Zm2.1-48.3l13.4-24.3,24.7-1.2,11.3,23-6.7,12.1-6.7,12.1-12.4.6-12.4.6-11.3-23Zm75-4.3l-12.4.6-12.4.6-5.7-11.5-5.7-11.5,13.4-24.3,12.4-.6,12.4-.6,5.7,11.5,5.7,11.5-6.7,12.1-6.7,12.1Zm11.3,24l-6.7,12.1-6.7,12.1-12.4.6-12.4.6-11.3-23,13.4-24.3,24.7-1.2,5.7,11.5,5.7,11.5Zm23.5,46.5l-24.7,1.2-11.3-23,13.4-24.3,24.7-1.2,11.3,23-13.4,24.3Zm-2.1,48.3l-24.7,1.2-11.3-23,13.4-24.3,12.4-.6,12.4-.6,11.3,23-13.4,24.3Zm-2.1,48.3l-24.7,1.2-11.3-23,13.4-24.3,12.4-.6,12.4-.6,11.3,23-13.4,24.3Zm-2.1,48.3l-24.7,1.2-5.7-11.5-5.7-11.5,6.7-12.1,6.7-12.1,12.4-.6,12.4-.6,5.7,11.5,5.7,11.5-6.7,12.1-6.7,12.1Zm-2.1,48.3l-24.7,1.2-5.7-11.5-5.7-11.5,6.7-12.1,6.7-12.1,12.4-.6,12.4-.6,5.7,11.5,5.7,11.5-6.7,12.1-6.7,12.1Zm-2.1,48.3l-24.7,1.2-5.7-11.5-5.7-11.5,6.7-12.1,6.7-12.1,12.4-.6,12.3-.6,5.7,11.5,5.7,11.5-13.4,24.3Zm-2.1,48.3l-12.4.6-12.4.6-5.7-11.5-5.7-11.5,6.7-12.1,6.7-12.1,12.4-.6,12.4-.6,11.3,23-13.4,24.3Zm-32.5,38l-5.7-11.5,6.7-12.1,6.7-12.1,24.7-1.2,11.3,23-13.4,24.3-12.3.6-12.3.6-5.7-11.5Zm-44.7,14.6l13.4-24.3,12.4-.6,12.4-.6,11.3,23-13.4,24.3-12.4.6-12.4.6-5.7-11.5-5.7-11.5Zm-23.5-46.5l12.4-.6,12.4-.6,5.7,11.5,5.7,11.5-6.7,12.1-6.7,12.1-12.4.6-12.4.6-5.7-11.5-5.7-11.5,13.4-24.3Zm2.1-48.3l12.4-.6,12.4-.6,5.7,11.5,5.7,11.5-6.7,12.1-6.7,12.1-24.7,1.2-11.3-23,13.4-24.3Zm-11.3-24l13.4-24.3,24.7-1.2,5.7,11.5,5.7,11.5-6.7,12.1-6.7,12.1-24.7,1.2-11.3-23Zm-23.5-46.5l24.7-1.2,5.7,11.5,5.7,11.5-6.7,12.1-6.7,12.1-12.4.6-12.4.6-5.7-11.5-5.7-11.5,6.7-12.1,6.7-12.1Zm2.1-48.3l12.4-.6,12.4-.6,5.7,11.5,5.7,11.5-6.7,12.1-6.7,12.1-12.4.6-12.4.6-5.7-11.5-5.7-11.5,6.7-12.1,6.7-12.1Zm2.1-48.3l12.4-.6,12.4-.6,5.7,11.5,5.7,11.5-6.7,12.1-6.7,12.1-24.7,1.2-5.7-11.5-5.7-11.5,6.7-12.1,6.7-12.1Zm2.1-48.3l12.4-.6,12.4-.6,5.7,11.5,5.7,11.5-6.7,12.1-6.7,12.1-24.7,1.2-5.7-11.5-5.7-11.5,6.7-12.1,6.7-12.1Zm2.1-48.3l12.4-.6,12.4-.6,5.7,11.5,5.7,11.5-6.7,12.1-6.7,12.1-24.7,1.2-5.7-11.5-5.7-11.5,6.7-12.1,6.7-12.1Zm2.1-48.3l24.7-1.2,5.7,11.5,5.7,11.5-6.7,12.1-6.7,12.1-24.7,1.2-5.7-11.5-5.7-11.5,6.7-12.1,6.7-12.1Zm2.1-48.3l12.4-.6,12.4-.6,5.7,11.5,5.7,11.5-6.7,12.1-6.7,12.1-12.3.6-12.3.6-5.7-11.5-5.7-11.5,6.7-12.1,6.7-12.1Zm32.5-38l5.7,11.5-6.7,12.1-6.7,12.1-24.7,1.2-5.7-11.5-5.7-11.5,6.7-12.1,6.7-12.1,12.4-.6,12.4-.6,5.7,11.5Zm47.1,515.8l6.5,13.1c-10.7-3.7-21.5-7-32.4-9.6l1.3-2.3,24.7-1.2Zm59.6-196.7l-11.3-23,13.4-24.3,14.9-.7c-.2,1.9-.4,3.9-.6,5.8-1.3,13.8-2.3,27.7-3.1,41.5h-1s-12.3.7-12.3.7Zm-58.7,196.2l6.7-12.1,6.7-12.1,24.7-1.2,11.3,23-13.4,24.3-8.1.4c-4.7-1.9-9.4-3.8-14.2-5.6-2.2-.8-4.5-1.6-6.8-2.4l-1.3-2.6-5.7-11.5Zm43.2-122.6l13.4-24.3,12.6-.6c-.9,15.7-1.5,31.5-2.1,47.2l-12.6.6-11.3-23Zm-2.1,48.3l13.4-24.3,12.4-.6h.2c-.1,3.4-.2,6.9-.4,10.3-.4,12.3-.8,24.6-1.1,36.9l-13.2.7-11.3-23Zm15.5-73.6l-11.3-23,13.4-24.3,13.2-.7c-.9,14.5-1.6,29-2.5,43.6,0,1.2-.1,2.5-.2,3.7h-.3s-12.4.6-12.4.6Zm-6.3,145.9l12.4-.6h1.4c-.3,7.5-.6,15-.9,22.6-.6,14.6-1,14.9-14.7,10.2-3.2-1.1-6.4-2.3-9.5-3.5l-2.1-4.3,13.4-24.3Zm10.5-242.5l-11.3-23,6.7-12.1,6.7-12.1,12.4-.6,6.1-.3c-2.1,15.8-3.9,31.6-5.5,47.4h-2.7c0,.1-12.4.8-12.4.8Zm-23.2,270.5c-2.5-1-5-2-7.4-3l5.8-.3,1.6,3.3Zm1.3-52.1l13.4-24.3,12.4-.6h.8c-.4,15.7-.9,31.4-1.4,47.2l-13.8.7-11.3-23Zm-115.5-258.7l12.4-.6,5.7,11.5,5.7,11.5-6.7,12.1-6.7,12.1-24.7,1.2-5.7-11.5-5.7-11.5,6.7-12.1,6.7-12.1,12.4-.6Zm2.1-48.3l12.4-.6,5.7,11.5,5.7,11.5-6.7,12.1-6.7,12.1-24.7,1.2-5.7-11.5-5.7-11.5,6.7-12.1,6.7-12.1,12.4-.6Zm2.1-48.3l12.4-.6,5.7,11.5,5.7,11.5-6.7,12.1-6.7,12.1-24.7,1.2-5.7-11.5-5.7-11.5,6.7-12.1,6.7-12.1,12.4-.6Zm-6.3,144.8l12.4-.6,5.7,11.5,5.7,11.5-6.7,12.1-6.7,12.1-12.4.6-12.4.6-5.7-11.5-5.7-11.5,6.7-12.1,6.7-12.1,12.4-.6Zm10.3,47.7l5.7,11.5,5.7,11.5-6.7,12.1-6.7,12.1-12.4.6-12.4.6-5.7-11.5-5.7-11.5,6.7-12.1,6.7-12.1,24.7-1.2Zm26-315l-6.7,12.1-6.7,12.1-24.7,1.2-5.7-11.5-5.7-11.5,6.7-12.1,6.7-12.1,12.4-.6,12.4-.6,5.7,11.5,5.7,11.5Zm10.9,337.3l5.7,11.5,5.7,11.5-6.7,12.1-6.7,12.1-24.7,1.2-11.3-23,13.4-24.3,24.7-1.2Zm26.9-315.5l-11.3-23,12.7-23c4.4,3.8,8.5,7.8,12.5,12,6.2,6.5,12,13.4,17.6,20.4l-6.8,12.3-24.7,1.2Zm-63.5,4.2l12.4-.6,5.7,11.5,5.7,11.5-6.7,12.1-6.7,12.1-12.3.6-12.3.6-5.7-11.5-5.7-11.5,6.7-12.1,6.7-12.1,12.4-.6Zm10.3,47.7l5.7,11.5,5.7,11.5-6.7,12.1-6.7,12.1-24.7,1.2-5.7-11.5-5.7-11.5,6.7-12.1,6.7-12.1,24.7-1.2Zm100.4,18l-12.3.6-11.3-23,13.4-24.3,20.2-1c5.1,7.7,10.2,15.5,15.7,23l-13.3,24-12.3.6Zm-24.9,290.3l-5.7-11.5-5.7-11.5,6.7-12.1,6.7-12.1,12.4-.6,12.3-.6,5.7,11.5,5.7,11.5-13.4,24.3-24.7,1.2Zm39.6-182.4l-5.7-11.5,6.7-12.1,6.7-12.1,23.5-1.2c-2.6,15.8-4.9,31.6-7.1,47.5l-18.6.9-5.7-11.5Zm-76.1-153l-12.4.6-12.4.6-11.3-23,13.4-24.3,12.4-.6,12.4-.6,5.7,11.5,5.7,11.5-6.7,12.1-6.7,12.1Zm86,68l-5.7-11.5-5.7-11.5,6.7-12.1,6.4-11.5c7.4,10.2,15.5,19.9,25.2,28.3,2.1,1.8,3.4,3.8,4,5.9l-6.2,11.2-24.7,1.2Zm-2.1,48.3l-5.7-11.5-5.7-11.5,6.7-12.1,6.7-12.1,12.4-.6,12.4-.6,3.8,7.7c-2.5,13.2-4.8,26.3-6.9,39.6l-11.3.6-12.3.6Zm-81.8-164.5l-24.7,1.2-11.3-23,6.7-12.1,6.7-12.1h2.5c11.7,6.5,22.8,14.1,32.9,22.8l-6.1,11-6.7,12.1Zm44.6,431.4l-12.4.6-5.7-11.5-5.7-11.5,6.7-12.1,6.7-12.1,12.4-.6,12.4-.6,11.3,23-13.4,24.3-12.4.6Zm-75.9,4.8l12.4-.6,5.7,11.5,5.7,11.5-6.7,12.1-6.7,12.1-12.4.6-12.4.6-5.7-11.5-5.7-11.5,13.4-24.3,12.4-.6Zm36.9,22.2l12.4-.6,11.3,23-13.4,24.3-12.4.6-12.4.6-5.7-11.5-5.7-11.5,13.4-24.3,12.4-.6Zm13.2-1.1l6.7-12.1,6.7-12.1,24.7-1.2,11.3,23-13.4,24.3-12.3.6-12.3.6-5.7-11.5-5.7-11.5Zm-48-69.4l12.4-.6,5.7,11.5,5.7,11.5-6.7,12.1-6.7,12.1-24.7,1.2-11.3-23,13.4-24.3,12.4-.6Zm53.4-76l-24.7,1.2-11.3-23,13.4-24.3,24.7-1.2,11.3,23-13.4,24.3Zm15.5-72.6l-13.4,24.3-12.4.6-12.4.6-11.3-23,13.4-24.3,12.4-.6,12.4-.6,5.7,11.5,5.7,11.5Zm-75,4.3l24.7-1.2,5.7,11.5,5.7,11.5-6.7,12.1-6.7,12.1-24.7,1.2-11.3-23,13.4-24.3Zm-31.5-167.6l-13.4,24.3-9.7.5c0-15.7,0-31.4,0-47.1l11.8-.6,11.3,23Zm39.6,262.5l-12.3.6-11.3-23,13.4-24.3,12.4-.6,12.4-.6,5.7,11.5,5.7,11.5-6.7,12.1-6.7,12.1-12.3.6Zm-1.9-239.7l24.7-1.2,5.7,11.5,5.7,11.5-6.7,12.1-6.7,12.1-24.7,1.2-11.3-23,13.4-24.3Zm-4.2,96.6l12.4-.6,12.4-.6,5.7,11.5,5.7,11.5-6.7,12.1-6.7,12.1-12.4.6-12.4.6-11.3-23,13.4-24.3Zm2.1-48.3l12.4-.6,12.4-.6,5.7,11.5,5.7,11.5-6.7,12.1-6.7,12.1-24.7,1.2-11.3-23,13.4-24.3Zm-37.8-22.8l-13.4,24.3-7.6.4c0-15.7,0-31.4,0-47.1l9.7-.5,11.3,23Zm-2.1,48.3l-13.4,24.3-5.5.3c0-15.7,0-31.4,0-47.1l7.6-.4,11.3,23Zm34-194.9l-24.7,1.2-5.7-11.5-1.4-2.8c3-1,5.8-2.4,8.5-4.3,5.2-3.7,9.2-8.7,13.4-13.4,3.2-3.6,6.5-4.1,10.6-1.9,3.9,2.1,7.8,4.2,11.7,6.3l1,2-13.4,24.3Zm57,431.8l11.3,23-13.4,24.3-24.7,1.2-11.3-23,13.4-24.3,12.4-.6,12.4-.6Zm-22.6-47l12.4-.6,12.4-.6,11.3,23-13.4,24.3-24.7,1.2-11.3-23,13.4-24.3Zm2.1-48.3l12.4-.6,12.4-.6,11.3,23-13.4,24.3-24.7,1.2-11.3-23,13.4-24.3Zm42.3-123.1l-6.7,12.1-6.7,12.1-24.7,1.2-11.3-23,13.4-24.3,12.4-.6,12.4-.6,5.7,11.5,5.7,11.5Zm-47.4-45.7l13.4-24.3,24.7-1.2,5.7,11.5,5.7,11.5-6.7,12.1-6.7,12.1-24.7,1.2-11.3-23Zm-70.5-140.5l11.3,23-13.4,24.3-11.8.6c0-15.7,0-31.4,0-47.1h1.6c0,0,12.4-.7,12.4-.7Zm30.2,480.3l24.7-1.2,11.3,23-1.4,2.6c-9-2.1-18.1-3.8-27.3-4.9-5.7-.7-11.4-1.2-17.1-1.7l3.1-5.6,6.7-12.1Zm-30.2-481.3l-13.9.7c0-6.8,0-13.5,0-20.3,0-2.3,0-4.7.2-7,.9-7.4,1.4-8,8.9-9.5,3.8-.7,7.5-1.5,11.1-2.7l7.1,14.4-13.4,24.3Zm-2.5,362.5l24.7-1.2,5.7,11.5,5.7,11.5-6.7,12.1-6.7,12.1-12.4.6-12.4.6-5.7-11.5-3.7-7.5c0-2.5,0-5.1,0-7.6l4.7-8.6,6.7-12.1Zm-2.1,48.3l24.7-1.2,5.7,11.5,5.7,11.5-6.7,12.1-6.7,12.1-12.4.6-12.4.6-5.7-11.5-1.6-3.2c0-5.2,0-10.4,0-15.7l2.6-4.8,6.7-12.1Zm-9.3,14.8c0-10.8,0-21.7,0-32.5l8.5,17.2-8.5,15.3Zm132.6-238.8l-11.3-23,13.4-24.3,12.4-.6,12.4-.6,11.3,23-13.4,24.3-24.7,1.2Zm-2.1,48.3l-11.3-23,13.4-24.3,12.4-.6,12.4-.6,11.3,23-13.4,24.3-24.7,1.2Zm-130.5,235c0-8.2,0-16.3,0-24.5l6.4,12.9-6.4,11.5Zm7.2-11l24.7-1.2,11.3,23-10.1,18.2c-7.2-.5-14.4-.9-21.6-1.1-8.9-.2-10.7-1.8-11.5-10.6-.2-2.1,0-4.3,0-6.5,0-2.9,0-5.8,0-8.7l.5-1,6.7-12.1Zm119.1-127.4l-5.7-11.5-5.7-11.5,6.7-12.1,6.7-12.1,12.4-.6,12.4-.6,5.7,11.5,5.7,11.5-6.7,12.1-6.7,12.1-24.7,1.2Zm2.1-48.3l-5.7-11.5-5.7-11.5,6.7-12.1,6.7-12.1,12.4-.6,12.4-.6,5.7,11.5,5.7,11.5-6.7,12.1-6.7,12.1-24.7,1.2Zm-113.6-17.9l-13.4,24.3h-1.3c0-15.6,0-31.4,0-47.1l3.4-.2,11.3,23Zm107.7-150.4l-12.4.6-12.4.6-11.3-23,13.4-24.3,24.7-1.2,5.7,11.5,5.7,11.5-6.7,12.1-6.7,12.1Zm-122.5,266.1c0-13.5,0-27,0-40.6l10.6,21.4-10.6,19.1Zm134.7-242.6l-11.3-23,13.4-24.3,24.7-1.2,11.3,23-13.4,24.3-24.7,1.2Zm-22.4-71.1l-12.4.6-5.7-11.5-5.7-11.5,13.4-24.3,12.4-.6,12.4-.6,5.7,11.5,5.7,11.5-6.7,12.1-6.7,12.1-12.4.6Zm-95.4,149.8l-13.4,24.3-3.4.2c0-3.6,0-7.1,0-10.7,0-12.1,0-24.3,0-36.4l5.5-.3,11.3,23Zm-4.2,96.6l-12.7,22.9c0-15.3,0-30.5,0-45.8h1.3c0,0,11.3,22.9,11.3,22.9Zm50.3-266.9l24.7-1.2,11.3,23-6.7,12.1-6.7,12.1-12.4.6-12.4.6-11.3-23,13.4-24.3Zm75.9-4.8l-11.3-23,6.6-12c7.6,9.7,14.7,19.7,21.6,29.9.9,1.3,1.8,2.7,2.7,4l-7.2.4-12.3.6Z"/></svg>