<?xml version="1.0" encoding="UTF-8"?><svg id="a" xmlns="http://www.w3.org/2000/svg" width="2048" height="2048" viewBox="0 0 2048 2048"><defs><style>.b{fill:#db2c2c;}.b,.c{stroke-width:0px;}.c{fill:#fff;}</style></defs><path class="c" d="m1404,1905.1h-355c-7.4,0-7.5,0-8.7-7.3-2.2-13.8-4.4-27.6-6.5-41.4-1-6.3-.7-6.6,6.1-6.6h727.9c9,0,9.1,0,7.4,9-2.4,13.3-5,26.5-7.2,39.8-.8,5.1-2.9,6.6-8.1,6.6-118.6,0-237.3,0-355.9,0ZM57,1818.2c2.2,12.3,4.5,24.5,6.8,36.8q1.3,7.2,8.9,7.2h536c34.8,0,69.7,0,104.5,0,4.6,0,6.8-.9,7.4-6,1.4-12.2,3.7-24.3,5.5-36.5,1.1-7.1.9-7.2-6.2-7.2H56.6c.2,2.5,0,4.1.4,5.6ZM801.8,151.6l-193.6,252.6-104.6.5-205.1-250.3c26.6-7.9,66.3-19.7,92.9-27.6,4.2-1.3,5.5-.2,5.9,4.1,1.9,24,6.2,47.5,14.8,70.1,12.8,33.3,32.1,61.7,62.7,81.3,23.1,14.8,48.6,23.7,76.1,22.1,6-.4,11.9-.9,17.7-1.7,61.3-8.6,103-44.1,127.3-104.6,9-22.4,15.1-45.6,18.9-69.3.3-1.3,1.4-1.4,1.9-3.3,5.8,1.8,11,3.3,16.2,5,23,7.1,45.9,14.2,68.9,21.2Zm580.8-24.8c-26.6,7.9-66.3,19.7-92.9,27.6m-733.7,893.6l183.1-317.1h-366.1s183.1,317.1,183.1,317.1Zm52.5-649.8h-105.1v443.8h105.1v-443.8Zm937.3,414.8h-14.4v637.1h14.4v-637.1Zm-53.2,638.5l-39.3,1.1-.4-614.4c0-138.9-93.2-458.9-140.2-591.7l49.9-15.4c47.3,133.6,135.7,456.3,135.7,596.8l-5.6,623.6Zm97.9-622.6c0-140.5,89.6-466,136.9-599.6l53.1,16.1c-47.1,132.8-144.8,454.9-144.8,593.8l-4.5,612.3-37-.5-3.8-622.1Zm24.1-631.1l11.7-41.5c37.3-6.6,37.4-5.9,40.4-6.7,11.6-2.8,26.8-11.4,37.9-21.6,2.6-2.3,5.4-2.2,8.7-1.2,22.2,6.9,44.4,13.7,66.7,20.6l.6,97.9v.5s-166-48.1-166-48.1Zm-301,48.8l5.1-100.3c21.1-6.2,42.1-12.5,63.2-18.8,4.7-1.4,9-2.3,11.8,2.1,6.1,9.4,14.7,14.8,25.1,17.4,14.6,3.7,29.5,7.3,44.5,9.1,1.4.2,3.1.4,4.5.5l11.7,42-166,48.1ZM82.1,701.9l424,393.6v4.3L82.1,707v-5.1Zm0-37.6l424,392.8v-4.3L82.1,659.2v5.1Zm0,85.4l424,392.8v-4.3L82.1,744.6v5.1Zm0,216.5l424,392.1v-5.1L82.1,960.6v5.7Zm0-344.7l424,392.8v-4.3L82.1,616.5v5.1Zm0-47.8v5.1l424,392.8v-4.3L82.1,573.8Zm0,218.7l424,392.8v-4.3L82.1,787.3v5.1Zm0,128.1l424,392.8v-4.3L82.1,915.5v5.1Zm0-42.7l424,392.8v-4.3L82.1,872.8v5.1Zm0-42.7l424,392.8v-4.3L82.1,830.1v5.1Zm949.4-122.5l-424,392.8v-4.3s424-393.6,424-393.6v5.1Zm0-47.8l-424,393.6v4.3s424-392.8,424-392.8v-5.1Zm0,85.4l-424,393.6v4.3s424-392.8,424-392.8v-5.1Zm0,215.9l-424,392.8v5.1s424-392.1,424-392.1v-5.7Zm0-344.1l-424,393.6v4.3s424-392.8,424-392.8v-5.1Zm-424,350.9v4.3s424-392.8,424-392.8v-5.1s-424,393.6-424,393.6Zm424-180.1l-424,393.6v4.3s424-392.8,424-392.8v-5.1Zm0,128.1l-424,393.6v4.3s424-392.8,424-392.8v-5.1Zm0-42.7l-424,393.6v4.3s424-392.8,424-392.8v-5.1Zm0-42.7l-424,393.6v4.3s424-392.8,424-392.8v-5.1Zm436.4-679.3l11.8,42.5-166.1,47.6m-510-94.9l-193.6,252.6-104.6.5-205.1-250.3c26.6-7.9,66.3-19.7,92.9-27.6,4.2-1.3,5.5-.2,5.9,4.1,1.9,24,6.2,47.5,14.8,70.1,12.8,33.3,32.1,61.7,62.7,81.3,23.1,14.8,48.6,23.7,76.1,22.1,6-.4,11.9-.9,17.7-1.7,61.3-8.6,104.6-43.1,128.9-103.6,9-22.4,14.3-45.7,18.1-69.4.3-1.3.6-2.4,1.1-4.3,5.8,1.8,11,3.3,16.2,5,23,7.1,45.9,14.2,68.9,21.2Z"/><path class="b" d="m1404,1905.1h-355c-7.4,0-7.5,0-8.7-7.3-2.2-13.8-4.4-27.6-6.5-41.4-1-6.3-.7-6.6,6.1-6.6h727.9c9,0,9.1,0,7.4,9-2.4,13.3-5,26.5-7.2,39.8-.8,5.1-2.9,6.6-8.1,6.6-118.6,0-237.3,0-355.9,0ZM57,1818.2c2.2,12.3,4.5,24.5,6.8,36.8q1.3,7.2,8.9,7.2h536c34.8,0,69.7,0,104.5,0,4.6,0,6.8-.9,7.4-6,1.4-12.2,3.7-24.3,5.5-36.5,1.1-7.1.9-7.2-6.2-7.2H56.6c.2,2.5,0,4.1.4,5.6ZM801.8,151.6l-193.6,252.6-104.6.5-205.1-250.3c26.6-7.9,66.3-19.7,92.9-27.6,4.2-1.3,5.5-.2,5.9,4.1,1.9,24,6.2,47.5,14.8,70.1,12.8,33.3,32.1,61.7,62.7,81.3,23.1,14.8,48.6,23.7,76.1,22.1,6-.4,11.9-.9,17.7-1.7,61.3-8.6,103-44.1,127.3-104.6,9-22.4,15.1-45.6,18.9-69.3.3-1.3,1.4-1.4,1.9-3.3,5.8,1.8,11,3.3,16.2,5,23,7.1,45.9,14.2,68.9,21.2Zm580.8-24.8c-26.6,7.9-66.3,19.7-92.9,27.6m-733.7,893.6l183.1-317.1h-366.1s183.1,317.1,183.1,317.1Zm52.5-649.8h-105.1v443.8h105.1v-443.8Zm937.3,414.8h-14.4v637.1h14.4v-637.1Zm-53.2,638.5l-39.3,1.1-.4-614.4c0-138.9-93.2-458.9-140.2-591.7l49.9-15.4c47.3,133.6,135.7,456.3,135.7,596.8l-5.6,623.6Zm97.9-622.6c0-140.5,89.6-466,136.9-599.6l53.1,16.1c-47.1,132.8-144.8,454.9-144.8,593.8l-4.5,612.3-37-.5-3.8-622.1Zm24.1-631.1l11.7-41.5c37.3-6.6,37.4-5.9,40.4-6.7,11.6-2.8,26.8-11.4,37.9-21.6,2.6-2.3,5.4-2.2,8.7-1.2,22.2,6.9,44.4,13.7,66.7,20.6l.6,97.9v.5s-166-48.1-166-48.1Zm-301,48.8l5.1-100.3c21.1-6.2,42.1-12.5,63.2-18.8,4.7-1.4,9-2.3,11.8,2.1,6.1,9.4,14.7,14.8,25.1,17.4,14.6,3.7,29.5,7.3,44.5,9.1,1.4.2,3.1.4,4.5.5l11.7,42-166,48.1ZM82.1,701.9l424,393.6v4.3L82.1,707v-5.1Zm0-37.6l424,392.8v-4.3L82.1,659.2v5.1Zm0,85.4l424,392.8v-4.3L82.1,744.6v5.1Zm0,216.5l424,392.1v-5.1L82.1,960.6v5.7Zm0-344.7l424,392.8v-4.3L82.1,616.5v5.1Zm0-47.8v5.1l424,392.8v-4.3L82.1,573.8Zm0,218.7l424,392.8v-4.3L82.1,787.3v5.1Zm0,128.1l424,392.8v-4.3L82.1,915.5v5.1Zm0-42.7l424,392.8v-4.3L82.1,872.8v5.1Zm0-42.7l424,392.8v-4.3L82.1,830.1v5.1Zm949.4-122.5l-424,392.8v-4.3s424-393.6,424-393.6v5.1Zm0-47.8l-424,393.6v4.3s424-392.8,424-392.8v-5.1Zm0,85.4l-424,393.6v4.3s424-392.8,424-392.8v-5.1Zm0,215.9l-424,392.8v5.1s424-392.1,424-392.1v-5.7Zm0-344.1l-424,393.6v4.3s424-392.8,424-392.8v-5.1Zm-424,350.9v4.3s424-392.8,424-392.8v-5.1s-424,393.6-424,393.6Zm424-180.1l-424,393.6v4.3s424-392.8,424-392.8v-5.1Zm0,128.1l-424,393.6v4.3s424-392.8,424-392.8v-5.1Zm0-42.7l-424,393.6v4.3s424-392.8,424-392.8v-5.1Zm0-42.7l-424,393.6v4.3s424-392.8,424-392.8v-5.1Zm436.4-679.3l11.8,42.5-166.1,47.6m-510-94.9l-193.6,252.6-104.6.5-205.1-250.3c26.6-7.9,66.3-19.7,92.9-27.6,4.2-1.3,5.5-.2,5.9,4.1,1.9,24,6.2,47.5,14.8,70.1,12.8,33.3,32.1,61.7,62.7,81.3,23.1,14.8,48.6,23.7,76.1,22.1,6-.4,11.9-.9,17.7-1.7,61.3-8.6,104.6-43.1,128.9-103.6,9-22.4,14.3-45.7,18.1-69.4.3-1.3.6-2.4,1.1-4.3,5.8,1.8,11,3.3,16.2,5,23,7.1,45.9,14.2,68.9,21.2Z"/></svg>