<?xml version="1.0" encoding="UTF-8"?><svg id="a" xmlns="http://www.w3.org/2000/svg" width="2048" height="2048" viewBox="0 0 2048 2048"><defs><style>.b{fill:#fff;stroke-width:0px;}</style></defs><path class="b" d="m1544.5,1373.1h-464.5q-8.3,0-8.3-8.1c0-261.5,0-523,0-784.5,0-5.7,1.8-8.1,7.2-9.8,26.7-8.4,43.9-27.4,56.1-51.6,11.5-22.9,17.1-47.5,20.9-72.6,5.8-37.7,6.3-75.7,4.7-113.7-1.4-32.7-4.8-65.4-7.5-98-.9-11.3-2.4-22.5-4-33.7-.7-4.8,2.1-6,5.7-7.1,27-8,53.9-16,80.9-24,47.9-14.2,95.8-28.3,143.6-42.6,4.7-1.4,7.5-1,10.4,3.4,6.1,9.4,15.9,14.3,26.3,16.9,14.6,3.7,29.5,7,44.5,8.8,32.9,3.8,66,6.6,99.2,5.1,35.1-1.6,70-4.9,104.5-12,15-3.1,27.4-10.9,38.5-21.1,2.6-2.3,4.8-2.7,8.1-1.7,74.2,23,148.5,45.9,222.8,68.7,4.4,1.3,5.2,3.5,4.7,7.5-3.3,24.6-6.9,49.1-9.6,73.7-2.4,22.2-4.4,44.4-5.2,66.7-.9,22.6-1.1,45.3,0,67.9,2,37.6,9.5,74,30.3,106.3,14.7,22.8,34.7,39.8,58.1,53.1,4.8,2.7,6.6,5.6,6.6,11.3-.2,261.1,0,522.3,0,783.4s0,7.6-7.3,7.6h-342.5c-41.5,0-82.8,0-124.1,0ZM712.6,129.8c-3.8,23.7-9.1,47-18.1,69.4-26.6,66.1-75.9,101.2-146.6,105.3-27.5,1.6-53-7.3-76.1-22.1-30.6-19.6-49.9-48-62.7-81.3-8.6-22.6-12.9-46.1-14.8-70.1-.4-4.3-1.7-5.4-5.9-4.1-75.8,22.5-151.6,45-227.4,67.4-3.8,1.2-4.9,2.8-4.1,6.8,10.4,49.7,17.8,99.8,20,150.7,1.6,36.4.2,72.5-6.4,108.4-4.8,26.3-12.6,51.8-27.4,74.5-13.4,20.6-31.1,35-56.5,37.8-7.1.7-7.1.8-7.1,7.8v785.5c0,7.3,0,7.3,7.5,7.3h930.5q8.7,0,8.7-8.8c0-28.8,0-57.7,0-86.5v-484.4c0-70.8,0-141.7,0-212.5,0-3.7-.3-6.5-4.7-8-33-11.1-55.7-33.6-70.5-64.6-14.7-30.9-20.1-64-22.6-97.7-2.8-37.3-1.1-74.6,3.2-111.7,3.6-31.7,9-63.2,13.7-94.8,1-6.9,1.1-6.9-5.5-8.9-70-21.6-140-43.1-210-64.7-5.2-1.7-10.4-3.2-16.2-5-.5,1.9-.8,3-1.1,4.3Zm-416,1271.8H86.7c-7,0-7,0-7,7.2v35.5q0,6.7,6.6,6.7c38.9,0,77.7,0,116.5,0,195.4,0,390.9,0,586.3,0h229.9c7.1,0,7.2,0,7.2-7.2v-34.5q0-7.6-7.8-7.6h-465.4c-85.5,0-170.9,0-256.4,0Zm704.2,566.7c6.3,0,6.5-.2,6.5-6.5,0-29.3-.1-58.7,0-88,0-4.9-1.7-6.3-6.4-6.3-87.9,0-175.9,0-263.9,0s-6.5.2-6.5,6.5v87c0,7.2,0,7.2,7.3,7.2h131c44,0,88,0,131.9,0Zm-115.7-160.6c-1.3-4.7-3.9-9.2-6.9-13-1.3-1.7-4.9-1.9-7.6-2.3-3.4-.5-6.9-.6-10.4-.8-15.6-1-31.2-2.2-46.8-2.8-8.1-.3-14.4,3.9-19.7,9.9-6.4,7.3-7.6,15.8-8.2,25.2-1.1,18.6,14.6,40.2,37.7,37.5,16.6-1.9,33.3-2.8,49.9-4.3,2.9-.3,5-1.9,6.9-4.7,5.9-8.8,6.7-18.4,6.8-28.5-.5-5.4-.3-11.1-1.7-16.2Zm53.9-22.3c-7.8,1.6-15.7,3.1-23.5,4.9-3.7.9-7.3,2.2-10.9,3.3-8.7,2.8-14.4,9.4-16.7,17.4-1.9,6.6-.6,14.1-.3,21.1.1,2,1.1,4.3,2.4,5.8,6.3,7.5,12.8,14.8,23.3,16.3,1.4.2,2.8,1.1,4.2,1.5,4.6,1.3,9.1,3.1,13.8,3.7,16.4,2.2,31.7-3,46.9-8.1,1.5-.6,3.3-1.9,4-3.3,7.6-16.5,8.8-33,.3-49.6-.7-1.4-1.9-3.2-3.1-3.5-13.2-3.4-25.8-10-40.1-8,0-.5,0-1-.3-1.5ZM712.6,129.8c-3.8,23.7-9.1,47-18.1,69.4-26.6,66.1-75.9,101.2-146.6,105.3-27.5,1.6-53-7.3-76.1-22.1-30.6-19.6-49.9-48-62.7-81.3-8.6-22.6-12.9-46.1-14.8-70.1-.4-4.3-1.7-5.4-5.9-4.1-75.8,22.5-151.6,45-227.4,67.4-3.8,1.2-4.9,2.8-4.1,6.8,10.4,49.7,17.8,99.8,20,150.7,1.6,36.4.2,72.5-6.4,108.4-4.8,26.3-12.6,51.8-27.4,74.5-13.4,20.6-31.1,35-56.5,37.8-7.1.7-7.1.8-7.1,7.8v785.5c0,7.3,0,7.3,7.5,7.3h930.5q8.7,0,8.7-8.8c0-28.8,0-57.7,0-86.5v-484.4c0-70.8,0-141.7,0-212.5,0-3.7-.3-6.5-4.7-8-33-11.1-55.7-33.6-70.5-64.6-14.7-30.9-20.1-64-22.6-97.7-2.8-37.3-1.1-74.6,3.2-111.7,3.6-31.7,9-63.2,13.7-94.8,1-6.9,1.1-6.9-5.5-8.9-70-21.6-140-43.1-210-64.7-5.2-1.7-10.4-3.2-16.2-5-.5,1.9-.8,3-1.1,4.3Z"/></svg>