<?xml version="1.0" encoding="UTF-8"?><svg id="a" xmlns="http://www.w3.org/2000/svg" width="1784.4" height="1762.5" viewBox="0 0 1784.4 1762.5"><defs><style>.b{fill:#fbff5c;stroke-width:0px;}</style></defs><path class="b" d="m1190.7,828.3h560.8c.1,2.7.2,5.3.3,8,.1,3.1.2,6.3.3,9.4h-561.9c.1-5.8.3-11.6.4-17.4Zm-.9,90.1h563.7c0-5.8,0-11.6-.1-17.4h-563.7c0,5.8,0,11.6,0,17.4Zm10.7,65.1c.3,0,.7,0,1,0,15.3.5,30.6-.2,45.9,1,13.3,1,26.6.4,39.9.8,29.3,1,58.6,1.2,87.8,2.2,11.5.4,23-.2,34.5.4,22.6,1.1,45.3,2,67.9,1.5,19.9-.4,39.9-.2,59.9-1.5,13.1-.9,26.3-.6,39.4-.9,29.9-.7,59.9-1.2,89.8-2.2,22.8-.7,45.6-.8,68.4-1.2,3.5,0,7,0,10.5-.6,6.3-1.2,7.8-1.8,8-6.7h-564.5c.7,6.1,3,5.7,11.4,7.3Zm-6.7-286.9h555.5c0-5.8,0-11.6,0-17.4h-555.7c0,5.8.1,11.6.2,17.4Zm-1.3-72.8h558.2c.2-5.8.3-11.6.4-17.4h-559.2c.2,5.8.4,11.6.6,17.4Zm.7-98.1c-2.4.7-3.3,2.2-3.9,4.6-1.1,4-.5,7.9,0,11.8h564.3c0-3.4,0-6.9,0-10.3,0-3.3-1.5-5.7-5-6.5-.7-.2-1.4-.4-2.1-.6h-550.7c-.8.4-1.6.7-2.5,1Zm47.5-95.7h460.9c-2.4-5.9-5.2-11.7-8.2-17.4h-444.3c-3.1,5.7-5.9,11.5-8.4,17.4Zm40.8-64.5h379.2c-4.7-5.9-9.6-11.7-14.7-17.4h-349.7c-5.1,5.7-10,11.5-14.8,17.4Zm-89.3,403.8h557.6c0-2.9,0-5.9-.1-8.8,0-2.9,0-5.7,0-8.6h-557.4c0,5.8,0,11.6,0,17.4Zm-601.7,167.1c0,5.8,0,11.6,0,17.4H23.7c0-5.8,0-11.6,0-17.4h566.9ZM24.2,1003.6c.7,2.7,2.5,3.4,7.3,4.3,2.6.5,5.3.6,7.9.7,19.6.6,39.2,1.2,58.9,1.8,22.8.7,45.6,1.3,68.4,2,21.3.6,42.6,1.8,63.9,1.8,25.6,0,51.1,2.1,76.7,1.9,25.6.2,51.1-1.9,76.7-1.9,21.3,0,42.6-1.2,63.9-1.8,22.8-.7,45.6-1.3,68.4-2,19.6-.6,39.2-1.2,58.9-1.8,2.7,0,5.3-.2,7.9-.7,4.8-.9,6.6-1.6,7.3-4.3H24.2Zm3.6-283.6c0,5.8-.1,11.6-.2,17.4h559.3c-.1-5.8-.2-11.6-.2-17.4H27.8Zm-1.6,81.8c-.1,5.8-.2,11.6-.4,17.4h562.8c-.1-5.8-.2-11.6-.4-17.4H26.1Zm-3.3-163.7c.2,5.8.3,11.6.4,17.4h563.8c.1-5.8.3-11.6.4-17.4H22.8Zm1-83.7c.2,5.8.4,11.6.7,17.4h565.2c.3-5.8.5-11.6.7-17.4H23.8Zm514.8-85.2c-1.5-5.3-3.2-10.5-5-15.5h-216.9c0,5.8,0,11.6,0,17.4h222.4c-.2-.6-.3-1.2-.5-1.8Zm-463,0c-.2.6-.3,1.2-.5,1.8h222.4c0-5.8,0-11.6,0-17.4H80.7c-1.8,5.1-3.5,10.3-5,15.5Zm421.5-80.3h-180.5c0,5.8,0,11.6,0,17.4h193.3c-4-6-8.2-11.8-12.8-17.4Zm-393,17.4h193.3c0-5.8,0-11.6,0-17.4H117.1c-4.6,5.6-8.9,11.4-12.8,17.4Z"/></svg>