<?xml version="1.0" encoding="UTF-8"?><svg id="a" xmlns="http://www.w3.org/2000/svg" width="1784.4" height="1762.5" viewBox="0 0 1784.4 1762.5"><defs><style>.b{fill:#636363;stroke-width:0px;}</style></defs><path class="b" d="m309.3,114.8c-26.7-.3-50.9,1.5-75.1,3.7-19,1.7-38.1,3.3-57.3,3-23-.5-45.8-2.9-68.5-6-7.5-1-8.4-2.1-9.6-9.8-3-18.7-6-37.4-8.8-56.1-1.4-9.3-.3-10.4,9-12.1,8.3-1.5,16.6-.8,24.9-1.4,18.4-1.3,36.9-1.4,55.3-2.4,28.3-1.4,56.5-2.1,84.8-3.2,27-1,54-.7,80.9-.5,18.6.2,37.2,1.1,55.9,1.9,23.3.9,46.5,2,69.8,3,13.5.6,27,.9,40.4,2.1,15.2,1.4,15.1,1.3,13,16.2-2.5,17.6-5.2,35.2-8.2,52.8-1.3,7.6-2.5,8.7-9.8,9.6-25.3,3.1-50.5,6.4-76,5.9-21.8-.4-43.5-2.5-65.2-4.4-19.2-1.6-38.5-3-55.4-2.3Zm880.7,743.2c-.5,20.2-.3,40.4-.2,60.6h563.7c-.2-27.2-.6-54.4-1.7-81.7h-561.4c-.2,7-.3,14-.5,21Zm3.7-170.1h555.6c0,24.2.3,48.4.5,72.5,0,3,0,6.1.1,9.1h-557.6c0-12.5-.1-24.9.7-37.3.9-14.8.9-29.6.7-44.4Zm95.1-331.1h364.8c11.3,13.4,21.8,27.5,31.6,42.2,8.3,12.5,14.8,25.7,19.7,39.5h-467.4c4.4-12.5,10.4-24.3,17.5-35.7,10.2-16.2,21.5-31.5,33.8-45.9ZM24.4,868.8c0,.6,0,1.1,0,1.7v80h566.2c0-21.4,0-42.9-.5-64.3-.1-5.8-.2-11.6-.2-17.3H24.4Zm562.2-149.1c0,10.7.3,21.4.6,32.1.5,16.5.7,33,1,49.5H26.1c.3-16.5.5-33,1-49.5.3-10.7.5-21.4.6-32.1h558.8ZM117.4,388.6h180.2c0,27.2,0,54.4,0,81.7H75.4c0-.3.2-.7.3-1,8.4-29.9,22.1-56.8,41.7-80.6Zm421.6,81.7h-222.2c0-27.2,0-54.4,0-81.7h180.2c19.5,23.8,33.2,50.7,41.7,80.6,0,.3.2.7.3,1Zm51.2,176.6H22.8v-81.7h567.3v81.7Zm1164.4-31.8h-567.3v-81.7h567.3v81.7Z"/></svg>