<?xml version="1.0" encoding="UTF-8"?><svg id="a" xmlns="http://www.w3.org/2000/svg" width="4995.2" height="4997.5" viewBox="0 0 4995.2 4997.5"><defs><style>.b{fill:#ffedc5;stroke-width:0px;}</style></defs><path class="b" d="m1449.2,4119.1h1005.2c-.7,41.2-1.5,82.4-2,123.6-.7,63.3-.9,126.7-1.7,190-.9,80-2.2,160-3.3,239.9,0,5.3-.5,10.6-.9,16.8-4.1.9-7.9,2-11.8,2.3-4.7.4-9.5.1-14.3.1-311.8,0-623.5,0-935.3,0-8.7,0-17.5.8-27.4-1.5-.5-6.2-1.3-12-1.4-17.8-1.8-142-3.4-283.9-5.2-425.9-.5-42.5-1.3-85-2-127.5Zm-1077.7,50.6c1.8,142,3.4,283.9,5.1,425.9,0,5.8.9,11.6,1.4,17.8,9.6,2.3,18.3,1.5,26.8,1.5,305.3,0,610.6,0,915.9,0,4.7,0,9.4.3,14-.1,3.8-.3,7.5-1.5,11.5-2.3.3-6.2.8-11.5.8-16.8,1.1-80,2.4-160,3.3-239.9.7-63.3.9-126.7,1.6-190,.5-41.2,1.3-82.4,2-123.6H369.5c.6,42.5,1.4,85,1.9,127.5Z"/></svg>