<?xml version="1.0" encoding="UTF-8"?><svg id="a" xmlns="http://www.w3.org/2000/svg" width="4995.2" height="4997.5" viewBox="0 0 4995.2 4997.5"><defs><style>.b{fill:#ffb600;stroke-width:0px;}</style></defs><path class="b" d="m2699.7,4327.6c-2.8-17.6-4-179.9-1.6-198.8,5.8-4.7,12.7-3.1,19.2-3,40,.5,80,1.4,120,1.7,111.3.9,222.6,1.4,334,2.3,153.3,1.2,306.6,2.7,459.9,4,79.3.7,158.6,1.9,237.9,1.4,150.6-.8,301.3-2.5,451.9-3.9,149.3-1.3,298.6-2.6,447.9-4,32-.3,64-1.1,96-1.5,5.9,0,12.1-1.4,18.3,3.3.4,3.8,1.4,8.3,1.5,12.8,1.4,59.7-.6,169.7-3.3,185.7-7.3,4.5-15.5,2.7-23.3,2.7-65.3.6-130.7.7-196,1.2-149.3,1.2-298.6,2.6-447.9,4-135.3,1.2-270.6,3.3-405.9,3.5-118.6.2-237.3-1.8-355.9-2.8-107.3-.8-214.6-1.3-322-2.2-136.6-1.1-273.3-2.4-409.9-3.7-6.5,0-13.3.8-20.6-2.8Zm132.4,375.4c301.3,0,602.6,0,903.9,0,312.6,0,625.3,0,937.9,0,62,0,124,0,186,0,7.1,0,14.5,1.2,22.5-2.5.2-8,.6-15.9.7-23.8.5-51.3,1-102.7,1.3-154,0-7.1,1.6-14.7-4-22.4-9.3-.3-19.2-.8-29.1-.8-670.6,0-1341.2,0-2011.8,0-7.3,0-14.7-.2-22,.3-3.7.2-7.4,1.8-11.8,2.9-1.1,62.8,1.8,124.7,2.4,186.6,0,3.8,1.1,7.7,2,13.8,8.8,0,15.4,0,22,0Zm134.1-980.9c106.7.4,213.3.8,320,1.1,102.7.4,205.3.7,308,1.2,36,.1,72,.6,108,.6,7.1,0,14.8,1.9,22.2-5.4,0-9.4,0-20,0-30.6,0-48.7,0-97.3-.4-146,0-7,2-14.7-4.3-21.9-6.8,0-14,0-21.3,0-190.6,0-381.3,0-571.9,0-53.3,0-106.7-.1-160,0-7,0-14.7-2.3-20.9,3.1-2.8,17.3-2.9,176.6.4,196.5,7.3.5,13.8,1.2,20.3,1.3Zm1789.9-201c-251.3.2-502.6.4-753.8.7-.6,0-1.3.2-1.9.5-.6.3-1,.9-2.7,2.3-.4,3.3-1.3,7.8-1.3,12.3-.3,57.3-.5,114.6-.5,172,0,4.5,1.3,8.9,2.1,14,5.4.7,9.9,1.8,14.4,1.9,8,.2,16-.2,24-.2,204-.7,407.9-1.3,611.9-2,36-.1,72-.2,108-.4,6.5,0,13.4,1.5,19.3-4.5.3-2.1,1.2-4.7,1.2-7.3,0-58.7.1-117.3,0-176,0-3.8-1.3-7.6-2.3-13.4-7.6,0-12.9,0-18.2,0ZM369.5,4042.1h984.4c0-4.3.1-8.6.2-12.9H369.3c0,4.3.1,8.6.2,12.9Zm.2-40h983.7c.4,4.8,1,9.1.9,13.4H369.2c0-4.3.3-8.8.5-13.4Zm1079.3,104h1005.6c0,4.3-.1,8.6-.2,12.9h-1005.2c0-4.3-.1-8.6-.2-12.9Zm.4-27.1h1004.5c.5,4.8,1,9.1,1,13.4h-1005.9c0-4.3.3-8.8.5-13.4Z"/></svg>