<?xml version="1.0" encoding="UTF-8"?><svg id="a" xmlns="http://www.w3.org/2000/svg" width="2048" height="2048" viewBox="0 0 2048 2048"><defs><style>.b{fill:#636363;stroke-width:0px;}</style></defs><path class="b" d="m1296.1,706.7c-30.9,114.5,90.8,139.4-63.7,118.9s80.6,460,80.6,460l-241.4-361.5v-279.3s100.8,190.3,323.1-326.8c-50.5,189.7-67.8,274.3-98.7,388.8Zm498,12.1c30.9,114.5-90.8,139.4,63.7,118.9,154.5-20.5-80.6,460-80.6,460l241.4-361.5v-279.3s-100.8,190.3-323.1-326.8c50.5,189.7,67.8,274.3,98.7,388.8Zm-767.5-74.1s-52.6,55.8-65.7,138,65.7,141.3,65.7,141.3m-948.3,1.9s9.7-3.3,20-14.9c24.7-26,53.3-88.1,45.7-126.4-3.9-83.1-65.7-138-65.7-138m84.2,332.5c25.1-14.6,46.6-32.5,63.7-53.2,21.4-26,36-56.5,43.4-90.7,7.5-34.2,8.4-65.4,2.7-92.8-4.5-22-13.2-41.5-25.9-58.2-19.4-25.5-42.5-36.3-47.1-38.2,2.1-8.5,19.8-79.8,46-155.1,36.7-105.5,73.2-170.6,105.5-188.5,86.5-43.9,90.3-45.8,90.4-45.9l-.9-1.8c0,0-3.2,1.5-90.5,45.9-33.3,18.4-69.1,82.2-106.5,189.6-27.8,79.9-46.1,155.4-46.3,156.1l-.2.9.8.3c.3,0,25.8,10.1,47.1,38,19.6,25.8,39.5,72.6,22.8,149.3-16.7,76.7-66.9,119.8-106.1,142.5-42.5,24.6-81.5,31.1-81.9,31.2l.3,2c.4,0,39.7-6.6,82.5-31.4Zm855.4,32.8c-.4,0-39.4-6.6-81.9-31.2-39.2-22.7-89.3-65.8-106.1-142.5-16.7-76.7,3.1-123.5,22.8-149.3,21.3-27.9,46.8-37.9,47.1-38l.8-.3-.2-.9c-.2-.8-18.5-76.2-46.3-156.1-37.4-107.4-73.2-171.3-106.5-189.7-87.3-44.3-90.4-45.8-90.5-45.9l-.9,1.8c.1,0,4,1.9,90.4,45.8,32.4,17.9,68.9,83.1,105.5,188.5,26.2,75.3,43.9,146.7,46,155.1-4.6,2-27.6,12.7-47.1,38.2-12.7,16.6-21.4,36.2-25.9,58.2-5.6,27.4-4.7,58.6,2.7,92.8,7.5,34.2,22.1,64.7,43.4,90.7,17.1,20.8,38.5,38.7,63.7,53.2,42.8,24.8,82.1,31.3,82.5,31.4l.3-2Zm-273.7,175.7c13.8,18.1,30.4,33.4,47.5,47.7,22.8,18.8,47.1,35.6,72.1,50.7,48.9,29.5,100.1,54.5,152.6,75.3h0c-25.4-11-50.4-22.7-75.1-35.4-59.8-30.4-174.4-96.8-205.6-160.1-46.1-94.4-21.1-263.7.5-365.4-22.2,92.2-38.8,206.1-24.1,300.6,5.1,30.7,14,61.8,32.1,86.6Zm-44.4,42.2c-45.7-93.6-21.6-260.7,0-362.7,0,0,0,.2-.1.3-21.8,91.7-37.9,204.2-23.4,297.7,5.1,30.7,14,61.8,32.1,86.6,13.8,18.1,30.4,33.4,47.5,47.7,22.8,18.8,47.1,35.6,72.1,50.7,15.9,9.6,32.1,18.7,48.4,27.4h5.3c-62.5-33.8-154.4-91.9-181.8-147.6Zm-40.6,31.1c-33.5-68.7-20-272.9-20-272.9l-2,4.3s-11.2,142.3-1.6,203.8c5.1,30.7,14,61.8,32.1,86.6,13.8,18.1,30.4,33.4,47.5,47.7,20.9,17.3,43.2,32.9,66.1,47h6.4c-52.8-33-108.1-75.4-128.4-116.5Zm-43,58.9c-25-51.1-29.1-204.4-29.1-204.4l-3.4,9.9s2.9,91.7,8.8,129.7c5.1,30.7,14,61.8,32.1,86.6,10.1,13.2,21.6,24.9,33.8,35.8h5.6c-21.1-18.8-38.3-38.3-47.8-57.6Zm-28.9,41c-16.6-34.1-29.4-134.9-29.4-134.9l-2.6,19.6s6.1,36,8.4,50.6c4.8,28.6,12.8,57.5,28.5,81.4h5.1c-3.9-5.5-7.2-11.1-10-16.6Zm-32.3,12.1l.3,1.2c-2.9-13.5-5.3-27.2-5.3-27.2l-1.9-2.8,1.9,3s2.3,12.7,5.1,25.7Zm0,0l-7-28.7s.1,10.9,0,16c.6,3.5,1.7,6.9,2.4,10.4.5,2.3,1,4.6,1.5,6.8h4.1c-.3-1.5-.7-3-1-4.5Zm1,4.5c-.2-1.1-.5-2.2-.7-3.3l.8,3.3h0Zm-1-4.5l-7-28.7,1.9,3s2.3,12.7,5.1,25.7Zm0,0l.3,1.2c.2,1.1.5,2.2.7,3.3h0c-.3-1.5-.7-3-1-4.5Zm-169.2-271.8c14.7-94.5-2-208.4-24.1-300.6,21.6,101.7,46.6,271,.5,365.4-31.1,63.3-145.7,129.7-205.6,160.1-24.6,12.7-49.7,24.5-75.1,35.3h0c52.5-20.6,103.6-45.6,152.6-75.1,25-15.1,49.3-31.9,72.1-50.7,17.1-14.3,33.6-29.6,47.5-47.7,18.1-24.8,27-55.9,32.1-86.6Zm-169.6,276.4h5.3c16.4-8.7,32.5-17.8,48.4-27.4,25-15.1,49.3-31.9,72.1-50.7,17.1-14.3,33.6-29.6,47.5-47.7,18.1-24.8,27-55.9,32.1-86.6,14.5-93.5-1.6-206-23.4-297.7,0,0,0-.2-.1-.3,21.5,102,45.6,269.1,0,362.7-27.4,55.7-119.4,113.8-181.8,147.6Zm94,0h6.4c22.9-14.1,45.1-29.7,66.1-47,17.1-14.3,33.6-29.6,47.5-47.7,18.1-24.8,27-55.9,32.1-86.6,9.5-61.5-1.6-203.8-1.6-203.8l-2-4.3s13.5,204.3-20,272.9c-20.2,41.1-75.6,83.5-128.4,116.5Zm123.5,0h5.6c12.1-10.9,23.7-22.6,33.8-35.8,18.1-24.8,27-55.9,32.1-86.6,5.9-38,8.8-129.7,8.8-129.7l-3.4-9.9s-4.1,153.3-29.1,204.4c-9.5,19.3-26.8,38.9-47.8,57.6Zm66.8,0h5.1c15.7-23.9,23.8-52.8,28.5-81.4,2.3-14.5,8.4-50.6,8.4-50.6l-2.6-19.6s-12.8,100.8-29.4,134.9c-2.7,5.5-6.1,11.1-10,16.6Zm47.4-30.3l1.9-3-1.9,2.8s-2.4,13.7-5.3,27.2l.3-1.2c2.8-13,5.1-25.7,5.1-25.7Zm-6.1,30.3h4.1c.5-2.3,1-4.6,1.5-6.8.7-3.5,1.8-6.9,2.4-10.4-.1-5.1,0-16,0-16l-7,28.7c-.3,1.5-.7,3-1,4.5Zm-.1,0l.8-3.3c-.2,1.1-.5,2.2-.7,3.3h0Zm7.1-38.3l1,5-7,28.7c2.8-13,6-33.8,6-33.8Zm-7,38.3h0c.2-1.1.5-2.2.7-3.3l.3-1.2c-.3,1.5-.7,3-1,4.5Z"/></svg>