<?xml version="1.0" encoding="UTF-8"?><svg id="a" xmlns="http://www.w3.org/2000/svg" width="1013.5" height="957" viewBox="0 0 1013.5 957"><defs><style>.b{fill:#ffc06c;stroke-width:0px;}</style></defs><path class="b" d="m148.5,956.4l-2.6-.5-.9-5c-1-5.4-.9-12.1.4-17.8l.6-3,3.5-.6c2.7-.5,51.9-.6,220.2-.7,204.8,0,220,0,224,1.2,1.8.5,2.7,14.8,1.4,22.4l-.6,3.4-3.2.6c-4.1.8-439,.7-442.9,0h0Zm190.4-54.4v-5h120.7v10.1h-120.7v-5Zm178.8-2.1l-3.1-.5-1.3-4.4c-2.2-7-4-20-3.6-25.2l.3-4.4,3.1-.7,3.1-.7-2.8-.4-2.8-.4-1.3-4.1c-.9-2.6-3.2-15.5-6.6-35.9-6.8-40.7-6.5-38.8-6.3-42.5l.2-3.2,3.5-1.4c1.9-.8,6-2.1,9.1-2.9,12.9-3.4,15.5-4.2,22.7-6.9,7.8-2.9,17.6-7.6,24.7-11.9,9.5-5.7,19.6-13.4,37.6-28.8,5.7-4.9,13-10.9,16.2-13.5,6.6-5.3,19.5-13.9,25.5-17.1,2.2-1.2,4.3-2.3,4.5-2.5,1.4-1,16.8-7.6,21.5-9.2,11.3-3.9,22.9-6.3,33.6-7,2.5-.2,4.8-.4,5.2-.5.7-.2,15.4.6,18.6,1.1,11.3,1.6,18.7,3.5,32.1,8.3,23.4,8.5,37.2,16.8,68.7,41.2,27.2,21.2,41.9,30.2,70.4,43.3,5,2.3,10.7,5.1,12.6,6.3l3.5,2.1v3.5c.3,3.3-.3,7.2-4.1,28.5-.4,2.4-2.4,13.5-4.3,24.6-2,11.2-4.1,22.1-4.9,24.4l-1.3,4.1-3.1.4-3.1.4,3.4.7,3.4.7v4.9c0,5.8-2.4,19.3-4.4,25.1-1.1,3.1-1.6,3.9-2.6,4.2-1.9.6-364.2.7-367.9,0h0Zm-176.4-6.6c-1.2-.4-2.6-1.3-3.5-2.5-1.9-2.4-1.6-3.9,1.1-5.8,2.4-1.6,8.3-2.3,14.3-1.6,5.7.6,7.4,1.7,7.4,5s-1.7,4.6-4.8,5.1c-3.7.6-12.3.5-14.6-.2Zm29.8-.1c-6.4-1.4-8.6-4.4-5.5-7.4,1.2-1.1,2.3-1.6,5.4-2.1,4.6-.8,15.2-.9,18.1-.2,1.1.3,2.7.6,3.5.7,1.3.2,3.1,1.4,4,2.6.8,1.1.3,3.1-1,4.4-2.8,2.7-16.1,3.8-24.5,2h0Zm-340.9-14c-1.8-.3-3.3-.6-3.4-.6-.5-.5-2.6-7.7-3.3-11.4-.4-2.4-1.2-6.1-1.6-8.3-.5-2.7-.7-5.2-.4-7.7l.3-3.6,2.6-.4,2.6-.4-2.4-.5-2.4-.5-1.2-3.6c-.6-2-1.4-5.2-1.7-7.1-.5-3-2.9-17.1-6-35-3.2-18.3-4-23.4-4.3-26.8l-.3-3.9,2.2-1.6c1.2-.9,4-2.5,6.2-3.5,16.7-8,25.8-12.6,30.6-15.3,11.2-6.3,24.4-15.5,40.3-28.2,28-22.3,42.4-30.7,66.4-38.8,31.5-10.6,60.8-7.8,93,8.9,13.7,7.1,21.8,13,42.6,31,16.7,14.4,24.8,20.6,33.8,26,12.4,7.3,23.4,11.8,38.8,15.7,2.9.7,7.1,2,9.4,2.9l4.1,1.6v4.4c0,5.2-9.8,66-11.4,70.6-.9,2.6-1.1,2.8-3.2,3.3l-2.2.6,2.3.4,2.3.4.3,4.1c.4,4.8-1.4,17.6-3.3,23.5l-1.1,3.5-4.1.6c-5.3.8-320.5.7-325.6,0h0Zm374-120.7c-.7-.1-3.3-.4-5.8-.7-5.4-.7-9.8-2.4-11.8-4.8-1.8-2-1.6-3.1.9-5.3,2.5-2.2,5.7-3.5,11.2-4.4,7.1-1.2,51.6-1.2,58.4,0,7,1.2,12.8,4.6,12.8,7.5s-2.2,3.7-5.3,5.1c-5.4,2.4-12.8,3-37.7,2.9-11.8,0-22-.2-22.7-.3h0Zm-12.7-43.3c-8.6-.8-11.8-1.4-14.6-2.7-4.6-2.2-6.1-3.8-5.3-5.8.8-2.2,6.2-5.6,9.6-6.1,10.4-1.5,15.7-1.7,36.6-1.5,23.6.3,27.6.7,32.7,3.1,3,1.4,5.4,3.8,5.4,5.3s-1.9,3.4-4.8,4.8c-5.1,2.5-9,2.8-34.4,3-12.8,0-24.1,0-25.2,0h0Zm-356.3-44.6c-4.7-.9-4.4-.6-5-5.1-.6-4.2-.4-19.5.3-24,.4-2.3,0-2.1,6-3.2,4.7-.9,472.9-.4,476,.4l2.3.6.6,3.2c.7,4,.7,20.9,0,24.5l-.6,2.8-3.3.6c-2.5.5-57,.6-238.6.6-129.8,0-236.3-.2-237.6-.5h0Zm500.8,2.8c-1.6-.3-3.1-.8-3.3-1.1-2-2.3-2.1-27.3-.1-29.7.4-.4,1-.6,5.8-1.4,4.8-.8,468.7-.4,471.7.4l2.3.6.6,3.4c.7,4.1.4,23.9-.4,25.9-.5,1.1-1,1.4-4.5,1.9-5.5.8-467.9.7-472.2,0Zm-500.6-39.5l-3.3-.6-.6-3.5c-.9-5-1-394.6,0-400.3l.6-3.8,5.4-1.2c7.4-1.6,10.2-2.6,14.4-5.2,13.2-8.2,23-29.7,26.7-58.6,3.6-28.1,1.6-65.3-5.6-104-1.9-10.4-2.8-16.1-2.6-18.1.1-1.6.4-1.9,2.9-3.1,3.1-1.5,10.8-4,24.2-7.9,8.7-2.5,17.8-5.2,27.3-8,2.6-.8,12.5-3.7,22-6.5,9.4-2.8,22.6-6.7,29.3-8.6,8.8-2.6,13.2-3.6,16.2-3.9l4.1-.3,1.1,4c.6,2.2,1.5,6.5,1.9,9.6,3.3,24.7,12.5,44.3,27.6,58.2,12.2,11.3,30.7,18.1,46.2,17.1,6.7-.4,8.1-.7,14.6-2.2,10.1-2.4,17.7-5.6,25.7-10.9,18-12,30.6-34.2,36-63.2.4-2.3,1.5-6.1,2.3-8.5,1.4-3.9,1.7-4.4,2.6-4.2.6.1,2.4.4,4,.5,1.6.2,7.7,1.8,13.6,3.6,5.9,1.8,11.7,3.6,13,3.9,1.2.4,4.1,1.2,6.3,1.9,2.2.7,8.1,2.5,13.1,4,5,1.5,12.5,3.8,16.7,5.1,8.3,2.6,25,7.7,31.1,9.5,12.7,3.9,17.5,5.5,20.7,6.9l3.6,1.6v3.9c0,2.2-.9,9.2-2,15.8-2.2,13.3-4.2,28.3-5.4,40.8-1.1,11.3-1.5,40.5-.8,50.1,2.4,30.5,10.7,52.2,24.7,65.1,4.5,4.1,8.4,6.6,15.5,9.9,3.4,1.6,6.8,3.2,7.4,3.7l1.2.8v199.4c.2,159.2.1,200.1-.4,202.9l-.6,3.5-3.5.6c-4.9.8-472,.8-476.9,0h0Zm496.8,0c-1.5-.3-3-.7-3.3-.9-1.8-1.4-1.8-6.2-1.6-206.5,0-107.9.4-196.7.6-197.3.3-.7,2.1-1.8,5.8-3.5,7.9-3.5,11.8-6,15.8-9.9,7.3-7.3,13-17.9,16.5-31.3,1.7-6.5,3.9-17.7,4.4-22.2.2-1.6.5-5,.8-7.5,1-8.7,1.1-43.3.2-57.5-1-16.1-2-26.8-3.8-42.2-1.2-9.6-1.3-14.7-.4-15.4,1.7-1.3,8.7-3.9,18.1-6.6,10-2.9,15.5-4.5,42.2-12.4,6.9-2,16.1-4.7,20.5-6s9.2-2.7,10.9-3.2c1.7-.5,4.6-1.4,6.6-1.9s6.9-2,11.1-3.2c4.2-1.2,9.2-2.5,11.2-2.9l3.7-.6,3.6,3.8c4.3,4.4,7.8,6.3,14.7,8.1,8.1,2.1,16.9,3.3,32.4,4.5,5.6.4,11.5.9,13.1,1,3.8.3,25.9.3,29.3,0,1.4-.1,5.5-.5,9.1-.8,3.6-.3,7.4-.6,8.3-.7,20.4-2.2,31.1-4.4,36.4-7.2,1.8-1,5.4-3.4,12.4-8.6.6-.5,7.6,1.2,17.7,4.3,4.2,1.3,9.3,2.8,11.4,3.5,9.7,2.9,21.4,6.5,25.8,7.9,5.4,1.7,24.8,7.6,28.3,8.6,1.2.4,4.1,1.2,6.3,1.9,7.1,2.2,22.7,6.9,23.7,7.2.6.1,2.8,1,4.9,2l3.9,1.8.2,3.6c.1,2.1-.4,7.8-1.2,14.1-10.6,79.4-7.9,117.7,9.9,143.9,5.7,8.4,12.8,15,24.7,22.7,4.2,2.7,6.6,4.7,6.9,5.5.7,1.9.5,397.2-.2,400.7l-.6,2.7-3.5.6c-4.6.8-472.1.8-476.4,0h0ZM.3,363.2c-.2-.2-.3-1.8-.3-3.5v-3.2h7.1v7.1h-3.2c-1.8,0-3.3-.2-3.5-.3Z"/></svg>