<?xml version="1.0" encoding="UTF-8"?><svg id="a" xmlns="http://www.w3.org/2000/svg" width="1966.7" height="1314.8" viewBox="0 0 1966.7 1314.8"><defs><style>.b{fill:#15b515;opacity:.7;stroke-width:0px;}</style></defs><path class="b" d="m1003,349.4l2.7-1.4.6,4.2-29.3,184.3-7.3,243.1-113.3-34.3s95.8-345.3,120.6-377.9,26-18,26-18Zm-438.3,0l-.7-.4c-.9-.5-2.1,0-2.2,1.1l-.3,1.8c0,.2,0,.4,0,.6l14.2,60.4,15,123.6,7.3,243.1,113.3-34.3s-95.8-345.3-120.6-377.9-24.9-17.5-26-18,0,0-.1,0Zm520,470.5v-451.9c3.3-1.7,6.4-3.8,9.5-6.1,2.2-1.6,4.3-3.5,6.2-5.3h.9v469.8c-5.5-2.2-11-4.4-16.6-6.4Zm28.4,11.3c1.2.5,2.5,1,3.7,1.5,1.6.7,3.2,1.2,4.5-.4,2-6.4,2.6-12.9,2.6-19.7-.1-45.6,0-91.3,0-136.9,0-97.8,0-195.6,0-293.4,0-9.5-.6-19-2.6-28.3-.9-4-2.1-6.6-3.6-7.8h-4.5v485Zm-59.9-22.4v-441.4c4.9,1.7,9.8,3,14.9,3.7.5,0,1.1.1,1.6.2v443.2c-5.5-1.9-11-3.8-16.6-5.7Zm-25.3-10.5c1.4,3.3,4.7,4.1,7.6,4.9,1.5.4,2.9.9,4.3,1.3v-442.9c-3.2-1.7-6.4-3.5-10-4.3-2.9-.6-4.3,0-5.5,3-.4,1-.8,2.1-1.1,3.1v431.3c1,1.5,2.5,2.7,4.6,3.4Zm-555.1,21.2v-469.8h.9c2,1.9,4,3.7,6.2,5.3,3.1,2.3,6.2,4.4,9.5,6.1v451.9c-5.5,2.1-11.1,4.2-16.6,6.4Zm-11.8-480.1h-4.5c-1.6,1.3-2.8,3.8-3.6,7.8-2,9.3-2.6,18.8-2.6,28.3,0,97.8,0,195.6,0,293.4,0,45.6,0,91.3,0,136.9,0,6.7.6,13.3,2.6,19.7,1.4,1.6,3,1.1,4.5.4,1.2-.5,2.5-1,3.7-1.5v-485Zm43.4,468.2v-443.2c.5,0,1.1,0,1.6-.2,5.1-.7,10.1-2.1,14.9-3.7v441.4c-5.5,1.8-11.1,3.7-16.6,5.7Zm46.5-19.6v-431.3c-.3-1-.6-2.1-1.1-3.1-1.2-3-2.6-3.6-5.5-3-3.6.8-6.8,2.5-10,4.3v442.9c1.4-.4,2.9-.9,4.3-1.3,2.9-.9,6.2-1.6,7.6-4.9,2.2-.8,3.6-2,4.6-3.4Z"/></svg>