<?xml version="1.0" encoding="UTF-8"?><svg id="a" xmlns="http://www.w3.org/2000/svg" width="1773.8" height="1762.5" viewBox="0 0 1773.8 1762.5"><defs><style>.b{fill:#ffc878;stroke-width:0px;}</style></defs><path class="b" d="m298.6,114.8c-26.7-.3-50.9,1.5-75.1,3.7-19,1.7-38.1,3.3-57.3,3-23-.5-45.8-2.9-68.5-6-7.5-1-8.4-2.1-9.6-9.8-3-18.7-6-37.4-8.8-56.1-1.4-9.3-.3-10.4,9-12.1,8.3-1.5,16.6-.8,24.9-1.4,18.4-1.3,36.9-1.4,55.3-2.4,28.3-1.4,56.5-2.1,84.8-3.2,27-1,54-.7,80.9-.5,18.6.2,37.2,1.1,55.9,1.9,23.3.9,46.5,2,69.8,3,13.5.6,27,.9,40.4,2.1,15.2,1.4,15.1,1.3,13,16.2-2.5,17.6-5.2,35.2-8.2,52.8-1.3,7.6-2.5,8.7-9.8,9.6-25.3,3.1-50.5,6.4-76,5.9-21.8-.4-43.5-2.5-65.2-4.4-19.2-1.6-38.5-3-55.4-2.3ZM15.4,802.7c-.3,14.5-.6,29-1.2,43.5-.3,7-.4,14-.5,21.1h565.5c0-7-.2-14-.5-21.1-.6-14.5-.9-29-1.2-43.5H15.4Zm564.5,154.5c0,13.8,0,27.6,0,41.5,0,7.1-.8,8-7.7,9.3-2.6.5-5.3.6-7.9.7-19.6.6-39.2,1.2-58.9,1.8-22.8.7-45.6,1.3-68.4,2-21.3.6-42.6,1.8-63.9,1.8-25.6,0-51.1,2.1-76.7,1.9-25.6.2-51.1-1.9-76.7-1.9-21.3,0-42.6-1.2-63.9-1.8-22.8-.7-45.6-1.3-68.4-2-19.6-.6-39.2-1.2-58.9-1.8-2.7,0-5.3-.2-7.9-.7-6.9-1.3-7.7-2.1-7.7-9.3,0-13.8,0-27.6,0-41.5h566.9Zm-2.8-332c-.5,14.8-.9,29.5-1,44.3,0,6.8-.1,13.5-.2,20.3H17.1c0-6.8-.1-13.5-.2-20.3-.2-14.8-.6-29.5-1-44.3h561.3ZM63.3,475.4h223.6c0,2.6,0,5.3,0,7.9,0,7.6,0,7.6,7.4,7.6.8,0,1.6,0,2.3,0,.7,0,1.4,0,2.3,0,7.3,0,7.4,0,7.4-7.6,0-2.6,0-5.3,0-7.9h223.6c3.3,12.3,6.4,24.6,11.3,36.3,5.1,12.1,12.5,22,26.1,25.5,2.2.6,4.4,1.4,6.7,1.8,1,.2,1.8.5,2.5.8H16.8c.7-.3,1.5-.6,2.5-.8,2.3-.5,4.5-1.2,6.7-1.8,13.5-3.6,20.9-13.4,26.1-25.5,5-11.7,8-24.1,11.3-36.3Zm434.2-71.7h-191.5c0-14.1,0-28.2,0-42.4,0-13,0-13.3,12.1-17.7,3.8-1.4,7.5-2.9,11.1-4.5h108.2c14.8,12.9,28.8,26.9,42.1,41.6,6.6,7.3,12.6,15,18,22.9Zm-342-64.5h108.2c3.6,1.6,7.3,3.1,11.1,4.5,12.1,4.4,12.1,4.6,12.1,17.7,0,14.1,0,28.2,0,42.4H95.4c5.4-8,11.4-15.6,18-22.9,13.3-14.7,27.3-28.7,42.1-41.6Zm1026.1,431.4h557.6c.3,21.5.9,43,1.8,64.5h-561.2c.4-16.9.8-33.9,1.5-50.8.2-4.6.3-9.1.3-13.7Zm-2.5,154.5h563.7c0,16.1,0,32.1,0,48.2,0,7.8-.7,8.4-8.1,9.8-3.5.7-7,.6-10.5.6-22.8.4-45.6.5-68.4,1.2-29.9.9-59.9,1.4-89.8,2.2-13.1.3-26.3,0-39.4.9-19.9,1.3-39.9,1.1-59.9,1.5-22.6.5-45.2-.4-67.9-1.5-11.5-.6-23,0-34.5-.4-29.3-1-58.6-1.2-87.8-2.2-13.3-.4-26.7.2-39.9-.8-15.3-1.2-30.6-.4-45.9-1-.3,0-.7,0-1,0-10.4-1.9-11.4-.9-11.7-12.5-.3-11.5,0-23,0-34.5.4,0,.8,0,1.2,0,0-3.8,0-7.7,0-11.5Zm1.6-332h560c-.2,13.2-.4,26.5-1,39.7-.3,8.3-.6,16.6-.8,24.9h-556.3c-.4-20.7-1-41.3-1.8-61.9,0-.9,0-1.7-.1-2.6Zm44.5-149.8h470.6c3.7,11.2,6.3,22.7,8.1,34.6,1.5,10,3.9,20,8.2,29.2.1.2.2.5.3.7h-503.8c.9-1.8,1.7-3.7,2.5-5.8,4.9-13.4,6.9-27.4,9.6-41.3,1.2-6,2.7-11.8,4.5-17.5Zm103.1-136.3h264.5c1.8,1.5,3.5,2.9,5.3,4.4,21,18.2,39.8,38.3,56.6,60.1h-388.4c14.6-18.8,30.8-36.3,48.3-52.7,4.4-4.1,9-8.1,13.7-11.9Z"/></svg>