<?xml version="1.0" encoding="UTF-8"?><svg id="a" xmlns="http://www.w3.org/2000/svg" width="1773.8" height="1762.5" viewBox="0 0 1773.8 1762.5"><defs><style>.b{fill:#fff;stroke-width:0px;}</style></defs><path class="b" d="m554.8,531.3c3.4,2.7,7.4,4.7,12.2,6,2.2.6,4.4,1.4,6.7,1.8,1,.2,1.8.5,2.5.8H25.6v-2.6c.1,0,.2,0,.3,0,4.8-1.3,8.8-3.3,12.2-6h516.7Zm-498.1-32.5c-.9,2.9-1.9,5.8-3,8.6h485.5c-1.1-2.9-2.1-5.7-3-8.6H56.8Zm94.2-155.6h122.7c-6.7-2.5-13-5.3-19-8.6h-93.7c-3.4,2.8-6.7,5.7-10,8.6Zm-85.9,126.1c-.5,1.9-1,3.8-1.6,5.6h223.4c0-2.9,0-5.8,0-8.6H65.9c-.3,1-.6,2-.9,3Zm27.4-61.1h194.5c0-2.9,0-5.8,0-8.6H98.3c-2,2.8-4,5.7-5.9,8.6Zm374.4-41.1h-160.7c0,2.9,0,5.8,0,8.6h168.8c-2.7-2.9-5.4-5.8-8.2-8.6Zm-348.7,8.6h168.8c0-2.9,0-5.8,0-8.6H126.2c-2.7,2.8-5.5,5.7-8.2,8.6Zm409.9,93.6c-.3-1-.6-2-.9-3h-221c0,2.9,0,5.8,0,8.6h223.4c-.5-1.9-1-3.8-1.6-5.6ZM14.4,1005.4c1.1,1.3,3,1.8,6.5,2.5,2.6.5,5.3.6,7.9.7,19.6.6,39.2,1.2,58.9,1.8,22.8.7,45.6,1.3,68.4,2,21.3.6,42.6,1.8,63.9,1.8,25.6,0,51.1,2.1,76.7,1.9,25.6.2,51.1-1.9,76.7-1.9,21.3,0,42.6-1.2,63.9-1.8,22.8-.7,45.6-1.3,68.4-2,19.6-.6,39.2-1.2,58.9-1.8,2.7,0,5.3-.2,7.9-.7,3.5-.7,5.4-1.2,6.5-2.5H14.4Zm-.6-48.2v8.6h566.2c0-2.9,0-5.8,0-8.6H13.8Zm-.7,24.1c0,2.9,0,5.8,0,8.6h566.8c0-2.9,0-5.8,0-8.6H13.1ZM432.1,334.5h-93.7c-6,3.3-12.4,6.2-19,8.6h122.7c-3.3-2.9-6.6-5.8-10-8.6Zm62.6,65h-188.6c0,2.9,0,5.8,0,8.6h194.5c-1.9-2.9-3.8-5.8-5.9-8.6ZM16.5,648.5c0,2.9.1,5.8.2,8.6h559.6c0-2.9.1-5.8.2-8.6H16.5Zm-.9-32.5c0,2.9.2,5.8.3,8.6h561.3c0-2.9.2-5.8.3-8.6H15.6Zm-1.7,243.1c0,2.9,0,5.8-.1,8.6h565.5c0-2.9,0-5.8-.1-8.6H13.9Zm3.1-178.1c0,2.9,0,5.8,0,8.6h558.8c0-2.9,0-5.8,0-8.6H17Zm-1.4,113c0,2.9-.1,5.8-.2,8.6h562.2c0-2.9-.1-5.8-.2-8.6H15.6Zm-.7,32.5c0,2.9-.2,5.8-.3,8.6h563.7c0-2.9-.2-5.8-.3-8.6H14.9Zm1251.2-454.9h388.9c2.2,2.9,4.4,5.7,6.5,8.6h-401.9c2.1-2.9,4.3-5.8,6.5-8.6Zm52.3-56.4h284.3c-1.5-1.3-3-2.7-4.6-4-1.8-1.6-3.6-3.1-5.5-4.6h-264.1c-3.4,2.8-6.8,5.7-10.1,8.6Zm-32.4,32.5h349.2c-2.6-2.9-5.3-5.8-7.9-8.6h-333.2c-2.7,2.8-5.4,5.7-8,8.6Zm-106.8,585.8h563.7c0-2.9,0-5.8,0-8.6h-563.7c0,2.9,0,5.8,0,8.6Zm.5-93.8h561.5c0-1.2,0-2.4-.1-3.6,0-1.7-.1-3.4-.2-5.1h-561c0,2.9-.1,5.8-.2,8.6Zm.8-32.5h559.5c0-2.9-.2-5.8-.3-8.6h-559c0,2.9-.2,5.8-.3,8.6Zm1-32.5h557.8c0-2.9,0-5.8-.1-8.6h-557.6c0,2.9,0,5.8,0,8.6Zm8.2,208.6c.3,0,.7,0,1,0,15.3.5,30.6-.2,45.9,1,13.3,1,26.6.4,39.9.8,29.3,1,58.6,1.2,87.8,2.2,11.5.4,23-.2,34.5.4,22.6,1.1,45.3,2,67.9,1.5,19.9-.4,39.9-.2,59.9-1.5,13.1-.9,26.3-.6,39.4-.9,29.9-.7,59.9-1.2,89.8-2.2,22.8-.7,45.6-.8,68.4-1.2,3.5,0,7,0,10.5-.6,5.7-1.1,7.4-1.7,7.9-5.4h-564.2c.9,4.8,3.4,4.5,11.2,5.9Zm-11.9-21.4h565c0-2.9,0-5.8,0-8.6h-565.1c0,2.9,0,5.8,0,8.6Zm4.8-300.2h556.2c0-2.9.1-5.8.2-8.6h-556.5c0,2.9,0,5.8.1,8.6Zm34.5-182.3h487.1c0-.6-.2-1.2-.3-1.8-.3-2.3-.7-4.6-1.2-6.9h-484c-.5,2.9-1.1,5.8-1.7,8.6Zm6.9-32.5h473c-.9-2.9-1.8-5.8-2.9-8.6h-467.4c-1,2.8-1.9,5.7-2.8,8.6Zm-17.9,65h508.9c-1.1-1.6-2-3.3-2.9-5.1-.6-1.2-1.1-2.4-1.6-3.6h-500.1c-1.2,3.1-2.7,6.1-4.4,8.6Zm-25.3,83.5c0,.4,0,.9,0,1.3h559.7c0-2.9.1-5.8.2-8.6h-560.2c.1,2.4.2,4.9.3,7.3Zm1.1,33.8h557.8c.1-2.9.2-5.8.3-8.6h-558.4c0,2.9.2,5.8.3,8.6Z"/></svg>