<?xml version="1.0" encoding="UTF-8"?><svg id="a" xmlns="http://www.w3.org/2000/svg" width="1002.4" height="995.7" viewBox="0 0 1002.4 995.7"><defs><style>.b{stroke-width:0px;}</style></defs><path class="b" d="m406,76.7c-13,46.2-18.7,94.1-16.7,142.1l-1.3,165.7,4.8,282.4-82.6-1-44.7-.6-14.5.2v-.5l-31.6.4-79.1,3.9,2.4-288.7-2.4-162.3c1.9-47.9-3.7-95.9-16.7-142.1l-6-21.2,60.9-18.8c.8-.2,1.5-.3,2.3-.3,3.9,0,7.2,2.9,7.7,6.8.9,7.1,2.2,22,16.9,45.2,22.5,35.8,56.2,35.6,56.2,35.6,0,0,4.2.3,8.5.4,7.7-.6,34.9-5.1,54.1-35.5,14.6-23.2,15.9-38.1,16.9-45.2.5-3.9,3.8-6.8,7.7-6.8s1.6.1,2.3.3l60.9,18.8-6,21.2Zm-164.9,678.4l-12.9-7.2c-26-14.5-57.5-15-84-1.6l-17.3,8.8v159.1h114.2v-159.1Zm512.7,2.9l-12.9-8c-26-16.1-57.5-16.8-84-1.8l-17.3,9.8v177.7h114.2v-177.7ZM914.3,59.3l-71.7-21.7s-7.7,6.2-21,11.4c-15.1,5.9-39.2,5.7-59.2,6-18.6.3-45.1-1.2-59.3-5.3-15.4-4.5-17.8-11.8-18-12.1h-3.9l-68.5,20.7,14.7,609.5,269.1,1,17.9-609.5Z"/></svg>