<?xml version="1.0" encoding="UTF-8"?><svg id="a" xmlns="http://www.w3.org/2000/svg" width="4995.2" height="4997.5" viewBox="0 0 4995.2 4997.5"><defs><style>.b{fill:#42683e;stroke-width:0px;}</style></defs><path class="b" d="m1791.1,3520c5.5,7.1,10,12.8,14.4,18.6,14.1,18.8,32.6,31.3,55,37.8,10.8,3.1,21.9,6.2,33.1,7.4,32.4,3.7,64.9,6.7,97.7,2.1,15.8-2.2,31.7-3.8,47.2-7.8,26.3-6.7,47.3-20.7,63.2-42.8,3.5-4.8,7.3-9.4,10.7-13.8,8.6-2.2,14.9,2.6,21.5,5.2,71.4,27.7,142.7,55.7,214,83.6,16.7,6.5,33.3,13.2,50.7,20.1-.5,4-.5,7.3-1.4,10.3-16.3,55.2-24.8,111.7-30.7,168.8-3.9,37.9-5.4,75.7-3.6,113.8,1,21.4,4.8,42.3,11.5,62.7,12.5,37.7,34.8,67.2,71.6,84.2,3,1.4,5.7,3.3,8.9,5.1.3,3.6.9,6.8.8,10.1-3.7,198.6-7.5,397.2-11.3,595.7,0,2.6-1,5.1-1.5,7.2-5.6,4.9-11.9,3.4-17.7,3.5-32,.2-64,0-96,0-279.3,0-558.6,0-837.8,0-9.2,0-18.5-.3-27.5-.4-5-8.5-3.5-16.6-3.7-24.4-1.4-68.6-2.6-137.3-4-205.9-2.4-120.6-4.8-241.2-7.2-361.8-.1-7.3,0-14.6,0-22.7,4-2.5,7.6-5.3,11.7-7.2,33.1-15.8,54.4-42.3,67.3-75.8,7.4-19.3,11.2-39.6,13.3-60.3,4.3-42.1,1-83.8-3.2-125.6-4.6-45.1-10.7-89.9-21.5-134-3.3-13.5-7.1-26.9-10.9-41.3,3.8-2.2,6.9-4.5,10.4-5.9,88-34.5,176.1-68.9,264.2-103.3,3-1.2,6.2-1.8,11-3.2Zm-791.1-4.8c-8.5,27.5-23.1,50.7-46.4,68.2-19.2,14.4-40.9,22-64.4,25-4.5.6-8.9,1.6-12.8,2.3-4.2,8-2.7,15.5-2.7,22.6-.1,75.3,0,150.7-.1,226,0,7.2,1.3,14.6-2.1,21.7-6.7,3.3-12.9,3.3-19.4.1-4.5-7.4-3-15.6-3-23.4-.1-51.3,0-102.7,0-154,0-25.3,0-50.7,0-76,0-5.9,1.1-12.1-4.2-17.9-3.8-.5-8.4-1-12.9-1.7-17.9-2.8-35.1-7.6-50.8-17.1-28.7-17.4-47.4-42.3-57.3-74.2-2.3-7.5-3.4-15.4-7.6-21.8-2.2,0-3.6-.3-4.8,0-3.8,1.3-7.5,2.8-11.1,4.4-84.6,37.5-169.2,75.1-253.8,112.7-.6.3-1,.8-1.5,1.3-.4.5-.7,1.1-1.8,3,2.1,5.9,4.3,12.8,6.9,19.6,12.7,33,24.3,66.3,32.6,100.6,8.2,33.8,14.2,67.9,13.5,102.7-.6,30.9-5.3,61-19.2,89.1-19.6,39.5-51.4,61.8-94.7,68.3-3.8.6-7.6,1.5-12.6,2.5-.2,7.9-.7,15.1-.6,22.3.7,49.3,1.6,98.6,2.2,148,1.8,142,3.4,283.9,5.1,425.9,0,5.8.9,11.6,1.4,17.8,9.6,2.3,18.3,1.5,26.8,1.5,305.3,0,610.6,0,915.9,0,4.7,0,9.4.3,14-.1,3.8-.3,7.5-1.5,11.5-2.3.3-6.2.8-11.5.8-16.8,1.1-80,2.4-160,3.3-239.9.7-63.3.9-126.7,1.6-190,.6-50,1.7-100,2.4-150,0-5.2-.7-10.3-1.2-16.4-6-1.1-11.1-2-16.2-2.9-37.5-6.9-67.1-25.6-85.8-59.2-6.8-12.1-12.1-25.3-15.9-38.6-11.9-41.9-9.7-84.4-2.2-126.8,8.2-46.8,23.1-91.6,40-135.8,2.6-6.7,6.7-13.1,6-21.9-3.5-2-7.3-4.6-11.5-6.5-103.6-48.3-241.5-108-261.1-112.9-2.1,6.8-4.3,13.6-6.4,20.5Zm1210.5-72.5c9.4-58.5,18.9-117,27.9-175.6,14.5-94.9,33.8-188.8,55.3-282.3,20.3-88.3,41.7-176.3,62.5-264.4.9-3.7,1.3-7.6,2.1-11.8-5.2-3.1-9.7-5.8-14.2-8.6-19.2-12-38.8-23.5-57.4-36.4-30.8-21.3-58.8-45.9-85.4-72.2-22.8-22.4-45.8-44.7-69.4-66.2-20.8-18.9-44.5-33.8-70.2-45.5-57.6-26.2-114.8-25.5-171.9,1.4-28,13.2-53,30.8-75.1,52.4-23.8,23.3-46.5,47.7-70.3,71.1-43.8,43-93.8,76.6-151.2,98.8-4.2,1.6-8.1,3.9-12.9,6.2,1.1,6,1.9,11.1,3.1,16.2,21.1,89.4,42.7,178.8,63.4,268.3,17.2,74.6,32.8,149.6,45.4,225.2,12.6,75.5,24.3,151.2,36.4,226.9,2.4,15,2.9,15.4,17.3,15.9,1.3,0,2.7,0,4,0,146,0,292,0,438,0,5.9,0,11.8-.7,18.2-1.1,1.6-6.8,3.4-12.5,4.3-18.3Zm-1128.7,19.5c5.2,0,10.5-.7,16.6-1.2,1.5-5.6,3.4-10.6,4.2-15.7,9.5-59.1,19-118.3,28.2-177.5,9.7-62.5,21.3-124.6,34.3-186.5,25.3-119.8,53.1-239.1,82.9-357.9,1.1-4.4,1.8-8.8,2.9-13.8-4.4-2.1-7.8-4-11.4-5.4-60.7-23.3-113.1-59-158.6-105.2-20.1-20.4-39.9-41.1-60.3-61.2-20.4-20.3-43.1-37.7-68.7-51.1-33-17.3-67.8-27.3-105.4-25.9-29.2,1-56.3,9.5-82.5,21.6-30,13.8-55.9,33.6-79.9,55.9-18.5,17.3-36.2,35.4-54.3,53.1-43.4,42.7-90.8,80.3-144.5,109.4-4,2.2-7.9,4.8-11.3,6.9-.5,2.1-1.3,3.6-1,4.7,61.6,244.7,114.2,491.3,149.3,741.4.3,1.9,1.6,3.6,2.9,6.6,20.4,3,311.2,4.1,456.5,1.9Zm798.2-1333c-212-.3-424-.6-636-.6-80,0-160,.4-240,.7-7.1,0-14.7-2-22.5,3.7-5.5,43.3-11.2,87.6-16.6,131.8-.3,2.4.9,4.9,1.4,7.1,8.5,3.7,16.6,2.3,24.4,2.3,303.3,0,606.7,0,910,0,6.7,0,13.3,0,20-.3,2.5-.1,4.9-1.4,7.1-2.1,1-19.8-12.5-124-18.4-141.2-9.5-2.7-19.5-1.5-29.4-1.5ZM130.6,4871.8c.5,2.4,4.2,5.3,6.9,5.9,3.7.9,7.9-.3,11.8-.4,18.6-.3,37.4-2.1,55.8-.4,18.4,1.7,35.8,3.6,50.1-11,2.5,1.6,4.4,2.3,5.6,3.7,6.4,7.4,14.4,6.4,21.8,3,5.6-2.6,4.9-9,5-14.2.2-15.3,0-30.6.3-46,.1-5.9.9-11.9,2.2-17.7.4-1.9,3.6-4.2,5.7-4.3,2-.1,5.4,2,6,3.7,1.4,5,2.2,10.4,2.4,15.6.3,14.6.1,29.3.2,44,0,4.7,0,9.3.4,14,.8,7.5,3.9,10,11.9,10.6.7,0,1.3,0,2,0,12.7.3,16-2.2,16.2-14.3.3-19.3.2-38.6-.1-57.9,0-3.7-2-7.3-2.7-9.9-7.3-5-16.1-.5-22.3-8,2.3-4.2,4.7-8.5,7.5-13.6-3.4-2.8-6-6.3-9.4-7.5-7.5-2.5-15.3-4.2-23.1-5.5-5.9-1-12-.5-17.9-1.5-8.8-1.5-12.9-9-10.4-18.1,1.1-3.9,5.2-7.3,9-6.3,4.4,1.2,9.3,2.6,12.5,5.5,8.1,7.5,15.8,5.5,23.6.5,3.9-2.5,7.3-5.8,11-8.5,13.9-10,13.2-40.8.1-50.1-5.4-3.8-10.7-7.8-16.4-11.2-5.7-3.4-11.5-3.1-16.4,2-9.1,9.5-20.5,8.4-31.8,6.9-4.4-.6-8.3-4.3-12.7-5.5-24.3-6.7-39.6-1.4-48.1,24.4-1.8,5.3-.7,11.8.1,17.6.7,4.5,3.4,8.7,4.7,13.1,2.1,7.2,2.8,14.3-1.8,20.4-18.4,8.6-39.4,9-56.1,22.2,3.9,16.9,1.8,31.2-15,39.3,3.8,20.5,7.2,40.1,11.3,59.6Zm115.1-23.8c-.5-.2-.7-.9-1.1-1.5.8-.4,1.7-.8,2.5-1.2,0,.6,0,1.3,0,1.9-.5.3-1.1.9-1.4.8Zm47.6-3571.8c0,69.9,0,139.9,0,209.8,0,3,1.2,6,1.9,9.4h25.3c.3-6.5.7-12.3.8-18.2,0-51.3,0-102.6,0-153.9,0-14.7.2-29.3-.1-44,0-4.4-1.5-8.8-2.4-13.4-3.7-.4-6.3-.9-8.8-.8-4.6.2-9.2.8-15.4,1.5-.6,4.4-1.3,6.9-1.3,9.5Zm-50.4-35.8c-1.3,5.1-1.2,10.5-1.2,15.8-.2,24.6-.2,49.1-.3,73.7-.2,57.7-.5,115.5-.6,173.2,0,6,0,12,.9,17.9.3,1.9,3.3,4.7,5.2,4.8,1.8.1,5-2.4,5.5-4.2,1.1-4.4,1.2-9.2,1.2-13.8.1-15.9,0-31.9,0-47.8-.2-69.1-.4-138.2-.7-207.3,0-5.7-.7-11.4-1.3-19.9-4.4,3.8-8,5.4-8.6,7.8Zm-15.1,238.7c.8-5.9.8-11.9.7-17.9-.5-82.3-1-164.7-1.6-247,0-5.3,0-10.7-.8-15.9-.7-4.6-3.3-7.3-9.7-3.1,0,92.9,0,186.7,0,280.5,0,2.5,1.1,5.1,1.6,7.2,5.1,2,8.9,1.4,9.7-3.8Zm19.3,3366.2c-.8.4-1.7.8-2.5,1.2.4.5.6,1.3,1.1,1.5.3.1,1-.5,1.4-.8,0-.7,0-1.3,0-1.9Zm2452.5-517.6c-2.8-17.6-4-179.9-1.6-198.8,5.8-4.7,12.7-3.1,19.2-3,40,.5,80,1.4,120,1.7,111.3.9,222.6,1.4,334,2.3,153.3,1.2,306.6,2.7,459.9,4,79.3.7,158.6,1.9,237.9,1.4,150.6-.8,301.3-2.5,451.9-3.9,149.3-1.3,298.6-2.6,447.9-4,32-.3,64-1.1,96-1.5,5.9,0,12.1-1.4,18.3,3.3.4,3.8,1.4,8.3,1.5,12.8,1.4,59.7-.6,169.7-3.3,185.7-7.3,4.5-15.5,2.7-23.3,2.7-65.3.6-130.7.7-196,1.2-149.3,1.2-298.6,2.6-447.9,4-135.3,1.2-270.6,3.3-405.9,3.5-118.6.2-237.3-1.8-355.9-2.8-107.3-.8-214.6-1.3-322-2.2-136.6-1.1-273.3-2.4-409.9-3.7-6.5,0-13.3.8-20.6-2.8Zm132.4,375.4c301.3,0,602.6,0,903.9,0,312.6,0,625.3,0,937.9,0,62,0,124,0,186,0,7.1,0,14.5,1.2,22.5-2.5.2-8,.6-15.9.7-23.8.5-51.3,1-102.7,1.3-154,0-7.1,1.6-14.7-4-22.4-9.3-.3-19.2-.8-29.1-.8-670.6,0-1341.2,0-2011.8,0-7.3,0-14.7-.2-22,.3-3.7.2-7.4,1.8-11.8,2.9-1.1,62.8,1.8,124.7,2.4,186.6,0,3.8,1.1,7.7,2,13.8,8.8,0,15.4,0,22,0Zm134.1-980.9c106.7.4,213.3.8,320,1.1,102.7.4,205.3.7,308,1.2,36,.1,72,.6,108,.6,7.1,0,14.8,1.9,22.2-5.4,0-9.4,0-20,0-30.6,0-48.7,0-97.3-.4-146,0-7,2-14.7-4.3-21.9-6.8,0-14,0-21.3,0-190.6,0-381.3,0-571.9,0-53.3,0-106.7-.1-160,0-7,0-14.7-2.3-20.9,3.1-2.8,17.3-2.9,176.6.4,196.5,7.3.5,13.8,1.2,20.3,1.3Zm1789.9-201c-251.3.2-502.6.4-753.8.7-.6,0-1.3.2-1.9.5-.6.3-1,.9-2.7,2.3-.4,3.3-1.3,7.8-1.3,12.3-.3,57.3-.5,114.6-.5,172,0,4.5,1.3,8.9,2.1,14,5.4.7,9.9,1.8,14.4,1.9,8,.2,16-.2,24-.2,204-.7,407.9-1.3,611.9-2,36-.1,72-.2,108-.4,6.5,0,13.4,1.5,19.3-4.5.3-2.1,1.2-4.7,1.2-7.3,0-58.7.1-117.3,0-176,0-3.8-1.3-7.6-2.3-13.4-7.6,0-12.9,0-18.2,0Z"/></svg>