<?xml version="1.0" encoding="UTF-8"?><svg id="a" xmlns="http://www.w3.org/2000/svg" width="1966.7" height="1314.8" viewBox="0 0 1966.7 1314.8"><defs><style>.b{fill:#ff4d4d;stroke-width:0px;}</style></defs><path class="b" d="m605.6,782c-2.9.3-3.7-.6-4.5-3-1.7-4.7-1.4-9.5-1.6-14.3,0-.2,0-.5,0-.7l17.6,14.8c-3.7,1.5-7.5,2.7-11.5,3.2Zm49.9-199.2l-58.9,94.9c1,28.8,1.9,57.6,3,86.3l17.6,14.8c3.2-1.3,6.4-2.8,9.6-4.1,16.3-6.7,32.8-12.8,49.7-17.6l-21-174.3Zm312.9,195.6c2.9.3,3.7-.6,4.5-3,1.7-4.7,1.4-9.5,1.6-14.3,0-.2,0-.5,0-.7l-17.6,14.8c3.7,1.5,7.5,2.7,11.5,3.2Zm-70.9-24.9c16.9,4.8,33.4,11,49.7,17.6,3.2,1.3,6.4,2.8,9.6,4.1l17.6-14.8c1-28.8,1.9-57.6,3-86.3l-58.9-94.9-21,174.3Z"/></svg>