<?xml version="1.0" encoding="UTF-8"?><svg id="a" xmlns="http://www.w3.org/2000/svg" width="1966.7" height="1314.8" viewBox="0 0 1966.7 1314.8"><defs><style>.b{fill:#ff4d4d;opacity:.6;stroke-width:0px;}</style></defs><path class="b" d="m890.6,337.2l-40.9-147.2c3.3-2.6,5.4-2.3,10.7.6,9.9,5.5,19.8,11,29.2,17.3,22.8,15.2,40.8,35.1,56.6,57.2,13.3,18.5,26,37.4,39.1,56,5.5,7.8,12.2,14.6,19.4,20.8,4.7,4.1,5.6,8.6,4.5,14.2-1.2,6-2.4,12-3.5,18l-115.2-36.9Zm-206.5,0l40.9-147.2c-3.3-2.6-5.4-2.3-10.7.6-9.9,5.5-19.8,11-29.2,17.3-22.8,15.2-40.8,35.1-56.6,57.2-13.3,18.5-26,37.4-39.1,56-5.5,7.8-12.2,14.6-19.4,20.8-4.7,4.1-5.6,8.6-4.5,14.2,1.2,6,2.4,12,3.5,18l115.2-36.9Z"/></svg>