<?xml version="1.0" encoding="UTF-8"?><svg id="a" xmlns="http://www.w3.org/2000/svg" width="1760.8" height="1762.5" viewBox="0 0 1760.8 1762.5"><defs><style>.b{fill:#fff;stroke-width:0px;}</style></defs><path class="b" d="m1539.5,244.8c5.6-5.6,10.6-6.4,17.3-2.4,33.9,20.3,64.9,44.2,91.6,73.4,23.5,25.7,44.6,53.2,59.6,85,6.9,14.8,9.8,30.6,12.9,46.5,1.7,8.5,3.3,17,6,25.2,4.3,13.3,11.8,23,26.6,25.1,4.9.7,7.4,3.9,7.2,8.5-.3,5.8-2.2,9.3-8.2,8.7-20.2-2.5-33.3-13.9-40.5-32.6-4.9-12.8-7.3-26.2-9.5-39.7-4.3-26-15.7-48.9-30.7-70.2-14.3-20.3-30.1-39.4-47.7-56.9-22-21.9-46.7-40.5-73.3-56.6-4.2-2.6-8.8-4.8-11.7-9.1-1.3-1.9-1.4-3.3.4-5.1Zm-644.9,463c.7,0,1.3,0,2,.1,18.6,1.3,37.1,2.5,55.7,3.9,12.9,1,25.8,2.3,38.7,3.6,10.9,1,21.8,2.2,32.7,3.3,4.9.5,8.4-1,10.3-5.9,7.9-21,16.1-41.9,23.9-63,2.9-7.8,2.8-8-4.3-12.4-17.1-10.7-34.3-21-50.9-32.6-21.5-15-41.9-31.3-58.7-51.6-20.4-24.5-35.6-52.1-48.3-81.2-11.7-27-21.7-54.7-31.1-82.6-.8-2.4-2-4.5-3.5-6.6-1.9-2.8-4.1-3.7-7.6-2.5-4,1.4-7.5,3.6-11.1,5.6-13.5,7.7-28.3,9.5-43.4,8.7-5.5-.3-7.9,2.2-9.2,6.9-.4,1.3-.7,2.6-1,3.9-8.6,33.2-17.2,66.3-30.8,98-15.2,35.3-38.6,64.3-67.6,89.1-19.4,16.7-40.2,31.7-61,46.6-4.1,2.9-5.1,6-3.1,10.6,3.7,8.5,7.1,17.2,10.7,25.8,5.2,12.6,10.5,25.2,15.7,37.8,1.6,3.9,4.1,5.6,8.4,5.4,6-.3,11.9-1.3,17.8-1.8,24.2-2,48.3-4.4,72.5-6.4,25.4-2.1,50.8-2.4,76.2-3.7,22.3-1.1,44.6,1.2,66.9.9Zm-610.6-54.5l-.5-162.4c.7,0,1.4,0,2.3,0,7.3,0,7.4,0,7.4-7.6,0-40.7,0-81.3,0-122,0-13,0-13.3,12.1-17.7,21.8-7.9,40.7-19.6,53.5-39.7,4.3-6.8,7.4-6.6,14.9-2,35.2,21.3,65.4,48.4,92.9,78.9,23.2,25.7,39.1,55.3,48.5,88.5,4,14.2,7.2,28.8,13,42.5,5.1,12.1,12.5,22,26.1,25.5,2.2.6,4.4,1.4,6.7,1.8,5.1,1.1,6.3,4.2,6.2,9.1-.4,16.3-1.4,32.6-2,48.9-.4,12.5-.8,24.9-.7,56.2h-280.4Zm1170.1,27.4v-409.8c13.1,0,26.2-.4,38.9-4.2,4.6-1.3,9.2-3,13.6-4.8,3.2-1.3,6.1-1.1,9,.8,23.9,15.1,48,30,69.5,48.6,29.6,25.7,54.8,55.1,76.5,87.7,16,24,25.1,50.4,29.4,78.8,1.5,10,3.9,20,8.2,29.2,3.7,8,9.6,13.9,18.5,16.3,2.4.6,4.8,1.5,7.2,2.1,3.5.8,4.9,3.2,5,6.5.4,14.7-1.1,29.3-1.6,43.9,0,1.5-.3,3-.4,4.5-.4,17.5-.5,35-1.3,52.4-.7,16.1-1,32.1-1.1,48.2h-271.6Z"/></svg>