<?xml version="1.0" encoding="UTF-8"?><svg id="a" xmlns="http://www.w3.org/2000/svg" width="4992" height="4992" viewBox="0 0 4992 4992"><defs><style>.b{fill:#e87f60;stroke-width:0px;}</style></defs><path class="b" d="m2442.2,4617.1h-986.3c-.1-5.6-.2-11.1-.3-16.7h986.9c-.1,5.6-.2,11.1-.3,16.7Zm-.6,30.6h-985.1c0,4.6.2,9.2.3,13.8,0,1,0,1.9,0,2.9h984.5c.1-5.6.2-11.1.3-16.7Zm3.3-170.7h-991.6c.1,5.6.2,11.1.3,16.7h991c.1-5.6.2-11.1.3-16.7Zm-.9,47.3h-989.8c.1,5.6.2,11.1.3,16.7h989.2c.1-5.6.2-11.1.3-16.7Zm3.4-175.6h-996.6c.1,5.6.2,11.1.3,16.7h995.9c.1-5.6.2-11.1.3-16.7Zm-.9,47.3h-994.7c.1,5.6.2,11.1.3,16.7h994.1c.1-5.6.2-11.1.3-16.7Zm-986.1-158.4h989.1c.1-5.6.2-11.1.3-16.7h-989.4v16.7Zm-2.6,47.3h990.8c.1-5.6.2-11.1.3-16.7h-991.1v16.7Zm3.9-175h990.2c.1-5.6.2-11.1.3-16.7h-990.5v16.7Zm-2.6,47.3h991.9c.1-5.6.2-11.1.3-16.7h-992.2v16.7Zm912.1-176.9c-1.6-4.9-3.1-9.8-4.4-14.8h-835.1c-1.4,5.6-3,11.2-4.9,16.7h845c-.2-.6-.4-1.2-.6-1.9Zm14.5,32.5h-872.9c-3.5,5.9-7.3,11.5-11.6,16.7h896.1c-4.3-5.2-8.1-10.8-11.6-16.7Zm-25.2-175h-822.4c.4,5.6.8,11.1,1.1,16.7h820.5c.2-5.6.5-11.1.9-16.7Zm-1.5,47.3h-818.9c0,5.6,0,11.1-.3,16.7h819.4c-.1-5.6-.2-11.1-.2-16.7Zm17.4-175h-854c1,5.6,2,11.1,2.9,16.7h848.2c.9-5.6,1.9-11.1,2.9-16.7Zm-7.5,47.3h-839.2c.7,5.6,1.4,11.1,2.1,16.7h834.9c.7-5.6,1.4-11.1,2.1-16.7Zm-81.5-175h-321c-9.5.5-19,.4-28.5,0h-326.6c-14.2,5.6-28.4,11.1-42.6,16.7h761.3c-14.2-5.6-28.4-11.1-42.6-16.7Zm106.6,52.8c.5-1.7.7-3.5.9-5.5h-891.7c1.5,5.7,3,11.2,4.5,16.7h883.1c1-3.7,2.1-7.5,3.2-11.2Zm-1049.6,920.6H373c0-5.3-.1-10.7-.2-16h971.8c0,5.3-.2,10.7-.2,16Zm-.5,34.2c0-1.6,0-3.2,0-4.8H373.3c0,1.6,0,3.2,0,4.8,0,3.7.4,7.4.8,11.3h969.2c.2-3.9.5-7.6.5-11.2Zm2.4-168.8H371.4c0,5.3.1,10.7.2,16h974.5c0-5.3.1-10.7.2-16Zm-.6,45.5H371.9c0,5.3.1,10.7.2,16h973.3c0-5.3.2-10.7.2-16Zm2-168.7H369.9c0,5.3.1,10.7.2,16h977.4c0-5.3.1-10.7.1-16Zm-.5,52.1c0-2.2,0-4.4,0-6.6H370.4c0,5.3.1,10.7.2,16h976.4c0-3.1,0-6.3.1-9.4Zm-978.5-158.8h979.8c0-5.3.1-10.7.2-16H368.6v16Zm979.6,29.4H369c0,5.3.1,10.7.2,16h978.9c0-5.3,0-10.7.1-16Zm-978.2-152.1h980.2c0-5.3.2-10.7.3-16H370v16Zm979.7,29.4H367.3v1.2c0,4.9.2,9.9.2,14.8h981.8c0-5.3.2-10.7.3-16Zm-101.7-166.4c-.3-.6-.7-1.2-1-1.8H470.3c-3.2,5.7-6.7,11.1-10.5,16h797.5c-3.3-4.4-6.4-9.1-9.3-14.2Zm85.8,59.2c-16-2.9-30.5-8-43.4-15.5H426.5c-13.8,8-29.6,13.3-47.3,16,0,0,0,0-.1,0h957.4c-.9-.2-1.8-.3-2.7-.5Zm-487.9-183.7h-353.5c.4,5.3.6,10.7.7,16h352.8c0-5.3,0-10.7,0-16Zm378.7,0h-354.1c0,5.3,0,10.7,0,16h353.3c.1-5.3.4-10.7.8-16Zm-378.6,45.5h-353.7c-.4,5.4-1,10.7-1.8,16h355.9c-1.1-5.3-.4-10.7-.4-16Zm378.7,0h-354.2c0,.4,0,.7,0,1.1,0,4.9.6,10-.1,14.9h356.3c-.9-5.3-1.5-10.7-2-16Zm-378.8-154.5c0-4.6,0-9.1,0-13.7h-379.6c1.7,5.3,3.4,10.7,5,16h374.6c0-.8,0-1.6,0-2.4Zm404.8-13.7h-380.1c0,5.3,0,10.7,0,16h375.1c1.6-5.4,3.3-10.7,5-16Zm-13.1,45.5h-367.1c0,5.3,0,10.7,0,16h363.4c1.2-5.4,2.4-10.7,3.7-16Zm-391.7,0h-366.6c.1.4.2.8.3,1.3,1.2,4.9,2.3,9.8,3.4,14.8h362.9c0-5.3,0-10.7,0-16Zm-97-168.2h-204.4c-12,5.3-24.1,10.7-36.1,16h258.2c-6.5-4.9-12.4-10.2-17.7-16Zm427.1,0h-207.8c-5.2,5.8-11,11.1-17.6,16h261c-11.8-5.4-23.7-10.7-35.6-16Zm-330.2,60.4c0-4.9.7-10-2.1-14.9h-401.2c-.3.2-.5.5-.7.8-.4.5-.7,1.1-1.8,3,1.3,3.8,2.7,8,4.3,12.2h401.5c0-.4,0-.7,0-1.1Zm430-13.6c-.8-.4-1.5-.9-2.3-1.4h-401.2c-2.3,5.6-2.1,10.9-1.9,16h402.5c1.8-4.4,3.4-9,2.9-14.7Zm3612.2,647.2h-2199.3v77.8h2199.3v-77.8Zm-112-580.5h-1840.5v42.4h1840.5v-42.4Zm112.8,944.5h-2082.2v77.8h2082.2v-77.8Z"/></svg>