<?xml version="1.0" encoding="UTF-8"?><svg id="a" xmlns="http://www.w3.org/2000/svg" width="4992" height="4992" viewBox="0 0 4992 4992"><defs><style>.b{fill:#eae05e;stroke-width:0px;}</style></defs><path class="b" d="m2441.7,4647.7h-985.1c-.2-10.4-.4-20.8-.6-31.2h986.3c-.2,10.4-.4,20.8-.6,31.2Zm3-154.2h-991c.2,10.4.4,20.8.6,31.2h989.8c.2-10.4.4-20.8.6-31.2Zm2.4-128h-995.9c.2,10.4.4,20.8.6,31.2h994.7c.2-10.4.4-20.8.6-31.2Zm2.4-128h-1000.9c.2,10.4.4,20.8.6,31.2h999.7c.2-10.4.4-20.8.6-31.2Zm2.4-128h-1005.8c.2,10.4.4,20.8.6,31.2h1004.6c.2-10.4.4-20.8.6-31.2Zm-80.4-128h-844.4c-.8,2.2-1.5,4.4-2.4,6.6-3.3,8.7-7.2,16.9-11.8,24.6h872.6c-5.6-9.6-10.3-20-14-31.2Zm-11.9-128h-820.6c.6,10.4.9,20.8,1,31.2h818.9c0-10.4.2-20.8.7-31.2Zm14-128h-848.7c1.7,10.4,3.2,20.8,4.6,31.2h839.4c1.4-10.4,3-20.8,4.7-31.2Zm21.7-100.5c-17.4-6.9-34-13.5-50.7-20.1-6.3-2.5-12.6-4.9-18.9-7.4h-752.9c-20,7.8-40,15.6-60,23.5-3.5,1.4-6.6,3.7-10.4,5.9.2.6.3,1.2.5,1.8h892.1c0-1.2.2-2.4.4-3.7Zm-1051.4,960.3H373.3c-.1-10-.2-20-.4-30h971.4c-.1,10-.3,20-.4,30Zm2.1-148.2H371.6c.1,10,.2,20,.4,30h973.7c.1-10,.3-20,.4-30Zm1.4-123H370.1c.1,10,.2,20,.4,30h976.7c.1-10,.2-20,.3-30Zm1-123H368.6c.1,10,.2,20,.4,30h979.2c0-10,.2-20,.3-30Zm1.7-123H366.8c.2,10,.3,20,.5,30h982.4c.2-10,.3-20,.5-30Zm-93.6-123H460.3c-9.4,12.4-20.5,22.4-33.4,30h863c-12.8-7.5-24-17.4-33.3-30Zm-410.7-123h-352.8c0,3.9.1,7.8,0,11.8-.1,6.1-.4,12.1-.9,18.2h353.7c0-10,0-20,0-30Zm377.9,0h-353.3c0,10,0,20,0,30h354.2c-.9-10-1.1-20-.8-30Zm22.3-123h-375.5c0,10,0,20,0,30h367.3c2.5-10.1,5.3-20,8.3-30Zm-400.2,0h-375c3,9.9,5.7,19.9,8.2,30h366.8c0-10,0-20,0-30Zm418.5-97.1c-18-8.4-37-17.1-56.3-25.9h-255.5c-.7.5-1.4,1.1-2.1,1.6-19.2,14.4-40.9,22-64.4,25-4.5.6-8.9,1.6-12.8,2.3-.2.3-.3.7-.5,1h399c-2.4-1.4-4.8-2.9-7.4-4.1Zm-422.8,2.2c-3.8-.5-8.4-1-12.9-1.7-17.9-2.8-35.1-7.6-50.8-17.1-4.7-2.9-9.2-6-13.4-9.3h-252.5c-22.5,10-45,20-67.5,30h398.6c-.4-.6-.9-1.3-1.5-1.9Zm4056,577.8h-2218.5v77.8h2218.5v-77.8Zm-121.6-533.8h-1840.5v39.4h1840.5v-39.4Zm126.4,891h-2100.3v77.8h2100.3v-77.8Z"/></svg>