<?xml version="1.0" encoding="UTF-8"?><svg id="a" xmlns="http://www.w3.org/2000/svg" width="1760.8" height="1762.5" viewBox="0 0 1760.8 1762.5"><defs><style>.b{fill:#ff5050;stroke-width:0px;}</style></defs><path class="b" d="m627.5,271.7c-3.1-7.5-2.7-8.7,4-13.6,13.1-9.7,26.3-19.1,39.2-29.1,26.1-20.3,50.5-42.4,68.8-70.3,15.7-23.9,26-50.1,34.4-77.2,5.8-18.6,10.6-37.5,15.3-56.3,2.5-10.1,3-10.5,13.5-10.4,1,0,2,0,3,0,15.3.2,29.6-3.1,42.6-11.7,8.2-5.4,12.9-3.5,16.1,5.7,10.1,29.1,20.3,58.1,32.8,86.2,13.2,29.6,29,57.5,50.5,82.1,21.4,24.5,47.4,43.1,74.4,60.6,10.6,6.9,21.5,13.3,32.2,20,6.2,3.9,6.7,4.7,4,11.8-7.6,20.6-15.4,41.1-23.3,61.6-3.1,8.1-4.8,8.7-15.4,7.5-28.9-3.3-57.9-5.7-86.9-8.1-44-3.6-88.2-3.5-132.2-2.6-23.6.5-47.1,2.3-70.6,4.6-20.7,2-41.4,3.6-62,6.1-.3,0-.7,0-1,0q-11.6.6-16.1-10.3c-7.8-18.9-15.6-37.8-23.3-56.7Zm-344,219.2c-.7,0-1.4,0-2.3,0-7.3,0-7.4,0-7.4-7.6,0-40.7,0-81.3,0-122,0-13,0-13.3-12.1-17.7-21.8-7.9-40.7-19.6-53.5-39.7-4.3-6.8-7.4-6.6-14.9-2-35.2,21.3-65.4,48.4-92.9,78.9-23.2,25.7-39.1,55.3-48.5,88.5-4,14.2-7.2,28.8-13,42.5-5.1,12.1-12.5,22-26.1,25.5-2.2.6-4.4,1.4-6.7,1.8-5.1,1.1-6.3,4.2-6.2,9.1.4,16.3,1.4,32.6,2,48.9.4,12.5,1.3,41.3,1.6,53.8h279.9v-160Zm1175.8-220.1c-2.5,0-4.9,0-7.4,0-19.3,0-38.9,1-57.1-6.8-8-3.4-14-2.4-21.2,2.1-25.2,16-50.2,32.1-72.1,52.5-26.9,25-50.7,52.8-70.3,84-11.3,17.9-19.5,37-23.6,57.9-2.7,13.9-4.7,27.9-9.6,41.3-4.2,11.5-10.9,20.1-23.9,22.1-1.6.2-3.1,1.2-4.7,1.7-2.4.7-3.3,2.2-3.9,4.6-1.5,5.5.2,10.9.3,16.4.3,16.3,1.2,32.6,1.9,48.9,1.1,26.8,1.8,53.6,2,80.3,0,1.6,0,3.3,0,4.9h289.4v-409.9Zm-322.5,238.1c.5,3.9,2.6,6.5,7.1,6,14.9-1.9,27.3-8,35.5-21.1,8-12.9,10.8-27.5,13.6-42,3.2-16.3,6.2-32.7,13.7-47.8,13.7-27.5,32.3-51.6,52.8-74.2,25.7-28.3,55.1-52,88-71.5,3.7-2.2,7.7-4.1,10.1-7.9.8-1.3,1.8-2.3,1.1-4.1-2.2-5-11.3-8.2-16-5.3-26.5,16.1-52,33.6-74.5,55.1-25.8,24.6-48.5,51.7-67.1,82.1-10.1,16.4-17.7,33.8-21.7,52.9-2.9,14.2-4.8,28.6-9.5,42.3-4.2,12.5-11.3,21.8-25.2,24.1-1.6.3-3.1,1.1-4.7,1.7-4.6,2-3.9,6.1-3.3,9.8Z"/></svg>