<?xml version="1.0" encoding="UTF-8"?><svg id="a" xmlns="http://www.w3.org/2000/svg" width="1966.7" height="1314.8" viewBox="0 0 1966.7 1314.8"><defs><style>.b{fill:#ff4d4d;opacity:.2;stroke-width:0px;}</style></defs><path class="b" d="m703.5,750.6c-1.2.2-2.5.4-3.7.7-7.9,1.6-15.7,3.5-23.3,5.7l-21-174.3-58.9,94.9c-.1-4-.3-7.9-.4-11.9l81.4-131.2,26,215.9Zm166.9-3.7c1.2.2,2.5.4,3.7.7,7.9,1.6,15.7,3.5,23.3,5.7l21-174.3,58.9,94.9c.1-4,.3-7.9.4-11.9l-81.4-131.2-26,215.9Zm-215-164.2l-58.9,94.9c1,28.8,1.9,57.6,3,86.3l17.6,14.8c3.2-1.3,6.4-2.8,9.6-4.1,16.3-6.7,32.8-12.8,49.7-17.6l-21-174.3Zm263.1-3.7l58.9,94.9c-1,28.8-1.9,57.6-3,86.3l-17.6,14.8c-3.2-1.3-6.4-2.8-9.6-4.1-16.3-6.7-32.8-12.8-49.7-17.6l21-174.3Z"/></svg>