<?xml version="1.0" encoding="UTF-8"?><svg id="a" xmlns="http://www.w3.org/2000/svg" width="2048" height="2048" viewBox="0 0 2048 2048"><defs><style>.b{fill:#ea2f46;stroke-width:0px;}</style></defs><path class="b" d="m762.5,753.2l-21.2-20.3c0,0,.1,0,.2-.1.5-.3.9-.5,1.4-.8,1.7-1,3.4-1.9,5.1-2.9,4.5-2.4,8.8-7.1,13.7-6.5,1.5.2,2.8.9,3.9,1.8,0,0,.1,0,.2.1,2.5,2.2,4.4,5.9,6.9,8.3,3,3,6.2,5.4,9.7,7.3,1.4.9,2.9,1.6,4.6,2.2.6.2,1.2.4,1.8.6.2,0,.4.1.5.2,2.4.8,4.8,1.4,7.4,1.9,7.8,1.4,9,1.7,9.2,7.5,0,1,0,2,0,3,0,0,0,.1,0,.2,0,12.9,0,25.9,0,38.8l-19-18.1-24.5-23.3Zm128.1,0l21.2-20.3c0,0-.1,0-.2-.1-.5-.3-.9-.5-1.3-.8-1.7-1-3.4-2-5.2-2.9-4.5-2.4-9.7-7.7-14.6-7.1-1.5.2-1.9,1.6-3.1,2.5,0,0-.1,0-.2.1-2.5,2.2-4.4,5.9-6.9,8.3-3,3-6.2,5.4-9.7,7.3-1.4.9-2.9,1.6-4.6,2.2-.6.2-1.2.4-1.8.6-.2,0-.4.1-.5.2-2.4.8-4.8,1.4-7.4,1.9-4.5.8-7,.9-8.2,2.3s-1.1,2.8-1.1,5.2c0,1,0,1.9,0,2.9,0,0,0,26.1,0,39l19-18.1,24.5-23.3Zm-84.6,41.3l-19.1-18.1v493.9c0,0,19.1,0,19.1,0v-475.8Zm40.8,475.8h19.1s0-493.9,0-493.9l-19.1,18.1v475.8Zm-171.4-75.4l-32.7-8c-.8-20.9-1.6-41.7-2.8-62.6-1.8-31.9-3.2-63.8-6.6-95.6-3.1-29.4-7-58.6-11.6-87.8l34.1-25.5,19.6,279.4Zm-87.4-161.2v-88.1l-39.1,14,17.5,226.5,22.3,5.4c-.8-20.9-.7-157.9-.7-157.9Zm390,165.6l32.7-8c.8-20.9,1.6-41.7,2.8-62.6,1.8-31.9,3.2-63.8,6.6-95.6,3.1-29.4,7-58.6,11.6-87.8l-34.1-25.5-19.6,279.4Zm89.1,4.7l22.3-5.4,17.5-226.5-39.1-14v88.1s0,137-.7,157.9Zm637.5-472.5l-7.7-20.9c.3-.3,8.6-7.3,8.9-7.6,16.7-14.7,27-20.2,45.4-32.3,2-1.3,3.9-1.7,6.2-1.4l25.9,4.1-78.8,58.1Zm82.9,465.1l-.3-215.4v-.3c0-.5-4.5-46.2-16.2-100-15.7-72.5-35.9-123.9-60.7-153.6l-5.6,4.2c56.8,67.8,74.9,243.6,75.6,249.9l.7,215.2h6.6Zm118.8-465.1l7.7-20.9c-.3-.3-8.6-7.3-8.9-7.6-16.7-14.7-27-20.2-45.4-32.3-2-1.3-3.9-1.7-6.2-1.4l-25.9,4.1,78.8,58.1Zm-83.2,465.1l.7-215.4v-.3c0-.5,4.5-46.2,16.2-100,15.7-72.5,35.9-123.9,60.7-153.6l5.6,4.2c-56.8,67.8-74.9,243.6-75.6,249.9l-.7,214.7-6.9.5Zm-15.9,0h-4v-213.8h4v213.8Z"/></svg>