<?xml version="1.0" encoding="utf-8"?>
<!-- Generator: Adobe Illustrator 28.0.0, SVG Export Plug-In . SVG Version: 6.00 Build 0)  -->
<svg version="1.1"
	 id="svg201" xmlns:svg="http://www.w3.org/2000/svg" xmlns:inkscape="http://www.inkscape.org/namespaces/inkscape" xmlns:sodipodi="http://sodipodi.sourceforge.net/DTD/sodipodi-0.dtd"
	 xmlns="http://www.w3.org/2000/svg" xmlns:xlink="http://www.w3.org/1999/xlink" x="0px" y="0px" viewBox="0 0 2048 2048"
	 style="enable-background:new 0 0 2048 2048;" xml:space="preserve">
<style type="text/css">
	.st0{display:none;}
	.st1{display:inline;}
	.st2{fill:#FF0000;}
	.st3{fill:none;}
	.st4{fill:#4BFF00;}
	.st5{display:inline;fill:#FF0000;}
	.st6{fill:#FFFFFF;}
	.st7{display:inline;fill:#FFFFFF;}
	.st8{fill:#444444;}
	.st9{display:none;fill:#FFFF00;}
	.st10{fill:none;stroke:#FF0000;stroke-width:3;stroke-miterlimit:10;}
	.st11{fill:#00FF4E;}
	.st12{fill:none;stroke:#000000;stroke-width:2;stroke-miterlimit:10;}
	.st13{fill:none;stroke:#000000;stroke-miterlimit:10;}
</style>
<g id="desgin-1" class="st0">
	<g class="st1">
		<g>
			<path d="M1184.1,1982.8c0,10.5,0,21,0,31.5c0,4.3-3,4-5.9,4c-27.3,0-54.7,0-82,0c-259.6,0-519.2,0-778.8,0
				c-11.3,0-10.6,1.9-10.7-10.8c0-6.8,0-13.7,0-20.5c0-2.2,0-3.7,0.2-4.9h-12.6v46.4h901.5v-46.4H1184
				C1184.1,1982.3,1184.1,1982.5,1184.1,1982.8z"/>
			<path d="M1702.6,128.5c-11.1,10.2-23.5,18-38.5,21.1c-34.5,7.1-69.4,10.5-104.5,12c-33.2,1.5-66.3-1.3-99.2-5.1
				c-15-1.7-29.8-5.1-44.5-8.8c-10.4-2.6-20.2-7.5-26.3-16.9c-2.9-4.4-5.7-4.8-10.4-3.4c-47.8,14.3-95.7,28.4-143.6,42.6
				c-14.8,4.4-29.6,8.8-44.4,13.2c15.6,32.5,52.2,119.4,66.2,268.5c17.6,186.6,3.6,848.1,2.1,915.6c73,0.1,161.1,0.2,251,0.2
				c102.6,0,206.3-0.1,292.5-0.2c-1.5-67.3-15.5-729,2.1-915.7c13-137.5,54.4-235.6,74.1-272.6c-56.2-17.3-112.4-34.7-168.6-52.1
				C1707.4,125.8,1705.1,126.1,1702.6,128.5z"/>
			<path d="M713.7,125.5c-0.5,1.9-0.8,3-1,4.1c-3.8,23.7-9.1,47.1-18.1,69.4C668,265.1,618.8,300.3,548,304.3
				c-27.4,1.6-52.9-7.2-76.1-22.1c-30.5-19.6-49.9-47.9-62.7-81.3c-8.7-22.6-12.9-46.1-14.8-70.1c-0.4-4.4-1.6-5.4-5.9-4.1
				c-55.3,16.5-110.7,32.9-166,49.3c8,14.9,49.5,99.4,66.3,276.8c17.8,187.9,3.4,857.6,2.1,917c122.2,0,244.4,0,366.7,0
				c60,0,120,0,180,0c-1.3-59.1-15.7-729.1,2.1-917c15-157.9,49.5-242.2,62.5-269.4C844.8,165.7,787.4,148,730,130.3
				C724.7,128.8,719.5,127.3,713.7,125.5z"/>
			<path d="M306.7,2007.5c0,12.7-0.6,10.8,10.7,10.8c259.6,0,519.2,0,778.8,0c27.3,0,54.7,0,82,0c2.9,0,5.9,0.3,5.9-4
				c0-10.5,0-21,0-31.5c0-0.2,0-0.5,0-0.7H306.9c-0.1,1.2-0.2,2.8-0.2,4.9C306.7,1993.8,306.7,2000.7,306.7,2007.5z"/>
		</g>
		<path class="st2" d="M202.9,188.4c-1-1.9-2-3.8-3-5.7c1.2-0.4,2.5-0.7,3.8-1.1c7.5-2.2,15.1-4.4,22.9-6.7
			c8,16,14.7,32.7,21.1,49.4c16,43.3,28.3,87.8,36,133.3c38,236.3,22.1,476.8,14,714.6c-0.6,25.7-3.9,142.6-4.6,170
			c0.1-27.3,0.2-146.1,0.3-170.1c1.5-247.4,13.9-500.1-39.1-743.1C241.8,280.6,225.6,232.8,202.9,188.4z"/>
		<path class="st2" d="M854.8,325.1c-9.5,39-15.3,78.8-20,118.5c-30.3,270-3.6,544.5,0.5,815.3c0-27.5-0.3-143.9-0.3-169.8
			c-1.5-247.2-13.8-498.9,38.7-741.9c2.6-10.5,5.6-21.7,8.8-32.2c12.7-42.1,26.5-84,45.6-123.5c-6.1-2-14.2-4.5-25.4-8
			c-0.3-0.1-0.7-0.2-1.1-0.3c-0.5,1.2-1.3,2.8-1.3,2.8C881.1,230.9,866.9,277.9,854.8,325.1z"/>
	</g>
	<g class="st1">
		<path class="st3" d="M1198.4,1779.8c0-2.7,0-4.4,0-6.9c-1.6,1.5-2.7,2.6-4.2,3.9C1195.6,1777.8,1196.6,1778.5,1198.4,1779.8z"/>
		<path class="st3" d="M939.1,1785.4c-7.8,1.6-15.7,3.2-23.5,4.9c-3.7,0.8-7.3,2.1-10.9,3.3c-8.7,2.7-14.4,9.4-16.7,17.4
			c-1.9,6.5-0.6,14-0.3,21.1c0.1,2,1.1,4.3,2.4,5.8c6.3,7.5,12.7,14.8,23.3,16.3c1.4,0.2,2.8,1.1,4.2,1.5c4.6,1.3,9.1,3.1,13.8,3.7
			c16.4,2.2,31.7-3,46.9-8.1c1.6-0.5,3.3-1.8,4-3.3c7.6-16.4,8.8-33,0.3-49.6c-0.7-1.4-1.8-3.1-3.1-3.5c-13.2-3.4-25.8-9.9-40.1-8
			C939.3,1786.4,939.2,1785.9,939.1,1785.4z"/>
		<path class="st3" d="M62.1,1798.2c109.1,0,218.3,0,327.4,0c82.5,0,164.9,0,247.4,0c27.5,0,55-0.1,82.5,0.1c4.2,0,6.1-1.4,6.6-5.4
			c0.6-4.9,1.5-9.9,2.3-14.8c6.2-37.2,12.4-74.5,18.4-111.7c2.2-13.8,4.3-11.3-9.3-14.5c-33.6-7.9-65.9-18.8-95.3-37.3
			c-26.8-16.9-50.5-37.6-74.2-58.3c-31.6-27.6-65.6-51.2-105.2-66.1c-31.8-12-64.5-17.4-98.4-13.9c-36.5,3.8-70.1,16.8-102.4,33.4
			c-27.3,14-51.1,33.1-75.2,51.8c-27.1,21.1-54,42.4-84.6,58.3C79.8,1631.4,57,1642,34.4,1653c-3.3,1.6-4.7,3.1-4,7.2
			c7.7,43.4,15.1,86.9,22.6,130.3C54.4,1798.1,54.4,1798.2,62.1,1798.2z"/>
		<path class="st3" d="M870.6,1792.4c-3.4-0.5-6.9-0.6-10.4-0.8c-15.6-1-31.2-2.3-46.8-2.8c-8-0.3-14.4,3.9-19.7,9.9
			c-6.5,7.3-7.7,15.8-8.2,25.2c-1.1,18.6,14.6,40.2,37.7,37.5c16.6-1.9,33.3-2.8,49.9-4.3c2.9-0.3,5-1.8,6.9-4.7
			c5.9-8.8,6.7-18.5,6.8-28.5c-0.5-5.4-0.3-11.1-1.7-16.2c-1.3-4.6-3.9-9.1-6.9-13C876.9,1793,873.2,1792.8,870.6,1792.4z"/>
		<path class="st3" d="M895,1514.2c-13.7-1.3-27.4-2.9-41-2.9c-26,0-52.1,1-78.1,1.9c-9,0.3-17.5,2.8-24.8,8.6
			c-5.7,4.6-5.9,10.9,0.3,14.8c4,2.5,8.3,5.2,12.8,6.2c8.5,1.8,17.3,3.1,26,3.4c13.6,0.5,27.3,0.1,40.9,0.1c0,0.3,0,0.6,0,0.9
			c19.9-1,39.7-1.8,59.6-2.9c8.1-0.5,15.5-3,21.9-8.1c4.2-3.3,5.1-9,1.5-12.3C908.6,1519,902.5,1514.9,895,1514.2z"/>
		<path class="st3" d="M1186.2,1982.8c0-3-1.5-4.2-4.4-4.1c-2,0.1-4,0-6,0c-142.8,0-285.6,0-428.4,0c-32.2,0-64.3,0-96.5,0
			c-111.3,0-222.6,0-333.9,0c-8.1,0-8.1,0-8.2,8.3c0,6.8,0,13.7,0,20.5c0,12.7-0.6,10.8,10.7,10.8c259.6,0,519.2,0,778.8,0
			c27.3,0,54.7,0,82,0c2.9,0,5.9,0.3,5.9-4C1186.2,2003.8,1186.2,1993.3,1186.2,1982.8z"/>
		<path class="st3" d="M711.3,1862.5c4.6,0,6.8-0.9,7.4-6c1.4-12.2,3.8-24.3,5.5-36.5c1-7.1,0.9-7.2-6.2-7.2
			c-59.8,0-119.7,0-179.5,0c-158.8,0-317.6,0-476.5,0c-2.3,0-4.5,0-7.3,0c0.1,2.4,0.1,4.1,0.3,5.6c2.2,12.3,4.6,24.5,6.8,36.8
			c1.3,7.2,1.3,7.2,8.9,7.2c178.7,0,357.3,0,536,0C641.6,1862.4,676.5,1862.3,711.3,1862.5z"/>
		<path class="st3" d="M2018.3,1412.2c0-11.7,1-10.5-10.5-10.5c-154.3,0-308.6,0-462.9,0l0,0c-75.8,0-151.6,0-227.4,0
			c-79.7,0-159.3,0-239,0c-6.7,0-6.8,0.1-6.8,6.6c0,11.8,0,23.7,0,35.5c0,7.2,0,7.2,7.2,7.2c34.8,0,69.7,0,104.5,0
			c126.1,0,252.3,0,378.4,0c104.8,0,209.6,0,314.4,0c45.2,0,90.3-0.1,135.5,0c4.8,0,6.9-1.2,6.7-6.4
			C2018,1433.9,2018.3,1423,2018.3,1412.2z"/>
		<path class="st3" d="M1790.2,1669.2c-36.1-16.4-72.2-33-104.8-55.9c-23.3-16.4-46-33.6-68.4-51.2c-37-28.9-75.8-54-120.4-70.1
			c-43.7-15.8-88.1-21.8-133.9-12.3c-40.7,8.4-78.1,25.1-111.5,49.5c-26.4,19.3-51.2,41-76.4,62c-26.7,22.3-54.7,42.5-86.6,56.9
			c-24.7,11.2-50.8,17.8-77,24.3c-6.2,1.5-6.3,1.7-5.2,8.1c3.9,23.5,7.8,46.9,11.7,70.4c4.3,25.9,8.7,51.8,12.9,77.8
			c0.5,3,1.7,4.5,4.8,4.4c1.8-0.1,3.7,0,5.5,0c120.6,0,241.3,0,361.9,0c121.5,0,242.9,0,364.4,0c7.5,0,7.5,0,8.7-7
			c8-46.2,16.1-92.4,24.1-138.6C1802.4,1674.5,1802.2,1674.7,1790.2,1669.2z M1198.4,1779.8c-1.8-1.3-2.8-2-4.2-3
			c1.4-1.3,2.5-2.4,4.2-3.9C1198.4,1775.3,1198.4,1777.1,1198.4,1779.8z"/>
		<path class="st3" d="M1441.9,1974.1c-3.3-2.9-7.1-6.4-11.1-7.1c-12.8-2.4-25.7-5-38.6-5c-29.7-0.2-59.4,0.9-89.1,1.9
			c-9.2,0.3-18,2.9-24.8,9.9c-4.2,4.3-4.3,9.8,0.6,13c4.6,3,9.7,6.2,14.9,7.2c10.2,1.9,20.6,2.8,31,3.3c11.6,0.5,23.3,0.1,35,0.1
			c0,0.3,0,0.6,0,0.9c19.4-1,38.8-1.7,58.1-3c8.6-0.6,17-2.7,23.6-8.9C1446.4,1981.8,1446.7,1978.4,1441.9,1974.1z"/>
		<path class="st3" d="M1766,1849.9c-169.8,0-339.6,0-509.4,0c-72.8,0-145.7,0-218.5,0c-6.8,0-7.1,0.3-6.1,6.6
			c2.1,13.8,4.3,27.6,6.5,41.4c1.2,7.3,1.3,7.3,8.7,7.3c118.3,0,236.6,0,355,0c118.7,0,237.3,0,356,0.1c5.2,0,7.3-1.6,8.1-6.6
			c2.2-13.3,4.8-26.5,7.2-39.8C1775,1849.9,1775,1849.9,1766,1849.9z"/>
		<path class="st3" d="M87.1,1373.1c49.8,0,99.7,0,149.5,0c140.3,0,280.6,0,421,0c120,0,240,0,360,0c8.7,0,8.7,0,8.7-8.8
			c0-28.8,0.1-57.7,0.1-86.5c0-161.5,0-323,0-484.4c0-70.8,0-141.7,0-212.5c0-3.7-0.2-6.5-4.7-8c-33-11.1-55.7-33.6-70.5-64.6
			c-14.8-30.9-20.1-64-22.6-97.7c-2.8-37.3-1.1-74.6,3.2-111.7c3.7-31.7,9.1-63.2,13.7-94.8c1-6.8,1.1-6.8-5.5-8.9
			c-70-21.6-140-43.1-210-64.7c-5.2-1.6-10.4-3.2-16.2-5c-0.5,1.9-0.8,3-1,4.1c-3.8,23.7-9.1,47.1-18.1,69.4
			c-26.6,66.1-75.8,101.3-146.6,105.3c-27.4,1.6-52.9-7.2-76.1-22.1c-30.5-19.6-49.9-47.9-62.7-81.3c-8.7-22.6-12.9-46.1-14.8-70.1
			c-0.4-4.4-1.6-5.4-5.9-4.1c-75.8,22.6-151.6,45-227.4,67.4c-3.8,1.1-5,2.8-4.1,6.8c10.4,49.7,17.8,99.9,20,150.7
			c1.5,36.4,0.2,72.6-6.4,108.4c-4.9,26.4-12.7,51.8-27.4,74.5c-13.4,20.6-31.1,35-56.5,37.8c-7.1,0.8-7.1,0.8-7.1,7.8
			c0,261.8,0,523.6,0,785.5C79.6,1373.1,79.6,1373.1,87.1,1373.1z"/>
		<path class="st3" d="M1001.1,1867.6c-88,0.1-176,0.1-263.9,0.1c-6.3,0-6.4,0.2-6.5,6.5c0,29,0,58,0,87c0,7.2,0,7.2,7.3,7.2
			c43.7,0,87.3,0,131,0c44,0,88,0,132,0c6.3,0,6.4-0.2,6.5-6.5c0-29.3-0.1-58.7,0.1-88C1007.4,1869,1005.8,1867.6,1001.1,1867.6z"/>
		<path class="st3" d="M1080,1373.1c0.3,0,0.7,0,1,0c154.5,0,309,0,463.5,0c41.3,0,82.7,0,124,0c114.2,0,228.3,0,342.5,0
			c7.3,0,7.3-0.1,7.3-7.6c0-261.1,0-522.3,0.1-783.4c0-5.6-1.8-8.6-6.6-11.3c-23.3-13.3-43.4-30.3-58.1-53.1
			c-20.9-32.4-28.4-68.7-30.3-106.3c-1.2-22.6-0.9-45.3-0.1-67.9c0.9-22.3,2.8-44.5,5.2-66.7c2.6-24.6,6.2-49.2,9.6-73.7
			c0.5-4.1-0.3-6.2-4.7-7.5c-12.8-3.9-25.7-7.9-38.5-11.8c-19,39.5-32.8,81.2-45.5,123.2c-3.1,10.4-6.2,21.6-8.8,32.2
			c-52.5,243-40.2,494.7-38.7,741.9c0,25.9,0.3,142.3,0.3,169.8c-4.1-270.8-30.8-545.3-0.5-815.3c4.6-39.7,10.5-79.5,20-118.5
			c12.1-47.2,26.3-94.2,45.6-139.1c0,0,0.6-1.2,1.1-2.3c-52.6-16.2-105.2-32.4-157.7-48.7c-3.2-1-5.5-0.7-8.1,1.7
			c-11.1,10.2-23.5,18-38.5,21.1c-34.5,7.1-69.4,10.5-104.5,12c-33.2,1.5-66.3-1.3-99.2-5.1c-15-1.7-29.8-5.1-44.5-8.8
			c-10.4-2.6-20.2-7.5-26.3-16.9c-2.9-4.4-5.7-4.8-10.4-3.4c-47.8,14.3-95.7,28.4-143.6,42.6c-14.8,4.4-29.5,8.8-44.3,13.1
			c8,16,14.7,32.6,21.1,49.3c16,43.3,28.3,87.8,36,133.3c38,236.3,22.1,476.8,14,714.6c-0.6,25.7-3.9,142.6-4.6,170
			c0.1-27.3,0.2-146.1,0.3-170.1c1.5-247.4,13.9-500.1-39.1-743.1c-12.4-48.3-28.6-96.1-51.2-140.6c-1-1.9-2-3.7-3-5.6
			c-3.3,1-6.6,2-10,2.9c-3.7,1.1-6.4,2.3-5.7,7.1c1.5,11.2,3,22.4,4,33.7c2.7,32.7,6.2,65.3,7.5,98c1.6,37.9,1.1,75.9-4.7,113.7
			c-3.8,25.1-9.4,49.7-20.9,72.6c-12.2,24.3-29.4,43.2-56.1,51.6c-5.4,1.7-7.2,4.2-7.2,9.8c0.1,261.5,0.1,523,0.1,784.5
			C1071.7,1373.1,1071.7,1373.1,1080,1373.1z"/>
		<path class="st3" d="M86.2,1451.1c38.8,0,77.6,0.1,116.5,0.1c195.4,0,390.9,0,586.3-0.1c76.6,0,153.3,0,229.9,0
			c7.2,0,7.2,0,7.2-7.2c0-11.5,0-23,0-34.5c0-7.6,0-7.6-7.8-7.6c-155.1,0-310.2,0-465.4,0c-85.5,0-171,0-256.4,0
			c-70,0-140,0-209.9,0c-7,0-7,0-7,7.2c0,11.8,0,23.7,0,35.5C79.6,1451,79.6,1451.1,86.2,1451.1z"/>
		<path class="st3" d="M939.4,1614.7c-4.8-3.6-10-7.1-15.6-8.8c-16.2-4.9-33.2-3-49.8-3.9c-14-0.8-28.2,0.4-42.3,0.8
			c-9.4,0.3-18.9,0.4-28.3,1.1c-9.3,0.6-18.2,2.4-25.9,8.6c-6.2,4.9-6.5,11.5,0.1,15.8c3.3,2.1,6.9,4.5,10.7,5
			c14.7,2.3,29.4,3.8,44.1,5.7c0.1-0.5,0.1-1,0.2-1.5c11.2,0,22.5,0.2,33.7-0.1c17.4-0.5,34.8-1,52.2-2.1c7.7-0.5,14.8-3.5,20.7-8.7
			C943.3,1622.9,943.8,1618,939.4,1614.7z"/>
		<g>
			<path class="st2" d="M1221.7,336c53,243.1,40.6,495.8,39.1,743.1c-0.1,23.9-0.2,142.7-0.3,170.1c0.7-27.3,4-144.3,4.6-170
				c8.1-237.9,24-478.3-14-714.6c-7.7-45.5-20-90-36-133.3c-6.3-16.7-12.9-33.1-20.9-49.1c-8.9,2.6-17.9,5-26.8,7.6
				c1,1.9,2,3.7,3,5.6C1193.1,239.9,1209.3,287.7,1221.7,336z"/>
		</g>
		<path class="st4" d="M1823.9,316.1c-9.5,39-15.3,78.8-20,118.5c-30.3,270-3.6,544.5,0.5,815.3c0-27.5-0.3-143.9-0.3-169.8
			c-1.5-247.2-13.8-498.9,38.7-741.9c2.6-10.5,5.6-21.7,8.8-32.2c12.6-42,26.4-83.7,45.5-123.2c-8.9-2.7-17.7-5.4-26.6-8.2
			c-0.5,1.1-1.1,2.3-1.1,2.3C1850.2,221.9,1836,268.9,1823.9,316.1z"/>
	</g>
	<rect x="41.3" y="1804.1" class="st5" width="681.7" height="67"/>
	<rect x="1020.7" y="1839" class="st5" width="771.5" height="77.3"/>
	<rect x="296.4" y="1957.4" class="st5" width="901.5" height="27.8"/>
	<g class="st1">
		<g>
			<g>
				<polygon class="st6" points="299.4,1373.8 299.9,1361.8 308.6,1362.1 308.4,1374.1 				"/>
				<polygon class="st6" points="300.3,1349.9 300.8,1337.9 309,1338.1 308.8,1350.1 				"/>
				<polygon class="st6" points="301.3,1325.9 301.8,1313.9 309.4,1314.1 309.2,1326.1 				"/>
				<polygon class="st6" points="302.2,1301.9 302.7,1289.9 309.9,1290.1 309.7,1302.1 				"/>
				<polygon class="st6" points="303.2,1277.9 303.7,1265.9 310.3,1266.1 310.1,1278.1 				"/>
				<polygon class="st6" points="304.1,1253.9 304.6,1241.9 310.7,1242.1 310.5,1254.1 				"/>
				<polygon class="st6" points="305.1,1229.9 305.6,1218 311.2,1218.1 311,1230.1 				"/>
				<polygon class="st6" points="306,1206 306.5,1194 311.6,1194.1 311.4,1206.1 				"/>
				<polygon class="st6" points="307,1182 307.5,1170 312,1170.1 311.8,1182.1 				"/>
				<polygon class="st6" points="308,1158 308.4,1146 312.5,1146.1 312.2,1158.1 				"/>
				<polygon class="st6" points="308.9,1134 309.4,1122 312.9,1122.1 312.7,1134.1 				"/>
				<polygon class="st6" points="309.9,1110 310.3,1098 313.3,1098.1 313.1,1110.1 				"/>
				<polygon class="st6" points="310.8,1086.1 311.3,1074.1 313.8,1074.1 313.5,1086.1 				"/>
				<polygon class="st6" points="311.8,1062.1 312.2,1050.1 314.2,1050.1 314,1062.1 				"/>
				<polygon class="st6" points="312.7,1038.1 313.2,1026.1 314.6,1026.1 314.4,1038.1 				"/>
				<polygon class="st6" points="313.7,1014.1 314.2,1002.1 315.1,1002.1 314.8,1014.1 				"/>
				<polygon class="st6" points="314.6,990.1 315.1,978.1 315.5,978.1 315.3,990.1 				"/>
				<polygon class="st6" points="315.6,966.1 315.8,960.9 315.7,966.1 				"/>
			</g>
			<g>
				<polygon class="st6" points="817.3,1373.8 817,1361.8 825.7,1361.5 826.3,1373.5 				"/>
				<polygon class="st6" points="816.7,1349.9 816.4,1337.9 824.6,1337.6 825.2,1349.6 				"/>
				<polygon class="st6" points="816.1,1325.9 815.8,1313.9 823.5,1313.6 824.1,1325.6 				"/>
				<polygon class="st6" points="815.5,1301.9 815.2,1289.9 822.4,1289.6 823,1301.6 				"/>
				<polygon class="st6" points="815,1277.9 814.7,1265.9 821.3,1265.6 821.9,1277.6 				"/>
				<polygon class="st6" points="814.4,1253.9 814.1,1241.9 820.2,1241.7 820.7,1253.6 				"/>
				<polygon class="st6" points="813.8,1229.9 813.5,1217.9 819.1,1217.7 819.6,1229.7 				"/>
				<polygon class="st6" points="813.2,1205.9 812.9,1193.9 818,1193.7 818.5,1205.7 				"/>
				<polygon class="st6" points="812.6,1181.9 812.3,1169.9 816.9,1169.7 817.4,1181.7 				"/>
				<polygon class="st6" points="812,1157.9 811.7,1145.9 815.7,1145.8 816.3,1157.7 				"/>
				<polygon class="st6" points="811.4,1133.9 811.1,1121.9 814.6,1121.8 815.2,1133.8 				"/>
				<polygon class="st6" points="810.8,1109.9 810.5,1097.9 813.5,1097.8 814.1,1109.8 				"/>
				<polygon class="st6" points="810.2,1085.9 810,1073.9 812.4,1073.8 813,1085.8 				"/>
				<polygon class="st6" points="809.7,1061.9 809.4,1049.9 811.3,1049.9 811.9,1061.8 				"/>
				<polygon class="st6" points="809.1,1037.9 808.8,1025.9 810.2,1025.9 810.8,1037.9 				"/>
				<polygon class="st6" points="808.5,1013.9 808.2,1001.9 809.1,1001.9 809.6,1013.9 				"/>
				<polygon class="st6" points="807.9,989.9 807.6,977.9 808,977.9 808.5,989.9 				"/>
				<polygon class="st6" points="807.3,965.9 807.2,960.7 807.4,965.9 				"/>
			</g>
		</g>
	</g>
</g>
<g class="st0">
	<path class="st7" d="M1544.5,1373.1c-154.5,0-309,0-463.5,0c-0.3,0-0.7,0-1,0c-8.3,0-8.3,0-8.3-8.1c0-261.5,0-523-0.1-784.5
		c0-5.7,1.8-8.1,7.2-9.8c26.7-8.4,43.9-27.4,56.1-51.6c11.5-22.9,17.1-47.5,20.9-72.6c5.8-37.7,6.3-75.7,4.7-113.7
		c-1.4-32.7-4.8-65.4-7.5-98c-0.9-11.3-2.4-22.5-4-33.7c-0.7-4.8,2.1-6,5.7-7.1c27-8,53.9-16,80.9-24
		c47.9-14.2,95.8-28.3,143.6-42.6c4.7-1.4,7.5-1,10.4,3.4c6.1,9.4,15.9,14.3,26.3,16.9c14.6,3.7,29.5,7,44.5,8.8
		c32.9,3.8,66,6.6,99.2,5.1c35.1-1.6,70-4.9,104.5-12c15-3.1,27.4-10.9,38.5-21.1c2.6-2.3,4.8-2.7,8.1-1.7
		c74.2,23,148.5,45.9,222.8,68.7c4.4,1.3,5.2,3.5,4.7,7.5c-3.3,24.6-6.9,49.1-9.6,73.7c-2.4,22.2-4.4,44.4-5.2,66.7
		c-0.9,22.6-1.1,45.3,0.1,67.9c2,37.6,9.5,74,30.3,106.3c14.7,22.8,34.7,39.8,58.1,53.1c4.8,2.7,6.6,5.6,6.6,11.3
		c-0.2,261.1-0.1,522.3-0.1,783.4c0,7.5,0,7.6-7.3,7.6c-114.2,0-228.3,0-342.5,0C1627.1,1373.1,1585.8,1373.1,1544.5,1373.1z"/>
	<path class="st7" d="M713.7,125.5c5.8,1.8,11,3.3,16.2,5c70,21.6,140,43.1,210,64.7c6.6,2,6.5,2,5.5,8.9
		c-4.7,31.6-10.1,63.1-13.7,94.8c-4.3,37.1-6,74.4-3.2,111.7c2.5,33.7,7.9,66.8,22.6,97.7c14.8,31,37.5,53.5,70.5,64.6
		c4.4,1.5,4.7,4.3,4.7,8c-0.1,70.8,0,141.7,0,212.5c0,161.5,0,323,0,484.4c0,28.8,0,57.7-0.1,86.5c0,8.8,0,8.8-8.7,8.8
		c-120,0-240,0-360,0c-140.3,0-280.6,0-421,0c-49.8,0-99.7,0-149.5,0c-7.4,0-7.5,0-7.5-7.3c0-261.8,0-523.6,0-785.5
		c0-7,0-7.1,7.1-7.8c25.4-2.8,43.1-17.2,56.5-37.8c14.8-22.7,22.6-48.2,27.4-74.5c6.6-35.9,8-72,6.4-108.4
		c-2.2-50.9-9.6-101-20-150.7c-0.8-4,0.3-5.6,4.1-6.8c75.8-22.4,151.6-44.9,227.4-67.4c4.2-1.3,5.5-0.2,5.9,4.1
		c1.9,24,6.2,47.5,14.8,70.1c12.8,33.3,32.1,61.7,62.7,81.3c23.1,14.8,48.6,23.7,76.1,22.1c70.7-4.1,120-39.2,146.6-105.3
		c9-22.4,14.3-45.7,18.1-69.4C712.9,128.5,713.2,127.4,713.7,125.5z"/>
	<path class="st7" d="M1402.9,1833.1c-120.6,0-241.3,0-361.9,0c-1.8,0-3.7-0.1-5.5,0c-3.1,0.1-4.3-1.3-4.8-4.4
		c-4.2-25.9-8.6-51.9-12.9-77.8c-3.9-23.5-7.8-46.9-11.7-70.4c-1.1-6.3-1-6.5,5.2-8.1c26.2-6.5,52.3-13.1,77-24.3
		c31.8-14.5,59.8-34.7,86.6-56.9c25.2-21,50-42.6,76.4-62c33.4-24.4,70.8-41,111.5-49.5c45.8-9.5,90.1-3.5,133.9,12.3
		c44.5,16.1,83.4,41.2,120.4,70.1c22.4,17.5,45.1,34.8,68.4,51.2c32.6,22.9,68.6,39.5,104.8,55.9c12,5.5,12.2,5.3,9.9,18.2
		c-8,46.2-16,92.4-24.1,138.6c-1.2,7-1.2,7-8.7,7C1645.9,1833.1,1524.4,1833.1,1402.9,1833.1z M1198.4,1779.8c0-2.7,0-4.4,0-6.9
		c-1.6,1.5-2.7,2.6-4.2,3.9C1195.6,1777.8,1196.6,1778.5,1198.4,1779.8z"/>
	<path class="st7" d="M389.5,1798.2c-109.1,0-218.3,0-327.4,0c-7.7,0-7.7,0-9.1-7.7c-7.5-43.4-14.9-86.9-22.6-130.3
		c-0.7-4.1,0.7-5.7,4-7.2c22.6-10.9,45.4-21.6,67.7-33.2c30.6-15.9,57.6-37.2,84.6-58.3c24-18.7,47.9-37.8,75.2-51.8
		c32.3-16.6,65.9-29.6,102.4-33.4c33.9-3.5,66.6,1.9,98.4,13.9c39.6,14.9,73.6,38.4,105.2,66.1c23.7,20.7,47.4,41.4,74.2,58.3
		c29.4,18.5,61.7,29.5,95.3,37.3c13.6,3.2,11.5,0.7,9.3,14.5c-6,37.3-12.3,74.5-18.4,111.7c-0.8,4.9-1.7,9.8-2.3,14.8
		c-0.5,4-2.4,5.5-6.6,5.4c-27.5-0.2-55-0.1-82.5-0.1C554.4,1798.2,472,1798.2,389.5,1798.2z"/>
	<path class="st7" d="M553,1401.7c155.1,0,310.2,0,465.4,0c7.8,0,7.8,0,7.8,7.6c0,11.5,0,23,0,34.5c0,7.2-0.1,7.2-7.2,7.2
		c-76.6,0-153.3,0-229.9,0c-195.4,0-390.9,0-586.3,0.1c-38.8,0-77.6,0-116.5-0.1c-6.6,0-6.6,0-6.6-6.7c0-11.8,0-23.7,0-35.5
		c0-7.1,0-7.2,7-7.2c70,0,140,0,209.9,0C382.1,1401.7,467.5,1401.7,553,1401.7z"/>
	<path class="st7" d="M1544.9,1401.7c154.3,0,308.6,0,462.9,0c11.5,0,10.4-1.2,10.5,10.5c0,10.8-0.3,21.7,0.1,32.5
		c0.2,5.3-1.9,6.5-6.7,6.4c-45.2-0.1-90.3,0-135.5,0c-104.8,0-209.6,0-314.4,0c-126.1,0-252.3,0-378.4,0c-34.8,0-69.7,0-104.5,0
		c-7.2,0-7.2,0-7.2-7.2c0-11.8,0-23.7,0-35.5c0-6.6,0.1-6.6,6.8-6.6c79.7,0,159.3,0,239,0
		C1393.3,1401.7,1469.1,1401.7,1544.9,1401.7L1544.9,1401.7z"/>
	<path class="st7" d="M1402.1,1905.2c-118.3,0-236.6,0-355,0c-7.4,0-7.5,0-8.7-7.3c-2.2-13.8-4.4-27.6-6.5-41.4
		c-1-6.3-0.7-6.6,6.1-6.6c72.8,0,145.7,0,218.5,0c169.8,0,339.6,0,509.4,0c9,0,9.1,0,7.4,9c-2.4,13.3-5,26.5-7.2,39.8
		c-0.8,5.1-2.9,6.6-8.1,6.6C1639.4,1905.2,1520.7,1905.2,1402.1,1905.2z"/>
	<path class="st7" d="M747.4,1978.7c142.8,0,285.6,0,428.4,0c2,0,4,0.1,6,0c2.9-0.1,4.4,1.1,4.4,4.1c0,10.5,0,21,0,31.5
		c0,4.3-3,4-5.9,4c-27.3,0-54.7,0-82,0c-259.6,0-519.2,0-778.8,0c-11.3,0-10.6,1.9-10.7-10.8c0-6.8,0-13.7,0-20.5
		c0-8.3,0.1-8.3,8.2-8.3c111.3,0,222.6,0,333.9,0C683.1,1978.7,715.3,1978.7,747.4,1978.7z"/>
	<path class="st7" d="M54.7,1812.7c2.8,0,5,0,7.3,0c158.8,0,317.6,0,476.5,0c59.8,0,119.7,0,179.5,0c7.1,0,7.3,0.1,6.2,7.2
		c-1.8,12.2-4.1,24.3-5.5,36.5c-0.6,5.1-2.8,6-7.4,6c-34.8-0.2-69.7-0.1-104.5-0.1c-178.7,0-357.3,0-536,0c-7.6,0-7.6,0-8.9-7.2
		c-2.3-12.3-4.6-24.5-6.8-36.8C54.8,1816.8,54.9,1815.2,54.7,1812.7z"/>
	<path class="st7" d="M868.9,1968.3c-43.7,0-87.3,0-131,0c-7.2,0-7.3,0-7.3-7.2c0-29,0-58,0-87c0-6.3,0.2-6.5,6.5-6.5
		c88,0,176,0,263.9-0.1c4.7,0,6.4,1.4,6.4,6.3c-0.2,29.3-0.1,58.7-0.1,88c0,6.3-0.2,6.5-6.5,6.5
		C956.9,1968.3,912.9,1968.3,868.9,1968.3z"/>
	<path class="st7" d="M886.8,1823.9c-0.1,10.1-0.9,19.7-6.8,28.5c-1.9,2.8-4,4.4-6.9,4.7c-16.6,1.5-33.3,2.4-49.9,4.3
		c-23.1,2.7-38.8-18.9-37.7-37.5c0.6-9.4,1.8-17.9,8.2-25.2c5.3-6,11.6-10.2,19.7-9.9c15.6,0.6,31.2,1.8,46.8,2.8
		c3.5,0.2,7,0.3,10.4,0.8c2.7,0.4,6.3,0.6,7.6,2.3c3,3.8,5.6,8.3,6.9,13C886.5,1812.8,886.3,1818.5,886.8,1823.9z"/>
	<path class="st7" d="M939.3,1786.9c14.3-2,26.9,4.6,40.1,8c1.2,0.3,2.4,2.1,3.1,3.5c8.5,16.6,7.3,33.1-0.3,49.6
		c-0.7,1.4-2.5,2.7-4,3.3c-15.2,5.1-30.5,10.3-46.9,8.1c-4.7-0.6-9.2-2.4-13.8-3.7c-1.4-0.4-2.8-1.3-4.2-1.5
		c-10.5-1.5-17-8.8-23.3-16.3c-1.3-1.5-2.3-3.8-2.4-5.8c-0.3-7-1.6-14.5,0.3-21.1c2.3-8,8-14.6,16.7-17.4c3.6-1.1,7.2-2.4,10.9-3.3
		c7.8-1.8,15.7-3.3,23.5-4.9C939.2,1785.9,939.3,1786.4,939.3,1786.9z"/>
	<path class="st7" d="M1359.9,1997.3c-11.7,0-23.3,0.4-35-0.1c-10.4-0.5-20.8-1.4-31-3.3c-5.3-1-10.3-4.2-14.9-7.2
		c-4.9-3.2-4.8-8.7-0.6-13c6.8-7,15.6-9.5,24.8-9.9c29.7-1,59.4-2,89.1-1.9c12.9,0.1,25.9,2.6,38.6,5c4,0.8,7.8,4.2,11.1,7.1
		c4.8,4.3,4.5,7.7-0.2,12.2c-6.6,6.2-15,8.4-23.6,8.9c-19.4,1.3-38.8,2-58.1,3C1359.9,1997.9,1359.9,1997.6,1359.9,1997.3z"/>
	<path class="st7" d="M831,1546.3c-13.6,0-27.3,0.4-40.9-0.1c-8.7-0.3-17.4-1.6-26-3.4c-4.5-1-8.7-3.7-12.8-6.2
		c-6.2-3.8-6-10.2-0.3-14.8c7.3-5.8,15.8-8.3,24.8-8.6c26-0.9,52.1-1.9,78.1-1.9c13.7,0,27.4,1.6,41,2.9c7.5,0.7,13.7,4.8,19,9.7
		c3.6,3.3,2.7,9-1.5,12.3c-6.4,5-13.9,7.6-21.9,8.1c-19.9,1.1-39.7,2-59.6,2.9C831,1547,831,1546.6,831,1546.3z"/>
	<path class="st7" d="M832.3,1638.8c-14.7-1.8-29.5-3.4-44.1-5.7c-3.7-0.6-7.4-2.9-10.7-5c-6.6-4.3-6.3-10.9-0.1-15.8
		c7.7-6.1,16.6-7.9,25.9-8.6c9.4-0.6,18.9-0.8,28.3-1.1c14.1-0.4,28.3-1.6,42.3-0.8c16.6,1,33.6-0.9,49.8,3.9
		c5.6,1.7,10.9,5.2,15.6,8.8c4.4,3.3,3.9,8.2-0.3,11.9c-5.9,5.2-13,8.2-20.7,8.7c-17.4,1.1-34.8,1.6-52.2,2.1
		c-11.2,0.3-22.5,0.1-33.7,0.1C832.4,1637.8,832.4,1638.3,832.3,1638.8z"/>
	<path class="st7" d="M1198.4,1779.8c-1.8-1.3-2.8-2-4.2-3c1.4-1.3,2.5-2.4,4.2-3.9C1198.4,1775.3,1198.4,1777.1,1198.4,1779.8z"/>
</g>
<g>
	<path class="st8" d="M1544.5,1373.1c-154.5,0-309,0-463.5,0c-0.3,0-0.7,0-1,0c-8.3,0-8.3,0-8.3-8.1c0-261.5,0-523-0.1-784.5
		c0-5.7,1.8-8.1,7.2-9.8c26.7-8.4,43.9-27.4,56.1-51.6c11.5-22.9,17.1-47.5,20.9-72.6c5.8-37.7,6.3-75.7,4.7-113.7
		c-1.4-32.7-4.8-65.4-7.5-98c-0.9-11.3-2.4-22.5-4-33.7c-0.7-4.8,2.1-6,5.7-7.1c27-8,53.9-16,80.9-24
		c47.9-14.2,95.8-28.3,143.6-42.6c4.7-1.4,7.5-1,10.4,3.4c6.1,9.4,15.9,14.3,26.3,16.9c14.6,3.7,29.5,7,44.5,8.8
		c32.9,3.8,66,6.6,99.2,5.1c35.1-1.6,70-4.9,104.5-12c15-3.1,27.4-10.9,38.5-21.1c2.6-2.3,4.8-2.7,8.1-1.7
		c74.2,23,148.5,45.9,222.8,68.7c4.4,1.3,5.2,3.5,4.7,7.5c-3.3,24.6-6.9,49.1-9.6,73.7c-2.4,22.2-4.4,44.4-5.2,66.7
		c-0.9,22.6-1.1,45.3,0.1,67.9c2,37.6,9.5,74,30.3,106.3c14.7,22.8,34.7,39.8,58.1,53.1c4.8,2.7,6.6,5.6,6.6,11.3
		c-0.2,261.1-0.1,522.3-0.1,783.4c0,7.5,0,7.6-7.3,7.6c-114.2,0-228.3,0-342.5,0C1627.1,1373.1,1585.8,1373.1,1544.5,1373.1z"/>
	<path class="st6" d="M1402.9,1833.1c-120.6,0-241.3,0-361.9,0c-1.8,0-3.7-0.1-5.5,0c-3.1,0.1-4.3-1.3-4.8-4.4
		c-4.2-25.9-8.6-51.9-12.9-77.8c-3.9-23.5-7.8-46.9-11.7-70.4c-1.1-6.3-1-6.5,5.2-8.1c26.2-6.5,52.3-13.1,77-24.3
		c31.8-14.5,59.8-34.7,86.6-56.9c25.2-21,50-42.6,76.4-62c33.4-24.4,70.8-41,111.5-49.5c45.8-9.5,90.1-3.5,133.9,12.3
		c44.5,16.1,83.4,41.2,120.4,70.1c22.4,17.5,45.1,34.8,68.4,51.2c32.6,22.9,68.6,39.5,104.8,55.9c12,5.5,12.2,5.3,9.9,18.2
		c-8,46.2-16,92.4-24.1,138.6c-1.2,7-1.2,7-8.7,7C1645.9,1833.1,1524.4,1833.1,1402.9,1833.1z M1198.4,1779.8c0-2.7,0-4.4,0-6.9
		c-1.6,1.5-2.7,2.6-4.2,3.9C1195.6,1777.8,1196.6,1778.5,1198.4,1779.8z"/>
	<path class="st6" d="M389.5,1798.2c-109.1,0-218.3,0-327.4,0c-7.7,0-7.7,0-9.1-7.7c-7.5-43.4-14.9-86.9-22.6-130.3
		c-0.7-4.1,0.7-5.7,4-7.2c22.6-10.9,45.4-21.6,67.7-33.2c30.6-15.9,57.6-37.2,84.6-58.3c24-18.7,47.9-37.8,75.2-51.8
		c32.3-16.6,65.9-29.6,102.4-33.4c33.9-3.5,66.6,1.9,98.4,13.9c39.6,14.9,73.6,38.4,105.2,66.1c23.7,20.7,47.4,41.4,74.2,58.3
		c29.4,18.5,61.7,29.5,95.3,37.3c13.6,3.2,11.5,0.7,9.3,14.5c-6,37.3-12.3,74.5-18.4,111.7c-0.8,4.9-1.7,9.8-2.3,14.8
		c-0.5,4-2.4,5.5-6.6,5.4c-27.5-0.2-55-0.1-82.5-0.1C554.4,1798.2,472,1798.2,389.5,1798.2z"/>
	<path class="st8" d="M556.8,1404.4c155.1,0,310.2,0,465.4,0c7.8,0,7.8,0,7.8,7.6c0,11.5,0,23,0,34.5c0,7.2-0.1,7.2-7.2,7.2
		c-76.6,0-153.3,0-229.9,0c-195.4,0-390.9,0-586.3,0.1c-38.8,0-77.6,0-116.5-0.1c-6.6,0-6.6,0-6.6-6.7c0-11.8,0-23.7,0-35.5
		c0-7.1,0-7.2,7-7.2c70,0,140,0,209.9,0C385.9,1404.4,471.3,1404.4,556.8,1404.4z"/>
	<path class="st8" d="M1544.9,1401.7c154.3,0,308.6,0,462.9,0c11.5,0,10.4-1.2,10.5,10.5c0,10.8-0.3,21.7,0.1,32.5
		c0.2,5.3-1.9,6.5-6.7,6.4c-45.2-0.1-90.3,0-135.5,0c-104.8,0-209.6,0-314.4,0c-126.1,0-252.3,0-378.4,0c-34.8,0-69.7,0-104.5,0
		c-7.2,0-7.2,0-7.2-7.2c0-11.8,0-23.7,0-35.5c0-6.6,0.1-6.6,6.8-6.6c79.7,0,159.3,0,239,0
		C1393.3,1401.7,1469.1,1401.7,1544.9,1401.7L1544.9,1401.7z"/>
	<path class="st6" d="M1402.1,1905.2c-118.3,0-236.6,0-355,0c-7.4,0-7.5,0-8.7-7.3c-2.2-13.8-4.4-27.6-6.5-41.4
		c-1-6.3-0.7-6.6,6.1-6.6c72.8,0,145.7,0,218.5,0c169.8,0,339.6,0,509.4,0c9,0,9.1,0,7.4,9c-2.4,13.3-5,26.5-7.2,39.8
		c-0.8,5.1-2.9,6.6-8.1,6.6C1639.4,1905.2,1520.7,1905.2,1402.1,1905.2z"/>
	<path class="st8" d="M747.4,1978.7c142.8,0,285.6,0,428.4,0c2,0,4,0.1,6,0c2.9-0.1,4.4,1.1,4.4,4.1c0,10.5,0,21,0,31.5
		c0,4.3-3,4-5.9,4c-27.3,0-54.7,0-82,0c-259.6,0-519.2,0-778.8,0c-11.3,0-10.6,1.9-10.7-10.8c0-6.8,0-13.7,0-20.5
		c0-8.3,0.1-8.3,8.2-8.3c111.3,0,222.6,0,333.9,0C683.1,1978.7,715.3,1978.7,747.4,1978.7z"/>
	<path class="st6" d="M54.7,1812.7c2.8,0,5,0,7.3,0c158.8,0,317.6,0,476.5,0c59.8,0,119.7,0,179.5,0c7.1,0,7.3,0.1,6.2,7.2
		c-1.8,12.2-4.1,24.3-5.5,36.5c-0.6,5.1-2.8,6-7.4,6c-34.8-0.2-69.7-0.1-104.5-0.1c-178.7,0-357.3,0-536,0c-7.6,0-7.6,0-8.9-7.2
		c-2.3-12.3-4.6-24.5-6.8-36.8C54.8,1816.8,54.9,1815.2,54.7,1812.7z"/>
	<path class="st8" d="M868.9,1968.3c-43.7,0-87.3,0-131,0c-7.2,0-7.3,0-7.3-7.2c0-29,0-58,0-87c0-6.3,0.2-6.5,6.5-6.5
		c88,0,176,0,263.9-0.1c4.7,0,6.4,1.4,6.4,6.3c-0.2,29.3-0.1,58.7-0.1,88c0,6.3-0.2,6.5-6.5,6.5
		C956.9,1968.3,912.9,1968.3,868.9,1968.3z"/>
	<path class="st8" d="M886.8,1823.9c-0.1,10.1-0.9,19.7-6.8,28.5c-1.9,2.8-4,4.4-6.9,4.7c-16.6,1.5-33.3,2.4-49.9,4.3
		c-23.1,2.7-38.8-18.9-37.7-37.5c0.6-9.4,1.8-17.9,8.2-25.2c5.3-6,11.6-10.2,19.7-9.9c15.6,0.6,31.2,1.8,46.8,2.8
		c3.5,0.2,7,0.3,10.4,0.8c2.7,0.4,6.3,0.6,7.6,2.3c3,3.8,5.6,8.3,6.9,13C886.5,1812.8,886.3,1818.5,886.8,1823.9z"/>
	<path class="st8" d="M939.3,1786.9c14.3-2,26.9,4.6,40.1,8c1.2,0.3,2.4,2.1,3.1,3.5c8.5,16.6,7.3,33.1-0.3,49.6
		c-0.7,1.4-2.5,2.7-4,3.3c-15.2,5.1-30.5,10.3-46.9,8.1c-4.7-0.6-9.2-2.4-13.8-3.7c-1.4-0.4-2.8-1.3-4.2-1.5
		c-10.5-1.5-17-8.8-23.3-16.3c-1.3-1.5-2.3-3.8-2.4-5.8c-0.3-7-1.6-14.5,0.3-21.1c2.3-8,8-14.6,16.7-17.4c3.6-1.1,7.2-2.4,10.9-3.3
		c7.8-1.8,15.7-3.3,23.5-4.9C939.2,1785.9,939.3,1786.4,939.3,1786.9z"/>
	<path class="st8" d="M1359.9,1997.3c-11.7,0-23.3,0.4-35-0.1c-10.4-0.5-20.8-1.4-31-3.3c-5.3-1-10.3-4.2-14.9-7.2
		c-4.9-3.2-4.8-8.7-0.6-13c6.8-7,15.6-9.5,24.8-9.9c29.7-1,59.4-2,89.1-1.9c12.9,0.1,25.9,2.6,38.6,5c4,0.8,7.8,4.2,11.1,7.1
		c4.8,4.3,4.5,7.7-0.2,12.2c-6.6,6.2-15,8.4-23.6,8.9c-19.4,1.3-38.8,2-58.1,3C1359.9,1997.9,1359.9,1997.6,1359.9,1997.3z"/>
	<path class="st8" d="M831,1546.3c-13.6,0-27.3,0.4-40.9-0.1c-8.7-0.3-17.4-1.6-26-3.4c-4.5-1-8.7-3.7-12.8-6.2
		c-6.2-3.8-6-10.2-0.3-14.8c7.3-5.8,15.8-8.3,24.8-8.6c26-0.9,52.1-1.9,78.1-1.9c13.7,0,27.4,1.6,41,2.9c7.5,0.7,13.7,4.8,19,9.7
		c3.6,3.3,2.7,9-1.5,12.3c-6.4,5-13.9,7.6-21.9,8.1c-19.9,1.1-39.7,2-59.6,2.9C831,1547,831,1546.6,831,1546.3z"/>
	<path class="st8" d="M832.3,1638.8c-14.7-1.8-29.5-3.4-44.1-5.7c-3.7-0.6-7.4-2.9-10.7-5c-6.6-4.3-6.3-10.9-0.1-15.8
		c7.7-6.1,16.6-7.9,25.9-8.6c9.4-0.6,18.9-0.8,28.3-1.1c14.1-0.4,28.3-1.6,42.3-0.8c16.6,1,33.6-0.9,49.8,3.9
		c5.6,1.7,10.9,5.2,15.6,8.8c4.4,3.3,3.9,8.2-0.3,11.9c-5.9,5.2-13,8.2-20.7,8.7c-17.4,1.1-34.8,1.6-52.2,2.1
		c-11.2,0.3-22.5,0.1-33.7,0.1C832.4,1637.8,832.4,1638.3,832.3,1638.8z"/>
	<path class="st8" d="M1198.4,1779.8c-1.8-1.3-2.8-2-4.2-3c1.4-1.3,2.5-2.4,4.2-3.9C1198.4,1775.3,1198.4,1777.1,1198.4,1779.8z"/>
</g>
<path class="st9" d="M1544.5,1373.1c-154.5,0-309,0-463.5,0c-0.3,0-0.7,0-1,0c-8.3,0-8.3,0-8.3-8.1c0-261.5,0-523-0.1-784.5
	c0-5.7,1.8-8.1,7.2-9.8c26.7-8.4,43.9-27.4,56.1-51.6c11.5-22.9,17.1-47.5,20.9-72.6c5.8-37.7,6.3-75.7,4.7-113.7
	c-1.4-32.7-4.8-65.4-7.5-98c-0.9-11.3-2.4-22.5-4-33.7c-0.7-4.8,2.1-6,5.7-7.1c27-8,53.9-16,80.9-24c47.9-14.2,95.8-28.3,143.6-42.6
	c4.7-1.4,7.5-1,10.4,3.4c6.1,9.4,15.9,14.3,26.3,16.9c14.6,3.7,29.5,7,44.5,8.8c32.9,3.8,66,6.6,99.2,5.1c35.1-1.6,70-4.9,104.5-12
	c15-3.1,27.4-10.9,38.5-21.1c2.6-2.3,4.8-2.7,8.1-1.7c74.2,23,148.5,45.9,222.8,68.7c4.4,1.3,5.2,3.5,4.7,7.5
	c-3.3,24.6-6.9,49.1-9.6,73.7c-2.4,22.2-4.4,44.4-5.2,66.7c-0.9,22.6-1.1,45.3,0.1,67.9c2,37.6,9.5,74,30.3,106.3
	c14.7,22.8,34.7,39.8,58.1,53.1c4.8,2.7,6.6,5.6,6.6,11.3c-0.2,261.1-0.1,522.3-0.1,783.4c0,7.5,0,7.6-7.3,7.6
	c-114.2,0-228.3,0-342.5,0C1627.1,1373.1,1585.8,1373.1,1544.5,1373.1z M712.7,129.6c-3.8,23.7-9.1,47.1-18.1,69.4
	C668,265.1,618.8,300.3,548,304.3c-27.4,1.6-52.9-7.2-76.1-22.1c-30.5-19.6-49.9-47.9-62.7-81.3c-8.7-22.6-12.9-46.1-14.8-70.1
	c-0.4-4.4-1.6-5.4-5.9-4.1c-75.8,22.6-151.6,45-227.4,67.4c-3.8,1.1-5,2.8-4.1,6.8c10.4,49.7,17.8,99.9,20,150.7
	c1.5,36.4,0.2,72.6-6.4,108.4c-4.9,26.4-12.7,51.8-27.4,74.5c-13.4,20.6-31.1,35-56.5,37.8c-7.1,0.8-7.1,0.8-7.1,7.8
	c0,261.8,0,523.6,0,785.5c0,7.3,0,7.3,7.5,7.3c49.8,0,99.7,0,149.5,0c140.3,0,280.6,0,421,0c120,0,240,0,360,0c8.7,0,8.7,0,8.7-8.8
	c0-28.8,0.1-57.7,0.1-86.5c0-161.5,0-323,0-484.4c0-70.8,0-141.7,0-212.5c0-3.7-0.2-6.5-4.7-8c-33-11.1-55.7-33.6-70.5-64.6
	c-14.8-30.9-20.1-64-22.6-97.7c-2.8-37.3-1.1-74.6,3.2-111.7c3.7-31.7,9.1-63.2,13.7-94.8c1-6.8,1.1-6.8-5.5-8.9
	c-70-21.6-140-43.1-210-64.7c-5.2-1.6-10.4-3.2-16.2-5C713.2,127.4,712.9,128.5,712.7,129.6z M1767.3,1833.1c7.5,0,7.5,0,8.7-7
	c8-46.2,16.1-92.4,24.1-138.6c2.2-12.9,2.1-12.8-9.9-18.2c-36.1-16.4-72.2-33-104.8-55.9c-23.3-16.4-46-33.6-68.4-51.2
	c-37-28.9-75.8-54-120.4-70.1c-43.7-15.8-88.1-21.8-133.9-12.3c-40.7,8.4-78.1,25.1-111.5,49.5c-26.4,19.3-51.2,41-76.4,62
	c-26.7,22.3-54.7,42.5-86.6,56.9c-24.7,11.2-50.8,17.8-77,24.3c-6.2,1.5-6.3,1.7-5.2,8.1c3.9,23.5,7.8,46.9,11.7,70.4
	c4.3,25.9,8.7,51.8,12.9,77.8c0.5,3,1.7,4.5,4.8,4.4c1.8-0.1,3.7,0,5.5,0c120.6,0,241.3,0,361.9,0
	C1524.4,1833.1,1645.9,1833.1,1767.3,1833.1z M1194.2,1776.8c1.4-1.3,2.5-2.4,4.2-3.9c0,2.5,0,4.2,0,6.9
	C1196.6,1778.5,1195.6,1777.8,1194.2,1776.8z M636.9,1798.2c27.5,0,55-0.1,82.5,0.1c4.2,0,6.1-1.4,6.6-5.4c0.6-4.9,1.5-9.9,2.3-14.8
	c6.2-37.2,12.4-74.5,18.4-111.7c2.2-13.8,4.3-11.3-9.3-14.5c-33.6-7.9-65.9-18.8-95.3-37.3c-26.8-16.9-50.5-37.6-74.2-58.3
	c-31.6-27.6-65.6-51.2-105.2-66.1c-31.8-12-64.5-17.4-98.4-13.9c-36.5,3.8-70.1,16.8-102.4,33.4c-27.3,14-51.1,33.1-75.2,51.8
	c-27.1,21.1-54,42.4-84.6,58.3C79.8,1631.4,57,1642,34.4,1653c-3.3,1.6-4.7,3.1-4,7.2c7.7,43.4,15.1,86.9,22.6,130.3
	c1.3,7.7,1.4,7.7,9.1,7.7c109.1,0,218.3,0,327.4,0C472,1798.2,554.4,1798.2,636.9,1798.2z M296.6,1401.7c-70,0-140,0-209.9,0
	c-7,0-7,0-7,7.2c0,11.8,0,23.7,0,35.5c0,6.6,0,6.7,6.6,6.7c38.8,0,77.6,0.1,116.5,0.1c195.4,0,390.9,0,586.3-0.1
	c76.6,0,153.3,0,229.9,0c7.2,0,7.2,0,7.2-7.2c0-11.5,0-23,0-34.5c0-7.6,0-7.6-7.8-7.6c-155.1,0-310.2,0-465.4,0
	C467.5,1401.7,382.1,1401.7,296.6,1401.7z M1544.9,1401.7c-75.8,0-151.6,0-227.4,0c-79.7,0-159.3,0-239,0c-6.7,0-6.8,0.1-6.8,6.6
	c0,11.8,0,23.7,0,35.5c0,7.2,0,7.2,7.2,7.2c34.8,0,69.7,0,104.5,0c126.1,0,252.3,0,378.4,0c104.8,0,209.6,0,314.4,0
	c45.2,0,90.3-0.1,135.5,0c4.8,0,6.9-1.2,6.7-6.4c-0.4-10.8-0.1-21.7-0.1-32.5c0-11.7,1-10.5-10.5-10.5
	C1853.5,1401.7,1699.2,1401.7,1544.9,1401.7L1544.9,1401.7z M1758,1905.3c5.2,0,7.3-1.6,8.1-6.6c2.2-13.3,4.8-26.5,7.2-39.8
	c1.6-9,1.6-9-7.4-9c-169.8,0-339.6,0-509.4,0c-72.8,0-145.7,0-218.5,0c-6.8,0-7.1,0.3-6.1,6.6c2.1,13.8,4.3,27.6,6.5,41.4
	c1.2,7.3,1.3,7.3,8.7,7.3c118.3,0,236.6,0,355,0C1520.7,1905.2,1639.4,1905.2,1758,1905.3z M651,1978.7c-111.3,0-222.6,0-333.9,0
	c-8.1,0-8.1,0-8.2,8.3c0,6.8,0,13.7,0,20.5c0,12.7-0.6,10.8,10.7,10.8c259.6,0,519.2,0,778.8,0c27.3,0,54.7,0,82,0
	c2.9,0,5.9,0.3,5.9-4c0-10.5,0-21,0-31.5c0-3-1.5-4.2-4.4-4.1c-2,0.1-4,0-6,0c-142.8,0-285.6,0-428.4,0
	C715.3,1978.7,683.1,1978.7,651,1978.7z M55.1,1818.4c2.2,12.3,4.6,24.5,6.8,36.8c1.3,7.2,1.3,7.2,8.9,7.2c178.7,0,357.3,0,536,0
	c34.8,0,69.7-0.1,104.5,0.1c4.6,0,6.8-0.9,7.4-6c1.4-12.2,3.8-24.3,5.5-36.5c1-7.1,0.9-7.2-6.2-7.2c-59.8,0-119.7,0-179.5,0
	c-158.8,0-317.6,0-476.5,0c-2.3,0-4.5,0-7.3,0C54.9,1815.2,54.8,1816.8,55.1,1818.4z M1000.9,1968.3c6.3,0,6.4-0.2,6.5-6.5
	c0-29.3-0.1-58.7,0.1-88c0-4.9-1.6-6.3-6.4-6.3c-88,0.1-176,0.1-263.9,0.1c-6.3,0-6.4,0.2-6.5,6.5c0,29,0,58,0,87
	c0,7.2,0,7.2,7.3,7.2c43.7,0,87.3,0,131,0C912.9,1968.3,956.9,1968.3,1000.9,1968.3z M885.1,1807.7c-1.3-4.6-3.9-9.1-6.9-13
	c-1.3-1.7-5-1.9-7.6-2.3c-3.4-0.5-6.9-0.6-10.4-0.8c-15.6-1-31.2-2.3-46.8-2.8c-8-0.3-14.4,3.9-19.7,9.9c-6.5,7.3-7.7,15.8-8.2,25.2
	c-1.1,18.6,14.6,40.2,37.7,37.5c16.6-1.9,33.3-2.8,49.9-4.3c2.9-0.3,5-1.8,6.9-4.7c5.9-8.8,6.7-18.5,6.8-28.5
	C886.3,1818.5,886.5,1812.8,885.1,1807.7z M939.1,1785.4c-7.8,1.6-15.7,3.2-23.5,4.9c-3.7,0.8-7.3,2.1-10.9,3.3
	c-8.7,2.7-14.4,9.4-16.7,17.4c-1.9,6.5-0.6,14-0.3,21.1c0.1,2,1.1,4.3,2.4,5.8c6.3,7.5,12.7,14.8,23.3,16.3c1.4,0.2,2.8,1.1,4.2,1.5
	c4.6,1.3,9.1,3.1,13.8,3.7c16.4,2.2,31.7-3,46.9-8.1c1.6-0.5,3.3-1.8,4-3.3c7.6-16.4,8.8-33,0.3-49.6c-0.7-1.4-1.8-3.1-3.1-3.5
	c-13.2-3.4-25.8-9.9-40.1-8C939.3,1786.4,939.2,1785.9,939.1,1785.4z M1359.9,1998.2c19.4-1,38.8-1.7,58.1-3
	c8.6-0.6,17-2.7,23.6-8.9c4.7-4.5,5-7.9,0.2-12.2c-3.3-2.9-7.1-6.4-11.1-7.1c-12.8-2.4-25.7-5-38.6-5c-29.7-0.2-59.4,0.9-89.1,1.9
	c-9.2,0.3-18,2.9-24.8,9.9c-4.2,4.3-4.3,9.8,0.6,13c4.6,3,9.7,6.2,14.9,7.2c10.2,1.9,20.6,2.8,31,3.3c11.6,0.5,23.3,0.1,35,0.1
	C1359.9,1997.6,1359.9,1997.9,1359.9,1998.2z M831,1547.3c19.9-1,39.7-1.8,59.6-3c8.1-0.5,15.5-3.1,21.9-8.2
	c4.2-3.3,5.1-9.1,1.5-12.5c-5.4-5-11.5-9.1-19-9.8c-13.7-1.3-27.4-2.9-41-2.9c-26,0-52.1,1-78.1,1.9c-9,0.3-17.5,2.9-24.8,8.8
	c-5.7,4.7-5.9,11.1,0.3,15c4,2.5,8.3,5.3,12.8,6.2c8.5,1.8,17.3,3.1,26,3.4c13.6,0.5,27.3,0.1,40.9,0.1
	C831,1546.6,831,1546.9,831,1547.3z M832.5,1637.3c11.2,0,22.5,0.2,33.7-0.1c17.4-0.5,34.8-1,52.2-2.1c7.7-0.5,14.8-3.5,20.7-8.7
	c4.2-3.7,4.7-8.6,0.3-11.9c-4.8-3.6-10-7.1-15.6-8.8c-16.2-4.9-33.2-3-49.8-3.9c-14-0.8-28.2,0.4-42.3,0.8
	c-9.4,0.3-18.9,0.4-28.3,1.1c-9.3,0.6-18.2,2.4-25.9,8.6c-6.2,4.9-6.5,11.5,0.1,15.8c3.3,2.1,6.9,4.5,10.7,5
	c14.7,2.3,29.4,3.8,44.1,5.7C832.4,1638.3,832.4,1637.8,832.5,1637.3z M1198.4,1772.9c-1.6,1.5-2.7,2.6-4.2,3.9c1.4,1,2.4,1.7,4.2,3
	C1198.4,1777.1,1198.4,1775.3,1198.4,1772.9z"/>
<g>
	<path class="st6" d="M1643.3,375.7l59.4,38.9h141.9l26.5-66.3c20.4-51,35.8-103.9,45.9-157.9c-68.8-21.1-137.6-42.3-206.4-63.6
		c-3.3-1-5.5-0.6-8.1,1.7c-11.1,10.2-23.5,18-38.5,21.1c-34.5,7.1-69.4,10.4-104.5,12c-4.9,0.2-9.7,0.3-14.5,0.4v213.2L1643.3,375.7
		z"/>
	<path class="st6" d="M1245.5,414.6h141.9l59.4-38.9l98.2-0.5V162c-28.3,0.3-56.6-2.2-84.7-5.5c-15-1.8-29.9-5.1-44.5-8.8
		c-10.4-2.6-20.2-7.5-26.3-16.9c-2.9-4.4-5.7-4.8-10.4-3.4c-47.8,14.3-95.7,28.4-143.6,42.6c-21,6.2-41.9,12.4-62.9,18.7
		c10.1,54.6,25.6,108.1,46.3,159.7L1245.5,414.6z"/>
</g>
<path class="st8" d="M715.9,121.9c5.8,1.8,11,3.3,16.2,5c70,21.6,140,43.1,210,64.7c6.6,2,6.5,2,5.5,8.9
	c-4.7,31.6-10.1,63.1-13.7,94.8c-4.3,37.1-6,74.4-3.2,111.7c2.5,33.7,7.9,66.8,22.6,97.7c14.8,31,37.5,53.5,70.5,64.6
	c4.4,1.5,4.7,4.3,4.7,8c-0.1,70.8,0,141.7,0,212.5c0,161.5,0,323,0,484.4c0,28.8,0,57.7-0.1,86.5c0,8.8,0,8.8-8.7,8.8
	c-120,0-240,0-360,0c-108,0-248.3,0-421,0c-49.8,0-99.7,0-149.5,0c-7.4,0-7.5,0-7.5-7.3c0-261.8,0-523.6,0-785.5c0-7,0-7.1,7.1-7.8
	c25.4-2.8,43.1-17.2,56.5-37.8c14.8-22.7,22.6-48.2,27.4-74.5c6.6-35.9,8-72,6.4-108.4c-2.2-50.9-9.6-101-20-150.7
	c-0.8-4,0.3-5.6,4.1-6.8c75.8-22.4,151.6-44.9,227.4-67.4c4.2-1.3,5.5-0.2,5.9,4.1c1.9,24,6.2,47.5,14.8,70.1
	c12.8,33.3,32.1,61.7,62.7,81.3c23.1,14.8,48.6,23.7,76.1,22.1c70.7-4.1,120-39.2,146.6-105.3c9-22.4,14.3-45.7,18.1-69.4
	C715.1,124.9,715.4,123.8,715.9,121.9z"/>
<g>
	<path class="st2" d="M559.2,351.5l1.3,472.6l110.8-87.9C740.6,681,914,580.5,1004.1,578.1l22.3-0.6c-0.4-2.1-1.5-3.6-4.5-4.6
		c-33-11.1-55.7-33.6-70.5-64.6c-14.7-30.9-20.1-64-22.6-97.7c-1.9-25.7-1.7-51.4,0-77.1c0.8-12.2,1.9-24.3,3.3-36.4
		c3.6-31.7,9-63.2,13.7-94.8c0.2-1.1,0.3-2,0.4-2.8c-0.1-2.5-1.4-2.9-6-4.3c-70-21.6-140-43.1-210-64.7c-5.2-1.7-10.4-3.2-16.2-5
		c-0.5,1.9-0.8,3-1.1,4.3c-3.8,23.7-9.1,47-18.1,69.4c-20.8,51.6-55.3,84.3-103.1,98.1C571.6,309,559.2,328.3,559.2,351.5z"/>
	<path class="st2" d="M97.4,578.1c86.2,2.3,252.4,102.9,318.7,158.1l106,88.3l1.4-473.4c0.1-22-10-42.7-27-55.9
		c-8.4-3.5-16.6-7.8-24.4-12.9c-30.6-19.6-49.9-48-62.7-81.3c-8.6-22.6-12.9-46.1-14.8-70.1c-0.4-4.3-1.7-5.4-5.9-4.1
		c-75.8,22.5-151.6,45-227.4,67.4c-2.5,0.8-3.8,1.7-4.2,3.4c0,0.5,0.1,1,0.2,1.6c10.4,49.7,17.8,99.8,20,150.7
		c0.9,20.5,0.8,41-0.6,61.4c-1.1,16.3-3,32.6-6,48.8c-4.8,26.3-12.6,51.8-27.4,74.5c-13.4,20.6-31.1,35-56.5,37.8
		c-5.2,0.5-6.6,0.7-7,3.6c0,0.5-0.1,1-0.1,1.6L97.4,578.1z"/>
</g>
<g>
	<g>
		<path class="st6" d="M963.6,1067.3l-60.7-73.7l123.5-382c0,54.2,0,134.9,0,134.9l-73.8,236.8l71.6,82.4l-214.1,301.4l-9.4,6
			c-19,0-42.6-0.3-61.5-0.3l34-25.1L963.6,1067.3z"/>
		<g>
			<path class="st6" d="M779.8,1404.3c7.3,0,14.5,0,21.8,0l-80.6,49.4l-10.5,0c-15.7,0-31.4,0-47.2,0l74.8-49.4
				C749.8,1404.3,768.1,1404.3,779.8,1404.3z"/>
		</g>
	</g>
	<polyline class="st10" points="1026.5,688.3 932,982.1 998.1,1062.1 818.6,1290.6 808.5,1367.4 	"/>
</g>
<g>
	<path class="st2" d="M1024.3,1067.2l-71.6-82.4l77.7-237c0,154.7-3.9,325.8-3.9,480.5l-0.2,1l-156.7,145.3
		c-23.6,0-46.5-1.6-68.8-1.6l9.4-6l15-21.3L1024.3,1067.2z"/>
	<path class="st2" d="M801.6,1404.3l-80,49.6c26,0,83.5-0.3,109.5-0.3l38.5-49.2c-10.7,0-19.9-0.2-30.7-0.2
		C825.6,1404.1,815.1,1404.3,801.6,1404.3z"/>
</g>
<g>
	<g>
		<path class="st6" d="M144.4,1066.8l60.7-73.7l-123.5-382c0,54.2,0,134.9,0,134.9l73.8,236.8l-71.6,82.4l214.1,301.4l9.4,6
			c19,0,42.6-0.3,61.5-0.3l-34-25.1L144.4,1066.8z"/>
		<g>
			<path class="st6" d="M328.2,1403.8c-7.3,0-14.5,0-21.8,0l80.6,49.4l10.5,0c15.7,0,31.4,0,47.2,0l-74.8-49.4
				C358.2,1403.8,339.9,1403.8,328.2,1403.8z"/>
		</g>
	</g>
	<polyline class="st10" points="81.5,687.8 176,981.6 109.9,1061.6 289.4,1290.1 299.5,1366.9 	"/>
</g>
<g>
	<path class="st2" d="M282.8,1345.4l15,21.3l9.4,6c-22.4,0-45.2,1.6-68.8,1.6L81.7,1228.9l-0.2-1c0-154.7-3.9-325.8-3.9-480.5
		l77.7,237l-71.6,82.4L282.8,1345.4z"/>
	<path class="st2" d="M269,1403.6c-10.7,0-19.9,0.2-30.7,0.2l38.5,49.2c26,0,83.5,0.3,109.5,0.3l-80-49.6
		C292.9,1403.8,282.4,1403.7,269,1403.6z"/>
</g>
<g>
	
		<rect x="755.4" y="157.2" transform="matrix(-0.9527 -0.3039 0.3039 -0.9527 1510.6001 682.1246)" class="st2" width="105.9" height="132.7"/>
	<rect x="739.9" y="257.1" transform="matrix(-0.9527 -0.3039 0.3039 -0.9527 1465.3982 772.634)" width="105.9" height="30.3"/>
	<rect x="770.8" y="159.4" transform="matrix(-0.9527 -0.3039 0.3039 -0.9527 1555.4602 591.2244)" width="105.9" height="30.3"/>
	<rect x="755.5" y="207.3" transform="matrix(-0.9527 -0.3039 0.3039 -0.9527 1511.1029 680.0424)" width="105.9" height="30.3"/>
</g>
<g>
	
		<rect x="1229.9" y="158" transform="matrix(0.9527 -0.3039 0.3039 0.9527 -2.1067 399.6381)" class="st2" width="105.9" height="97.2"/>
	<rect x="1218.8" y="157" transform="matrix(0.9527 -0.3039 0.3039 0.9527 7.8398 394.6288)" width="105.9" height="30.3"/>
	<rect x="1235.3" y="207.9" transform="matrix(0.9527 -0.3039 0.3039 0.9527 -6.8736 402.0605)" width="105.9" height="30.3"/>
</g>
<g>
	
		<rect x="247.1" y="157.6" transform="matrix(0.9527 -0.3039 0.3039 0.9527 -53.8831 101.7787)" class="st2" width="105.9" height="132.7"/>
	<rect x="262.5" y="257.7" transform="matrix(0.9527 -0.3039 0.3039 0.9527 -67.9997 108.787)" width="105.9" height="30.3"/>
	<rect x="230.6" y="157.4" transform="matrix(0.9527 -0.3039 0.3039 0.9527 -39.0481 94.328)" width="105.9" height="30.3"/>
	<rect x="247.1" y="208.4" transform="matrix(0.9527 -0.3039 0.3039 0.9527 -53.7615 101.7598)" width="105.9" height="30.3"/>
</g>
<g>
	
		<rect x="1748.8" y="155.9" transform="matrix(-0.9527 -0.3039 0.3039 -0.9527 3456.1252 947.1682)" class="st2" width="105.9" height="97.4"/>
	<rect x="1758.9" y="157.4" transform="matrix(-0.9527 -0.3039 0.3039 -0.9527 3485.5608 887.6905)" width="105.9" height="30.3"/>
	<rect x="1743.4" y="205.9" transform="matrix(-0.9527 -0.3039 0.3039 -0.9527 3440.6514 977.6142)" width="105.9" height="30.3"/>
</g>
<g>
	<g>
		<g>
			<g>
				<line class="st2" x1="932" y1="114.1" x2="932" y2="1383.5"/>
				<rect x="928" y="114.1" class="st2" width="8" height="1269.4"/>
			</g>
			<g>
				<line class="st2" x1="897.4" y1="114.1" x2="897.4" y2="1383.5"/>
				<rect x="893.4" y="114.1" class="st11" width="8" height="1269.4"/>
			</g>
		</g>
		<g>
			<g>
				<line class="st2" x1="862.6" y1="109.9" x2="862.6" y2="1379.3"/>
				<rect x="858.6" y="109.9" class="st2" width="8" height="1269.4"/>
			</g>
			<g>
				<line class="st2" x1="828" y1="109.9" x2="828" y2="1379.3"/>
				<rect x="824" y="109.9" class="st11" width="8" height="1269.4"/>
			</g>
		</g>
		<g>
			<g>
				<line class="st2" x1="793.3" y1="105.6" x2="793.3" y2="1375"/>
				<rect x="789.3" y="105.6" class="st2" width="8" height="1269.4"/>
			</g>
			<g>
				<line class="st2" x1="758.7" y1="105.6" x2="758.7" y2="1375"/>
				<rect x="754.7" y="105.6" class="st11" width="8" height="1269.4"/>
			</g>
		</g>
		<g>
			<g>
				<line class="st2" x1="723.9" y1="101.3" x2="723.9" y2="1370.7"/>
				<rect x="719.9" y="101.3" class="st2" width="8" height="1269.4"/>
			</g>
			<g>
				<line class="st2" x1="689.3" y1="101.3" x2="689.3" y2="1370.7"/>
				<rect x="685.3" y="101.3" class="st11" width="8" height="1269.4"/>
			</g>
		</g>
		<g>
			<g>
				<line class="st2" x1="654.5" y1="97" x2="654.5" y2="1366.4"/>
				<rect x="650.5" y="97" class="st2" width="8" height="1269.4"/>
			</g>
			<g>
				<line class="st2" x1="619.9" y1="97" x2="619.9" y2="1366.4"/>
				<rect x="615.9" y="97" class="st11" width="8" height="1269.4"/>
			</g>
		</g>
		<g>
			<g>
				<line class="st2" x1="585.1" y1="92.7" x2="585.1" y2="1362.1"/>
				<rect x="581.1" y="92.7" class="st2" width="8" height="1269.4"/>
			</g>
			<g>
				<line class="st2" x1="550.5" y1="92.7" x2="550.5" y2="1362.1"/>
				<rect x="546.5" y="92.7" class="st11" width="8" height="1269.4"/>
			</g>
		</g>
		<g>
			<g>
				<line class="st2" x1="515.8" y1="88.5" x2="515.8" y2="1357.9"/>
				<rect x="511.8" y="88.5" class="st2" width="8" height="1269.4"/>
			</g>
			<g>
				<line class="st2" x1="481.2" y1="88.5" x2="481.2" y2="1357.9"/>
				<rect x="477.2" y="88.5" class="st11" width="8" height="1269.4"/>
			</g>
		</g>
		<g>
			<g>
				<line class="st2" x1="446.4" y1="84.2" x2="446.4" y2="1353.6"/>
				<rect x="442.4" y="84.2" class="st2" width="8" height="1269.4"/>
			</g>
			<g>
				<line class="st2" x1="411.8" y1="84.2" x2="411.8" y2="1353.6"/>
				<rect x="407.8" y="84.2" class="st11" width="8" height="1269.4"/>
			</g>
		</g>
		<g>
			<g>
				<line class="st2" x1="377" y1="79.9" x2="377" y2="1349.3"/>
				<rect x="373" y="79.9" class="st2" width="8" height="1269.4"/>
			</g>
			<g>
				<line class="st2" x1="342.4" y1="79.9" x2="342.4" y2="1349.3"/>
				<rect x="338.4" y="79.9" class="st11" width="8" height="1269.4"/>
			</g>
		</g>
		<g>
			<g>
				<line class="st2" x1="307.6" y1="75.6" x2="307.6" y2="1345"/>
				<rect x="303.6" y="75.6" class="st2" width="8" height="1269.4"/>
			</g>
			<g>
				<line class="st2" x1="273.1" y1="75.6" x2="273.1" y2="1345"/>
				<rect x="269.1" y="75.6" class="st11" width="8" height="1269.4"/>
			</g>
		</g>
		<g>
			<g>
				<line class="st2" x1="238.3" y1="71.3" x2="238.3" y2="1340.7"/>
				<rect x="234.3" y="71.3" class="st2" width="8" height="1269.4"/>
			</g>
			<g>
				<line class="st2" x1="203.7" y1="71.3" x2="203.7" y2="1340.7"/>
				<rect x="199.7" y="71.3" class="st11" width="8" height="1269.4"/>
			</g>
		</g>
		<g>
			<g>
				<line class="st2" x1="168.9" y1="67" x2="168.9" y2="1336.4"/>
				<rect x="164.9" y="67" class="st2" width="8" height="1269.4"/>
			</g>
			<g>
				<line class="st2" x1="134.3" y1="67" x2="134.3" y2="1336.4"/>
				<rect x="130.3" y="67" class="st11" width="8" height="1269.4"/>
			</g>
		</g>
		<g>
			<g>
				<line class="st2" x1="99.5" y1="62.8" x2="99.5" y2="1332.2"/>
				<rect x="95.5" y="62.8" class="st2" width="8" height="1269.4"/>
			</g>
			<g>
				<line class="st2" x1="64.9" y1="62.8" x2="64.9" y2="1332.2"/>
				<rect x="60.9" y="62.8" class="st11" width="8" height="1269.4"/>
			</g>
		</g>
	</g>
	<g>
		<g>
			<g>
				<line class="st2" x1="1163.6" y1="108.6" x2="1163.6" y2="1378"/>
				<rect x="1159.6" y="108.6" class="st2" width="8" height="1269.4"/>
			</g>
			<g>
				<line class="st2" x1="1198.2" y1="108.6" x2="1198.2" y2="1378"/>
				<rect x="1194.2" y="108.6" class="st11" width="8" height="1269.4"/>
			</g>
		</g>
		<g>
			<g>
				<line class="st2" x1="1233" y1="104.3" x2="1233" y2="1373.7"/>
				<rect x="1229" y="104.3" class="st2" width="8" height="1269.4"/>
			</g>
			<g>
				<line class="st2" x1="1267.6" y1="104.3" x2="1267.6" y2="1373.7"/>
				<rect x="1263.6" y="104.3" class="st11" width="8" height="1269.4"/>
			</g>
		</g>
		<g>
			<g>
				<line class="st2" x1="1302.3" y1="100" x2="1302.3" y2="1369.4"/>
				<rect x="1298.3" y="100" class="st2" width="8" height="1269.4"/>
			</g>
			<g>
				<line class="st2" x1="1336.9" y1="100" x2="1336.9" y2="1369.4"/>
				<rect x="1332.9" y="100" class="st11" width="8" height="1269.4"/>
			</g>
		</g>
		<g>
			<g>
				<line class="st2" x1="1371.7" y1="95.8" x2="1371.7" y2="1365.2"/>
				<rect x="1367.7" y="95.8" class="st2" width="8" height="1269.4"/>
			</g>
			<g>
				<line class="st2" x1="1406.3" y1="95.8" x2="1406.3" y2="1365.2"/>
				<rect x="1402.3" y="95.8" class="st11" width="8" height="1269.4"/>
			</g>
		</g>
		<g>
			<g>
				<line class="st2" x1="1441.1" y1="91.5" x2="1441.1" y2="1360.9"/>
				<rect x="1437.1" y="91.5" class="st2" width="8" height="1269.4"/>
			</g>
			<g>
				<line class="st2" x1="1475.7" y1="91.5" x2="1475.7" y2="1360.9"/>
				<rect x="1471.7" y="91.5" class="st11" width="8" height="1269.4"/>
			</g>
		</g>
		<g>
			<g>
				<line class="st2" x1="1510.5" y1="87.2" x2="1510.5" y2="1356.6"/>
				<rect x="1506.5" y="87.2" class="st2" width="8" height="1269.4"/>
			</g>
			<g>
				<line class="st2" x1="1545.1" y1="87.2" x2="1545.1" y2="1356.6"/>
				<rect x="1541.1" y="87.2" class="st11" width="8" height="1269.4"/>
			</g>
		</g>
		<g>
			<g>
				<line class="st2" x1="1579.8" y1="82.9" x2="1579.8" y2="1352.3"/>
				<rect x="1575.8" y="82.9" class="st2" width="8" height="1269.4"/>
			</g>
			<g>
				<line class="st2" x1="1614.4" y1="82.9" x2="1614.4" y2="1352.3"/>
				<rect x="1610.4" y="82.9" class="st11" width="8" height="1269.4"/>
			</g>
		</g>
		<g>
			<g>
				<line class="st2" x1="1649.2" y1="78.6" x2="1649.2" y2="1348"/>
				<rect x="1645.2" y="78.6" class="st2" width="8" height="1269.4"/>
			</g>
			<g>
				<line class="st2" x1="1683.8" y1="78.6" x2="1683.8" y2="1348"/>
				<rect x="1679.8" y="78.6" class="st11" width="8" height="1269.4"/>
			</g>
		</g>
		<g>
			<g>
				<line class="st2" x1="1718.6" y1="74.4" x2="1718.6" y2="1343.8"/>
				<rect x="1714.6" y="74.4" class="st2" width="8" height="1269.4"/>
			</g>
			<g>
				<line class="st2" x1="1753.2" y1="74.4" x2="1753.2" y2="1343.8"/>
				<rect x="1749.2" y="74.4" class="st11" width="8" height="1269.4"/>
			</g>
		</g>
		<g>
			<g>
				<line class="st2" x1="1787.9" y1="70.1" x2="1787.9" y2="1339.5"/>
				<rect x="1783.9" y="70.1" class="st2" width="8" height="1269.4"/>
			</g>
			<g>
				<line class="st2" x1="1822.5" y1="70.1" x2="1822.5" y2="1339.5"/>
				<rect x="1818.5" y="70.1" class="st11" width="8" height="1269.4"/>
			</g>
		</g>
		<g>
			<g>
				<line class="st2" x1="1857.3" y1="65.8" x2="1857.3" y2="1335.2"/>
				<rect x="1853.3" y="65.8" class="st2" width="8" height="1269.4"/>
			</g>
			<g>
				<line class="st2" x1="1891.9" y1="65.8" x2="1891.9" y2="1335.2"/>
				<rect x="1887.9" y="65.8" class="st11" width="8" height="1269.4"/>
			</g>
		</g>
		<g>
			<g>
				<line class="st2" x1="1926.7" y1="61.5" x2="1926.7" y2="1330.9"/>
				<rect x="1922.7" y="61.5" class="st2" width="8" height="1269.4"/>
			</g>
			<g>
				<line class="st2" x1="1961.3" y1="61.5" x2="1961.3" y2="1330.9"/>
				<rect x="1957.3" y="61.5" class="st11" width="8" height="1269.4"/>
			</g>
		</g>
		<g>
			<g>
				<line class="st2" x1="1996.1" y1="57.2" x2="1996.1" y2="1326.6"/>
				<rect x="1992.1" y="57.2" class="st2" width="8" height="1269.4"/>
			</g>
			<g>
				<line class="st2" x1="2030.7" y1="57.2" x2="2030.7" y2="1326.6"/>
				<rect x="2026.7" y="57.2" class="st11" width="8" height="1269.4"/>
			</g>
		</g>
	</g>
</g>
<g>
	<path class="st12" d="M1198.4,291h148.9c20.2,0,38.2,12.8,44.9,31.9l25,72.2"/>
	<path class="st12" d="M1202.4,303.2H1341c19.4,0,36.6,12.7,43,31.6l23.9,71.4"/>
</g>
<g>
	<path class="st12" d="M1893.4,285.5h-148.9c-20.2,0-38.2,12.8-44.9,31.9l-25,72.2"/>
	<path class="st12" d="M1889.5,297.6h-138.7c-19.4,0-36.6,12.7-43,31.6l-23.9,71.4"/>
</g>
<image style="display:none;overflow:visible;" width="640" height="398" xlink:href="84B33E19.jpg"  transform="matrix(1 0 0 1 321.635 268.6788)">
</image>
<line class="st6" x1="422.2" y1="367.6" x2="420.2" y2="394.5"/>
<path class="st6" d="M853.4,406.2c-57.3-49-140.1-50.3-146.5-49.9c-0.2,0-0.4,0-0.7,0c-4.1-0.1-48-0.7-153,30.7
	c-4.3,1.3-11.3,1.3-15.6-0.1c-104.8-32.1-148.7-31.8-152.8-31.7c-0.2,0-0.4,0-0.7,0c-6.4-0.5-87.9-2.5-145.5,46
	c-5,4.2-5.2,149.1-5.2,177c0,2.8,1.8,5.3,4.5,6.1c0.4,0.1,0.9,0.3,1.3,0.4c60.2,22.6,121,62.6,168.5,101.7
	c24.3,20,53.6,95.2,65.7,128.5c3.6,10,12.4,17.2,22.9,18.9c17,2.8,41.4,6.5,47.5,6.3c5.9,0.2,28-1.1,44.2-2.1
	c10.9-0.7,20.3-7.7,24.1-17.9c13-34.6,44.3-112.9,68.8-132.8c47.8-38.8,117.1-75.9,173.6-99.3c0.4-0.2,0.9-0.3,1.3-0.4
	c2.7-0.9,4.5-3.3,4.5-6.1C860.7,553.9,858.4,410.4,853.4,406.2z"/>
<path class="st13" d="M836,417.1c-52-44.4-138.2-39-144-38.5c-0.2,0-0.4,0-0.6,0c-3.7-0.1-43.6-0.7-138.9,27.8
	c-1.5,0.4-12.7,0.4-14.1,0c-95.1-29.1-135-28.9-138.7-28.8c-0.2,0-0.4,0-0.6,0c-5.8-0.5-91.9-6.5-144.3,37.6
	c-4.5,3.8-4.7,135.4-4.7,160.7c0,2.5,176.6,92.6,176.6,92.6l58.6,141.2c0,0,50,8.6,58.8,8.3c8.7,0.3,55.9-2.9,56.5-3.2
	c0,0,54-138.2,54-138.2s185.1-96.2,185.1-98.8C839.8,552.5,840.5,420.9,836,417.1z"/>
<path class="st6" d="M969.7,787.1"/>
<polyline class="st13" points="236.4,576.1 418.8,673.9 488.2,832.4 "/>
<polyline class="st13" points="849.9,581.7 667.5,679.5 598.1,838 "/>
</svg>
