<?xml version="1.0" encoding="UTF-8"?><svg id="a" xmlns="http://www.w3.org/2000/svg" width="2048" height="2048" viewBox="0 0 2048 2048"><defs><style>.b{stroke-width:0px;}</style></defs><path class="b" d="m747,241.7l100.9,32.2-9.2,28.9-100.9-32.2,9.2-28.9Zm21.7-68.8l100.9,32.2,9.2-28.9-100.9-32.2-9.2,28.9Zm-15.3,47.9l100.9,32.2,9.2-28.9-100.9-32.2-9.2,28.9Zm564.2-79.2l-100.9,32.2,9.2,28.9,100.9-32.2-9.2-28.9Zm16.5,51l-100.9,32.2,9.2,28.9,100.9-32.2-9.2-28.9Zm-972.8,49.7l-100.9,32.2,9.2,28.9,100.9-32.2-9.2-28.9Zm-32-100.2l-100.9,32.2,9.2,28.9,100.9-32.2-9.2-28.9Zm16.5,51l-100.9,32.2,9.2,28.9,100.9-32.2-9.2-28.9Zm1410.9-22.1l100.9,32.2,9.2-28.9-100.9-32.2-9.2,28.9Zm-15.5,48.5l100.9,32.2,9.2-28.9-100.9-32.2-9.2,28.9Z"/></svg>