<?xml version="1.0" encoding="UTF-8"?><svg id="a" xmlns="http://www.w3.org/2000/svg" width="2048" height="2048" viewBox="0 0 2048 2048"><defs><style>.b{fill:#fff;stroke-width:0px;}</style></defs><path class="b" d="m562.6,817.6l75.3-59.7c-10.7,23.5-20,47.2-25.7,62.5-3.8,10.2-13.3,17.2-24.1,17.9-16.2,1.1-38.3,2.3-44.2,2.1-6.1.2-30.5-3.6-47.5-6.3-10.5-1.7-19.3-8.9-22.9-18.9-5.2-14.4-13.7-36.7-23.6-58.9l74.2,61.8,1.3-434.7c4,1.2,8,2.4,12.2,3.7,4.3,1.3,11.3,1.3,15.6,0,2.7-.8,5.4-1.6,8.1-2.4l1.2,433Zm118.4-130.1c47.8-38.8,117.1-75.9,173.6-99.3.4-.2.9-.3,1.3-.4,2.7-.9,4.5-3.3,4.5-6.1.2-27.9-2.1-171.3-7.1-175.5-57.3-49-140.1-50.3-146.5-49.9-.2,0-.4,0-.7,0-3.9-.1-45.8-.7-144.9,28.3l1.2,433,75.3-59.7c13.6-29.8,29.4-59.2,43.1-70.3Zm-155.6-304.2c-96-28.4-136.7-28.1-140.6-28-.2,0-.4,0-.7,0-6.4-.5-87.9-2.5-145.5,46-5,4.2-5.2,149.1-5.2,177,0,2.8,1.8,5.3,4.5,6.1.4.1.9.3,1.3.4,60.2,22.6,121,62.6,168.5,101.7,13.8,11.4,29.2,40.5,42.1,69.6l74.2,61.8,1.3-434.7Zm1341.3-208.3l-29.4,92.1-100.9-32.2,29.1-91.2c-18.3-5.7-36.6-11.3-54.9-17-3.3-1-5.5-.6-8.1,1.7-11.1,10.2-23.5,18-38.5,21.1-34.5,7.1-69.4,10.4-104.5,12-4.9.2-9.7.3-14.5.4-28.3.3-56.6-2.2-84.7-5.5-15-1.8-29.9-5.1-44.5-8.8-10.4-2.6-20.2-7.5-26.3-16.9-2.9-4.4-5.7-4.8-10.4-3.4-20.1,6-40.2,12-60.3,17.9l29.2,91.5-100.9,32.2-29.5-92.6,46.7-14.9c-9.6,2.8-19.1,5.7-28.7,8.5-21,6.2-41.9,12.4-62.9,18.7,10.1,54.6,25.6,108.1,46.3,159.7l26.5,66.3h141.9l59.4-38.9,98.2-.5,98.2.5,59.4,38.9h141.9l26.5-66.3c20.4-51,35.8-103.9,45.9-157.9-16.7-5.1-33.5-10.3-50.2-15.5Zm-99.4,1658q7.5,0,8.7-7c8.1-46.2,16.1-92.4,24.1-138.6,2.3-12.9,2.1-12.7-9.9-18.2-36.2-16.4-72.2-33-104.8-55.9-23.3-16.4-46-33.7-68.4-51.2-37-28.9-75.9-54-120.4-70.1-43.8-15.8-88.1-21.8-133.9-12.3-40.7,8.5-78.1,25.1-111.5,49.5-26.4,19.4-51.2,41-76.4,62-26.8,22.2-54.8,42.4-86.6,56.9-24.7,11.2-50.8,17.8-77,24.3-6.2,1.6-6.3,1.8-5.2,8.1,3.9,23.5,7.8,46.9,11.7,70.4,4.3,25.9,8.7,51.9,12.9,77.8.5,3.1,1.7,4.5,4.8,4.4,1.8,0,3.7,0,5.5,0h361.9c121.5,0,243,0,364.5-.1Zm-573.2-56.2c1.5-1.3,2.6-2.4,4.2-3.9v6.9c-1.8-1.3-2.8-2-4.2-3Zm-557.3,21.4c27.5,0,55,0,82.5,0,4.2,0,6.1-1.4,6.6-5.4.6-5,1.5-9.9,2.3-14.8,6.1-37.2,12.4-74.4,18.4-111.7,2.2-13.8,4.3-11.3-9.3-14.5-33.6-7.8-65.9-18.8-95.3-37.3-26.8-16.9-50.5-37.6-74.2-58.3-31.6-27.7-65.6-51.2-105.2-66.1-31.8-12-64.5-17.4-98.4-13.9-36.5,3.8-70.1,16.8-102.4,33.4-27.3,14-51.2,33.1-75.2,51.8-27,21.1-54,42.4-84.6,58.3-22.3,11.6-45.1,22.3-67.7,33.2-3.3,1.5-4.7,3.1-4,7.2,7.7,43.4,15.1,86.9,22.6,130.3q1.4,7.7,9.1,7.7h327.4c82.5,0,164.9,0,247.4,0Zm1121.1,107.1c5.2,0,7.3-1.5,8.1-6.6,2.2-13.3,4.8-26.5,7.2-39.8,1.7-9,1.6-9-7.4-9h-727.9c-6.8,0-7.1.3-6.1,6.6,2.1,13.8,4.3,27.6,6.5,41.4,1.2,7.3,1.3,7.3,8.7,7.3h355c118.6,0,237.3,0,355.9,0ZM55.1,1818.3c2.2,12.3,4.5,24.5,6.8,36.8q1.3,7.2,8.9,7.2h536c34.8,0,69.7,0,104.5,0,4.6,0,6.8-.9,7.4-6,1.4-12.2,3.7-24.3,5.5-36.5,1.1-7.1.9-7.2-6.2-7.2H54.7c.2,2.5,0,4.1.4,5.6Zm718.1-470.7l-34,25.1c19,0,42.6.3,61.5.3l9.4-6,214.1-301.4-71.6-82.4,73.8-236.8s0-80.7,0-134.9l-123.5,382,60.7,73.7-190.4,280.4Zm6.6,56.6c7.3,0,14.5,0,21.8,0l-80.6,49.4h-10.5c-15.7,0-31.4,0-47.2,0l74.8-49.4c11.7,0,30,0,41.7,0Zm-445-57.1l34,25.1c-19,0-42.6.3-61.5.3l-9.4-6-214.1-301.4,71.6-82.4-73.8-236.8s0-80.7,0-134.9l123.5,382-60.7,73.7,190.4,280.4Zm35.1,56.6l74.8,49.4c-15.7,0-31.4,0-47.2,0h-10.5s-80.6-49.5-80.6-49.5c7.3,0,14.5,0,21.8,0,11.7,0,30,0,41.7,0Z"/></svg>