<?xml version="1.0" encoding="UTF-8"?><svg id="a" xmlns="http://www.w3.org/2000/svg" width="2048" height="2048" viewBox="0 0 2048 2048"><defs><style>.b{fill:#e2950d;}.b,.c{stroke-width:0px;}.c{fill:#fff;}</style></defs><path class="c" d="m648.8,806.3l377.5-195.8v42.1s-377.5,153.7-377.5,153.7Zm-191.8-.3l-377.8-198.9v43.8s377.8,155.1,377.8,155.1Zm168.4,10.2l-7.3,357.9s89.4-169.7,105.2-208.1,1.5-190.5,1.5-190.5l-99.4,40.7Zm-244-50.6s-17.8,162-2,200.4,100.5,208.1,100.5,208.1l-2.6-357.9-95.8-50.6ZM79.7,1375.6s2.4,1.1,353.8,3.2v-203.2c0-75.1-254.4-394.2-254.4-394.2-29.8-24.9-100-32.1-100-32.1l.5,626.3Zm946.6-626s-69.7,7.3-99.5,32.1c0,0-254.4,319.1-254.4,394.2,0,106.2,0,203.2,0,203.2,351.4-2,353.8-3.2,353.8-3.2v-626.3Zm406.4-105.2l-270.3,299.8,26.5,23.9,270.3-299.8-26.5-23.9Zm257-151.1l-270.3,299.8,26.5,23.9,270.3-299.8-26.5-23.9Zm85.2-241.2l-270.3,299.8,26.5,23.9,270.3-299.8-26.5-23.9Zm141.9,236.3l-270.3,299.8,26.5,23.9,270.3-299.8-26.5-23.9Zm-433.6,430.4l-270.3,299.8,26.5,23.9,270.3-299.8-26.5-23.9Zm-134-82.8l-270.3,299.8,26.5,23.9,270.3-299.8-26.5-23.9Zm515.6-129.5l-270.3,299.8,26.5,23.9,270.3-299.8-26.5-23.9ZM394.9,138.8c-1.2-7.7,0,0-.6-7.8-.4-4.3-1.7-5.4-5.9-4.1-70.1,20.8-140.1,41.6-210.2,62.3l6.6,23.7,210.1-74.2Zm538.5,54.4c-67.9-20.9-135.7-41.8-203.6-62.7-5.2-1.7-10.4-3.2-16.2-5-.5,1.9-.8,3-1.1,4.3-1.1,7,.4-.9-1,6l214,82.6,7.9-25.2ZM200.8,458.1c19.9-87-.3-185.6-22-269.1h-.4c-5.8,1.8-11.6,3.5-17.3,5.2-3.8,1.2-4.9,2.8-4.1,6.8,10.4,49.7,17.8,99.8,20,150.7,1.6,36.4.2,72.5-6.4,108.4-4.8,26.3-12.6,51.8-27.4,74.5-13.4,20.6-31.1,35-56.5,37.8-7.1.7-7.1.8-7.1,7.8,0,8.8-1.6,18-.1,26.6s.4.6,1.3,1c64-.5,108.6-100,120.1-149.8Zm710.5,1.7c15.3,63,52.6,127.9,114,151.2.2-.2.9-.3.9-.5,2-9.1,0-20.1,0-29.6,0-3.7-.3-6.5-4.7-8-33-11.1-55.7-33.6-70.5-64.6-14.7-30.9-20.1-64-22.6-97.7-2.8-37.3-1.1-74.6,3.2-111.7,3.6-31.7,9-63.2,13.7-94.8,1-6.9,1.1-6.9-5.5-8.9-3.2-1-6.3-2-9.5-2.9-1.5-.5-21.2,101.9-22.5,111.6-5.3,39.3-7.5,79.3-3.2,118.9,1.3,12.1,3.5,24.5,6.6,37.1Zm-614.7,941.8H86.7c-7,0-7,0-7,7.2v35.5q0,6.7,6.6,6.7c38.9,0,77.7,0,116.5,0,195.4,0,390.9,0,586.3,0h229.9c7.1,0,7.2,0,7.2-7.2v-34.5q0-7.6-7.8-7.6h-465.4c-85.5,0-170.9,0-256.4,0Zm354.3,577.1h-333.9c-8.1,0-8.2,0-8.2,8.3v20.5c.1,12.7-.6,10.8,10.7,10.8h860.8c2.9,0,5.9.3,5.9-4v-31.5c0-3-1.5-4.2-4.4-4.1-2,0-4,0-6,0h-428.4c-32.1,0-64.3,0-96.5,0ZM55.1,1818.3c2.2,12.3,4.5,24.5,6.8,36.8q1.3,7.2,8.9,7.2h536c34.8,0,69.7,0,104.5,0,4.6,0,6.8-.9,7.4-6,1.4-12.2,3.7-24.3,5.5-36.5,1.1-7.1.9-7.2-6.2-7.2H54.7c.2,2.5,0,4.1.4,5.6Zm1702.9,87c5.2,0,7.3-1.5,8.1-6.6,2.2-13.3,4.8-26.5,7.2-39.8,1.7-9,1.6-9-7.4-9h-727.9c-6.8,0-7.1.3-6.1,6.6,2.1,13.8,4.3,27.6,6.5,41.4,1.2,7.3,1.3,7.3,8.7,7.3h355c118.6,0,237.3,0,355.9,0Z"/><path class="b" d="m648.8,806.3l377.5-195.8v42.1s-377.5,153.7-377.5,153.7Zm-191.8-.3l-377.8-198.9v43.8s377.8,155.1,377.8,155.1Zm168.4,10.2l-7.3,357.9s89.4-169.7,105.2-208.1,1.5-190.5,1.5-190.5l-99.4,40.7Zm-244-50.6s-17.8,162-2,200.4,100.5,208.1,100.5,208.1l-2.6-357.9-95.8-50.6ZM79.7,1375.6s2.4,1.1,353.8,3.2v-203.2c0-75.1-254.4-394.2-254.4-394.2-29.8-24.9-100-32.1-100-32.1l.5,626.3Zm946.6-626s-69.7,7.3-99.5,32.1c0,0-254.4,319.1-254.4,394.2,0,106.2,0,203.2,0,203.2,351.4-2,353.8-3.2,353.8-3.2v-626.3Zm406.4-105.2l-270.3,299.8,26.5,23.9,270.3-299.8-26.5-23.9Zm257-151.1l-270.3,299.8,26.5,23.9,270.3-299.8-26.5-23.9Zm85.2-241.2l-270.3,299.8,26.5,23.9,270.3-299.8-26.5-23.9Zm141.9,236.3l-270.3,299.8,26.5,23.9,270.3-299.8-26.5-23.9Zm-433.6,430.4l-270.3,299.8,26.5,23.9,270.3-299.8-26.5-23.9Zm-134-82.8l-270.3,299.8,26.5,23.9,270.3-299.8-26.5-23.9Zm515.6-129.5l-270.3,299.8,26.5,23.9,270.3-299.8-26.5-23.9ZM394.9,138.8c-1.2-7.7,0,0-.6-7.8-.4-4.3-1.7-5.4-5.9-4.1-70.1,20.8-140.1,41.6-210.2,62.3l6.6,23.7,210.1-74.2Zm538.5,54.4c-67.9-20.9-135.7-41.8-203.6-62.7-5.2-1.7-10.4-3.2-16.2-5-.5,1.9-.8,3-1.1,4.3-1.1,7,.4-.9-1,6l214,82.6,7.9-25.2ZM200.8,458.1c19.9-87-.3-185.6-22-269.1h-.4c-5.8,1.8-11.6,3.5-17.3,5.2-3.8,1.2-4.9,2.8-4.1,6.8,10.4,49.7,17.8,99.8,20,150.7,1.6,36.4.2,72.5-6.4,108.4-4.8,26.3-12.6,51.8-27.4,74.5-13.4,20.6-31.1,35-56.5,37.8-7.1.7-7.1.8-7.1,7.8,0,8.8-1.6,18-.1,26.6s.4.6,1.3,1c64-.5,108.6-100,120.1-149.8Zm710.5,1.7c15.3,63,52.6,127.9,114,151.2.2-.2.9-.3.9-.5,2-9.1,0-20.1,0-29.6,0-3.7-.3-6.5-4.7-8-33-11.1-55.7-33.6-70.5-64.6-14.7-30.9-20.1-64-22.6-97.7-2.8-37.3-1.1-74.6,3.2-111.7,3.6-31.7,9-63.2,13.7-94.8,1-6.9,1.1-6.9-5.5-8.9-3.2-1-6.3-2-9.5-2.9-1.5-.5-21.2,101.9-22.5,111.6-5.3,39.3-7.5,79.3-3.2,118.9,1.3,12.1,3.5,24.5,6.6,37.1Zm-614.7,941.8H86.7c-7,0-7,0-7,7.2v35.5q0,6.7,6.6,6.7c38.9,0,77.7,0,116.5,0,195.4,0,390.9,0,586.3,0h229.9c7.1,0,7.2,0,7.2-7.2v-34.5q0-7.6-7.8-7.6h-465.4c-85.5,0-170.9,0-256.4,0Zm354.3,577.1h-333.9c-8.1,0-8.2,0-8.2,8.3v20.5c.1,12.7-.6,10.8,10.7,10.8h860.8c2.9,0,5.9.3,5.9-4v-31.5c0-3-1.5-4.2-4.4-4.1-2,0-4,0-6,0h-428.4c-32.1,0-64.3,0-96.5,0ZM55.1,1818.3c2.2,12.3,4.5,24.5,6.8,36.8q1.3,7.2,8.9,7.2h536c34.8,0,69.7,0,104.5,0,4.6,0,6.8-.9,7.4-6,1.4-12.2,3.7-24.3,5.5-36.5,1.1-7.1.9-7.2-6.2-7.2H54.7c.2,2.5,0,4.1.4,5.6Zm1702.9,87c5.2,0,7.3-1.5,8.1-6.6,2.2-13.3,4.8-26.5,7.2-39.8,1.7-9,1.6-9-7.4-9h-727.9c-6.8,0-7.1.3-6.1,6.6,2.1,13.8,4.3,27.6,6.5,41.4,1.2,7.3,1.3,7.3,8.7,7.3h355c118.6,0,237.3,0,355.9,0Z"/></svg>