<?xml version="1.0" encoding="UTF-8"?><svg id="a" xmlns="http://www.w3.org/2000/svg" width="2048" height="2048" viewBox="0 0 2048 2048"><defs><style>.b{fill:#fff;}.b,.c{stroke-width:0px;}.c{fill:#002f63;}</style></defs><path class="b" d="m1173.8,860l-102.1-93c0-62.2,0-124.3,0-186.5,0-5.7,1.8-8.1,7.2-9.8,26.7-8.4,43.9-27.4,56.1-51.6,11.5-22.9,17.1-47.5,20.9-72.6,5.8-37.7,6.3-75.7,4.7-113.7-1.4-32.7-4.8-65.4-7.5-98-.9-11.3-2.4-22.5-4-33.7-.7-4.8,2.1-6,5.7-7.1,27-8,53.9-16,80.9-24,47.9-14.2,95.8-28.3,143.6-42.6,4.7-1.4,7.5-1,10.4,3.4,6.1,9.4,15.9,14.3,26.3,16.9,14.6,3.7,29.5,7,44.5,8.8,32.9,3.8,66,6.6,99.2,5.1,7.4-.3,14.9-.8,22.3-1.3l130.7,103.9-538.8,595.8Zm350.1,513.1h20.7c41.3,0,82.6,0,124.1,0h342.5c7.3,0,7.3,0,7.3-7.6,0-221.4,0-442.8,0-664.2l-599.1,577.5,104.4,94.4Zm0,28.6l76.4,51.9h418.3v-51.9M552.9,856.1l472.4-245,1-10.7c0-6.5,0-12.9,0-19.4,0-3.7-.3-6.5-4.7-8-33-11.1-55.7-33.6-70.5-64.6-14.7-30.9-20.1-64-22.6-97.7-2.8-37.3-1.1-74.6,3.2-111.7,3.6-31.7,9-63.2,13.7-94.8,1-6.9,1.1-6.9-5.5-8.9-70-21.6-140-43.1-210-64.7-5.2-1.7-10.4-3.2-16.2-5-.5,1.9-.8,3-1.1,4.3-3.8,23.7-9.1,47-18.1,69.4-26.6,66.1-75.9,101.2-146.6,105.3-27.5,1.6-53-7.3-76.1-22.1-30.6-19.6-49.9-48-62.7-81.3-8.6-22.6-12.9-46.1-14.8-70.1-.4-4.3-1.7-5.4-5.9-4.1-75.8,22.5-151.6,45-227.4,67.4-3.8,1.2-4.9,2.8-4.1,6.8,10.4,49.7,17.8,99.8,20,150.7,1.6,36.4.2,72.5-6.4,108.4-4.8,26.3-12.6,51.8-27.4,74.5-13.4,20.6-31.1,35-56.5,37.8-7.1.7-7.1.8-7.1,7.8v22.4l.9,6.1,472.5,247.3Zm72.4-58.9h-148.2l4.5,653.8h131.1c0,0,12.6-653.8,12.6-653.8Zm1142.1,1035.8q7.5,0,8.7-7c8.1-46.2,16.1-92.4,24.1-138.6,2.3-12.9,2.1-12.7-9.9-18.2-36.2-16.4-72.2-33-104.8-55.9-23.3-16.4-46-33.7-68.4-51.2-37-28.9-75.9-54-120.4-70.1-43.8-15.8-88.1-21.8-133.9-12.3-40.7,8.5-78.1,25.1-111.5,49.5-26.4,19.4-51.2,41-76.4,62-26.8,22.2-54.8,42.4-86.6,56.9-24.7,11.2-50.8,17.8-77,24.3-6.2,1.6-6.3,1.8-5.2,8.1,3.9,23.5,7.8,46.9,11.7,70.4,4.3,25.9,8.7,51.9,12.9,77.8.5,3.1,1.7,4.5,4.8,4.4,1.8,0,3.7,0,5.5,0h361.9c121.5,0,243,0,364.5-.1Zm-573.2-56.2c1.5-1.3,2.6-2.4,4.2-3.9v6.9c-1.8-1.3-2.8-2-4.2-3Zm-557.3,21.4c27.5,0,55,0,82.5,0,4.2,0,6.1-1.4,6.6-5.4.6-5,1.5-9.9,2.3-14.8,6.1-37.2,12.4-74.4,18.4-111.7,2.2-13.8,4.3-11.3-9.3-14.5-33.6-7.8-65.9-18.8-95.3-37.3-26.8-16.9-50.5-37.6-74.2-58.3-31.6-27.7-65.6-51.2-105.2-66.1-31.8-12-64.5-17.4-98.4-13.9-36.5,3.8-70.1,16.8-102.4,33.4-27.3,14-51.2,33.1-75.2,51.8-27,21.1-54,42.4-84.6,58.3-22.3,11.6-45.1,22.3-67.7,33.2-3.3,1.5-4.7,3.1-4,7.2,7.7,43.4,15.1,86.9,22.6,130.3q1.4,7.7,9.1,7.7h327.4c82.5,0,164.9,0,247.4,0Z"/><path class="c" d="m1173.8,860l-102.1-93c0-62.2,0-124.3,0-186.5,0-5.7,1.8-8.1,7.2-9.8,26.7-8.4,43.9-27.4,56.1-51.6,11.5-22.9,17.1-47.5,20.9-72.6,5.8-37.7,6.3-75.7,4.7-113.7-1.4-32.7-4.8-65.4-7.5-98-.9-11.3-2.4-22.5-4-33.7-.7-4.8,2.1-6,5.7-7.1,27-8,53.9-16,80.9-24,47.9-14.2,95.8-28.3,143.6-42.6,4.7-1.4,7.5-1,10.4,3.4,6.1,9.4,15.9,14.3,26.3,16.9,14.6,3.7,29.5,7,44.5,8.8,32.9,3.8,66,6.6,99.2,5.1,7.4-.3,14.9-.8,22.3-1.3l130.7,103.9-538.8,595.8Zm350.1,513.1h20.7c41.3,0,82.6,0,124.1,0h342.5c7.3,0,7.3,0,7.3-7.6,0-221.4,0-442.8,0-664.2l-599.1,577.5,104.4,94.4Zm0,28.6l76.4,51.9h418.3v-51.9M552.9,856.1l472.4-245,1-10.7c0-6.5,0-12.9,0-19.4,0-3.7-.3-6.5-4.7-8-33-11.1-55.7-33.6-70.5-64.6-14.7-30.9-20.1-64-22.6-97.7-2.8-37.3-1.1-74.6,3.2-111.7,3.6-31.7,9-63.2,13.7-94.8,1-6.9,1.1-6.9-5.5-8.9-70-21.6-140-43.1-210-64.7-5.2-1.7-10.4-3.2-16.2-5-.5,1.9-.8,3-1.1,4.3-3.8,23.7-9.1,47-18.1,69.4-26.6,66.1-75.9,101.2-146.6,105.3-27.5,1.6-53-7.3-76.1-22.1-30.6-19.6-49.9-48-62.7-81.3-8.6-22.6-12.9-46.1-14.8-70.1-.4-4.3-1.7-5.4-5.9-4.1-75.8,22.5-151.6,45-227.4,67.4-3.8,1.2-4.9,2.8-4.1,6.8,10.4,49.7,17.8,99.8,20,150.7,1.6,36.4.2,72.5-6.4,108.4-4.8,26.3-12.6,51.8-27.4,74.5-13.4,20.6-31.1,35-56.5,37.8-7.1.7-7.1.8-7.1,7.8v22.4l.9,6.1,472.5,247.3Zm72.4-58.9h-148.2l4.5,653.8h131.1c0,0,12.6-653.8,12.6-653.8Zm1142.1,1035.8q7.5,0,8.7-7c8.1-46.2,16.1-92.4,24.1-138.6,2.3-12.9,2.1-12.7-9.9-18.2-36.2-16.4-72.2-33-104.8-55.9-23.3-16.4-46-33.7-68.4-51.2-37-28.9-75.9-54-120.4-70.1-43.8-15.8-88.1-21.8-133.9-12.3-40.7,8.5-78.1,25.1-111.5,49.5-26.4,19.4-51.2,41-76.4,62-26.8,22.2-54.8,42.4-86.6,56.9-24.7,11.2-50.8,17.8-77,24.3-6.2,1.6-6.3,1.8-5.2,8.1,3.9,23.5,7.8,46.9,11.7,70.4,4.3,25.9,8.7,51.9,12.9,77.8.5,3.1,1.7,4.5,4.8,4.4,1.8,0,3.7,0,5.5,0h361.9c121.5,0,243,0,364.5-.1Zm-573.2-56.2c1.5-1.3,2.6-2.4,4.2-3.9v6.9c-1.8-1.3-2.8-2-4.2-3Zm-557.3,21.4c27.5,0,55,0,82.5,0,4.2,0,6.1-1.4,6.6-5.4.6-5,1.5-9.9,2.3-14.8,6.1-37.2,12.4-74.4,18.4-111.7,2.2-13.8,4.3-11.3-9.3-14.5-33.6-7.8-65.9-18.8-95.3-37.3-26.8-16.9-50.5-37.6-74.2-58.3-31.6-27.7-65.6-51.2-105.2-66.1-31.8-12-64.5-17.4-98.4-13.9-36.5,3.8-70.1,16.8-102.4,33.4-27.3,14-51.2,33.1-75.2,51.8-27,21.1-54,42.4-84.6,58.3-22.3,11.6-45.1,22.3-67.7,33.2-3.3,1.5-4.7,3.1-4,7.2,7.7,43.4,15.1,86.9,22.6,130.3q1.4,7.7,9.1,7.7h327.4c82.5,0,164.9,0,247.4,0Z"/></svg>