<?xml version="1.0" encoding="UTF-8"?><svg id="a" xmlns="http://www.w3.org/2000/svg" width="2048" height="2048" viewBox="0 0 2048 2048"><defs><style>.b{fill:#0c0c0c;stroke-width:0px;}</style></defs><path class="b" d="m822.2,1276c-.1-14.3-.3-28.6-.4-43-.3-85.6-.5-171.2-.8-256.9-.1-43.6-.4-87.3-.5-130.9-.1-38-.2-75.9-.3-113.9,0-1.8-1.3-4.9,2.8-4,2.5.5,3.4,1.9,3.4,4.5,0,4.7,0,9.5,0,14.2,0,48.1-.2,96.2,0,144.3.1,16.8.9,33.6.9,50.4,0,82.7,0,165.3.2,248,0,12.3.8,24.6.9,36.9,0,15.1-.1,30.2.2,45.3.1,5.1-1.1,5.9-6.5,5Zm426.6-688.9h-401.8v28h401.8v-28Zm-727.3-18.3c52.2,0,104.3,0,156.5,0,7.4,0,7.2,0,7.1,7.5-.5,21.8-.6,43.6-1.3,65.4-.9,26.6-.7,53.3-1,79.9,0,6.3-.6,12.7-.4,19,.2,4.6-1.6,5.5-5.8,5.5-35.5-.1-71,0-106.5,0-67,0-134,0-201,0-7.1,0-7.1,0-7.4-6.8-1.2-25-.3-50-.9-74.9-.8-29.6-1.3-59.3-2-88.9-.2-6.6-.3-6.6,6.3-6.6,52.2,0,104.3,0,156.5,0Zm-156.2-17.9c-1.5,0-3,0-4.5,0-1.6,0-2.3.7-2.6,2.3-1,7.3.8,9.5,8,9.5,102.9,0,205.9,0,308.8,0,1.6,0,3.3,0,4.9,0,1,0,1.8-.4,2.3-1.5,2.6-5.5-.3-10.3-6.3-10.3-51.8,0-103.6,0-155.4,0s-103.6,0-155.4,0Zm284.7-5.1c8.1,0,7.7,0,7.4-7.7-.2-5.1-3.5-4.2-6.5-4.2-86.9,0-173.8,0-260.7,0-1.2,0-2.3,0-3.5,0-1.5,0-2.3.8-2.8,2.3-1.9,6.7.1,9.6,6.8,9.6,43.2,0,86.4,0,129.6,0,43.2,0,86.4,0,129.6,0Zm-382.5,1188.8c0-4.9-.7-5.9-5.8-5.9-16.1-.3-32.3-.3-48.4,0-5.9.1-7.1,1.9-5.5,7.5.4,1.6.5,3.3,1.1,4.8,2.4,32.5,3.8,65.1,7.1,97.6.3,3.4,1.3,5,5.1,5,11.3-.2,22.7-.2,34,0,3.4,0,4.6-1.1,4.9-4.5,3.3-33,4.9-66,7.1-99.1.8-1.8.4-3.6.4-5.4Zm1098.4-373.6c29,0,58,0,86.9,0,6.5,0,6.8.3,5.9,6.8-.6,4.5-1.4,8.9-1.7,13.4-.2,3-1.4,4.2-4.3,4.1-1.3,0-2.7,0-4,0-55.3,0-110.6,0-165.9,0-7.1,0-7.2,0-8.2-6.9-.6-4.1-.9-8.3-1.6-12.4-.7-4,.9-5.1,4.8-5.1,29.3.1,58.6,0,87.9,0Zm-1126.8,31.7c29,0,58,0,86.9,0,6.3,0,6.6.3,6,6.5-.5,4.8-1.2,9.6-1.7,14.4-.2,2.4-1.3,3.6-3.8,3.4-1,0-2,0-3,0-56.1,0-112.2,0-168.4,0-4.9,0-7.3-1-7.2-6.5,0-3.9-1-7.9-1.6-11.8-.8-5.5-.3-6.1,5.3-6.1,29.1,0,58.3,0,87.4,0Zm582.3-89.7c-.1,2.4-2,1.8-3.3,2-19.9,2.7-39.8,5.3-59.5,9.4-29.3,6.2-57,16.9-83.3,31.1-4.5,2.4-7,2-9.2-2.6-2-4.2-4.4-8.2-6.9-12.1-1.6-2.5-1.6-3.9,1.3-5.4,35.3-19,72.4-32.6,112.2-38.4,10-1.5,20-3,30-4.7,4.8-.8,8.3,0,10.4,4.9,2.1,4.5,4.7,8.8,7,13.2.5.9.9,1.8,1.3,2.7Zm30.4-23.5c39.3,4.8,77.9,11.6,114.2,27.6,11,4.8,21.6,10.4,32.3,15.7,3,1.5,3.4,2.9,1.7,5.7-2.7,4.2-5.3,8.5-7.4,13-1.8,3.7-3.5,4.4-7.2,2.4-14.7-7.7-29.7-15.1-45.4-20.8-21.9-7.8-44.4-12.7-67.3-16.1-10.2-1.6-20.4-2.8-30.7-4.1-3.5-.4-4.7-1.4-2.7-5,3.1-5.3,5.9-10.8,8.7-16.3.9-1.6,1.9-2.8,3.7-2.2Zm397.1-616.6h-415.2v-34.9h415.2v34.9Zm-602.5,649.3l-2.8-99.8,112.7-148.2,47.8,205.4-157.7,42.6Zm360.5-4.7l2.5-89.9-112.7-148.2-50.9,200.4,161.1,37.7Zm15.8-292.8h-394.2v-9.6h394.2v9.6Zm-1.2,18.7h-394.2v9.6h394.2v-9.6Zm1.2-14.1h-394.2v9.6h394.2v-9.6Zm348.4,311.7l-191.6-470.9c-.4-1.5-.9-3.1-1.3-4.6-.7-2.6-1.2-4.6,2.1-6,31.7-12.9,49.6-39,64.6-67.8,18.3-35.2,32.8-72,48.1-108.5.2-.5.5-.9.7-1.3,0,0,0,0,0,0,5.5-14.9,10.9-29.8,16.4-44.7.5-3.4,2.7-3,5.2-2.6,18.7,2.9,37.4,2.5,56.1-.3,6-.9,11.5-3.4,16.3-7,2.7-2,3.9-1.7,5.2,1.7,9.7,25.4,19.5,50.9,30.4,75.8,14.8,33.6,29.7,67.1,50.1,97.9,12.1,18.2,27,33.7,45.4,45.6,3.6,1.7,7.3,3.4,10.9,5.1,6.6,2.2,13.2,4.6,19.9,6.5,1.5.4,2.5.9,3.2,1.6l-181.8,479.6Zm-1142.9,31.8l191.6-470.9c.4-1.5.9-3.1,1.3-4.6.7-2.6,1.2-4.6-2.1-6-31.7-12.9-49.6-39-64.6-67.8-18.3-35.2-32.8-72-48.1-108.5-.2-.5-.5-.9-.7-1.3,0,0,0,0,0,0-5.5-14.9-10.9-29.8-16.4-44.7-.5-3.4-2.7-3-5.2-2.6-18.7,2.9-37.4,2.5-56.1-.3-6-.9-11.5-3.4-16.3-7-2.7-2-3.9-1.7-5.2,1.7-9.7,25.4-19.5,50.9-30.4,75.8-14.8,33.6-29.7,67.1-50.1,97.9-12.1,18.2-27,33.7-45.4,45.6-3.6,1.7-7.3,3.4-10.9,5.1-6.6,2.2-13.2,4.6-19.9,6.5-1.5.4-2.5.9-3.2,1.6l181.8,479.6Zm1529.7-473.1l52.3,72.3,73.4-86.7,37.8,86.7,80.1-107.5c-13.7-20.1-21.3-43.2-31.3-65-10.7-23.5-24.4-45-42.2-63.7-20.5-21.5-44.7-38.3-69.6-54.2-2.2-1.4-4.2-1.6-6.6-1.1-31.2,6.9-62.4,6.8-93.5.2-2.8-.6-5.1-.3-7.5,1.3-18.5,12.1-36.8,24.5-53.5,39.1-20.5,18-37.1,39-50,63-14.3,26.7-22.4,56.3-39.4,81.7-.1.2-.2.3-.3.5l-.2,4.4,83.9,99,66.7-69.9Zm-1259.9-15.5c-2.3,14.5-2.9,29.1-2.9,43.8,0,141.6,0,283.2,0,424.8q0,7.4,6.9,4.5c26.2-11.1,52.2-22.4,79.4-31,5-1.6,6.5-3.8,6.5-9.1-.2-108.3,0-216.6-.2-324.8,0-23.6-.6-47.3,0-70.9.2-7.5-.5-15-1-22.4-.4-5.8-.9-6.1-6.2-3.2-7.9,4.4-16.3,7.5-24.8,10.2-13.9,4.4-26.2,1.5-37.5-7.2-6.8-5.2-13-11.2-19.1-17.1-1.3.7-1,1.7-1.2,2.4Zm661.7,38.1c0-10.3-1-20.6-2.8-30.8-.2-.9.3-2.2-.9-2.6-1.5-.5-1.9,1-2.7,1.7-5,4.9-9.9,9.8-15.5,14.1-10.1,7.8-21.1,12.6-34.3,9.2-10-2.6-19.9-5.5-28.8-11-5.4-3.4-6.3-2.9-6.7,3.3-.5,7.1-1,14.3-.9,21.4.1,19.6.2,39.3.1,58.9-.3,113-.1,225.9-.3,338.9,0,4.3,1.5,6.1,5.4,7.4,16.9,5.6,33.8,11.1,50.1,18.4,10,4.5,20.2,8.6,30.3,12.8,6.8,2.8,6.9,2.7,6.9-4.4,0-1.3,0-2.7,0-4v-216.4c0-72.3,0-144.6,0-216.9Zm657.5,475.9c25.5-.8,50.8-2.7,75.9-7.4,22.7-4.3,45.2-9.5,67.4-15.9,2.3-.7,4.4-1.2,4.4-4.4,0-6.8.1-13.6.3-20.4,0-3.4-1.1-4.4-4.5-3.2-14.7,4.9-29.8,8.1-44.8,11.8-26.4,6.5-53.2,10.4-80.3,12.1-18.1,1.1-36.2,1.6-54.4.3-18.3-1.3-36.5-2.5-54.6-5.7-26.1-4.6-51.8-10.5-77.1-18.4-4.1-1.3-5.1,0-4.9,3.8.1,2.6-.3,5.3-.3,8-.3,14.9-.2,15.1,14.2,18.8,1.3.3,2.6.6,3.9,1,46.6,12.9,94,20,142.4,20.6,4.1-.3,8.3-.7,12.5-.8Z"/></svg>