<?xml version="1.0" encoding="UTF-8"?><svg id="a" xmlns="http://www.w3.org/2000/svg" width="2048" height="2048" viewBox="0 0 2048 2048"><defs><style>.b{fill:#e83d3d;stroke-width:0px;}</style></defs><path class="b" d="m513.6,1363.8c-3.3-.1-4.7-2.9-5.6-5-1.1-2.4,1.9-2.4,3.4-3,27.2-11.6,55-21.6,83.3-30.1,1.1-.3,2.2-.9,3.3-1,3.5-.2,5.1,2.7,5.9,5.2.9,2.6-2.4,2.3-3.7,2.8-28.7,8.9-57,18.8-84.7,30.5-.6.3-1.2.5-1.8.7Zm97.9-20.8c-28.7,9.1-57.3,18.3-85,30.2-4.6,2-4.7,3.3-1,6.7,1.8,1.6,3.3,1.4,5.4.6,17.8-6.8,35.3-14.5,53.7-20,10.7-3.2,21.2-6.8,31.8-10.3,1.3-.4,3.1-.4,3.2-2.3-.3-2.7-5.3-5.7-8-4.8Zm-14.7-6.5c-26.7,8-52.9,17.6-78.6,28.5-1.1.5-2.9.2-2.9,2.1,0,2.7,5.1,5.8,7.7,4.7,27.7-11.8,56.2-21.2,84.8-30.3,1.5-.5,4.6-.4,3.8-2.6-.8-2.2-2.2-4.9-5.2-5.5-3.2,1.1-6.4,2.2-9.5,3.2Zm552.5,35.8c-8.9-3.6-17.9-7-26.9-10.7-19.3-7.8-39.4-13.2-59-20-4.4-1.5-5.9,2.3-7,4.7-1.2,2.7,2.3,2.4,3.9,2.9,14.7,4.9,29.5,9.3,44,14.5,13.4,4.8,26.6,10.3,39.9,15.5,3.1,1.2,8.3-1.5,8.4-4.6-.4-1.6-2.1-1.7-3.4-2.2Zm7.1-9.1c-10.8-4.3-21.7-8.5-32.5-12.9-17.2-6.9-35.1-11.5-52.5-17.5-4.4-1.5-6.2,1.7-7.3,4.2-1.4,3.2,2.4,2.7,4.1,3.3,15.3,5.7,31.2,9.5,46.3,15.6,12.2,4.9,24.4,9.6,36.7,14.4,3.7,1.4,8.7-.7,9.1-4.2-.3-2-2.4-2.3-4-2.9Zm-107.7-7.8c-.6,2.3,2.3,2.1,3.9,2.7,17.4,6.5,35.6,10.8,52.9,17.7,10.3,4.1,20.7,8.1,31.1,12.2,3.4,1.3,7.5-.4,8.3-3.8.7-3.4-2.6-2.8-4.3-3.5-27.2-11.8-55.4-20.8-83.6-29.7-.9-.3-1.9-.6-3.2-1-2.5.9-4.4,3.1-5,5.4Zm-175.9-89.2l37.7-148.5,83.5,109.8-1.9,66.6-119.3-27.9Zm-93.6-12.1l-37.7-148.5-83.5,109.8,1.9,66.6,119.3-27.9Zm938.8,97.6l-75.7-191.4,2.1,175.7,73.6,15.7Zm-1087.5-346.3v-.2c-4.6-37.9-10.5-75.5-17.6-112.9l-2.1-13.3c.2-1,.7-1.9,1.7-2.9,19.6-17.1,33.2-38.9,47.5-60.2,12.5-18.5,25.7-36.5,41.5-52.4,13.7-13.8,29.4-25,46.4-34.2,4.5-2.4,8.8-7.1,13.7-6.5,5,.6,7.3,6.7,10.9,10.3,6.7,6.8,14.9,10.4,24.1,12.1q9.2,1.7,9.2,11.2c0,83,0,166,0,249h-175.5Zm392.1,0v-.2c4.6-37.9,10.5-75.5,17.6-112.9l2.1-13.3c-.2-1-.7-1.9-1.7-2.9-19.6-17.1-33.2-38.9-47.5-60.2-12.5-18.5-25.7-36.5-41.5-52.4-13.7-13.8-29.4-25-46.4-34.2-4.5-2.4-8.8-7.1-13.7-6.5-5,.6-7.3,6.7-10.9,10.3-6.7,6.8-14.9,10.4-24.1,12.1q-9.2,1.7-9.2,11.2c0,83,0,166,0,249h175.5Zm943.7,330.6l2.1-175.7-75.7,191.4,73.6-15.7Zm-332.8-308.5l341.9-3.4,9.7-112.5-74.9,93.8-37.1-86.7-81.2,90.7-43.4-69.4-60.9,65.1-71-96.2,16.7,118.7Z"/></svg>