<?xml version="1.0" encoding="UTF-8"?><svg id="a" xmlns="http://www.w3.org/2000/svg" width="1989.4" height="1893" viewBox="0 0 1989.4 1893"><defs><style>.b{fill:#19aaf2;stroke-width:0px;}</style></defs><path class="b" d="m279.8,1892.5l-.2-1c.2-13.9,0-38,0-38h7.2c5.4-.9,862,0,870,0,.1,3.6.4,24.8-.3,39.5l-876.8-.5Zm500.7-377.7c-1.5-.2-7-1-12.3-1.8-11.4-1.6-20.7-5.9-25.1-11.6-3.8-4.9-3.4-7.6,1.8-12.8,5.3-5.3,12.1-8.4,23.8-10.6,15-2.9,109.5-2.9,123.9,0,14.9,3,27.2,11.1,27.2,18s-4.6,8.9-11.2,12.3c-11.4,5.9-27.2,7.3-79.9,7.1-25,0-46.7-.4-48.2-.6h0Zm-24.1-95.4c-17.8-1.7-24.4-3-30.2-5.9-9.5-4.7-12.5-8.2-10.9-12.6,1.7-4.7,12.8-12.1,19.8-13.2,21.5-3.3,32.4-3.7,75.6-3.2,48.7.6,57,1.4,67.5,6.6,6.2,3,11.2,8.2,11.2,11.4s-3.9,7.4-9.8,10.4c-10.6,5.4-18.7,6.1-71,6.5-26.4.2-49.8.1-52.1,0h0Zm-705.7-94.2c.3-3.6,0-41.2,0-48.7,9.4-.2,936.2-1.3,942.3,0h3.6s0,7,0,7c0,5.9,0,42,0,42h-5.9c-5,0-112,.5-468.7.5-255,0-471.4-.8-471.4-.8Zm991.7,0c.3-3.6,0-41.2,0-48.7,9.4-.2,936.5-1.3,942.6,0h3.6s0,7,0,7c0,5.9,0,42,0,42h-5.9c-5,0-112.1.5-468.9.5-255,0-471.6-.8-471.6-.8Zm-991.8-78.2l.3-10.9c-1.7-9.9-4.1-768.4-2.4-779.6l1.1-7.6,10.4-2.3c14.4-3.1,20-5.2,28.1-10.4,25.7-16.2,49.1-59.1,56.3-116.2,7-55.7,4.2-130.6-9.8-207.4-3.8-20.6-8-37.1-7.7-41,.3-3.2,1.3-2.1,6.4-3.6,6-3,17.6-4.2,43.9-12,16.9-5,34.7-10.3,53.1-15.9,5.1-1.5,24.4-7.3,42.8-12.9s44-13.2,57-17.1c17.2-5.2,25.7-8.5,30.9-9.6h3.6c0-.1,1.3,11.1,1.3,11.1,1.2,4.3,2,13.8,2.8,20,6.3,49.1,29,86.1,58.4,113.6,23.8,22.3,61.8,34.9,92,32.9,13.1-.9,15.9-.6,28.6-3.7,19.7-4.7,37.4-8.8,53-19.4,35.1-23.8,66.1-61.8,76.5-119.5.8-4.5,3.4-15.8,3.8-21.6,1.7-8,.7-8.8,1.9-14,3.7.4,0,0,3.1.3,3.1.3,14.6,4,26.1,7.6,11.5,3.6,21.6,7.3,24,8.1,2.4.7,9,2.7,13.3,4,4.3,1.4,15.7,4.9,25.4,7.9,9.7,3,23.9,7.4,32.1,10,16.1,5.1,48.4,14.6,60.1,18.2,24.7,7.7,35.1,9.7,41.3,12.6l8.1,2.3-1.3,12.1c0,4.3-1.7,18.2-3.9,31.4-4.3,26.4-8.2,56.2-10.5,81-2.1,22.4-3,80.4-1.5,99.3,4.7,60.6,22.3,101.5,49.7,127.1,8.8,8.2,15.3,14,29.1,20.5,6.7,3.1,13.3,4.8,14.5,5.6l3.7,1.1-1.7,398.8c.2,315.8,2.9,383.1,1.9,389.7l.2,10h-5.3c-9.6,1.7-919.7,1.1-929.3-.6h-11.6Zm1001,3.3c-3.2,0-4.7,0-7.8,0-.4-.3-.3-.9-.6-2.1-2.2-9-1.6-59.7-1.3-410.4.2-213.3.7-388.8,1.1-390,.6-1.5,4.1-3.6,11.3-6.9,15.4-7,23.1-11.9,30.8-19.6,14.3-14.4,25.3-35.3,32.2-61.8,3.4-12.8,7.7-35,8.5-44,.3-3.3,1-9.9,1.6-14.8,1.9-17.1,2.2-85.5.5-113.6-2-31.9-3.9-53-7.5-83.5-2.2-19-3.7-32.4-1.7-34.5,2.4-2.8,17.5-7,36.2-10.9,19.6-5.7,29.8-8.6,81.7-24.1,13.5-4,31.2-9.1,39.6-11.6,8.4-2.5,18.2-5.5,21.4-6.5,3.2-1,9.7-2.7,13.5-3.8s13.2-3.9,21.3-6.3c8.1-2.4,14.1-4.4,18.1-5.1l4.2-.7,9.4,10.2c8.3,8.7,18.7,11.2,32.2,14.7,15.8,4.2,33.9,5.6,64.2,7.9,10.8.8,22.3,1.7,25.6,2,7.4.6,50.5.6,57.1,0,2.7-.2,10.7-.9,17.7-1.5,7-.6,14.3-1.3,16.2-1.5,39.8-4.4,60.9-8.5,71.1-14,3.6-2,13.1-7.5,26.8-17.8,1.2-.9,11.8,3,31.5,9.2,8.1,2.5,18.1,5.6,22.1,6.9,18.9,5.8,41.7,12.9,50.2,15.6,10.5,3.3,48.3,15,55.1,17.1,2.4.7,8,2.4,12.3,3.8,13.8,4.4,44.2,13.7,46.3,14.2,1.1.3,5.5,0,9.7,2l6.8,3-.9,13.5c-.9,4.8-2,13.3-3.6,25.8-20.6,156.9-12.2,230.6,22.5,282.5,11.2,16.7,25,29.6,48.1,44.8,8.1,5.4,12.9,9.2,13.5,10.8,1.4,3.8,1.1,784.9-.4,791.8l-1.1,5.4-6.9,1.2c-8.9,1.5-928.6,2.8-928.6,2.8ZM360.9.5h1.8c1.1,0,2,.7,2.1,1.7l1.1,9.4m1379.7,1696c1.7-4.1,4.8-26,8.6-48.2s7.4-44.9,8.2-49.7c7.5-42.2,10.4-54.9,10.1-61.4,0,0-13-5.4-22.9-10-57.1-26.3-88.8-44.5-142.5-86.6-62.2-48.7-82.9-62.8-128.9-81.1-26.5-9.7-38.7-15.5-61-18.6-6.2-.9-41.1-3-46-2.6-21.1,1.4-42.8,3.8-65.1,11.6-9.2,3.2-40.1,15.9-42.8,17.9-.5.4-5.3,2.4-9.7,4.8-11.8,6.3-37.4,22.4-50.5,32.9-6.3,5.1-19.8,16.4-31,26-35.6,30.6-54,46.5-72.8,57.9-14.2,8.6-32.4,19.6-47.7,25.2-14.2,5.3-19.4,8.2-44.9,15-6,1.6-17.3,3.7-21.2,5.3l-8.8,2.4-.4,6c1.6,7.1.3,1.5,13.7,82.4,6.7,40.6,10.7,64.3,10.9,67.2s1.8,3.6,1.8,3.6l714.5-.2h7.1s21.1.2,21.1.2Zm-744.4,17l8.8,55h725.2l11.2-55h-745.1Zm-976.4-37.1l8.4,49.4,655.5.7,7.3-50.5-671.3.3Zm695.1-158.8s-23.7-5.5-29.3-7.1c-30-8.4-49.7-16.2-73.8-30.7-17.6-10.6-35.8-23.8-68.3-52.2-40.5-35.4-56.5-45.4-83.3-59.5-72.4-34.5-120.7-36.1-179.4-18-46.7,16-74.9,30.5-129.6,74.4-31.1,25-56.8,43.2-78.7,55.6-9.2,5.2-27.1,13.9-59.6,29.8-4.3,2.1-5.5,2.6-13.8,6l-4.1,1.9.9,10.8c.6,6.9,2.8,16.2,9.7,52.4s10.8,63.1,11.7,69c.5,3.2,1.7,8.3,2.8,12.1h671.5c4.5-21.9,19.6-121,22.1-135.1l1.1-9.5Zm259.6,213.8h-278.9v99.5h278.9v-99.5Z"/></svg>