<?xml version="1.0" encoding="UTF-8"?><svg id="a" xmlns="http://www.w3.org/2000/svg" width="2048" height="2048" viewBox="0 0 2048 2048"><defs><style>.b{stroke-width:0px;}</style></defs><path class="b" d="m1204.9,2051.3H289.7v-47.1h915.2v47.1ZM905.8,176.1c-.2,0-.5-.1-.7-.2-12-3.7-45.6-13.9-62.1-19-8.3-2.6-23.3-7.2-33.3-10.2-10-3-21.8-6.7-26.3-8.1s-10.1-3.1-12.6-3.9c-2.5-.7-14.2-4.3-25.9-7.9-11.8-3.6-24-6.8-27.3-7.2-3.2-.3-6.8-.8-8-1.1-1.9-.4-2.5.6-5.3,8.3-1.7,4.8-3.8,12.5-4.6,17.1-10.7,58.2-35.9,102.5-71.9,126.5-16,10.7-31.1,17-51.3,21.8-6.6,1.5-10.6,2.4-14.7,3-4,.6-8,.9-14.6,1.3-30.9,2-68-11.7-92.4-34.2-30.1-27.8-48.6-66.9-55.1-116.4-.8-6.2-2.5-14.9-3.7-19.3l-2.2-7.9-8.2.6c-6,.4-14.7,2.5-32.3,7.7-13.3,3.9-39.6,11.7-58.5,17.3-18.9,5.6-38.7,11.4-43.9,13-12.7,3.8-25.1,7.4-37.2,11,0,0,49.7,83.8,68.7,283.5,18.9,199.7,2,1008.6,2,1008.6l281.9,3.2h273.3s-16.9-812.2,2-1011.9c15.6-164.9,52.2-250.7,64.5-275.7Zm-350.4,1636.9H205.3v-235.4l62.6-19.9c73.1-23.3,151.7-23.3,224.8,0l62.6,19.9v235.4Zm1023.6,31h-350v-259l62.6-21.9c73.1-25.6,151.7-25.6,224.8,0l62.6,21.9v259Zm-327.6-377.5c74.2.1,254.4,3.6,254.4,3.6,0,0,207.8-3.5,295.4-3.6-1.5-68.4-14.5-819.5,3.3-1009,13.4-141.8,56.5-242.3,76.2-278.5,0,0,0,0,0,0-2.7-.8-5.3-1.6-7.4-2.2-.5-.2-.6-1.1-.3-2.5-1.8-.5-3.4-1-4.4-1.3-7-2.1-45.8-13.9-56.6-17.3-8.7-2.7-32.1-9.9-51.5-15.7-4.2-1.3-14.4-4.4-22.7-6.9-20.2-6.2-34-9.6-35.3-8.6-14.1,10.4-21.1,15.3-24.8,17.3-10.4,5.6-31.9,9.8-72.7,14.3-1.9.2-9.4.9-16.7,1.5-7.2.6-15.4,1.3-18.2,1.5-6.8.6-51,.6-58.6,0-3.3-.3-15.1-1.2-26.3-2-31.1-2.4-48.6-4.8-64.8-9-13.8-3.6-20.8-7.5-29.3-16.3l-7.3-7.5-7.3,1.3c-4,.7-14.2,3.3-22.5,5.7s-18.3,5.3-22.2,6.5c-3.9,1.1-9.8,2.9-13.1,3.9-3.3,1-13.1,3.9-21.7,6.4-8.6,2.5-27,7.9-40.9,12-45.7,13.5-60.3,17.8-76.2,22.4,14.9,30.6,53.9,119.6,68.6,275.4,17.8,189.4,4.5,940.4,3,1008.9Z"/></svg>