<?xml version="1.0" encoding="UTF-8"?><svg id="a" xmlns="http://www.w3.org/2000/svg" width="2048" height="2048" viewBox="0 0 2048 2048"><defs><style>.b{fill:#fff;stroke-width:0px;}</style></defs><path class="b" d="m298,2031.2l-5.1-1-1.8-10c-2-10.9-1.7-24.3.7-35.7l1.3-6,7.1-1.2c5.5-1,103.8-1.3,440.3-1.3,409.6,0,440.1.1,448,2.5,3.5,1.1,5.3,29.6,2.8,44.8l-1.1,6.9-6.3,1.2c-8.2,1.5-878,1.4-885.8,0h0Zm380.7-108.8v-10.1h241.4v20.2h-241.4v-10.1Zm357.6-4.1l-6.1-.9-2.7-8.7c-4.3-14-8-40-7.2-50.5l.7-8.7,6.2-1.4,6.2-1.4-5.6-.8-5.6-.8-2.7-8.2c-1.7-5.2-6.4-31-13.2-71.8-13.5-81.3-13-77.5-12.6-85.1l.3-6.4,7.1-2.9c3.9-1.6,12.1-4.2,18.2-5.8,25.9-6.9,31-8.4,45.4-13.7,15.5-5.7,35.1-15.1,49.5-23.8,19.1-11.5,39.1-26.9,75.2-57.6,11.4-9.7,25.9-21.8,32.3-26.9,13.2-10.6,39-27.9,51-34.2,4.4-2.4,8.5-4.6,9.1-5,2.8-2,33.6-15.3,42.9-18.5,22.6-7.8,45.8-12.7,67.2-14.1,5-.3,9.6-.8,10.3-1,1.4-.4,30.8,1.2,37.1,2.1,22.6,3.1,37.3,7,64.1,16.7,46.8,17,74.4,33.5,137.4,82.5,54.5,42.3,83.8,60.3,140.9,86.6,10,4.6,21.4,10.3,25.2,12.6l7.1,4.3.3,7.1c.3,6.5-.9,14.5-8.4,57.1-.8,4.8-4.7,27-8.6,49.3-3.9,22.3-8.3,44.3-9.8,48.8l-2.7,8.2-6.1.9-6.1.9,6.8,1.3,6.8,1.3v9.8c0,11.6-4.7,38.7-8.8,50.3-2.2,6.2-3.2,7.8-5.3,8.5-3.8,1.1-728.4,1.3-735.9.2h0Zm-352.9-13.2c-2.4-.7-5.1-2.6-6.9-4.9-3.8-4.7-3.2-7.9,2.2-11.5,4.9-3.2,16.7-4.6,28.7-3.3,11.5,1.2,14.8,3.5,14.8,9.9s-3.3,9.1-9.7,10.2c-7.3,1.2-24.6,1-29.1-.4Zm59.6-.3c-12.8-2.7-17.3-8.7-11-14.8,2.4-2.3,4.6-3.2,10.9-4.2,9.2-1.5,30.3-1.7,36.1-.4,2.2.5,5.3,1.2,6.9,1.4,2.7.5,6.2,2.7,7.9,5.2,1.6,2.2.7,6.3-2,8.8-5.7,5.4-32.1,7.5-48.9,3.9h0Zm-681.7-28.1c-3.6-.5-6.7-1.1-6.8-1.3-1-.9-5.2-15.4-6.6-22.7-.9-4.7-2.3-12.2-3.1-16.6-1-5.4-1.3-10.4-.9-15.3l.7-7.3,5.1-.7,5.1-.7-4.9-1.1-4.9-1.1-2.3-7.3c-1.3-4-2.8-10.4-3.4-14.1-.9-6-5.8-34.2-12-70-6.4-36.6-8-46.7-8.6-53.7l-.7-7.7,4.4-3.2c2.4-1.8,8-4.9,12.4-7.1,33.4-16.1,51.7-25.2,61.1-30.6,22.4-12.6,48.7-30.9,80.7-56.3,56.1-44.5,84.9-61.4,132.8-77.6,62.9-21.3,121.7-15.7,186,17.8,27.4,14.2,43.7,26,85.2,61.9,33.4,28.8,49.5,41.2,67.6,51.9,24.8,14.7,46.9,23.6,77.7,31.3,5.8,1.4,14.2,4.1,18.8,5.9l8.3,3.2v8.8c0,10.3-19.6,132-22.8,141.2-1.8,5.2-2.2,5.6-6.3,6.7l-4.4,1.1,4.7.7,4.7.7.6,8.2c.8,9.6-2.9,35.3-6.6,46.9l-2.2,6.9-8.2,1.2c-10.5,1.5-641,1.5-651.1,0h0Zm748-241.5c-1.4-.2-6.6-.9-11.6-1.5-10.8-1.3-19.5-4.9-23.7-9.6-3.6-4.1-3.2-6.3,1.7-10.6,5-4.4,11.4-6.9,22.5-8.8,14.1-2.4,103.2-2.4,116.8,0,14.1,2.5,25.6,9.2,25.6,14.9s-4.3,7.3-10.6,10.2c-10.7,4.9-25.7,6-75.3,5.9-23.6,0-44-.3-45.4-.5h0Zm-25.3-86.6c-17.2-1.6-23.6-2.8-29.3-5.5-9.2-4.4-12.1-7.6-10.6-11.7,1.6-4.4,12.4-11.2,19.2-12.2,20.9-3,31.3-3.5,73.2-3,47.2.6,55.2,1.3,65.4,6.1,6,2.8,10.8,7.6,10.8,10.6s-3.8,6.9-9.5,9.7c-10.2,5-18.1,5.7-68.8,6-25.6.2-48.3.1-50.5,0h0Zm-712.5-89.2c-9.4-1.8-8.8-1.1-10.1-10.3-1.2-8.3-.9-38.9.5-47.9.7-4.6-.1-4.2,12.1-6.4,9.4-1.7,945.7-.9,952,.8l4.6,1.3,1.2,6.4c1.5,8.1,1.4,41.7-.2,49.1l-1.2,5.6-6.6,1.2c-5.1.9-114.1,1.2-477.2,1.2-259.5,0-472.7-.5-475.2-.9h0Zm1001.6,5.6c-3.1-.6-6.1-1.6-6.6-2.1-4.1-4.7-4.3-54.6-.2-59.4.7-.8,2-1.1,11.5-2.8,9.7-1.7,937.3-.8,943.5.9l4.7,1.3,1.2,6.8c1.4,8.2.9,47.9-.8,51.8-1,2.3-2,2.7-8.9,3.8-11,1.7-935.8,1.5-944.3-.2Zm-1001.2-79.1l-6.5-1.1-1.2-7c-1.7-10-1.9-789.3-.2-800.6l1.2-7.7,10.7-2.3c14.7-3.2,20.5-5.3,28.9-10.5,26.4-16.4,46.1-59.5,53.5-117.1,7.2-56.2,3.2-130.6-11.2-208-3.9-20.8-5.5-32.2-5.2-36.1.3-3.2.8-3.8,5.9-6.3,6.1-3,21.5-8.1,48.5-15.9,17.4-5.1,35.6-10.4,54.5-16,5.3-1.6,25-7.4,43.9-13,18.9-5.6,45.2-13.3,58.5-17.3,17.7-5.2,26.4-7.3,32.3-7.7l8.2-.6,2.2,7.9c1.2,4.4,2.9,13,3.7,19.3,6.5,49.5,25,88.5,55.1,116.4,24.4,22.5,61.4,36.2,92.4,34.2,13.4-.9,16.3-1.3,29.3-4.3,20.3-4.7,35.3-11.1,51.3-21.8,36-24,61.3-68.3,71.9-126.5.8-4.6,2.9-12.2,4.6-17.1,2.8-7.7,3.4-8.7,5.3-8.3,1.2.2,4.8.7,8,1.1,3.2.3,15.5,3.6,27.3,7.2,11.8,3.6,23.4,7.1,25.9,7.9,2.5.7,8.2,2.5,12.6,3.9,4.4,1.4,16.3,5,26.3,8.1,10,3,25,7.6,33.3,10.2,16.5,5.1,50.1,15.4,62.1,19,25.4,7.7,35,10.9,41.3,13.8l7.2,3.3v7.8c0,4.3-1.8,18.4-4,31.7-4.4,26.6-8.4,56.6-10.8,81.7-2.2,22.6-3,81-1.5,100.1,4.9,61.1,21.3,104.4,49.5,130.2,9,8.3,16.7,13.2,30.9,19.8,6.8,3.2,13.5,6.4,14.8,7.3l2.3,1.5.3,398.8c.2,318.4,0,400.3-1,405.9l-1.3,7-7.1,1.2c-9.8,1.7-944.1,1.7-953.9,0h0Zm993.6.2c-3.1-.5-6-1.4-6.7-1.9-3.5-2.8-3.6-12.5-3.2-412.9.2-215.9.7-393.5,1.2-394.6.6-1.5,4.2-3.7,11.6-7,15.8-7.1,23.7-12,31.6-19.9,14.7-14.5,25.9-35.8,33-62.5,3.4-12.9,7.9-35.4,8.7-44.5.3-3.3,1-10,1.6-15,2-17.3,2.3-86.5.5-115-2-32.3-4-53.6-7.7-84.5-2.3-19.3-2.5-29.3-.7-30.7,3.4-2.6,17.4-7.7,36.1-13.1,20.1-5.8,31-9,84.3-24.7,13.9-4.1,32.3-9.5,40.9-12,8.6-2.5,18.4-5.4,21.7-6.4,3.3-1,9.2-2.8,13.1-3.9,3.9-1.1,13.9-4,22.2-6.5,8.3-2.4,18.5-5,22.5-5.7l7.3-1.3,7.3,7.5c8.5,8.8,15.5,12.7,29.3,16.3,16.2,4.2,33.7,6.7,64.9,9,11.1.8,22.9,1.7,26.3,2,7.6.6,51.8.6,58.6,0,2.8-.2,11-.9,18.2-1.5,7.2-.6,14.7-1.3,16.7-1.5,40.8-4.5,62.3-8.7,72.7-14.3,3.7-2,10.7-6.9,24.8-17.3,1.3-.9,15.1,2.4,35.3,8.6,8.3,2.6,18.6,5.7,22.7,6.9,19.4,5.9,42.8,13,51.5,15.7,10.8,3.4,49.6,15.2,56.6,17.3,2.5.7,8.2,2.5,12.6,3.8,14.2,4.4,45.4,13.9,47.5,14.4,1.1.3,5.5,2.1,9.8,4l7.7,3.5.4,7.1c.2,4.3-.7,15.5-2.4,28.1-21.1,158.8-15.8,235.4,19.8,287.9,11.5,16.9,25.7,30,49.3,45.4,8.3,5.4,13.3,9.3,13.9,10.9,1.5,3.9,1.1,794.3-.4,801.3l-1.2,5.5-7.1,1.2c-9.1,1.6-944.1,1.7-952.9.1h0Z"/></svg>