<?xml version="1.0" encoding="UTF-8"?><svg id="a" xmlns="http://www.w3.org/2000/svg" width="2048" height="2048" viewBox="0 0 2048 2048"><defs><style>.b{fill:#ff8500;stroke:#000;stroke-miterlimit:10;}</style></defs><path class="b" d="m1402.1,1905.2h-355c-7.4,0-7.5,0-8.7-7.3-2.2-13.8-4.4-27.6-6.5-41.4-1-6.3-.7-6.6,6.1-6.6h727.9c9,0,9.1,0,7.4,9-2.4,13.3-5,26.5-7.2,39.8-.8,5.1-2.9,6.6-8.1,6.6-118.6,0-237.3,0-355.9,0Zm-751.2,73.5h-333.9c-8.1,0-8.2,0-8.2,8.3v20.5c.1,12.7-.6,10.8,10.7,10.8h860.8c2.9,0,5.9.3,5.9-4v-31.5c0-3-1.5-4.2-4.4-4.1-2,0-4,0-6,0h-428.4c-32.1,0-64.3,0-96.5,0ZM55.1,1818.3c2.2,12.3,4.5,24.5,6.8,36.8q1.3,7.2,8.9,7.2h536c34.8,0,69.7,0,104.5,0,4.6,0,6.8-.9,7.4-6,1.4-12.2,3.7-24.3,5.5-36.5,1.1-7.1.9-7.2-6.2-7.2H54.7c.2,2.5,0,4.1.4,5.6Zm241.5-416.7H86.7c-7,0-7,0-7,7.2v35.5q0,6.7,6.6,6.7c38.9,0,77.7,0,116.5,0,195.4,0,390.9,0,586.3,0h229.9c7.1,0,7.2,0,7.2-7.2v-34.5q0-7.6-7.8-7.6h-465.4c-85.5,0-170.9,0-256.4,0Zm-217.1-28.5v-191.2s57.7-94.6,57.7-94.6l111.4-237.6-42,523.4,175.2-817.7-49,790.4,92.5-596.6,25.2,537.7,54.7-672.7,21,758.8H79.5Zm946.8,0l5.2-191.2-57.7-94.6-116.6-237.6,42,523.4-175.2-817.7,49,790.4-92.5-596.6-25.2,537.7-54.7-672.7-21,758.8h446.6Zm0-504.4l-114.7,91.9,62.2,126.8,57.7,94.6-5.2-313.2ZM79.5,1180.5l58.3-93.6,61.2-127.7-118.8-91.9-.7,313.1Zm992.6-312.5l331.9-300.6-228.4,369.1,208.1-180.8-185.3,246,205.1-126.1-185.8,180.8,208.1-85.2-191.3,146.2,159.8-21-159.5,64.1h138.7l-140.3,28.4-161.4-4.7.5-316.1Zm947.1,316.1l-161.4,4.7-140.3-28.4h138.7s-159.5-64.1-159.5-64.1l159.8,21-191.3-146.2,208.1,85.2-185.8-180.8,205.1,126.1-185.3-246,208.1,180.8-228.4-369.1,331.9,300.6.5,316.1Zm-892.4-616v-34.8c2.9-4.5,5.7-9.2,8.1-14.1,11.5-22.9,17.1-47.5,20.9-72.6,5.8-37.7,6.3-75.7,4.7-113.7-1.4-32.7-4.8-65.4-7.5-98-.9-11.3-2.4-22.5-4-33.7-.7-4.8,2.1-6,5.7-7.1,8.8-2.6,17.6-5.2,26.4-7.8l666.1-17.2c28.8,8.9,57.5,17.7,86.3,26.5,4.4,1.3,5.2,3.5,4.7,7.5-3.3,24.6-6.9,49.1-9.6,73.7-2.4,22.2-4.4,44.4-5.2,66.7-.9,22.6-1.1,45.3,0,67.9,2,37.6,9.5,74,30.3,106.3,14.7,22.8,34.7,39.8,58.1,53.1,2.5,1.4,4.1,2.8,5.2,4.6l1.3,35.8-111.8-6.3-242.3-137.8h-227l-240.5,118.6-70.1-17.6Z"/></svg>