<?xml version="1.0" encoding="UTF-8"?><svg id="a" xmlns="http://www.w3.org/2000/svg" width="2048" height="2048" viewBox="0 0 2048 2048"><defs><style>.b{fill:#0e8ba8;stroke-width:0px;}</style></defs><path class="b" d="m203.8,828.3l-124.3-141.5v-106.5c0-7,0-7.1,7.1-7.8,25.4-2.8,43.1-17.2,56.5-37.8,14.8-22.7,22.6-48.2,27.4-74.5,6.6-35.9,8-72,6.4-108.4-2.2-50.9-9.6-101-20-150.7-.8-4,.3-5.6,4.1-6.8,75.8-22.4,151.6-44.9,227.4-67.4,4.2-1.3,5.5-.2,5.9,4.1,1.9,24,6.2,47.5,14.8,70.1,12.8,33.3,32.1,61.7,62.7,81.3,23.1,14.8,48.6,23.7,76.1,22.1,70.7-4.1,120-39.2,146.6-105.3,8.4-21,13.6-42.7,17.3-64.8l35,1.3c64.4,19.8,128.7,39.6,193.1,59.5,6.6,2,6.5,2,5.5,8.9-4.7,31.6-10.1,63.1-13.7,94.8-4.3,37.1-6,74.4-3.2,111.7,2.5,33.7,7.9,66.8,22.6,97.7,14.8,31,37.5,53.5,70.5,64.6,1.3.4,2.2,1,2.9,1.6l1.8,103.8c0,.8,0,1.5,0,2.3l-141.2,147.7H203.8Zm1688.6,0l124.6-139.8,1.2-106.7v-3.1c-.7-3.6-2.6-5.9-6.3-8-23.4-13.3-43.4-30.3-58.1-53.1-20.8-32.3-28.3-68.7-30.3-106.3-1.2-22.6-1-45.3,0-67.9.8-22.3,2.8-44.5,5.2-66.7,2.7-24.6,6.3-49.1,9.6-73.7.5-4-.3-6.2-4.7-7.5-74.3-22.8-148.6-45.7-222.8-68.7-3.3-1-5.5-.6-8.1,1.7-11.1,10.2-23.5,18-38.5,21.1-34.5,7.1-69.4,10.4-104.5,12-33.2,1.5-66.3-1.3-99.2-5.1-15-1.8-29.9-5.1-44.5-8.8-10.4-2.6-20.2-7.5-26.3-16.9-2.9-4.4-5.7-4.8-10.4-3.4-47.8,14.3-95.7,28.4-143.6,42.6-27,8-53.9,16-80.9,24-3.6,1.1-6.4,2.3-5.7,7.1,1.6,11.2,3.1,22.4,4,33.7,2.7,32.6,6.1,65.3,7.5,98,1.6,38,1.1,76-4.7,113.7-3.8,25.1-9.4,49.7-20.9,72.6-12.2,24.2-29.4,43.2-56.1,51.6-5.4,1.7-7.2,4.1-7.2,9.8,0,33.9,0,67.8,0,101.7l139.6,146.1h681.2ZM389.5,1798.2H62.1q-7.7,0-9.1-7.7c-7.5-43.4-14.9-86.9-22.6-130.3-.7-4.1.7-5.7,4-7.2,22.6-10.9,45.4-21.6,67.7-33.2,30.6-15.9,57.6-37.2,84.6-58.3,24-18.7,47.9-37.8,75.2-51.8,32.3-16.6,65.9-29.6,102.4-33.4,33.9-3.5,66.6,1.9,98.4,13.9,39.6,14.9,73.6,38.4,105.2,66.1,23.7,20.7,47.4,41.4,74.2,58.3,29.4,18.5,61.7,29.5,95.3,37.3,13.6,3.2,11.5.7,9.3,14.5-6,37.3-12.3,74.5-18.4,111.7-.8,4.9-1.7,9.8-2.3,14.8-.5,4-2.4,5.5-6.6,5.4-27.5-.2-55,0-82.5,0-82.5,0-164.9,0-247.4,0Zm1377.9,34.8q7.5,0,8.7-7c8.1-46.2,16.1-92.4,24.1-138.6,2.3-12.9,2.1-12.7-9.9-18.2-36.2-16.4-72.2-33-104.8-55.9-23.3-16.4-46-33.7-68.4-51.2-37-28.9-75.9-54-120.4-70.1-43.8-15.8-88.1-21.8-133.9-12.3-40.7,8.5-78.1,25.1-111.5,49.5-26.4,19.4-51.2,41-76.4,62-26.8,22.2-54.8,42.4-86.6,56.9-24.7,11.2-50.8,17.8-77,24.3-6.2,1.6-6.3,1.8-5.2,8.1,3.9,23.5,7.8,46.9,11.7,70.4,4.3,25.9,8.7,51.9,12.9,77.8.5,3.1,1.7,4.5,4.8,4.4,1.8,0,3.7,0,5.5,0h361.9c121.5,0,243,0,364.5-.1Z"/></svg>