<?xml version="1.0" encoding="UTF-8"?><svg id="a" xmlns="http://www.w3.org/2000/svg" width="1966.7" height="1314.8" viewBox="0 0 1966.7 1314.8"><defs><style>.b{fill:#f75959;stroke-width:0px;}</style></defs><path class="b" d="m1320.4,806h-22.9s-1.4-714.6-1.4-714.6l22.7-1.3,1.7,715.8Zm-1130.6,32.2h22.9s1.4-714.6,1.4-714.6l-22.7-1.3-1.7,715.8Zm869.4-29.3l24.8,9.1-5.4-451.1-8.6,2.4c-1.7.5-3.5.6-5.3.4l-8.1-.9,2.7,440.1ZM505.6,362l-8.2,1.2c-4.3-.1-5,0-7-.6l-6.9-2.1-5.4,451.4,24.8-9.1,2.7-440.9Zm503.6-13.8s-29.5-17.2-60.1,31.8,11.1,400.6,11.1,400.6l2.5.8c5,6,9.2.9,8.7-15.5l15-261.9c1.1-16.9,2.9-33.8,5.7-50.6l17.1-105.3Zm-434.5,101.4c2.5,16.8,4.2,33.7,5.1,50.6l14,278.9,9-2.1s82.3-349.7,52.3-399.1c-30-49.4-96.3-33.9-96.3-33.9l15.9,105.5Zm1017,290c.1,3.6,4,5.9,7.2,4.2,27.2-14,123.5-73,97.1-194.3-20-91.9-107.8-198.8-134.4-211.6-.6-.3-1.2-.4-1.8-.3-2.8.2-4.8,2.8-4.4,5.6l29.3,203.8c.8,5.9,1.4,11.8,1.5,17.7l5.4,174.8Zm337.8-174.8c.2-5.9.7-11.9,1.5-17.7l29.3-203.8c.4-2.8-1.6-5.5-4.4-5.6s-1.2,0-1.8.3c-26.6,12.7-114.5,119.6-134.4,211.6-26.3,121.3,69.9,180.2,97.1,194.3,3.2,1.7,7.1-.6,7.2-4.2l5.4-174.8Z"/></svg>