<?xml version="1.0" encoding="UTF-8"?><svg id="a" xmlns="http://www.w3.org/2000/svg" width="4992" height="4992" viewBox="0 0 4992 4992"><defs><style>.b{fill:#e87960;stroke-width:0px;}</style></defs><path class="b" d="m4325.3,4671.5l-29.4,25.4c-1.2,0-2.3,0-3.5,0l-80.1-11.2,29.9-25.8,83.1,11.6Zm-692.4-.2l-75.2-10.5-29.9,25.8,75.2,10.5,29.9-25.8Zm93.5-80.9l-75.2-10.5-29.9,25.8,75.2,10.5,29.9-25.8Zm-685,104.7c31.5.3,63.1.5,94.6.8l-82.3-11.5-12.4,10.7Zm-110-27.7l-29.9,25.8,5,.7c28.7.3,57.3.5,86,.8l18.7-16.2-79.8-11.1Zm1006.2-141.5l-75.2-10.5-29.9,25.8,75.2,10.5,29.9-25.8Zm-93.5,80.9l-75.2-10.5-29.9,25.8,75.2,10.5,29.9-25.8Zm205.8-59.8l7.9-6.8-22.5-3.1-.3,2.4,15.7,2.2-.7,5.4Zm-1294.2,95.8l-38.9-5.4c.2,11.3.5,21.6.8,30.1l8.2,1.1,29.9-25.8Zm1029,58c14.2,0,28.4,0,42.6,0,6,0,12,0,18.1,0l-52.2-7.3-8.5,7.3Zm-109.3-23.7l-26.3,22.8c28.8.3,57.6.5,86.4.7l15.1-13-75.2-10.5Zm-464.5-128.7l103.7,14.5,29.9-25.8-103.7-14.5-29.9,25.8Zm-122.3-17.1l79.8,11.1,29.9-25.8-79.8-11.1-29.9,25.8Zm-320.3,143.2l90.6,12.6,29.9-25.8-90.6-12.6-29.9,25.8Zm11.3-186.3s0,0-.1,0h0s0,0,0,0Zm1252,74.4l3.2-23.3-54.8-7.6-29.9,25.8,75.2,10.5,6.2-5.4Zm-1036.6,49.6l79.8,11.1,29.9-25.8-79.8-11.1-29.9,25.8Zm-266.4-37.1l90.6,12.6,29.9-25.8-90.6-12.6-29.9,25.8Zm184.2-68.2l19.6-17c-25.3-.2-50.7-.3-76-.5-9.4,0-18.8-.2-28.3-.3l-6,5.2,90.6,12.6Zm-51,86.8l90.6,12.6,29.9-25.8-90.6-12.6-29.9,25.8Zm184.2-68.2l29.9-25.8-66.1-9.2c-9.4,0-18.9-.1-28.3-.2l-26.1,22.6,90.6,12.6Zm1772.3,120.8l-90.6-12.6-29.9,25.8,90.6,12.6,29.9-25.8Zm-856.5-23.1l-75.2-10.5-29.9,25.8,75.2,10.5,29.9-25.8Zm869.2,54.9l69.7,9.7c.7-5.3,1.3-15.9,1.8-29.8l-41.6-5.8-29.9,25.8Zm-1713.6-48.7l103.7,14.5,29.9-25.8-103.7-14.5-29.9,25.8Zm1661.3-82.6l-90.6-12.6-29.9,25.8,90.6,12.6,29.9-25.8Zm-410.9,130.6l-22,19c35.5-.3,70.9-.6,106.4-1l6.3-5.4-90.6-12.6Zm317.4-49.7l-90.6-12.6-29.9,25.8,90.6,12.6,29.9-25.8Zm-437.4-133.6c-19.3.2-38.7.4-58,.6l49.4,6.9,8.6-7.5Zm109.1,23.9l29.1-25.1c-15.2.1-30.5.3-45.7.4-14.2.1-28.3.3-42.5.4l-16,13.9,75.2,10.5Zm489.5-29.7c-19.4.4-38.8.7-58.2.9-13.2.1-26.5.2-39.7.4l83.1,11.6,14.9-12.9Zm57.6,23c0-2.6,0-5.1-.2-7.5-.1-4.5-1-9.1-1.5-12.8-2.1-1.6-4.2-2.5-6.2-3l-22.1,19.1,29.9,4.2Zm-112.6,67.3l90.6,12.6,22.2-19.2c0-2.6,0-5.2,0-7.7l-83-11.6-29.9,25.8Zm-498.2-5.5l-75.2-10.5-29.9,25.8,75.2,10.5,29.9-25.8Zm-259.1,87.8l-15.7-2.2,3.8-27.1-17.7-2.5-29.9,25.8,59.2,8.3.3-2.4Zm-11.9-29.3l15.7,2.2-3.8,27.1,18,2.5,29.9-25.8-59.5-8.3-.3,2.4Zm153.4-75l-75.2-10.5-29.9,25.8,75.2,10.5,29.9-25.8Zm243.3,33.9l-83.1-11.6-29.9,25.8,83.1,11.6,29.9-25.8Zm133.2,18.6l-90.6-12.6-29.9,25.8,90.6,12.6,29.9-25.8Zm-352.3,44.8l-75.2-10.5-29.9,25.8,75.2,10.5,29.9-25.8Zm445.9-125.7l-90.6-12.6-29.9,25.8,90.6,12.6,29.9-25.8Zm-133.2-18.6l-83.1-11.6-29.9,25.8,83.1,11.6,29.9-25.8Zm-692.4-.2l-75.2-10.5-29.9,25.8,75.2,10.5,29.9-25.8Zm-332.1,77.6l91,12.7,29.9-25.8-91-12.7-29.9,25.8Zm-130.7-18.2l88.1,12.3,29.9-25.8-88.1-12.3-29.9,25.8Zm37.1,99.1l91,12.7,29.9-25.8-91-12.7-29.9,25.8Zm278.1-149.1l26.3-22.8c-16.1-.2-32.2-.3-48.4-.5-18.8-.2-37.5-.3-56.3-.5l-12.7,11,91,12.7Zm-408.7,130.9l88.1,12.3,29.9-25.8-88.1-12.3-29.9,25.8Zm281.5-155c-16.3-.1-32.6-.3-48.9-.4l42.5,5.9,6.4-5.5Zm754.7-190.8l-29.4,25.4c-1.2,0-2.3,0-3.5,0l-80.1-11.2,29.9-25.8,83.1,11.6Zm-692.4-.2l-75.2-10.5-29.9,25.8,75.2,10.5,29.9-25.8Zm93.5-80.9l-75.2-10.5-29.9,25.8,75.2,10.5,29.9-25.8Zm-685,104.7c31.5.3,63.1.5,94.6.8l-82.3-11.5-12.4,10.7Zm-110-27.7l-29.9,25.8,5,.7c28.7.3,57.3.5,86,.8l18.7-16.2-79.8-11.1Zm1006.2-141.5l-75.2-10.5-29.9,25.8,75.2,10.5,29.9-25.8Zm-93.5,80.9l-75.2-10.5-29.9,25.8,75.2,10.5,29.9-25.8Zm205.8-59.8l7.9-6.8-22.5-3.1-.3,2.4,15.7,2.2-.7,5.4Zm-1294.2,95.8l-38.9-5.4c.2,11.3.5,21.6.8,30.1l8.2,1.1,29.9-25.8Zm1029,58c14.2,0,28.4,0,42.6,0,6,0,12,0,18.1,0l-52.2-7.3-8.5,7.3Zm-109.3-23.7l-26.3,22.8c28.8.3,57.6.5,86.4.7l15.1-13-75.2-10.5Zm-464.5-128.7l103.7,14.5,29.9-25.8-103.7-14.5-29.9,25.8Zm-122.3-17.1l79.8,11.1,29.9-25.8-79.8-11.1-29.9,25.8Zm-320.3,143.2l90.6,12.6,29.9-25.8-90.6-12.6-29.9,25.8Zm11.3-186.3s0,0-.1,0h0s0,0,0,0Zm1252,74.4l3.2-23.3-54.8-7.6-29.9,25.8,75.2,10.5,6.2-5.4Zm-1036.6,49.6l79.8,11.1,29.9-25.8-79.8-11.1-29.9,25.8Zm-266.4-37.1l90.6,12.6,29.9-25.8-90.6-12.6-29.9,25.8Zm184.2-68.2l19.6-17c-25.3-.2-50.7-.3-76-.5-9.4,0-18.8-.2-28.3-.3l-6,5.2,90.6,12.6Zm-51,86.8l90.6,12.6,29.9-25.8-90.6-12.6-29.9,25.8Zm184.2-68.2l29.9-25.8-66.1-9.2c-9.4,0-18.9-.1-28.3-.2l-26.1,22.6,90.6,12.6Zm1772.3,120.8l-90.6-12.6-29.9,25.8,90.6,12.6,29.9-25.8Zm-856.5-23.1l-75.2-10.5-29.9,25.8,75.2,10.5,29.9-25.8Zm869.2,54.9l69.7,9.7c.7-5.3,1.3-15.9,1.8-29.8l-41.6-5.8-29.9,25.8Zm-1713.6-48.7l103.7,14.5,29.9-25.8-103.7-14.5-29.9,25.8Zm1661.3-82.6l-90.6-12.6-29.9,25.8,90.6,12.6,29.9-25.8Zm-410.9,130.6l-22,19c35.5-.3,70.9-.6,106.4-1l6.3-5.4-90.6-12.6Zm317.4-49.7l-90.6-12.6-29.9,25.8,90.6,12.6,29.9-25.8Zm-437.4-133.6c-19.3.2-38.7.4-58,.6l49.4,6.9,8.6-7.5Zm109.1,23.9l29.1-25.1c-15.2.1-30.5.3-45.7.4-14.2.1-28.3.3-42.5.4l-16,13.9,75.2,10.5Zm489.5-29.7c-19.4.4-38.8.7-58.2.9-13.2.1-26.5.2-39.7.4l83.1,11.6,14.9-12.9Zm57.6,23c0-2.6,0-5.1-.2-7.5-.1-4.5-1-9.1-1.5-12.8-2.1-1.6-4.2-2.5-6.2-3l-22.1,19.1,29.9,4.2Zm-112.6,67.3l90.6,12.6,22.2-19.2c0-2.6,0-5.2,0-7.7l-83-11.6-29.9,25.8Zm-498.2-5.5l-75.2-10.5-29.9,25.8,75.2,10.5,29.9-25.8Zm-259.1,87.8l-15.7-2.2,3.8-27.1-17.7-2.5-29.9,25.8,59.2,8.3.3-2.4Zm-11.9-29.3l15.7,2.2-3.8,27.1,18,2.5,29.9-25.8-59.5-8.3-.3,2.4Zm153.4-75l-75.2-10.5-29.9,25.8,75.2,10.5,29.9-25.8Zm243.3,33.9l-83.1-11.6-29.9,25.8,83.1,11.6,29.9-25.8Zm133.2,18.6l-90.6-12.6-29.9,25.8,90.6,12.6,29.9-25.8Zm-352.3,44.8l-75.2-10.5-29.9,25.8,75.2,10.5,29.9-25.8Zm445.9-125.7l-90.6-12.6-29.9,25.8,90.6,12.6,29.9-25.8Zm-133.2-18.6l-83.1-11.6-29.9,25.8,83.1,11.6,29.9-25.8Zm-692.4-.2l-75.2-10.5-29.9,25.8,75.2,10.5,29.9-25.8Zm-332.1,77.6l91,12.7,29.9-25.8-91-12.7-29.9,25.8Zm-130.7-18.2l88.1,12.3,29.9-25.8-88.1-12.3-29.9,25.8Zm37.1,99.1l91,12.7,29.9-25.8-91-12.7-29.9,25.8Zm278.1-149.1l26.3-22.8c-16.1-.2-32.2-.3-48.4-.5-18.8-.2-37.5-.3-56.3-.5l-12.7,11,91,12.7Zm-408.7,130.9l88.1,12.3,29.9-25.8-88.1-12.3-29.9,25.8Zm281.5-155c-16.3-.1-32.6-.3-48.9-.4l42.5,5.9,6.4-5.5Zm853.6-436.1l-29.4,25.4c-1.2,0-2.3,0-3.5,0l-80.1-11.2,29.9-25.8,83.1,11.6Zm-692.4-.2l-75.2-10.5-29.9,25.8,75.2,10.5,29.9-25.8Zm93.5-80.9l-75.2-10.5-29.9,25.8,75.2,10.5,29.9-25.8Zm-685,104.7c31.5.3,63.1.5,94.6.8l-82.3-11.5-12.4,10.7Zm-110-27.7l-29.9,25.8,5,.7c28.7.3,57.3.5,86,.8l18.7-16.2-79.8-11.1Zm1006.2-141.5l-75.2-10.5-29.9,25.8,75.2,10.5,29.9-25.8Zm-93.5,80.9l-75.2-10.5-29.9,25.8,75.2,10.5,29.9-25.8Zm205.8-59.8l7.9-6.8-22.5-3.1-.3,2.4,15.7,2.2-.7,5.4Zm-1294.2,95.8l-38.9-5.4c.2,11.3.5,21.6.8,30.1l8.2,1.1,29.9-25.8Zm1029,58c14.2,0,28.4,0,42.6,0,6,0,12,0,18.1,0l-52.2-7.3-8.5,7.3Zm-109.3-23.7l-26.3,22.8c28.8.3,57.6.5,86.4.7l15.1-13-75.2-10.5Zm-464.5-128.7l103.7,14.5,29.9-25.8-103.7-14.5-29.9,25.8Zm-122.3-17.1l79.8,11.1,29.9-25.8-79.8-11.1-29.9,25.8Zm-320.3,143.2l90.6,12.6,29.9-25.8-90.6-12.6-29.9,25.8Zm11.3-186.3s0,0-.1,0h0s0,0,0,0Zm1252,74.4l3.2-23.3-54.8-7.6-29.9,25.8,75.2,10.5,6.2-5.4Zm-1036.6,49.6l79.8,11.1,29.9-25.8-79.8-11.1-29.9,25.8Zm-266.4-37.1l90.6,12.6,29.9-25.8-90.6-12.6-29.9,25.8Zm184.2-68.2l19.6-17c-25.3-.2-50.7-.3-76-.5-9.4,0-18.8-.2-28.3-.3l-6,5.2,90.6,12.6Zm-51,86.8l90.6,12.6,29.9-25.8-90.6-12.6-29.9,25.8Zm184.2-68.2l29.9-25.8-66.1-9.2c-9.4,0-18.9-.1-28.3-.2l-26.1,22.6,90.6,12.6Zm1772.3,120.8l-90.6-12.6-29.9,25.8,90.6,12.6,29.9-25.8Zm-856.5-23.1l-75.2-10.5-29.9,25.8,75.2,10.5,29.9-25.8Zm869.2,54.9l69.7,9.7c.7-5.3,1.3-15.9,1.8-29.8l-41.6-5.8-29.9,25.8Zm-1713.6-48.7l103.7,14.5,29.9-25.8-103.7-14.5-29.9,25.8Zm1661.3-82.6l-90.6-12.6-29.9,25.8,90.6,12.6,29.9-25.8Zm-410.9,130.6l-22,19c35.5-.3,70.9-.6,106.4-1l6.3-5.4-90.6-12.6Zm317.4-49.7l-90.6-12.6-29.9,25.8,90.6,12.6,29.9-25.8Zm-437.4-133.6c-19.3.2-38.7.4-58,.6l49.4,6.9,8.6-7.5Zm109.1,23.9l29.1-25.1c-15.2.1-30.5.3-45.7.4-14.2.1-28.3.3-42.5.4l-16,13.9,75.2,10.5Zm489.5-29.7c-19.4.4-38.8.7-58.2.9-13.2.1-26.5.2-39.7.4l83.1,11.6,14.9-12.9Zm57.6,23c0-2.6,0-5.1-.2-7.5-.1-4.5-1-9.1-1.5-12.8-2.1-1.6-4.2-2.5-6.2-3l-22.1,19.1,29.9,4.2Zm-112.6,67.3l90.6,12.6,22.2-19.2c0-2.6,0-5.2,0-7.7l-83-11.6-29.9,25.8Zm-498.2-5.5l-75.2-10.5-29.9,25.8,75.2,10.5,29.9-25.8Zm-259.1,87.8l-15.7-2.2,3.8-27.1-17.7-2.5-29.9,25.8,59.2,8.3.3-2.4Zm-11.9-29.3l15.7,2.2-3.8,27.1,18,2.5,29.9-25.8-59.5-8.3-.3,2.4Zm153.4-75l-75.2-10.5-29.9,25.8,75.2,10.5,29.9-25.8Zm243.3,33.9l-83.1-11.6-29.9,25.8,83.1,11.6,29.9-25.8Zm133.2,18.6l-90.6-12.6-29.9,25.8,90.6,12.6,29.9-25.8Zm-352.3,44.8l-75.2-10.5-29.9,25.8,75.2,10.5,29.9-25.8Zm445.9-125.7l-90.6-12.6-29.9,25.8,90.6,12.6,29.9-25.8Zm-133.2-18.6l-83.1-11.6-29.9,25.8,83.1,11.6,29.9-25.8Zm-692.4-.2l-75.2-10.5-29.9,25.8,75.2,10.5,29.9-25.8Zm-332.1,77.6l91,12.7,29.9-25.8-91-12.7-29.9,25.8Zm-130.7-18.2l88.1,12.3,29.9-25.8-88.1-12.3-29.9,25.8Zm37.1,99.1l91,12.7,29.9-25.8-91-12.7-29.9,25.8Zm278.1-149.1l26.3-22.8c-16.1-.2-32.2-.3-48.4-.5-18.8-.2-37.5-.3-56.3-.5l-12.7,11,91,12.7Zm-408.7,130.9l88.1,12.3,29.9-25.8-88.1-12.3-29.9,25.8Zm281.5-155c-16.3-.1-32.6-.3-48.9-.4l42.5,5.9,6.4-5.5Zm-1862.8,1132.6l-77-33.9,35.8-16.7,77,33.9-35.8,16.7Zm71.9-.8l-35.8,16.7,52.9,23.3c7.1,0,14.2,0,21.3,0l25.4-11.9-63.9-28.1Zm-262.5-115.5l-77-33.9-9.1,4.3c.2,8.1.3,16.3.5,24.4l49.9,21.9,35.8-16.7Zm.4,32.6l77,33.9,35.8-16.7-77-33.9-35.8,16.7Zm-1.5-134.8l-77-33.9-9.9,4.6c.2,7.9.3,15.8.5,23.7l50.7,22.3,35.8-16.7Zm539.6,237.4l-63.9-28.1-35.8,16.7,63.9,28.1,35.8-16.7Zm-100-44l-63.9-28.1-35.8,16.7,63.9,28.1,35.8-16.7Zm-439.2-160.7l77,33.9,35.8-16.7-77-33.9-35.8,16.7Zm566.1,225c6.4,0,12.8,0,19.1,0l-9.9-4.3-9.3,4.3Zm-452.9-175.2l77,33.9,35.8-16.7-77-33.9-35.8,16.7Zm226,66.9l-77-33.9-35.8,16.7,77,33.9,35.8-16.7Zm-227.2-169.1l77,33.9,35.8-16.7-77-33.9-35.8,16.7Zm539.2,204.7l-63.9-28.1-35.8,16.7,63.9,28.1,35.8-16.7Zm-100-44l-63.9-28.1-35.8,16.7,63.9,28.1,35.8-16.7Zm-552.4-210.5l77,33.9,35.8-16.7-77-33.9-35.8,16.7Zm-.4-32.6l-77-33.9-10.8,5c.2,7.6.3,15.3.5,22.9l51.6,22.7,35.8-16.7Zm761.8,359.7c8.8,0,17.7,0,26.5,0s19.7,0,29.5,0l-28.9-12.7-27.2,12.7Zm-535.1-227.5l77,33.9,35.8-16.7-77-33.9-35.8,16.7Zm226,66.9l-77-33.9-35.8,16.7,77,33.9,35.8-16.7Zm300.1,132l-63.9-28.1-35.8,16.7,63.9,28.1,35.8-16.7Zm-753.6-400.6l77,33.9,35.8-16.7-77-33.9-35.8,16.7Zm865.6,348.3l-63.9-28.1-35.8,16.7,63.9,28.1,35.8-16.7Zm.4,32.6l38.7,17c.2-10.7.4-21.5.6-32.2l-3.6-1.6-35.8,16.7Zm-100.4-76.6l-63.9-28.1-35.8,16.7,63.9,28.1,35.8-16.7Zm-539.2-204.7l77,33.9,35.8-16.7-77-33.9-35.8,16.7Zm339.2,116.7l-77-33.9-35.8,16.7,77,33.9,35.8-16.7Zm100,44l-63.9-28.1-35.8,16.7,63.9,28.1,35.8-16.7Zm-665.9-292.9l-77-33.9-11.6,5.4c.1,7.4.3,14.7.4,22.1l52.4,23.1,35.8-16.7Zm339.9,182l77,33.9,35.8-16.7-77-33.9-35.8,16.7Zm-226.4-99.6l77,33.9,35.8-16.7-77-33.9-35.8,16.7Zm-114.3-151.9l77,33.9,35.8-16.7-77-33.9-35.8,16.7Zm878.8,354.1l-63.9-28.1-35.8,16.7,63.9,28.1,35.8-16.7Zm-879.1-386.7l-77-33.9-12.5,5.8c.1,7.1.3,14.2.4,21.3l53.3,23.4,35.8-16.7Zm779.1,342.7l-63.9-28.1-35.8,16.7,63.9,28.1,35.8-16.7Zm129,89.2c.2-8.7.3-17.5.5-26.2l-29.2,13.6,28.7,12.6Zm-455.1-200.2l77,33.9,35.8-16.7-77-33.9-35.8,16.7Zm-339.6-149.4l77,33.9,35.8-16.7-77-33.9-35.8,16.7Zm226.4,99.6l77,33.9,35.8-16.7-77-33.9-35.8,16.7Zm339.2,116.7l-77-33.9-35.8,16.7,77,33.9,35.8-16.7Zm-452.4-166.5l77,33.9,35.8-16.7-77-33.9-35.8,16.7Zm-227.5-201.7l77,33.9,35.8-16.7-77-33.9-35.8,16.7Zm791.9,315.9l-77-33.9-35.8,16.7,77,33.9,35.8-16.7Zm-565.5-216.3l77,33.9,35.8-16.7-77-33.9-35.8,16.7Zm-113.2-49.8l77,33.9,35.8-16.7-77-33.9-35.8,16.7Zm778.8,310.1l-63.9-28.1-35.8,16.7,63.9,28.1,35.8-16.7Zm-892.3-392.5l-20.4-9c-5.1,8.9-11.1,17.2-17.9,24.6l2.5,1.1,35.8-16.7Zm911.3,433.3c.1-5.7.2-11.3.3-17l-18.9,8.8,18.6,8.2Zm-458.2-201.5l77,33.9,35.8-16.7-77-33.9-35.8,16.7Zm113.2,49.8l77,33.9,35.8-16.7-77-33.9-35.8,16.7Zm-226.4-99.6l77,33.9,35.8-16.7-77-33.9-35.8,16.7Zm564.4,114.2l-77-33.9-35.8,16.7,77,33.9,35.8-16.7Zm-452.4-166.5l77,33.9,35.8-16.7-77-33.9-35.8,16.7Zm226.4,99.6l77,33.9,35.8-16.7-77-33.9-35.8,16.7Zm-452.7-199.2l77,33.9,35.8-16.7-77-33.9-35.8,16.7Zm687.6,302.5c0-2.6,0-5.2.1-7.8l-8.6,4,8.5,3.7Zm-801.2-384.9l-77-33.9-34.1,15.9c0,.5-.2.9-.2,1.4l75.6,33.3,35.8-16.7Zm453.1,231.8l77,33.9,35.8-16.7-77-33.9-35.8,16.7Zm-226.4-99.6l77,33.9,35.8-16.7-77-33.9-35.8,16.7Zm-226.4-99.6l77,33.9,35.8-16.7-77-33.9-35.8,16.7Zm112-52.3l77,33.9,35.8-16.7-77-33.9-35.8,16.7Zm690.7,303.8c0-3.5.1-7.1.2-10.6l-11.8,5.5,11.6,5.1Zm-577.5-254l77,33.9,35.8-16.7-77-33.9-35.8,16.7Zm452.7,199.2l77,33.9,35.8-16.7-77-33.9-35.8,16.7Zm-679.5-331.4l-77-33.9-29.4,13.7c.1,2,.3,4,.4,6l70.3,30.9,35.8-16.7Zm339.9,182l77,33.9,35.8-16.7-77-33.9-35.8,16.7Zm-339.6-149.4l77,33.9,35.8-16.7-77-33.9-35.8,16.7Zm565.9,248.9l77,33.9,35.8-16.7-77-33.9-35.8,16.7Zm-113.2-49.8l77,33.9,35.8-16.7-77-33.9-35.8,16.7Zm-1.2-102.1l77,33.9,35.8-16.7-77-33.9-35.8,16.7Zm-565.9-248.9l77,33.9,35.8-16.7-77-33.9-35.8,16.7Zm339.6,149.4l77,33.9,35.8-16.7-77-33.9-35.8,16.7Zm339.6,149.4l77,33.9,35.8-16.7-77-33.9-35.8,16.7Zm-687.9-335.1c.4,2.3.9,4.7,1.3,7.1l7.2-3.3-8.4-3.7Zm235.2,135.9l77,33.9,35.8-16.7-77-33.9-35.8,16.7Zm-113.2-49.8l77,33.9,35.8-16.7-77-33.9-35.8,16.7Zm679.1,298.7l77,33.9,35.8-16.7-77-33.9-35.8,16.7Zm127.8,56.2c0-4.5.2-8.9.3-13.4l-14.9,7,14.6,6.4Zm-467.4-205.6l77,33.9,35.8-16.7-77-33.9-35.8,16.7Zm-114.3-151.9l77,33.9,35.8-16.7-77-33.9-35.8,16.7Zm-113.2-49.8l77,33.9,35.8-16.7-77-33.9-35.8,16.7Zm-113.2-49.8l77,33.9,35.8-16.7-77-33.9-35.8,16.7Zm565.9,248.9l77,33.9,35.8-16.7-77-33.9-35.8,16.7Zm-113.2-49.8l77,33.9,35.8-16.7-77-33.9-35.8,16.7Zm-565.9-248.9l77,33.9,35.8-16.7-77-33.9-35.8,16.7Zm452.7,199.2l77,33.9,35.8-16.7-77-33.9-35.8,16.7Zm339.6,149.4l70.8,31.1c-8.9-12.3-15.9-26.3-21.1-41.8l-13.8-6.1-35.8,16.7Zm-781.1,640.2l-77-33.9-8.3,3.9c.2,8.4.3,16.7.5,25.1l49.1,21.6,35.8-16.7Zm36.2,15.9l-35.8,16.7,47,20.7c19.4,0,38.8,0,58.2,0l7.6-3.5-77-33.9Zm177.8-1007.2l77,33.9,35.8-16.7-77-33.9-35.8,16.7Zm565.9,248.9l38.3,16.8c-.3-10.9-.4-21.7-.3-32.6l-2.2-1-35.8,16.7Zm-339.6-149.4l77,33.9,35.8-16.7-77-33.9-35.8,16.7Zm-339.6-149.4l77,33.9,35.8-16.7-77-33.9-35.8,16.7Zm452.7,199.2l77,33.9,35.8-16.7-77-33.9-35.8,16.7Zm-226.4-99.6l77,33.9,35.8-16.7-77-33.9-35.8,16.7Zm339.6,149.4l77,33.9,35.8-16.7-77-33.9-35.8,16.7Zm99-46.3l55.1,24.2c.4-4.9.9-9.9,1.4-14.8.6-5.4,1.2-10.8,1.8-16.2l-22.5-9.9-35.8,16.7Zm-339.6-149.4l77,33.9,35.8-16.7-77-33.9-35.8,16.7Zm-113.2-49.8l77,33.9,35.8-16.7-77-33.9-35.8,16.7Zm-113.2-49.8l77,33.9,27.4-12.8c-12.4-5.2-23.4-12.6-33-22.1l-35.7-15.7-35.8,16.7Zm339.6,149.4l77,33.9,35.8-16.7-77-33.9-35.8,16.7Zm113.2,49.8l77,33.9,35.8-16.7-77-33.9-35.8,16.7Zm99-46.3l77,33.9,3.1-1.4c1.5-9.2,3.1-18.4,4.9-27.6l-49.2-21.6-35.8,16.7Zm-113.2-49.8l77,33.9,35.8-16.7-77-33.9-35.8,16.7Zm-113.2-49.8l77,33.9,35.8-16.7-77-33.9-35.8,16.7Zm-.4-32.6l-6.3-2.8c-7.5,3.8-15.6,6.9-24.3,9.1-6.6,1.7-13.2,2.9-19.9,4l14.6,6.4,35.8-16.7Zm176.4,20.3l25.4-11.9c-27.1-10.6-54.3-21.2-81.4-31.8l-21,9.8,77,33.9Zm-94.3-58.6c-5.8-2.2-11.5-4.5-17.3-6.7-6.6-2.6-12.9-7.4-21.5-5.2-2.2,2.9-4.6,5.8-7,8.9l26.9,11.8,18.9-8.8Zm207.5,108.4l31.5-14.7c-14.4-5.7-28.3-11.3-42.3-16.8-12.9-5.1-25.9-10.1-38.8-15.2l-27.4,12.8,77,33.9Zm-1827.3,957.7l-77-33.9,35.8-16.7,77,33.9-35.8,16.7Zm37.5,15.3c23.7,0,47.3,0,71,0l-36.6-16.1-34.4,16.1Zm-114.9-81.8l-77-33.9-1.5.7c.1,10.4.2,20.9.4,31.3l42.3,18.6,35.8-16.7Zm225.2-2.6l-77-33.9-35.8,16.7,77,33.9,35.8-16.7Zm-226.4-99.6l-77-33.9-1.5.7c.1,10.4.3,20.8.4,31.2l42.4,18.7,35.8-16.7Zm339.9,182l4.4,1.9c24.6,0,49.2,0,73.8,0l-42.4-18.7-35.8,16.7Zm-226.7-132.2l-77-33.9-35.8,16.7,77,33.9,35.8-16.7Zm226.4,99.6l-77-33.9-35.8,16.7,77,33.9,35.8-16.7Zm112-52.3l-77-33.9-35.8,16.7,77,33.9,35.8-16.7Zm100.4,76.6l23.4,10.3c24.6,0,49.2,0,73.8,0l-61.4-27-35.8,16.7Zm-.4-32.6l-63.9-28.1-35.8,16.7,63.9,28.1,35.8-16.7Zm-439.6-193.4l-77-33.9-35.8,16.7,77,33.9,35.8-16.7Zm226.4,99.6l-77-33.9-35.8,16.7,77,33.9,35.8-16.7Zm-113.2-49.8l-77-33.9-35.8,16.7,77,33.9,35.8-16.7Zm-226.4-99.6l-77-33.9-1.6.8c.1,10.4.3,20.8.4,31.2l42.5,18.7,35.8-16.7Zm-1.2-102.1l-77-33.9-1.7.8c.1,10.4.2,20.7.4,31.1l42.5,18.7,35.8-16.7Zm665.9,292.9l-63.9-28.1-35.8,16.7,63.9,28.1,35.8-16.7Zm-439.6-193.4l-77-33.9-35.8,16.7,77,33.9,35.8-16.7Zm-113.2-49.8l-77-33.9-35.8,16.7,77,33.9,35.8-16.7Zm652.8,287.1l-63.9-28.1-35.8,16.7,63.9,28.1,35.8-16.7Zm-313.2-137.8l-77-33.9-35.8,16.7,77,33.9,35.8-16.7Zm349.4,153.7l-35.8,16.7,42.4,18.6c13.9,0,27.8,0,41.7,0l15.6-7.3-63.9-28.1Zm-236.2-103.9l-77-33.9-35.8,16.7,77,33.9,35.8-16.7Zm-226.4-99.6l-77-33.9-35.8,16.7,77,33.9,35.8-16.7Zm557.7,176.2c0-5.7.2-11.5.2-17.2l-19.1,8.9,18.9,8.3Zm-19.2-40.9l-63.9-28.1-35.8,16.7,63.9,28.1,35.8-16.7Zm-766-336.9l-77-33.9-35.8,16.7,77,33.9,35.8-16.7Zm452.7,199.2l-77-33.9-35.8,16.7,77,33.9,35.8-16.7Zm213.2,93.8l-63.9-28.1-35.8,16.7,63.9,28.1,35.8-16.7Zm-779.1-342.7l-77-33.9-2,.9c.2,10.3.3,20.6.5,30.9l42.7,18.8,35.8-16.7Zm226.4,99.6l-77-33.9-35.8,16.7,77,33.9,35.8-16.7Zm452.7,199.2l-77-33.9-35.8,16.7,77,33.9,35.8-16.7Zm-339.6-149.4l-77-33.9-35.8,16.7,77,33.9,35.8-16.7Zm113.2,49.8l-77-33.9-35.8,16.7,77,33.9,35.8-16.7Zm447.1,127.5c0-2.5,0-5,.1-7.6l-8.4,3.9,8.3,3.6Zm-221.9-130.1l-77-33.9-35.8,16.7,77,33.9,35.8-16.7Zm-113.2-49.8l-77-33.9-35.8,16.7,77,33.9,35.8-16.7Zm-565.9-248.9l-60.2-26.5c-1.8.3-3.7.7-5.6,1-3.8.6-7.6,1.5-12.6,2.5-.2,7.4-.6,14.1-.6,20.8l43.1,19,35.8-16.7Zm452.7,199.2l-77-33.9-35.8,16.7,77,33.9,35.8-16.7Zm339.6,149.4l-77-33.9-35.8,16.7,77,33.9,35.8-16.7Zm100,44l-63.9-28.1-35.8,16.7,63.9,28.1,35.8-16.7Zm-552.8-243.1l-77-33.9-35.8,16.7,77,33.9,35.8-16.7Zm-113.2-49.8l-77-33.9-35.8,16.7,77,33.9,35.8-16.7Zm-113.2-49.8l-77-33.9-35.8,16.7,77,33.9,35.8-16.7Zm677.9,196.6l-77-33.9-35.8,16.7,77,33.9,35.8-16.7Zm-679.1-298.7l-77-33.9-14.1,6.6c-3.4,5.3-7.1,10.3-11.1,14.8l66.4,29.2,35.8-16.7Zm226.4,99.6l-77-33.9-35.8,16.7,77,33.9,35.8-16.7Zm113.2,49.8l-77-33.9-35.8,16.7,77,33.9,35.8-16.7Zm339.9,182l77,33.9,34-15.9c0-.5,0-1.1,0-1.6l-75.3-33.1-35.8,16.7Zm-226.7-132.2l-77-33.9-35.8,16.7,77,33.9,35.8-16.7Zm-339.6-149.4l-77-33.9-35.8,16.7,77,33.9,35.8-16.7Zm452.7,199.2l-77-33.9-35.8,16.7,77,33.9,35.8-16.7Zm-227.5-201.7l-77-33.9-35.8,16.7,77,33.9,35.8-16.7Zm226.4,99.6l-77-33.9-35.8,16.7,77,33.9,35.8-16.7Zm-452.7-199.2l-77-33.9-35.8,16.7,77,33.9,35.8-16.7Zm679.1,298.7l-77-33.9-35.8,16.7,77,33.9,35.8-16.7Zm-113.2-49.8l-77-33.9-35.8,16.7,77,33.9,35.8-16.7Zm-226.4-99.6l-77-33.9-35.8,16.7,77,33.9,35.8-16.7Zm-226.4-99.6l-77-33.9-35.8,16.7,77,33.9,35.8-16.7Zm-226.4-99.6l-62.7-27.6c-.2,10.6-1,21.1-2.4,31.4l29.3,12.9,35.8-16.7Zm677.9,196.6l-77-33.9-35.8,16.7,77,33.9,35.8-16.7Zm113.2,49.8l-77-33.9-35.8,16.7,77,33.9,35.8-16.7Zm-452.7-199.2l-77-33.9-35.8,16.7,77,33.9,35.8-16.7Zm-113.2-49.8l-77-33.9-35.8,16.7,77,33.9,35.8-16.7Zm568,282.3c0-.5,0-1,0-1.5l-1.7.8,1.7.7Zm-228.4-132.9l-77-33.9-35.8,16.7,77,33.9,35.8-16.7Zm-113.2-49.8l-77-33.9-35.8,16.7,77,33.9,35.8-16.7Zm-452.7-199.2l-76.1-33.5c.4,1.5.7,3,1.1,4.4,2.5,10.5,4.9,21,6.8,31.5l32.4,14.3,35.8-16.7Zm113.2,49.8l-77-33.9-35.8,16.7,77,33.9,35.8-16.7Zm202.7-12.5c0,6.8,0,13.6,0,20.4l22.5-10.5-22.5-9.9Zm362.1,159.3l-77-33.9-35.8,16.7,77,33.9,35.8-16.7Zm-452.7-199.2l-77-33.9-35.8,16.7,77,33.9,35.8-16.7Zm-113.2-49.8l-77-33.9-35.8,16.7,77,33.9,35.8-16.7Zm679.1,298.7l-77-33.9-35.8,16.7,77,33.9,35.8-16.7Zm4.9,34.6c0-1.4,0-2.7,0-4.1l-4.6,2.1,4.5,2Zm-797.2-383.1l-77-33.9-27.1,12.6c1.2,3.2,2.4,6.3,3.6,9.5l64.8,28.5,35.8-16.7Zm226.7,132.2l65.7,28.9c0-10.8,0-21.7,0-32.5l-29.9-13.1-35.8,16.7Zm339.2,116.7l-77-33.9-35.8,16.7,77,33.9,35.8-16.7Zm-190.2-83.7l-35.8,16.7,77,33.9,35.8-16.7-77-33.9Zm-555.5,773c.3,3.7.7,7.5,1.1,11.5,9.6,2.3,18.3,1.5,26.8,1.5,1.3,0,2.7,0,4,0l-30.7-13.5-1.2.5Zm405.4-908.2l66.8,29.4c0-6.5,0-13,0-19.5,0-4.3,0-8.7,0-13l-31-13.7-35.8,16.7Zm339.2,116.7l-77-33.9-35.8,16.7,77,33.9,35.8-16.7Zm-247.7-109c0,6.5,0,12.9,0,19.4l21.3-10-21.3-9.4Zm21.7,42l77,33.9,35.8-16.7-77-33.9-35.8,16.7Zm226.4,99.6l77,33.9,29.5-13.8c-.2-2-.4-3.9-.6-5.9l-70.2-30.9-35.8,16.7Zm-339.9-182l-77-33.9-35.8,16.7,77,33.9,35.8-16.7Zm-113.2-49.8l-77-33.9-35.8,16.7,77,33.9,35.8-16.7Zm206.9,1.2c-.8,1.9-1.3,3.7-1.6,5.5l6.9-3.2-5.3-2.3Zm118.8,84.7l77,33.9,35.8-16.7-77-33.9-35.8,16.7Zm-339.6-149.4l77,33.9,23.5-11c-5.3-5.4-10.1-11.2-14.3-17.4l-50.4-22.2-35.8,16.7Zm190.2,83.7l3.9-1.8c0-.7,0-1.4,0-2.1,0-5.9,1.1-12.1-4.2-17.9-3.8-.5-8.4-1-12.9-1.7-17.7-2.7-34.7-7.5-50.2-16.8l-13.6,6.4,77,33.9Zm375.3,132.6l-77-33.9-35.8,16.7,77,33.9,35.8-16.7Zm-339.2-116.7l77,33.9,35.8-16.7-77-33.9-35.8,16.7Zm347.7,152.9c.3-2.6.6-5.2.9-7.8l-9,4.2,8.1,3.6Zm-22.3-99.6l38.8,17.1c2.7-9.6,5.6-19.2,8.7-28.7l-11.7-5.2-35.8,16.7Zm-226.4-99.6l77,33.9,35.8-16.7-77-33.9-35.8,16.7Zm-7.3-35.7c-3.6,4.2-7.6,8.1-11.8,11.8l18.8-8.8-6.9-3.1Zm120.5,85.5l77,33.9,35.8-16.7-77-33.9-35.8,16.7Zm62.8-62.2l34.8-16.2c-26.4-11.9-52.7-23.5-76.8-34l-34.9,16.3,77,33.9Zm-78.6-65.9c-36.2-15.4-63.2-26.2-71.1-28.2-2.1,6.8-4.3,13.6-6.4,20.5-.5,1.5-.9,2.9-1.4,4.3l44.4,19.5,34.6-16.1Zm191.8,115.7l3.2-1.5c.1-.4.3-.8.4-1.2,2.6-6.7,6.7-13.1,6-21.9-3.5-2-7.3-4.6-11.5-6.5-13.2-6.1-26.9-12.5-40.9-18.9l-34.2,16,77,33.9Z"/></svg>