<?xml version="1.0" encoding="UTF-8"?><svg id="a" xmlns="http://www.w3.org/2000/svg" width="4992" height="4992" viewBox="0 0 4992 4992"><defs><style>.b{fill:#eae05e;stroke-width:0px;}</style></defs><path class="b" d="m2703.3,4207.8l-12.6,10.9c-.1-14.8-.1-29.4,0-42.7l63.6-55h0c16.2.3,32.4.5,48.5.8l-6,5.2-63.6,55-29.9,25.8Zm69.5,73.6l63.6-55,29.9-25.8,63.6-55,26.1-22.6c-16.3-.1-32.7-.2-49-.3l-19.6,17-63.6,55-29.9,25.8-63.6,55-29.9,25.8-6.7,5.8,15.5,17.9c1.7,0,3.3,0,5,0,2.8,0,5.5,0,8.3,0l20.6-17.8,29.9-25.8Zm133.2,18.6l63.6-55,29.9-25.8,63.6-55,29.9-25.8,16.6-14.3c-16.3-.1-32.7-.2-49-.3l-10.1,8.7-29.9,25.8-63.6,55-29.9,25.8-63.6,55-29.9,25.8-7.1,6.1c16.3.2,32.6.3,48.9.4l.7-.6,29.9-25.8Zm186-38l29.9-25.8,63.6-55,29.9-25.8,35-30.3c-16.3-.1-32.6-.3-48.9-.4l-28.6,24.7-29.9,25.8-63.6,55-29.9,25.8-63.6,55-18.7,16.2c16.3.1,32.6.3,48.9.4l12.4-10.7,63.6-55Zm176.1-5.5l63.6-55,29.9-25.8,56.8-49.2c-16.3-.1-32.6-.3-48.9-.4l-50.5,43.7-29.9,25.8-63.6,55-29.9,25.8-60.4,52.3c16.3.1,32.7.2,49,.4l54-46.7,29.9-25.8Zm130.7,18.2l63.6-55,29.9-25.8,63.6-55,12.7-11c-16.3-.1-32.6-.3-48.9-.4l-6.4,5.5-63.6,55-29.9,25.8-63.6,55-29.9,25.8-40.5,35.1c16.4.1,32.7.2,49.1.3l34-29.4,29.9-25.8Zm274.5-146l-26.3,22.8-63.6,55-29.9,25.8-63.6,55-29.9,25.8-20.2,17.5c2.1,0,4.2,0,6.3,0,14.2.1,28.4.2,42.7.4l13.8-11.9,29.9-25.8,63.6-55,29.9-25.8,63.6-55,29.9-25.8,2.7-2.4c-16.3-.2-32.6-.3-48.9-.5Zm91.4,39.2l-63.6,55-29.9,25.8-63.6,55-29.9,25.8-2.7,2.4c16.3.2,32.5.3,48.8.5l26.3-22.8,63.6-55,29.9-25.8,63.6-55,29.9-25.8,21.1-18.3c-16.5,0-33,0-49.5,0l-14.2,12.3-29.9,25.8Zm117.7,16.4l-63.6,55-29.9,25.8-63.6,55-15.1,13c16.4.1,32.8.2,49.2.2l8.5-7.3,63.6-55,29.9-25.8,63.6-55,29.9-25.8,41.2-35.6c-16.6.1-33.2.3-49.9.4l-33.8,29.3-29.9,25.8Zm142.1-4.7l-18.2,15.7-6.2,5.4-63.6,55-29.9,25.8-59.9,51.8c16.6,0,33.2-.2,49.7-.3l52.7-45.6,29.9-25.8,66.1-57.1,29.9-25.8,59.2-51.2c-16.7.2-33.3.3-50,.5l-51.8,44.8-7.9,6.8Zm125.6,9.6l-29.9,25.8-63.6,55-29.9,25.8-42.1,36.4c16.7-.2,33.3-.3,50-.5l34.6-29.9,29.9-25.8,63.6-55,29.9-25.8,63.6-55,16-13.9c-16.7.2-33.3.3-50,.5l-8.6,7.5-63.6,55Zm117.7,16.4l-29.9,25.8-63.6,55-29.9,25.8-21.4,18.5c16.7-.2,33.3-.4,50-.5l13.9-12,29.9-25.8,63.6-55,29.9-25.8,63.6-55,29.9-25.8,6.6-5.7c-16.6.1-33.3.3-49.9.4l-29.1,25.1-63.6,55Zm322.5-19l-63.6,55-29.9,25.8-63.6,55-6.3,5.4c16.6-.1,33.3-.3,49.9-.4l62.5-54.1,29.9-25.8,63.6-55,29.9-25.8,51.5-44.5c-16.6.2-33.3.3-49.9.5l-44.1,38.1-29.9,25.8Zm163.1-7.3l-29.9,25.8-63.6,55-29.9,25.8-46.9,40.5c16.6-.1,33.3-.3,49.9-.4l39.5-34.2,29.9-25.8,63.6-55,29.9-25.8,52.8-45.6,22.1-19.1c-4.1-1-8.1-.4-12-.3-12.6.2-25.1.4-37.7.6l-14.9,12.9-52.8,45.6Zm39.7,99.5l-29.9,25.8-24.1,20.8c16.6,0,33.1-.2,49.7-.3l16.9-14.6,29.9-25.8,42.7-36.9c.3-13.9.4-28.6.5-43.2l-22.2,19.2-63.6,55Zm-335.9-110.8l-63.6,55-29.9,25.8-63.6,55-29.4,25.4c16.6-.2,33.3-.3,49.9-.5l22-19,63.6-55,29.9-25.8,63.6-55,29.9-25.8,28.3-24.5c-16.6.1-33.3.3-49.9.4l-21,18.1-29.9,25.8Zm-1728.3,407.1l-12.6,10.9c-.1-14.8-.1-29.4,0-42.7l63.6-55h0c16.2.3,32.4.5,48.5.8l-6,5.2-63.6,55-29.9,25.8Zm69.5,73.6l63.6-55,29.9-25.8,63.6-55,26.1-22.6c-16.3-.1-32.7-.2-49-.3l-19.6,17-63.6,55-29.9,25.8-63.6,55-29.9,25.8-6.7,5.8,15.5,17.9c1.7,0,3.3,0,5,0,2.8,0,5.5,0,8.3,0l20.6-17.8,29.9-25.8Zm133.2,18.6l63.6-55,29.9-25.8,63.6-55,29.9-25.8,16.6-14.3c-16.3-.1-32.7-.2-49-.3l-10.1,8.7-29.9,25.8-63.6,55-29.9,25.8-63.6,55-29.9,25.8-7.1,6.1c16.3.2,32.6.3,48.9.4l.7-.6,29.9-25.8Zm186-38l29.9-25.8,63.6-55,29.9-25.8,35-30.3c-16.3-.1-32.6-.3-48.9-.4l-28.6,24.7-29.9,25.8-63.6,55-29.9,25.8-63.6,55-18.7,16.2c16.3.1,32.6.3,48.9.4l12.4-10.7,63.6-55Zm176.1-5.5l63.6-55,29.9-25.8,56.8-49.2c-16.3-.1-32.6-.3-48.9-.4l-50.5,43.7-29.9,25.8-63.6,55-29.9,25.8-60.4,52.3c16.3.1,32.7.2,49,.4l54-46.7,29.9-25.8Zm130.7,18.2l63.6-55,29.9-25.8,63.6-55,12.7-11c-16.3-.1-32.6-.3-48.9-.4l-6.4,5.5-63.6,55-29.9,25.8-63.6,55-29.9,25.8-40.5,35.1c16.4.1,32.7.2,49.1.3l34-29.4,29.9-25.8Zm274.5-146l-26.3,22.8-63.6,55-29.9,25.8-63.6,55-29.9,25.8-20.2,17.5c2.1,0,4.2,0,6.3,0,14.2.1,28.4.2,42.7.4l13.8-11.9,29.9-25.8,63.6-55,29.9-25.8,63.6-55,29.9-25.8,2.7-2.4c-16.3-.2-32.6-.3-48.9-.5Zm91.4,39.2l-63.6,55-29.9,25.8-63.6,55-29.9,25.8-2.7,2.4c16.3.2,32.5.3,48.8.5l26.3-22.8,63.6-55,29.9-25.8,63.6-55,29.9-25.8,21.1-18.3c-16.5,0-33,0-49.5,0l-14.2,12.3-29.9,25.8Zm117.7,16.4l-63.6,55-29.9,25.8-63.6,55-15.1,13c16.4.1,32.8.2,49.2.2l8.5-7.3,63.6-55,29.9-25.8,63.6-55,29.9-25.8,41.2-35.6c-16.6.1-33.2.3-49.9.4l-33.8,29.3-29.9,25.8Zm142.1-4.7l-18.2,15.7-6.2,5.4-63.6,55-29.9,25.8-59.9,51.8c16.6,0,33.2-.2,49.7-.3l52.7-45.6,29.9-25.8,66.1-57.1,29.9-25.8,59.2-51.2c-16.7.2-33.3.3-50,.5l-51.8,44.8-7.9,6.8Zm125.6,9.6l-29.9,25.8-63.6,55-29.9,25.8-42.1,36.4c16.7-.2,33.3-.3,50-.5l34.6-29.9,29.9-25.8,63.6-55,29.9-25.8,63.6-55,16-13.9c-16.7.2-33.3.3-50,.5l-8.6,7.5-63.6,55Zm117.7,16.4l-29.9,25.8-63.6,55-29.9,25.8-21.4,18.5c16.7-.2,33.3-.4,50-.5l13.9-12,29.9-25.8,63.6-55,29.9-25.8,63.6-55,29.9-25.8,6.6-5.7c-16.6.1-33.3.3-49.9.4l-29.1,25.1-63.6,55Zm322.5-19l-63.6,55-29.9,25.8-63.6,55-6.3,5.4c16.6-.1,33.3-.3,49.9-.4l62.5-54.1,29.9-25.8,63.6-55,29.9-25.8,51.5-44.5c-16.6.2-33.3.3-49.9.5l-44.1,38.1-29.9,25.8Zm163.1-7.3l-29.9,25.8-63.6,55-29.9,25.8-46.9,40.5c16.6-.1,33.3-.3,49.9-.4l39.5-34.2,29.9-25.8,63.6-55,29.9-25.8,52.8-45.6,22.1-19.1c-4.1-1-8.1-.4-12-.3-12.6.2-25.1.4-37.7.6l-14.9,12.9-52.8,45.6Zm39.7,99.5l-29.9,25.8-24.1,20.8c16.6,0,33.1-.2,49.7-.3l16.9-14.6,29.9-25.8,42.7-36.9c.3-13.9.4-28.6.5-43.2l-22.2,19.2-63.6,55Zm-335.9-110.8l-63.6,55-29.9,25.8-63.6,55-29.4,25.4c16.6-.2,33.3-.3,49.9-.5l22-19,63.6-55,29.9-25.8,63.6-55,29.9-25.8,28.3-24.5c-16.6.1-33.3.3-49.9.4l-21,18.1-29.9,25.8Zm-1705.7-940.6l-12.6,10.9c-.1-14.8-.1-29.4,0-42.7l63.6-55h0c16.2.3,32.4.5,48.5.8l-6,5.2-63.6,55-29.9,25.8Zm69.5,73.6l63.6-55,29.9-25.8,63.6-55,26.1-22.6c-16.3-.1-32.7-.2-49-.3l-19.6,17-63.6,55-29.9,25.8-63.6,55-29.9,25.8-6.7,5.8,15.5,17.9c1.7,0,3.3,0,5,0,2.8,0,5.5,0,8.3,0l20.6-17.8,29.9-25.8Zm133.2,18.6l63.6-55,29.9-25.8,63.6-55,29.9-25.8,16.6-14.3c-16.3-.1-32.7-.2-49-.3l-10.1,8.7-29.9,25.8-63.6,55-29.9,25.8-63.6,55-29.9,25.8-7.1,6.1c16.3.2,32.6.3,48.9.4l.7-.6,29.9-25.8Zm186-38l29.9-25.8,63.6-55,29.9-25.8,35-30.3c-16.3-.1-32.6-.3-48.9-.4l-28.6,24.7-29.9,25.8-63.6,55-29.9,25.8-63.6,55-18.7,16.2c16.3.1,32.6.3,48.9.4l12.4-10.7,63.6-55Zm176.1-5.5l63.6-55,29.9-25.8,56.8-49.2c-16.3-.1-32.6-.3-48.9-.4l-50.5,43.7-29.9,25.8-63.6,55-29.9,25.8-60.4,52.3c16.3.1,32.7.2,49,.4l54-46.7,29.9-25.8Zm130.7,18.2l63.6-55,29.9-25.8,63.6-55,12.7-11c-16.3-.1-32.6-.3-48.9-.4l-6.4,5.5-63.6,55-29.9,25.8-63.6,55-29.9,25.8-40.5,35.1c16.4.1,32.7.2,49.1.3l34-29.4,29.9-25.8Zm274.5-146l-26.3,22.8-63.6,55-29.9,25.8-63.6,55-29.9,25.8-20.2,17.5c2.1,0,4.2,0,6.3,0,14.2.1,28.4.2,42.7.4l13.8-11.9,29.9-25.8,63.6-55,29.9-25.8,63.6-55,29.9-25.8,2.7-2.4c-16.3-.2-32.6-.3-48.9-.5Zm91.4,39.2l-63.6,55-29.9,25.8-63.6,55-29.9,25.8-2.7,2.4c16.3.2,32.5.3,48.8.5l26.3-22.8,63.6-55,29.9-25.8,63.6-55,29.9-25.8,21.1-18.3c-16.5,0-33,0-49.5,0l-14.2,12.3-29.9,25.8Zm117.7,16.4l-63.6,55-29.9,25.8-63.6,55-15.1,13c16.4.1,32.8.2,49.2.2l8.5-7.3,63.6-55,29.9-25.8,63.6-55,29.9-25.8,41.2-35.6c-16.6.1-33.2.3-49.9.4l-33.8,29.3-29.9,25.8Zm142.1-4.7l-18.2,15.7-6.2,5.4-63.6,55-29.9,25.8-59.9,51.8c16.6,0,33.2-.2,49.7-.3l52.7-45.6,29.9-25.8,66.1-57.1,29.9-25.8,59.2-51.2c-16.7.2-33.3.3-50,.5l-51.8,44.8-7.9,6.8Zm125.6,9.6l-29.9,25.8-63.6,55-29.9,25.8-42.1,36.4c16.7-.2,33.3-.3,50-.5l34.6-29.9,29.9-25.8,63.6-55,29.9-25.8,63.6-55,16-13.9c-16.7.2-33.3.3-50,.5l-8.6,7.5-63.6,55Zm117.7,16.4l-29.9,25.8-63.6,55-29.9,25.8-21.4,18.5c16.7-.2,33.3-.4,50-.5l13.9-12,29.9-25.8,63.6-55,29.9-25.8,63.6-55,29.9-25.8,6.6-5.7c-16.6.1-33.3.3-49.9.4l-29.1,25.1-63.6,55Zm322.5-19l-63.6,55-29.9,25.8-63.6,55-6.3,5.4c16.6-.1,33.3-.3,49.9-.4l62.5-54.1,29.9-25.8,63.6-55,29.9-25.8,51.5-44.5c-16.6.2-33.3.3-49.9.5l-44.1,38.1-29.9,25.8Zm163.1-7.3l-29.9,25.8-63.6,55-29.9,25.8-46.9,40.5c16.6-.1,33.3-.3,49.9-.4l39.5-34.2,29.9-25.8,63.6-55,29.9-25.8,52.8-45.6,22.1-19.1c-4.1-1-8.1-.4-12-.3-12.6.2-25.1.4-37.7.6l-14.9,12.9-52.8,45.6Zm39.7,99.5l-29.9,25.8-24.1,20.8c16.6,0,33.1-.2,49.7-.3l16.9-14.6,29.9-25.8,42.7-36.9c.3-13.9.4-28.6.5-43.2l-22.2,19.2-63.6,55Zm-335.9-110.8l-63.6,55-29.9,25.8-63.6,55-29.4,25.4c16.6-.2,33.3-.3,49.9-.5l22-19,63.6-55,29.9-25.8,63.6-55,29.9-25.8,28.3-24.5c-16.6.1-33.3.3-49.9.4l-21,18.1-29.9,25.8Zm-2999.6,191.1l-2.7,1.3c-1.4-10.2-3-20.4-4.8-30.6l7.2-3.3,76.2-35.6,35.8-16.7,76.2-35.6,35.8-16.7,63.2-29.5,27.4-12.8c3.9,1.6,7.9,3,12,4.2,10.8,3.1,21.9,6.2,33.1,7.4,0,0,0,0,0,0l-.7.3-35.8,16.7-63.2,29.5-35.8,16.7-76.2,35.6-35.8,16.7-76.2,35.6-35.8,16.7Zm113.2,49.8l35.8-16.7,76.2-35.6,35.8-16.7,76.2-35.6,35.8-16.7,63.2-29.5,35.8-16.7,63.2-29.5,35.8-16.7,63.2-29.5,21-9.8c-12.8-5-25.5-9.9-38.3-14.9l-18.9,8.8-63.2,29.5-35.8,16.7-63.2,29.5-35.8,16.7-63.2,29.5-35.8,16.7-76.2,35.6-35.8,16.7-76.2,35.6-35.8,16.7-72.1,33.7c1,10.5,1.9,21.1,2.6,31.6l29.4-13.7,76.2-35.6Zm1.2,102.1l35.8-16.7,76.2-35.6,35.8-16.7,76.2-35.6,35.8-16.7,76.2-35.6,35.8-16.7,63.2-29.5,35.8-16.7,63.2-29.5,35.8-16.7,63.2-29.5,27.4-12.8c-12.7-5-25.5-10-38.2-15l-25.4,11.9-63.2,29.5-35.8,16.7-63.2,29.5-35.8,16.7-63.2,29.5-35.8,16.7-76.2,35.6-35.8,16.7-76.2,35.6-35.8,16.7-76.2,35.6-35.8,16.7-70.1,32.8c-.3,4.2-.6,8.4-1.1,12.6-.8,7.4-1.7,14.8-3,22.1l34.1-15.9,76.2-35.6Zm-110.9,154.5l35.8-16.7,76.2-35.6,35.8-16.7,76.2-35.6,35.8-16.7,76.2-35.6,35.8-16.7,76.2-35.6,35.8-16.7,76.2-35.6,35.8-16.7,63.2-29.5,35.8-16.7,63.2-29.5,35.8-16.7,60.4-28.2c1.6-6.1,3.3-12.3,5.1-18.4.9-3,.8-6.2,1.4-10.3-2.8-1.1-5.6-2.2-8.4-3.3l-31.5,14.7-63.2,29.5-35.8,16.7-63.2,29.5-35.8,16.7-63.2,29.5-35.8,16.7-76.2,35.6-35.8,16.7-76.2,35.6-35.8,16.7-76.2,35.6-35.8,16.7-76.2,35.6-35.8,16.7-76.2,35.6-35.8,16.7-6.6,3.1c-9.7,9.5-21.1,17.6-34.3,23.9-4.1,1.9-7.7,4.7-11.7,7.2,0,8-.1,15.4,0,22.7,0,.2,0,.4,0,.5l12.5-5.8,76.2-35.6Zm1.2,102.1l35.8-16.7,76.2-35.6,35.8-16.7,76.2-35.6,35.8-16.7,76.2-35.6,35.8-16.7,76.2-35.6,35.8-16.7,76.2-35.6,35.8-16.7,76.2-35.6,35.8-16.7,63.2-29.5,35.8-16.7,25.1-11.7c1.5-11.8,3.2-23.5,5-35.2l-3.1,1.4-63.2,29.5-35.8,16.7-63.2,29.5-35.8,16.7-76.2,35.6-35.8,16.7-76.2,35.6-35.8,16.7-76.2,35.6-35.8,16.7-76.2,35.6-35.8,16.7-76.2,35.6-35.8,16.7-76.2,35.6-35.8,16.7-52.4,24.5c.2,10.8.4,21.7.6,32.5l11.6-5.4,76.2-35.6Zm1.2,102.1l35.8-16.7,76.2-35.6,35.8-16.7,76.2-35.6,35.8-16.7,76.2-35.6,35.8-16.7,76.2-35.6,35.8-16.7,76.2-35.6,35.8-16.7,76.2-35.6,35.8-16.7,76.2-35.6,35.8-16.7,2.3-1.1c.2-11.1.6-22.3,1.3-33.4l-39.7,18.6-35.8,16.7-76.2,35.6-35.8,16.7-76.2,35.6-35.8,16.7-76.2,35.6-35.8,16.7-76.2,35.6-35.8,16.7-76.2,35.6-35.8,16.7-76.2,35.6-35.8,16.7-76.2,35.6-35.8,16.7-51.5,24.1c.2,10.8.4,21.7.6,32.5l10.8-5,76.2-35.6Zm1.2,102.1l35.8-16.7,76.2-35.6,35.8-16.7,76.2-35.6,35.8-16.7,76.2-35.6,35.8-16.7,76.2-35.6,35.8-16.7,76.2-35.6,35.8-16.7,76.2-35.6,35.8-16.7,76.2-35.6,35.8-16.7,10.4-4.9c-2.8-9.8-4.9-19.7-6.4-29.8l-40.2,18.8-35.8,16.7-76.2,35.6-35.8,16.7-76.2,35.6-35.8,16.7-76.2,35.6-35.8,16.7-76.2,35.6-35.8,16.7-76.2,35.6-35.8,16.7-76.2,35.6-35.8,16.7-76.2,35.6-35.8,16.7-50.6,23.7c.2,10.8.4,21.7.6,32.5l9.9-4.6,76.2-35.6Zm1.2,102.1l35.8-16.7,76.2-35.6,35.8-16.7,76.2-35.6,35.8-16.7,76.2-35.6,35.8-16.7,76.2-35.6,35.8-16.7,76.2-35.6,35.8-16.7,76.2-35.6,35.8-16.7,76.2-35.6,35.8-16.7,59.6-27.9c-8.6-6.5-16.1-13.9-22.7-22.2l-73.1,34.2-35.8,16.7-76.2,35.6-35.8,16.7-76.2,35.6-35.8,16.7-76.2,35.6-35.8,16.7-76.2,35.6-35.8,16.7-76.2,35.6-35.8,16.7-76.2,35.6-35.8,16.7-76.2,35.6-35.8,16.7-49.8,23.3c.2,10.8.4,21.7.6,32.5l9.1-4.3,76.2-35.6Zm1.2,102.1l35.8-16.7,76.2-35.6,35.8-16.7,76.2-35.6,35.8-16.7,76.2-35.6,35.8-16.7,76.2-35.6,35.8-16.7,76.2-35.6,35.8-16.7,76.2-35.6,35.8-16.7,76.2-35.6,35.8-16.7,76.2-35.6,14.9-7c.2-11,.4-22.1.6-33.1l-15.9,7.4-35.8,16.7-76.2,35.6-35.8,16.7-76.2,35.6-35.8,16.7-76.2,35.6-35.8,16.7-76.2,35.6-35.8,16.7-76.2,35.6-35.8,16.7-76.2,35.6-35.8,16.7-76.2,35.6-35.8,16.7-76.2,35.6-35.8,16.7-49,22.9c.2,10.8.4,21.7.6,32.5l8.3-3.9,76.2-35.6Zm36.9,85.4l76.2-35.6,35.8-16.7,76.2-35.6,35.8-16.7,76.2-35.6,35.8-16.7,76.2-35.6,35.8-16.7,76.2-35.6,35.8-16.7,76.2-35.6,35.8-16.7,76.2-35.6,35.8-16.7,76.2-35.6,11.8-5.5c.2-11,.4-22.1.6-33.1l-12.8,6-35.8,16.7-76.2,35.6-35.8,16.7-76.2,35.6-35.8,16.7-76.2,35.6-35.8,16.7-76.2,35.6-35.8,16.7-76.2,35.6-35.8,16.7-76.2,35.6-35.8,16.7-76.2,35.6-35.8,16.7-76.2,35.6-35.8,16.7-48.4,22.6c.2,4.4,1,8.9,3.7,13.5,9,.1,18.3.4,27.5.4,3,0,6.1,0,9.1,0l44.3-20.7,35.8-16.7Zm-11.6-1021.3l76.2-35.6,35.8-16.7,63.2-29.5,35.8-16.7,16.6-7.7c-1.7-2.1-3.4-4.3-5.2-6.7-4.7,1.4-7.9,2-11,3.2-88.1,34.4-176.2,68.8-264.2,103.3-3.5,1.4-6.6,3.7-10.4,5.9,2.4,9.3,4.9,18.1,7.2,26.9l20.3-9.5,35.8-16.7Zm837,705.5l-76.2,35.6-35.8,16.7-76.2,35.6-35.8,16.7-76.2,35.6-35.8,16.7-76.2,35.6-35.8,16.7-76.2,35.6-35.8,16.7-76.2,35.6-35.8,16.7-76.2,35.6-7.6,3.5c23.4,0,46.8,0,70.2,0l49.8-23.3,35.8-16.7,76.2-35.6,35.8-16.7,76.2-35.6,35.8-16.7,76.2-35.6,35.8-16.7,76.2-35.6,35.8-16.7,76.2-35.6,35.8-16.7,76.2-35.6,8.6-4c.2-11,.4-22.1.6-33.1l-9.6,4.5-35.8,16.7Zm-12,96.3l-76.2,35.6-35.8,16.7-76.2,35.6-35.8,16.7-76.2,35.6-35.8,16.7-76.2,35.6-35.8,16.7-76.2,35.6-25.4,11.9c23.4,0,46.8,0,70.2,0l67.6-31.6,35.8-16.7,76.2-35.6,35.8-16.7,76.2-35.6,35.8-16.7,76.2-35.6,35.8-16.7,76.2-35.6,18.9-8.8c.2-11,.4-22.1.6-33.1l-19.9,9.3-35.8,16.7Zm-12,96.3l-76.2,35.6-35.8,16.7-76.2,35.6-35.8,16.7-76.2,35.6-35.8,16.7-7.5,3.5c23.4,0,46.8,0,70.2,0l9.3-4.3,76.2-35.6,35.8-16.7,76.2-35.6,35.8-16.7,76.2-35.6,29.2-13.6c.2-11,.4-22.1.6-33.1l-30.2,14.1-35.8,16.7Zm-12,96.3l-76.2,35.6-35.8,16.7-25.4,11.9c23.4,0,46.8,0,70.2,0l27.2-12.7,76.2-35.6,35.8-16.7,3.6-1.7c.2-11,.4-22.1.6-33.1l-40.4,18.9-35.8,16.7Zm73,60.7c.3-1.4.8-2.9,1.2-4.6l-17.3,8.1c5.4.2,11,1,16.1-3.5Zm-1710.9-1106.5l23.5-11c7.5,7.6,16,14.3,25.7,20.2.2.1.4.2.6.3l-13.6,6.4-63.2,29.5-35.8,16.7-76.2,35.6-35.8,16.7-75.5,35.3c-2.5-9.8-5.2-19.4-8.1-29l47.5-22.2,35.8-16.7,76.2-35.6,35.8-16.7,63.2-29.5Zm50,79.3l-35.8,16.7-76.2,35.6-35.8,16.7-76.2,35.6-35.8,16.7-28.1,13.1c1.3,10.5,2.1,21.1,2.4,31.7l61.9-28.9,35.8-16.7,76.2-35.6,35.8-16.7,76.2-35.6,35.8-16.7,31-14.5c0-10.9,0-21.8,0-32.8l-3.9,1.8-63.2,29.5Zm135.2-30.4l63.2-29.5,35.8-16.7,63.2-29.5,34.9-16.3c-12.9-5.6-25.2-10.9-36.6-15.7l-34.6,16.1-63.2,29.5-18.8,8.8c-2.4,2.1-4.8,4.1-7.4,6-17,12.7-35.9,20.2-56.4,23.8l-16.4,7.7-6.9,3.2c-.9,5.3-.2,10.3-.2,15.2,0,5.9,0,11.8,0,17.7l7.5-3.5,35.8-16.7Zm-169.8,149.2l-76.2,35.6-35.8,16.7-76.2,35.6-35.8,16.7-35.5,16.6c-2.7,9.3-6.2,18.4-10.6,27.4-2.5,5-5.1,9.7-8,14.2l14.1-6.6,76.2-35.6,35.8-16.7,76.2-35.6,35.8-16.7,76.2-35.6,35.8-16.7,29.9-14c0-10.9,0-21.9,0-32.8l-66,30.9-35.8,16.7Zm184-53.2l63.2-29.5,35.8-16.7,63.2-29.5,35.8-16.7,63.2-29.5,34.2-16c-11.8-5.4-23.7-10.8-35.7-16.1l-34.8,16.2-63.2,29.5-35.8,16.7-63.2,29.5-35.8,16.7-63.2,29.5-21.3,10c0,10.9,0,21.9,0,32.8l21.7-10.2,35.8-16.7Zm-182.8,155.3l-76.2,35.6-35.8,16.7-76.2,35.6-35.8,16.7-76.2,35.6-35.8,16.7-42.6,19.9c.2,10.9.4,21.7.5,32.6l2-.9,76.2-35.6,35.8-16.7,76.2-35.6,35.8-16.7,76.2-35.6,35.8-16.7,76.2-35.6,35.8-16.7,28.6-13.3c0-3.4.2-6.9.2-10.3,0-7.5,0-15.1,0-22.6l-64.9,30.3-35.8,16.7Zm184-53.2l76.2-35.6,35.8-16.7,63.2-29.5,35.8-16.7,63.2-29.5,35.8-16.7,15.9-7.4c4.5-13.2,9.3-26.4,14.3-39.5l-3.2,1.5-63.2,29.5-35.8,16.7-63.2,29.5-35.8,16.7-63.2,29.5-35.8,16.7-76.2,35.6-22.5,10.5c0,10.9,0,21.9,0,32.8l22.9-10.7,35.8-16.7Zm252.3-48l-63.2,29.5-35.8,16.7-76.2,35.6-35.8,16.7-76.2,35.6-35.8,16.7-76.2,35.6-35.8,16.7-76.2,35.6-35.8,16.7-76.2,35.6-35.8,16.7-76.2,35.6-35.8,16.7-42.2,19.7c0,2.9,0,5.8.1,8.7,0,8,.2,16,.3,23.9l1.7-.8,76.2-35.6,35.8-16.7,76.2-35.6,35.8-16.7,76.2-35.6,35.8-16.7,76.2-35.6,35.8-16.7,76.2-35.6,35.8-16.7,76.2-35.6,35.8-16.7,76.2-35.6,35.8-16.7,63.2-29.5,9-4.2c.9-6.9,2-13.9,3.2-20.8.9-5,1.8-9.9,2.9-14.9l-15.5,7.2-35.8,16.7Zm-62,131.7l-35.8,16.7-76.2,35.6-35.8,16.7-76.2,35.6-35.8,16.7-76.2,35.6-35.8,16.7-76.2,35.6-35.8,16.7-76.2,35.6-35.8,16.7-76.2,35.6-35.8,16.7-42.1,19.7c.1,10.9.3,21.7.4,32.6l1.6-.8,76.2-35.6,35.8-16.7,76.2-35.6,35.8-16.7,76.2-35.6,35.8-16.7,76.2-35.6,35.8-16.7,76.2-35.6,35.8-16.7,76.2-35.6,35.8-16.7,76.2-35.6,35.8-16.7,75.1-35.1c-2.6-10.1-4.4-20.1-5.5-30.2l-29.5,13.8-76.2,35.6Zm77.4,66.5l-76.2,35.6-35.8,16.7-76.2,35.6-35.8,16.7-76.2,35.6-35.8,16.7-76.2,35.6-35.8,16.7-76.2,35.6-35.8,16.7-76.2,35.6-35.8,16.7-76.2,35.6-35.8,16.7-42,19.6c.1,10.9.3,21.7.4,32.6l1.5-.7,76.2-35.6,35.8-16.7,76.2-35.6,35.8-16.7,76.2-35.6,35.8-16.7,76.2-35.6,35.8-16.7,76.2-35.6,35.8-16.7,76.2-35.6,35.8-16.7,76.2-35.6,35.8-16.7,76.2-35.6,35.8-16.7,10.4-4.8c-8.3-6.2-15.7-13.7-22.2-22.4l-24.3,11.4-35.8,16.7Zm113.2,49.8l-76.2,35.6-35.8,16.7-76.2,35.6-35.8,16.7-76.2,35.6-35.8,16.7-76.2,35.6-35.8,16.7-76.2,35.6-35.8,16.7-76.2,35.6-35.8,16.7-76.2,35.6-35.8,16.7-76.2,35.6-35.8,16.7-41.9,19.6c.1,10.9.3,21.7.4,32.6l1.5-.7,76.2-35.6,35.8-16.7,76.2-35.6,35.8-16.7,76.2-35.6,35.8-16.7,76.2-35.6,35.8-16.7,76.2-35.6,35.8-16.7,76.2-35.6,35.8-16.7,76.2-35.6,35.8-16.7,76.2-35.6,35.8-16.7,76.2-35.6,4.6-2.1c.1-9,.3-18,.4-26.9,0-2,0-3.9-.2-6l-5.1,2.4-35.8,16.7Zm1.2,102.1l-76.2,35.6-35.8,16.7-76.2,35.6-35.8,16.7-76.2,35.6-35.8,16.7-76.2,35.6-35.8,16.7-76.2,35.6-35.8,16.7-76.2,35.6-35.8,16.7-76.2,35.6-35.8,16.7-76.2,35.6-35.8,16.7-41.9,19.6c.1,8.7.2,17.4.3,26.2,0,2.1.2,4.2.3,6.3l1.2-.5,76.2-35.6,35.8-16.7,76.2-35.6,35.8-16.7,76.2-35.6,35.8-16.7,76.2-35.6,35.8-16.7,76.2-35.6,35.8-16.7,76.2-35.6,35.8-16.7,76.2-35.6,35.8-16.7,76.2-35.6,35.8-16.7,76.2-35.6,1.7-.8c.2-11,.3-22,.5-33l-2.6,1.2-35.8,16.7Zm1.2,102.1l-76.2,35.6-35.8,16.7-76.2,35.6-35.8,16.7-76.2,35.6-35.8,16.7-76.2,35.6-35.8,16.7-76.2,35.6-35.8,16.7-76.2,35.6-35.8,16.7-76.2,35.6-35.8,16.7-32.7,15.3c23.4,0,46.8,0,70.2,0l34.4-16.1,76.2-35.6,35.8-16.7,76.2-35.6,35.8-16.7,76.2-35.6,35.8-16.7,76.2-35.6,35.8-16.7,76.2-35.6,35.8-16.7,76.2-35.6,35.8-16.7,75.8-35.4c0-11,.2-21.9.2-32.9h-.2c0,0-35.8,16.8-35.8,16.8Zm-870.4-619.6c-.4.5-.7,1.1-1.8,3,2.1,5.9,4.3,12.8,6.9,19.6.8,2.1,1.6,4.2,2.4,6.3l27.1-12.6,76.2-35.6,35.8-16.7,63.2-29.5,35.8-16.7,32.9-15.4c-2.1-7.2-3.3-14.7-7.3-20.8-2.2,0-3.6-.3-4.8,0-3.8,1.3-7.5,2.8-11.1,4.4-81.1,36-162.1,72-243.2,108l-11.5,5.4c-.2.2-.4.4-.6.7Zm795.4,757.4l-35.8,16.7-76.2,35.6-35.8,16.7-76.2,35.6-35.8,16.7-76.2,35.6-35.8,16.7-76.2,35.6-35.8,16.7-38.2,17.8c23.4,0,46.8,0,70.2,0l4.1-1.9,35.8-16.7,76.2-35.6,35.8-16.7,76.2-35.6,35.8-16.7,76.2-35.6,35.8-16.7,76.2-35.6,35.8-16.7,73.8-34.5c.1-11,.2-22,.3-32.9l-34,15.9-76.2,35.6Zm64.2,60.7l-76.2,35.6-35.8,16.7-76.2,35.6-35.8,16.7-76.2,35.6-35.8,16.7-56.1,26.2c23.4,0,46.8,0,70.2,0l22-10.3,35.8-16.7,76.2-35.6,35.8-16.7,76.2-35.6,35.8-16.7,76.2-35.6,8.4-3.9c.1-11,.3-22,.4-33l-9.2,4.3-35.8,16.7Zm-12,96.3l-76.2,35.6-35.8,16.7-73.9,34.5c23.4,0,46.8,0,70.2,0l39.9-18.6,35.8-16.7,76.2-35.6,19.1-8.9c.2-11,.3-22,.5-33l-20,9.3-35.8,16.7Zm8.2,86.9h19.8c4.7,0,9.4.3,14-.1,3.8-.3,7.5-1.5,11.5-2.3.3-6.2.8-11.5.8-16.8,0-.8,0-1.5,0-2.3l-30.7,14.3-15.6,7.3Z"/></svg>