<?xml version="1.0" encoding="UTF-8"?><svg id="a" xmlns="http://www.w3.org/2000/svg" width="1760.8" height="1762.5" viewBox="0 0 1760.8 1762.5"><defs><style>.b{fill:#5d00ef;stroke-width:0px;}</style></defs><path class="b" d="m1752.5,514.9c-20.2-2.5-33.3-13.9-40.5-32.6-4.9-12.8-7.3-26.2-9.5-39.7-4.3-26-15.7-48.9-30.7-70.2-14.3-20.3-30.1-39.4-47.7-56.9-22-21.9-46.7-40.5-73.3-56.6-4.2-2.6-8.8-4.8-11.7-9.1-1.3-1.9-1.4-3.3.4-5.1,5.6-5.6,10.6-6.4,17.3-2.4,33.9,20.3,64.9,44.2,91.6,73.4,23.5,25.7,44.6,53.2,59.6,85,6.9,14.8,9.8,30.6,12.9,46.5,1.7,8.5,3.3,17,6,25.2,4.3,13.3,11.8,23,26.6,25.1,4.9.7,7.4,3.9,7.2,8.5-.3,5.8-2.2,9.3-8.2,8.7ZM360.2,1014.3c21.3,0,42.6-1.2,63.9-1.8,22.8-.7,45.6-1.3,68.4-2,19.6-.6,39.2-1.2,58.9-1.8,2.7,0,5.3-.2,7.9-.7,6.9-1.3,7.7-2.1,7.7-9.3,0-37.5.3-75-.4-112.5-.3-13.3-.2-26.6-.7-39.9-1.3-31.4-1.3-62.9-2.2-94.4-.8-27.5-.7-55-.4-82.4.3-24.1,1.2-48.2,1.9-72.4.5-16.3,1.6-32.6,2-48.9.1-4.9-1.2-8.1-6.2-9.1-2.3-.5-4.5-1.2-6.7-1.8-13.5-3.6-20.9-13.4-26.1-25.5-5.8-13.7-9-28.2-13-42.5-9.4-33.2-25.3-62.8-48.5-88.5-27.5-30.4-57.6-57.6-92.9-78.9-7.6-4.6-10.6-4.7-14.9,2-12.8,20.1-31.7,31.8-53.5,39.7-12.1,4.4-12.1,4.6-12.1,17.7,0,40.7,0,81.3,0,122,0,6.9,0,7.5-5.5,7.6v525.3c24.2,0,48.4-1.8,72.6-1.9Zm1153.5-26.5c13.1-.9,26.3-.6,39.4-.9,29.9-.7,59.9-1.2,89.8-2.2,22.8-.7,45.6-.8,68.4-1.2,3.5,0,7,0,10.5-.6,7.4-1.4,8.1-2,8.1-9.8,0-45.6.1-91.2-1.8-136.8-1.1-25.3-1.8-50.6-2-75.8-.4-42.6-1.2-85.3.6-127.9.7-17.5.8-34.9,1.3-52.4,0-1.5.3-3,.4-4.5.5-14.6,2-29.2,1.6-43.9,0-3.3-1.5-5.7-5-6.5-2.4-.6-4.8-1.4-7.2-2.1-8.9-2.3-14.7-8.3-18.5-16.3-4.3-9.2-6.7-19.2-8.2-29.2-4.3-28.3-13.4-54.7-29.4-78.8-21.7-32.6-46.8-62.1-76.5-87.7-21.5-18.6-45.5-33.5-69.5-48.6-2.9-1.8-5.8-2.1-9-.8-4.5,1.8-9,3.5-13.6,4.8-10.2,3-20.6,3.8-31,4.1v718.4c17.2-.2,34.5-.2,51.7-1.4Z"/></svg>