<?xml version="1.0" encoding="UTF-8"?><svg id="a" xmlns="http://www.w3.org/2000/svg" width="1760.8" height="1762.5" viewBox="0 0 1760.8 1762.5"><defs><style>.b{fill:#ff6969;stroke-width:0px;}</style></defs><path class="b" d="m805.8,14.7c15.3.2,29.6-3.1,42.6-11.7,8.2-5.4,12.9-3.5,16.1,5.7,10.1,29.1,20.3,58.1,32.8,86.2,13.2,29.6,29,57.5,50.5,82.1,21.4,24.5,47.4,43.1,74.4,60.6,10.6,6.9,21.5,13.3,32.2,20,6.2,3.9,6.7,4.7,4,11.8-7.6,20.6-15.4,41.1-23.3,61.6-3.1,8.1-4.8,8.7-15.4,7.5-28.9-3.3-57.9-5.7-86.9-8.1-44-3.6-88.2-3.5-132.2-2.6-23.6.5-47.1,2.3-70.6,4.6-20.7,2-41.4,3.6-62,6.1-.3,0-.7,0-1,0q-11.6.6-16.1-10.3c-7.8-18.9-15.6-37.8-23.3-56.7-3.1-7.5-2.7-8.7,4-13.6,13.1-9.7,26.3-19.1,39.2-29.1,26.1-20.3,50.5-42.4,68.8-70.3,15.7-23.9,26-50.1,34.4-77.2,5.8-18.6,10.6-37.5,15.3-56.3,2.5-10.1,3-10.5,13.5-10.4,1,0,2,0,3,0Zm228.3,698c7.9-21,16.1-41.9,23.9-63,2.9-7.8,2.8-8-4.3-12.4-17.1-10.7-34.3-21-50.9-32.6-21.5-15-41.9-31.3-58.7-51.6-20.4-24.5-35.6-52.1-48.3-81.2-11.7-27-21.7-54.7-31.1-82.6-.8-2.4-2-4.5-3.5-6.6-1.9-2.8-4.1-3.7-7.6-2.5-4,1.4-7.5,3.6-11.1,5.6-13.5,7.7-28.3,9.5-43.4,8.7-5.5-.3-7.9,2.2-9.2,6.9-.4,1.3-.7,2.6-1,3.9-8.6,33.2-17.2,66.3-30.8,98-15.2,35.3-38.6,64.3-67.6,89.1-19.4,16.7-40.2,31.7-61,46.6-4.1,2.9-5.1,6-3.1,10.6,3.7,8.5,7.1,17.2,10.7,25.8,5.2,12.6,10.5,25.2,15.7,37.8,1.6,3.9,4.1,5.6,8.4,5.4,6-.3,11.9-1.3,17.8-1.8,24.2-2,48.3-4.4,72.5-6.4,25.4-2.1,50.8-2.4,76.2-3.7,22.3-1.1,44.6,1.2,66.9.9.7,0,1.3,0,2,.1,18.6,1.3,37.1,2.5,55.7,3.9,12.9,1,25.8,2.3,38.7,3.6,10.9,1,21.8,2.2,32.7,3.3,4.9.5,8.4-1,10.3-5.9ZM341.1,117.1c21.7,1.8,43.4,4,65.2,4.4,25.5.5,50.8-2.8,76-5.9,7.4-.9,8.6-2,9.8-9.6,2.9-17.5,5.7-35.1,8.2-52.8,2.1-14.9,2.2-14.8-13-16.2-13.4-1.2-26.9-1.5-40.4-2.1-23.3-1-46.5-2.1-69.8-3-18.6-.7-37.2-1.7-55.9-1.9-27-.3-53.9-.5-80.9.5-28.3,1.1-56.5,1.7-84.8,3.2-18.4.9-36.9,1.1-55.3,2.4-8.3.6-16.6,0-24.9,1.4-9.3,1.7-10.4,2.8-9,12.1,2.8,18.7,5.8,37.4,8.8,56.1,1.2,7.7,2.2,8.7,9.6,9.8,22.7,3.1,45.6,5.6,68.5,6,19.1.4,38.2-1.2,57.3-3,24.2-2.2,48.4-4,75.1-3.7,16.9-.7,36.2.6,55.4,2.3Zm-44.3,899.2h-26.5V489.4h26.5v526.8Zm268.3-419.2c.5-16.3,1.6-32.6,2-48.9.1-4.9-1.2-8.1-6.2-9.1-2.3-.5-4.5-1.2-6.7-1.8-13.5-3.6-20.9-13.4-26.1-25.5-5.8-13.7-9-28.2-13-42.5-9.4-33.2-25.3-62.8-48.5-88.5-27.5-30.4-57.6-57.6-92.9-78.9-7.6-4.6-10.6-4.7-14.9,2-9.7,15.1-22.7,25.5-37.9,33.1l242.6,317.4c.4-19.1,1.1-38.2,1.7-57.2ZM3.8,653.3l242.6-317.4c-15.2-7.6-28.3-17.9-37.9-33.1-4.3-6.8-7.4-6.6-14.9-2-35.2,21.3-65.4,48.4-92.9,78.9-23.2,25.7-39.1,55.3-48.5,88.5-4,14.2-7.2,28.8-13,42.5-5.1,12.1-12.5,22-26.1,25.5-2.2.6-4.4,1.4-6.7,1.8-5.1,1.1-6.3,4.2-6.2,9.1.4,16.3,1.4,32.6,2,48.9.6,19.1,1.3,38.2,1.7,57.2Z"/></svg>