<?xml version="1.0" encoding="UTF-8"?><svg id="a" xmlns="http://www.w3.org/2000/svg" width="1760.8" height="1762.5" viewBox="0 0 1760.8 1762.5"><defs><style>.b{fill:#fff;stroke-width:0px;}</style></defs><path class="b" d="m1143.9,514.9c-4.5.5-6.6-2-7.1-6-.5-3.7-1.3-7.8,3.3-9.8,1.5-.7,3.1-1.4,4.7-1.7,13.9-2.4,21-11.7,25.2-24.1,4.6-13.8,6.5-28.2,9.5-42.3,3.9-19,11.6-36.4,21.7-52.9,18.7-30.4,41.4-57.5,67.1-82.1,22.5-21.5,48-38.9,74.5-55.1,4.7-2.8,13.8.4,16,5.3.8,1.7-.3,2.8-1.1,4.1-2.4,3.9-6.4,5.8-10.1,7.9-32.9,19.4-62.3,43.2-88,71.5-20.5,22.6-39.1,46.7-52.8,74.2-7.5,15.1-10.5,31.5-13.7,47.8-2.8,14.5-5.6,29.1-13.6,42-8.2,13.2-20.6,19.3-35.5,21.1Zm-850.8-153.6c0,40.7,0,81.3,0,122,0,7.6,0,7.6-7.4,7.6-.8,0-1.6,0-2.3,0-.7,0-1.4,0-2.3,0-7.3,0-7.4,0-7.4-7.6,0-40.7,0-81.3,0-122,0-13,0-13.3-12.1-17.7-21.8-7.9-40.7-19.6-53.5-39.7-4.3-6.8-7.4-6.6-14.9-2-35.2,21.3-65.4,48.4-92.9,78.9-23.2,25.7-39.1,55.3-48.5,88.5-4,14.2-7.2,28.8-13,42.5-5.1,12.1-12.5,22-26.1,25.5-2.2.6-4.4,1.4-6.7,1.8-5.1,1.1-6.3,4.2-6.2,9.1.4,16.3,1.4,32.6,2,48.9.8,24.1,1.7,48.2,1.9,72.4.3,27.5.4,54.9-.4,82.4-1,31.4-.9,62.9-2.2,94.4-.6,13.3-.5,26.6-.7,39.9-.7,37.5-.4,75-.4,112.5,0,7.1.8,8,7.7,9.3,2.6.5,5.3.6,7.9.7,19.6.6,39.2,1.2,58.9,1.8,22.8.7,45.6,1.3,68.4,2,21.3.6,42.6,1.8,63.9,1.8,25.6,0,51.1,2.1,76.7,1.9,3.7,0,7.4,0,11.2,0V349.2c-1.6,2.2-1.5,5.6-1.5,12.1Zm1158.9-90.4c-19.3,0-38.9,1-57.1-6.8-8-3.4-14-2.4-21.2,2.1-25.2,16-50.2,32.1-72.1,52.5-26.9,25-50.7,52.8-70.3,84-11.3,17.9-19.5,37-23.6,57.9-2.7,13.9-4.7,27.9-9.6,41.3-4.2,11.5-10.9,20.1-23.9,22.1-1.6.2-3.1,1.2-4.7,1.7-2.4.7-3.3,2.2-3.9,4.6-1.5,5.5.2,10.9.3,16.4.3,16.3,1.2,32.6,1.9,48.9,1.1,26.8,1.8,53.6,2,80.3.2,18.8.6,37.6-.6,56.4-1.1,17.3-.3,34.6-.9,51.9-1,24.6-1.5,49.2-2,73.8-.6,26.1-.1,52.3-.1,78.4-.4,0-.8,0-1.2,0,0,11.5-.3,23,0,34.5.4,11.7,1.4,10.7,11.7,12.5.3,0,.7,0,1,0,15.3.5,30.6-.2,45.9,1,13.3,1,26.6.4,39.9.8,29.3,1,58.6,1.2,87.8,2.2,11.5.4,23-.2,34.5.4,22.6,1.1,45.3,2,67.9,1.5,2.7,0,5.4-.1,8.2-.1V270.8c-3.3,0-6.7,0-10,0Z"/></svg>