<?xml version="1.0" encoding="UTF-8"?><svg id="a" xmlns="http://www.w3.org/2000/svg" width="1760.8" height="1762.5" viewBox="0 0 1760.8 1762.5"><defs><style>.b{fill:#ffd664;stroke-width:0px;}</style></defs><path class="b" d="m1143.9,514.9c-4.5.5-6.6-2-7.1-6-.5-3.7-1.3-7.8,3.3-9.8,1.5-.7,3.1-1.4,4.7-1.7,13.9-2.4,21-11.7,25.2-24.1,4.6-13.8,6.5-28.2,9.5-42.3,3.9-19,11.6-36.4,21.7-52.9,18.7-30.4,41.4-57.5,67.1-82.1,22.5-21.5,48-38.9,74.5-55.1,4.7-2.8,13.8.4,16,5.3.8,1.7-.3,2.8-1.1,4.1-2.4,3.9-6.4,5.8-10.1,7.9-32.9,19.4-62.3,43.2-88,71.5-20.5,22.6-39.1,46.7-52.8,74.2-7.5,15.1-10.5,31.5-13.7,47.8-2.8,14.5-5.6,29.1-13.6,42-8.2,13.2-20.6,19.3-35.5,21.1Zm616.8-8.7c.2-4.7-2.3-7.8-7.2-8.5-14.8-2.1-22.3-11.9-26.6-25.1-2.7-8.2-4.3-16.7-6-25.2-3.1-15.8-6-31.7-12.9-46.5-15-31.8-36.1-59.3-59.6-85-26.7-29.2-57.7-53.2-91.6-73.4-6.8-4-11.7-3.3-17.3,2.4-1.9,1.9-1.7,3.2-.4,5.1,2.9,4.3,7.5,6.6,11.7,9.1,26.6,16.1,51.3,34.6,73.3,56.6,17.6,17.5,33.4,36.6,47.7,56.9,15,21.3,26.4,44.2,30.7,70.2,2.2,13.5,4.6,26.9,9.5,39.7,7.2,18.7,20.3,30,40.5,32.6,6,.7,7.9-2.9,8.2-8.7ZM802.8,14.7c-10.5,0-11,.3-13.5,10.4-4.7,18.9-9.6,37.7-15.3,56.3-8.4,27.1-18.8,53.4-34.4,77.2-18.3,27.9-42.6,50-68.8,70.3-12.9,10-26.1,19.4-39.2,29.1-6.7,4.9-7,6.1-4,13.6,7.7,18.9,15.5,37.8,23.3,56.7q4.5,10.9,16.1,10.3c.3,0,.7,0,1,0,20.6-2.5,41.3-4.1,62-6.1,23.5-2.2,47.1-4.1,70.6-4.6,44.1-.9,88.2-1,132.2,2.6,29,2.4,58,4.8,86.9,8.1,10.6,1.2,12.3.6,15.4-7.5,7.9-20.5,15.7-41,23.3-61.6,2.6-7.1,2.2-7.9-4-11.8-10.7-6.7-21.6-13.1-32.2-20-27-17.5-53.1-36.1-74.4-60.6-21.4-24.6-37.3-52.5-50.5-82.1-12.5-28.1-22.7-57.2-32.8-86.2-3.2-9.3-8-11.2-16.1-5.7-13,8.6-27.2,11.9-42.6,11.7-1,0-2,0-3,0Zm231.3,698c7.9-21,16.1-41.9,23.9-63,2.9-7.8,2.8-8-4.3-12.4-17.1-10.7-34.3-21-50.9-32.6-21.5-15-41.9-31.3-58.7-51.6-20.4-24.5-35.6-52.1-48.3-81.2-11.7-27-21.7-54.7-31.1-82.6-.8-2.4-2-4.5-3.5-6.6-1.9-2.8-4.1-3.7-7.6-2.5-4,1.4-7.5,3.6-11.1,5.6-13.5,7.7-28.3,9.5-43.4,8.7-5.5-.3-7.9,2.2-9.2,6.9-.4,1.3-.7,2.6-1,3.9-8.6,33.2-17.2,66.3-30.8,98-15.2,35.3-38.6,64.3-67.6,89.1-19.4,16.7-40.2,31.7-61,46.6-4.1,2.9-5.1,6-3.1,10.6,3.7,8.5,7.1,17.2,10.7,25.8,5.2,12.6,10.5,25.2,15.7,37.8,1.6,3.9,4.1,5.6,8.4,5.4,6-.3,11.9-1.3,17.8-1.8,24.2-2,48.3-4.4,72.5-6.4,25.4-2.1,50.8-2.4,76.2-3.7,22.3-1.1,44.6,1.2,66.9.9.7,0,1.3,0,2,.1,18.6,1.3,37.1,2.5,55.7,3.9,12.9,1,25.8,2.3,38.7,3.6,10.9,1,21.8,2.2,32.7,3.3,4.9.5,8.4-1,10.3-5.9Zm-1030-2.7c0-13.5,0-27-.2-40.6-.3-24.1-1.2-48.2-1.9-72.4-.5-16.3-1.6-32.6-2-48.9-.1-4.9,1.2-8.1,6.2-9.1,2.3-.5,4.5-1.2,6.7-1.8,13.5-3.6,20.9-13.4,26.1-25.5,5.8-13.7,9-28.2,13-42.5,9.4-33.2,25.3-62.8,48.5-88.5,27.5-30.4,57.6-57.6,92.9-78.9,7.6-4.6,10.6-4.7,14.9,2,12.8,20.1,31.7,31.8,53.5,39.7,12.1,4.4,12.1,4.6,12.1,17.7,0,40.7,0,81.3,0,122,0,7.6,0,7.6,7.4,7.6.8,0,1.6,0,2.3,0,.7,0,1.4,0,2.3,0,7.3,0,7.4,0,7.4-7.6,0-40.7,0-81.3,0-122,0-13,0-13.3,12.1-17.7,21.8-7.9,40.7-19.6,53.5-39.7,4.3-6.8,7.4-6.6,14.9-2,35.2,21.3,65.4,48.4,92.9,78.9,23.2,25.7,39.1,55.3,48.5,88.5,4,14.2,7.2,28.8,13,42.5,5.1,12.1,12.5,22,26.1,25.5,2.2.6,4.4,1.4,6.7,1.8,5.1,1.1,6.3,4.2,6.2,9.1-.4,16.3-1.4,32.6-2,48.9-.8,24.1-1.7,48.2-1.9,72.4-.2,13.5-.3,27-.2,40.6H4.1Zm1722.6-77.4c.7-17.5.8-34.9,1.3-52.4,0-1.5.3-3,.4-4.5.5-14.6,2-29.2,1.6-43.9,0-3.3-1.5-5.7-5-6.5-2.4-.6-4.8-1.4-7.2-2.1-8.9-2.3-14.7-8.3-18.5-16.3-4.3-9.2-6.7-19.2-8.2-29.2-4.3-28.3-13.4-54.7-29.4-78.8-21.7-32.6-46.8-62.1-76.5-87.7-21.5-18.6-45.5-33.5-69.5-48.6-2.9-1.8-5.8-2.1-9-.8-4.5,1.8-9,3.5-13.6,4.8-13.4,3.9-27.2,4.2-41,4.2-19.3,0-38.9,1-57.1-6.8-8-3.4-14-2.4-21.2,2.1-25.2,16-50.2,32.1-72.1,52.5-26.9,25-50.7,52.8-70.3,84-11.3,17.9-19.5,37-23.6,57.9-2.7,13.9-4.7,27.9-9.6,41.3-4.2,11.5-10.9,20.1-23.9,22.1-1.6.2-3.1,1.2-4.7,1.7-2.4.7-3.3,2.2-3.9,4.6-1.5,5.5.2,10.9.3,16.4.3,16.3,1.2,32.6,1.9,48.9.6,16,1.1,31.9,1.5,47.9h557c.1-3.6.2-7.2.4-10.8Z"/></svg>