<?xml version="1.0" encoding="UTF-8"?><svg id="a" xmlns="http://www.w3.org/2000/svg" width="4992" height="4992" viewBox="0 0 4992 4992"><defs><style>.b{fill:#f2df8f;stroke-width:0px;}</style></defs><path class="b" d="m1479.9,4686.2v-636c13.8-10.5,24.8-23.4,33.5-38.3v674.3h-33.5Zm151.9-1.4v-1110.4c-11.2,4.4-22.3,8.7-33.5,13.1v1097.3h33.5Zm103.2-1150.7v1152.2c11.2,0,22.3,0,33.5,0v-1165.3c-11.2,4.4-22.3,8.7-33.5,13.1Zm170.1,1150.7v-1104.9c-4.9-.5-9.8-1-14.7-1.6-6.3-.7-12.6-2-18.8-3.5v1110h33.5Zm273.3,0v-1145c-11.1-4.3-22.3-8.7-33.5-13v1158h33.5Zm132.4,1.4v-1094.5c-11.2-4.4-22.3-8.7-33.5-13.1v1107.6h33.5Zm107.4,0v-636.3c-13.9-10.6-24.8-23.6-33.5-38.6v674.9h33.5Zm-376.5-1.4v-1114c-2.1.7-4.2,1.3-6.4,1.8-8.9,2.3-18,3.8-27,5.1v1107.1h33.5ZM451.8,3603v40.3c-1.6-4.2-3.2-8.4-4.8-12.6-2.6-6.7-4.8-13.5-6.9-19.4l2.1-4.6,9.5-3.7Zm0,1006.4v-654c-9.7,10.2-20.8,18.3-33.5,24.4v629.6h33.5Zm118.5-1.4v-1057.6c-11.2,5-22.3,9.9-33.5,14.9v1042.7h33.5Zm126.9-1113.9c-7.9,3.5-15.8,7-23.7,10.5v1104.8c11.2,0,22.3,0,33.5,0v-1119.3c-3.3,1.2-6.5,2.5-9.7,3.9Zm146.4,1113.9v-1001c-.5-.9-1.2-1.7-1.9-2.6-3.8-.5-8.4-1-12.9-1.7-6.3-1-12.5-2.2-18.6-3.8v1009.1h33.5Zm273.3,0v-1072.3c-11.7-5.1-22.9-9.9-33.5-14.5v1086.8h33.5Zm101.1-1026.2l-2.1,1027.6h33.5v-675.4c-.4-.7-.9-1.5-1.3-2.2-6.8-12.1-12.1-25.3-15.9-38.6-11.9-41.9-9.7-84.4-2.2-126.8,4.6-26.3,11.4-52,19.4-77.4l2.2-92.8-33.6-14.3Zm112.1,1027.6c.5,0,1,0,1.5-.1,3.8-.3,7.5-1.5,11.5-2.3.3-6.2.8-11.5.8-16.8,1.1-80,2.4-160,3.3-239.9.7-63.3.9-126.7,1.6-190,.6-50,1.7-100,2.4-150,0-5.2-.7-10.3-1.2-16.4-6-1.1-11.1-2-16.2-2.9-3.6-.7-7.1-1.4-10.6-2.3v620.7h6.8Zm-349.8-1.4v-1061.8c-7.8,12-17.5,22.7-29.7,31.7-1.2.9-2.5,1.8-3.8,2.7v1027.3h33.5Zm2739.6-1042.9h-778.4v-49.5h778.4v49.5Zm3.9,104.8h-778.4v49.5h778.4v-49.5Zm1044.5-154.3h-778.4v49.5h778.4v-49.5Zm3.9,154.3h-778.4v49.5h778.4v-49.5Z"/></svg>