<?xml version="1.0" encoding="UTF-8"?><svg id="a" xmlns="http://www.w3.org/2000/svg" width="4992" height="4992" viewBox="0 0 4992 4992"><defs><style>.b{fill:#fc4747;stroke-width:0px;}</style></defs><path class="b" d="m3719.8,3642.2h-778.4v-49.5h778.4v49.5Zm1050.4-49.5h-778.4v49.5h778.4v-49.5Zm111.2,613.4h-2187.3v44.2h2187.3v-44.2Zm-.5,416.3h-2078.8v-53.4h2078.8v53.4Zm-3251.6-1047v1110.9c4.9,0,9.9,0,14.8,0v-1116.7c-4.9,1.9-9.9,3.9-14.8,5.8Zm-29.1,11.4v1099.5c-5.1,0-10.1,0-15.2,0v-1093.6c5.1-2,10.1-4,15.2-6Zm179.9-70.1v1169.6c-4.9,0-9.9,0-14.8,0v-1164c3.9-1.5,7.9-3.1,11.8-4.6,1-.4,2-.7,3-1Zm-43.9,17v1152.6c-5.1,0-10.1,0-15.2,0v-1146.7c5.1-2,10.1-4,15.2-5.9Zm180.6,47.4v1105.3c-4.9,0-9.9,0-14.8,0v-1106.7c4.9.5,9.9,1,14.8,1.4Zm-43.9-5.9v1111.2c-5.1,0-10.1,0-15.2,0v-1115.3c5,1.5,10.1,2.9,15.2,4.1Zm180.6-8.6v1119.8c-4.9,0-9.9,0-14.8,0v-1114.5c5.1-1.5,10.1-3.2,14.8-5.2Zm-43.9,11v1108.7c-5.1,0-10.1,0-15.2,0v-1106.7c5.1-.7,10.2-1.3,15.2-2.1Zm180.6-33.2v1141.9c-4.9,0-9.9,0-14.8,0v-1147.7c4.9,1.9,9.9,3.9,14.8,5.8Zm-43.9-17.1v1159c-5.1,0-10.1,0-15.2,0v-1165c5.1,2,10.1,4,15.2,5.9Zm180.6,70.6v1088.5c-.2,0-.5,0-.7,0-4.7,0-9.4,0-14.1,0v-1094.3c4.9,1.9,9.9,3.9,14.8,5.8Zm-43.9-17.2v1105.7c-5.1,0-10.1,0-15.2,0v-1111.6c5.1,2,10.1,4,15.2,6Zm144.7,475.7v630.1c-1.9,0-3.7-.2-5.5-.2-3.1,0-6.2,0-9.3,0v-640.9c4.6,3.9,9.5,7.6,14.8,10.9Zm-59.1-295.5v-146.6c5,2,10.1,4,15.2,6v54.7c-6.5,28.4-11.4,57-15.2,85.9Zm15.2,248.3v677.2c-5.1,0-10.1,0-15.2,0v-715.1c.9,3.1,1.8,6.2,2.8,9.2,3.4,10.2,7.5,19.8,12.4,28.7Zm-896.9,35.6v641.6c-5.3,0-10.7-.1-16-.2v-629.5c5.7-3.6,11.1-7.6,16-11.9Zm41.4-429.7v131.5c-3.8-26.3-8.5-52.5-14.8-78.4-.4-1.5-.8-3-1.1-4.6v-42.3c.2,0,.5-.2.7-.3,5.1-2,10.2-4,15.3-6Zm0,363.3v708c-5.3,0-10.7,0-16,0v-672.3c4.9-8.1,9-16.7,12.6-25.9,1.2-3.2,2.4-6.5,3.4-9.8Zm-944.3-434v1065c-4.9,0-9.9,0-14.8,0v-1058.4c4.9-2.2,9.9-4.4,14.8-6.6Zm-43.9,19.5v1045.5c-5.1,0-10.1,0-15.2,0v-1038.7c5.1-2.3,10.1-4.5,15.2-6.8Zm179.9-55.8v1101.3c-4.9,0-9.9,0-14.8,0v-1118.6c1.1-.4,2.2-.8,3.4-1.2,1.1-.4,2.5,0,4.8,0,3.6,5.5,4.9,12.1,6.7,18.6Zm-43.9-4.6v1105.9c-5.1,0-10.1,0-15.2,0v-1099.1c5.1-2.3,10.1-4.5,15.2-6.8Zm180.6,374.3v731.6c-4.9,0-9.9,0-14.8,0v-1005.1s0,0,0,0c5.3,5.7,4.2,12,4.2,17.9.1,25.3,0,50.7,0,76,0,51.3,0,102.7,0,154,0,7.8-1.5,16,3,23.4,2.5,1.2,4.9,2,7.4,2.2Zm-43.9-278.4v1010c-5.1,0-10.1,0-15.2,0v-1014.6c5,1.8,10,3.4,15.2,4.6Zm180.6-78.5v1088.5c-4.9,0-9.9,0-14.8,0v-1060.3c6-8.7,10.9-18.1,14.8-28.2Zm-43.9,58v1030.5h-15.2v-1021c5.2-2.7,10.3-5.9,15.2-9.5Zm180.6-37.6v1068.1h-14.8v-1074.6c4.9,2.1,9.8,4.3,14.8,6.5Zm-43.9-19v1087.2c-5.1,0-10.1,0-15.2,0v-1093.6c4.9,2.1,10,4.2,15.2,6.5Zm165.7,159.9v-86c4.4,2,8.7,4,12.9,6,.6.3,1.3.6,1.9.9v36.9c-5.2,13.9-10.2,28-14.8,42.1Zm14.8,274.5v652.8c-4.9,0-9.9,0-14.8,0v-671.7c4.4,7,9.4,13.3,14.8,19Zm-43.9-373.9v1026.6h-15.2v-1033.6c5.1,2.3,10.2,4.6,15.2,6.9Zm100.8,405.9v620.8c-1.9,0-3.8,0-5.7,0h-9.5v-625.6c4.9,1.9,10,3.5,15.2,4.8Zm-896.9-13.1v633.8c-5.3,0-10.7,0-16,0v-626.1c5.6-2.2,10.9-4.8,16-7.7Zm41.4-379.6v93.3c-4.9-15.4-10.3-30.7-16-45.9v-40.3c5.3-2.4,10.7-4.7,16-7.1Zm0,338.4v675.1c-5.3,0-10.7,0-16,0v-654c5.9-6.2,11.2-13.3,16-21.1Z"/></svg>