<?xml version="1.0" encoding="UTF-8"?><svg id="a" xmlns="http://www.w3.org/2000/svg" width="2048" height="2048" viewBox="0 0 2048 2048"><defs><style>.b{fill:#3f3f3f;stroke-width:0px;}</style></defs><path class="b" d="m1402.9,1833.1h-361.9c-1.8,0-3.7,0-5.5,0-3.1,0-4.3-1.3-4.8-4.4-4.2-25.9-8.6-51.9-12.9-77.8-3.9-23.5-7.8-46.9-11.7-70.4-1.1-6.3-1-6.5,5.2-8.1,26.2-6.5,52.3-13.1,77-24.3,31.8-14.5,59.8-34.7,86.6-56.9,25.2-21,50-42.6,76.4-62,33.4-24.4,70.8-41,111.5-49.5,45.8-9.5,90.1-3.5,133.9,12.3,44.5,16.1,83.4,41.2,120.4,70.1,22.4,17.5,45.1,34.8,68.4,51.2,32.6,22.9,68.6,39.5,104.8,55.9,12,5.5,12.2,5.3,9.9,18.2-8,46.2-16,92.4-24.1,138.6q-1.2,7-8.7,7c-121.5.1-243,.1-364.5.1Zm-204.5-53.3v-6.9c-1.6,1.5-2.7,2.6-4.2,3.9,1.4,1,2.4,1.7,4.2,3Zm-561.5,18.4c27.5,0,55,0,82.5,0,4.2,0,6.1-1.4,6.6-5.4.6-5,1.5-9.9,2.3-14.8,6.1-37.2,12.4-74.4,18.4-111.7,2.2-13.8,4.3-11.3-9.3-14.5-33.6-7.8-65.9-18.8-95.3-37.3-26.8-16.9-50.5-37.6-74.2-58.3-31.6-27.7-65.6-51.2-105.2-66.1-31.8-12-64.5-17.4-98.4-13.9-36.5,3.8-70.1,16.8-102.4,33.4-27.3,14-51.2,33.1-75.2,51.8-27,21.1-54,42.4-84.6,58.3-22.3,11.6-45.1,22.3-67.7,33.2-3.3,1.5-4.7,3.1-4,7.2,7.7,43.4,15.1,86.9,22.6,130.3q1.4,7.7,9.1,7.7h327.4c82.5,0,164.9,0,247.4,0Zm-340.3-396.6H86.7c-7,0-7,0-7,7.2v35.5q0,6.7,6.6,6.7c38.9,0,77.7,0,116.5,0,195.4,0,390.9,0,586.3,0h229.9c7.1,0,7.2,0,7.2-7.2v-34.5q0-7.6-7.8-7.6h-465.4c-85.5,0-170.9,0-256.4,0Zm1248.3,0c-75.8,0-151.6,0-227.4.1h-239c-6.7,0-6.8,0-6.8,6.6v35.5q0,7.2,7.2,7.2h797.3c45.2,0,90.3,0,135.5,0,4.8,0,6.9-1.1,6.7-6.4-.4-10.8,0-21.7,0-32.5,0-11.7,1-10.5-10.5-10.5h-462.9Zm213.1,503.6c5.2,0,7.3-1.5,8.1-6.6,2.2-13.3,4.8-26.5,7.2-39.8,1.7-9,1.6-9-7.4-9h-727.9c-6.8,0-7.1.3-6.1,6.6,2.1,13.8,4.3,27.6,6.5,41.4,1.2,7.3,1.3,7.3,8.7,7.3h355c118.6,0,237.3,0,355.9,0Zm-1107.1,73.4h-333.9c-8.1,0-8.2,0-8.2,8.3v20.5c.1,12.7-.6,10.8,10.7,10.8h860.8c2.9,0,5.9.3,5.9-4v-31.5c0-3-1.5-4.2-4.4-4.1-2,0-4,0-6,0h-428.4c-32.1,0-64.3,0-96.5,0ZM55.1,1818.3c2.2,12.3,4.5,24.5,6.8,36.8q1.3,7.2,8.9,7.2h536c34.8,0,69.7,0,104.5,0,4.6,0,6.8-.9,7.4-6,1.4-12.2,3.7-24.3,5.5-36.5,1.1-7.1.9-7.2-6.2-7.2H54.7c.2,2.5,0,4.1.4,5.6Zm945.7,150c6.3,0,6.5-.2,6.5-6.5,0-29.3-.1-58.7,0-88,0-4.9-1.7-6.3-6.4-6.3-87.9,0-175.9,0-263.9,0s-6.5.2-6.5,6.5v87c0,7.2,0,7.2,7.3,7.2h131c44,0,88,0,131.9,0Zm-115.7-160.6c-1.3-4.7-3.9-9.2-6.9-13-1.3-1.7-4.9-1.9-7.6-2.3-3.4-.5-6.9-.6-10.4-.8-15.6-1-31.2-2.2-46.8-2.8-8.1-.3-14.4,3.9-19.7,9.9-6.4,7.3-7.6,15.8-8.2,25.2-1.1,18.6,14.6,40.2,37.7,37.5,16.6-1.9,33.3-2.8,49.9-4.3,2.9-.3,5-1.9,6.9-4.7,5.9-8.8,6.7-18.4,6.8-28.5-.5-5.4-.3-11.1-1.7-16.2Zm53.9-22.3c-7.8,1.6-15.7,3.1-23.5,4.9-3.7.9-7.3,2.2-10.9,3.3-8.7,2.8-14.4,9.4-16.7,17.4-1.9,6.6-.6,14.1-.3,21.1.1,2,1.1,4.3,2.4,5.8,6.3,7.5,12.8,14.8,23.3,16.3,1.4.2,2.8,1.1,4.2,1.5,4.6,1.3,9.1,3.1,13.8,3.7,16.4,2.2,31.7-3,46.9-8.1,1.5-.6,3.3-1.9,4-3.3,7.6-16.5,8.8-33,.3-49.6-.7-1.4-1.9-3.2-3.1-3.5-13.2-3.4-25.8-10-40.1-8,0-.5,0-1-.3-1.5ZM712.6,129.8c-3.8,23.7-9.1,47-18.1,69.4-26.6,66.1-75.9,101.2-146.6,105.3-27.5,1.6-53-7.3-76.1-22.1-30.6-19.6-49.9-48-62.7-81.3-8.6-22.6-12.9-46.1-14.8-70.1-.4-4.3-1.7-5.4-5.9-4.1-75.8,22.5-151.6,45-227.4,67.4-3.8,1.2-4.9,2.8-4.1,6.8,10.4,49.7,17.8,99.8,20,150.7,1.6,36.4.2,72.5-6.4,108.4-4.8,26.3-12.6,51.8-27.4,74.5-13.4,20.6-31.1,35-56.5,37.8-7.1.7-7.1.8-7.1,7.8v785.5c0,7.3,0,7.3,7.5,7.3h930.5q8.7,0,8.7-8.8c0-28.8,0-57.7,0-86.5v-484.4c0-70.8,0-141.7,0-212.5,0-3.7-.3-6.5-4.7-8-33-11.1-55.7-33.6-70.5-64.6-14.7-30.9-20.1-64-22.6-97.7-2.8-37.3-1.1-74.6,3.2-111.7,3.6-31.7,9-63.2,13.7-94.8,1-6.9,1.1-6.9-5.5-8.9-70-21.6-140-43.1-210-64.7-5.2-1.7-10.4-3.2-16.2-5-.5,1.9-.8,3-1.1,4.3Zm647.5,1868.3c19.3-1,38.7-1.7,58.1-3,8.6-.5,17-2.7,23.6-8.9,4.7-4.5,5-7.9.2-12.2-3.3-2.9-7.1-6.3-11.1-7.1-12.7-2.4-25.7-4.9-38.6-5-29.7,0-59.4.9-89.1,1.9-9.2.4-18,2.9-24.8,9.9-4.2,4.3-4.3,9.8.6,13,4.6,3,9.6,6.2,14.9,7.2,10.2,1.9,20.6,2.8,31,3.3,11.7.5,23.3,0,35,0,0,.3,0,.6.2.8Zm-529.2-450.9c19.9-.9,39.7-1.8,59.6-2.9,8-.5,15.5-3.1,21.9-8.1,4.2-3.3,5.1-9,1.5-12.3-5.3-4.9-11.5-9-19-9.7-13.6-1.3-27.3-2.9-41-2.9-26,0-52.1,1-78.1,1.9-9,.3-17.5,2.8-24.8,8.6-5.7,4.6-5.9,11,.3,14.8,4.1,2.5,8.3,5.2,12.8,6.2,8.6,1.8,17.3,3.1,26,3.4,13.6.5,27.3,0,40.9,0,0,.3,0,.7-.1.9Zm1.5,90.1c11.2,0,22.5.2,33.7,0,17.4-.5,34.8-1,52.2-2.1,7.7-.5,14.8-3.5,20.7-8.7,4.2-3.7,4.7-8.6.3-11.9-4.7-3.6-10-7.1-15.6-8.8-16.2-4.8-33.2-2.9-49.8-3.9-14-.8-28.2.4-42.3.8-9.4.3-18.9.5-28.3,1.1-9.3.7-18.2,2.5-25.9,8.6-6.2,4.9-6.5,11.5,0,15.8,3.3,2.1,7,4.4,10.7,5,14.6,2.3,29.4,3.9,44.1,5.7.1-.5.1-1,0-1.5Zm366,135.6c-1.7,1.5-2.8,2.6-4.2,3.9,1.4,1,2.4,1.7,4.2,3v-6.9ZM712.6,129.8c-3.8,23.7-9.1,47-18.1,69.4-26.6,66.1-75.9,101.2-146.6,105.3-27.5,1.6-53-7.3-76.1-22.1-30.6-19.6-49.9-48-62.7-81.3-8.6-22.6-12.9-46.1-14.8-70.1-.4-4.3-1.7-5.4-5.9-4.1-75.8,22.5-151.6,45-227.4,67.4-3.8,1.2-4.9,2.8-4.1,6.8,10.4,49.7,17.8,99.8,20,150.7,1.6,36.4.2,72.5-6.4,108.4-4.8,26.3-12.6,51.8-27.4,74.5-13.4,20.6-31.1,35-56.5,37.8-7.1.7-7.1.8-7.1,7.8v785.5c0,7.3,0,7.3,7.5,7.3h930.5q8.7,0,8.7-8.8c0-28.8,0-57.7,0-86.5v-484.4c0-70.8,0-141.7,0-212.5,0-3.7-.3-6.5-4.7-8-33-11.1-55.7-33.6-70.5-64.6-14.7-30.9-20.1-64-22.6-97.7-2.8-37.3-1.1-74.6,3.2-111.7,3.6-31.7,9-63.2,13.7-94.8,1-6.9,1.1-6.9-5.5-8.9-70-21.6-140-43.1-210-64.7-5.2-1.7-10.4-3.2-16.2-5-.5,1.9-.8,3-1.1,4.3Zm956,1243.2h342.5c7.3,0,7.3,0,7.3-7.6,0-261.1,0-522.3,0-783.4,0-5.7-1.8-8.6-6.6-11.3-23.4-13.3-43.4-30.3-58.1-53.1-20.8-32.3-28.3-68.7-30.3-106.3-1.2-22.6-1-45.3,0-67.9.8-22.3,2.8-44.5,5.2-66.7,2.7-24.6,6.3-49.1,9.6-73.7.5-4-.3-6.2-4.7-7.5-74.3-22.8-148.6-45.7-222.8-68.7-3.3-1-5.5-.6-8.1,1.7-11.1,10.2-23.5,18-38.5,21.1-34.5,7.1-69.4,10.4-104.5,12-33.2,1.5-66.3-1.3-99.2-5.1-15-1.8-29.9-5.1-44.5-8.8-10.4-2.6-20.2-7.5-26.3-16.9-2.9-4.4-5.7-4.8-10.4-3.4-47.8,14.3-95.7,28.4-143.6,42.6-27,8-53.9,16-80.9,24-3.6,1.1-6.4,2.3-5.7,7.1,1.6,11.2,3.1,22.4,4,33.7,2.7,32.6,6.1,65.3,7.5,98,1.6,38,1.1,76-4.7,113.7-3.8,25.1-9.4,49.7-20.9,72.6-12.2,24.2-29.4,43.2-56.1,51.6-5.4,1.7-7.2,4.1-7.2,9.8,0,261.5,0,523,0,784.5s0,8.1,8.3,8.1h464.5c41.3,0,82.6,0,124.1,0Z"/></svg>