<?xml version="1.0" encoding="UTF-8"?><svg id="a" xmlns="http://www.w3.org/2000/svg" width="2048" height="2048" viewBox="0 0 2048 2048"><defs><style>.b{fill:red;stroke-width:0px;}</style></defs><path class="b" d="m747.4,2003.5h428.4c2,0,4,0,6,0,2.9,0,4.4.4,4.4,1.5v11.8c0,1.6-3,1.5-5.9,1.5H319.5c-11.3,0-10.6.7-10.7-4v-7.7c0-3.1.1-3.1,8.2-3.1h333.9c32.2,0,64.4,0,96.5,0Zm274.2-1430.6c-33-11.1-55.7-33.6-70.5-64.6-14.7-30.9-20.1-64-22.6-97.7-2.8-37.3-1.1-74.6,3.2-111.7,3.6-31.7,9-63.2,13.7-94.8,1-6.9,1.1-6.9-5.5-8.9-70-21.6-140-43.1-210-64.7-5.2-1.7-10.4-3.2-16.2-5-.5,1.9-.8,3-1.1,4.3-3.8,23.7-9.1,47-18.1,69.4-26.6,66.1-75.9,101.2-146.6,105.3-27.5,1.6-53-7.3-76.1-22.1-30.6-19.6-49.9-48-62.7-81.3-8.6-22.6-12.9-46.1-14.8-70.1-.4-4.3-1.7-5.4-5.9-4.1-75.8,22.5-151.6,45-227.4,67.4-2.7.8-4,1.9-4.3,3.8,0,.4,0,.7.2,1.2,10.4,49.7,17.8,99.8,20,150.7.4,9.4.6,18.7.6,28,0,27.6-2,55-7,82.2-4.8,26.3-12.6,51.8-27.4,74.5-13.4,20.6-31.1,35-56.5,37.8-7.1.7-7.1.8-7.1,7.8v11.7l155.2,29.5,3,12.7,180.9,188,18.4,81.2,117.3,32.7h3.3l111.3-32.7,21.1-78.6,178.2-190.6,3-12.7,155.2-29.5c0-3.7,0-7.4,0-11.1,0-3.7-.3-6.5-4.7-8ZM215.7,869.3l-138.1-76.2v-11.3s159.1,83.7,159.1,83.7l1.4,328.5,18.5,22.6,5,156.6-19.2-.5-.9-159.4-17.3-26.6-8.3-317.4Zm661.1,322.5l-17.3,22.6-.9,159.4-19.2.5,5-156.6,18.5-22.6,1.4-328.5,159.1-83.7v11.3s-138.1,80.2-138.1,80.2l-8.3,317.4Zm277.4-942.9l33.5,5.4-28.4,46.4-5.1-51.8Zm748.1,5.4l1.2.2,27.3,3.5-4,36.4-24.5-40Zm-672.4,370.5l8.3,20.5,174.1,181.8,23,92.1,108.3,29.4,114.8-29.4,27-103.1,163.6-170.9,8.3-20.5,160.6-27c0-.1.2-.2.7-.3,0-5.2,0-10.4,0-15.5,0-.6,0-1.1,0-1.6,0,0,0,0,0,0,0,0,0-.1,0-.2,0-.5,0-1-.2-1.4,0,0,0-.1,0-.2-.2-.9-.4-1.8-.8-2.6l-158.8,28.8-8.3,20.5-174.1,181.8-23,92.1-108.3,29.4-108.3-29.4-23-92.1-174.1-181.8-8.3-20.5-159.1-28.9c-.2.5-.3.9-.4,1.5,0,0,0,0,0,0,0,.4-.1.9-.2,1.3,0,0,0,.2,0,.2,0,.5,0,.9,0,1.5,0,5.2,0,10.4,0,15.6l158.3,28.7Z"/></svg>