<?xml version="1.0" encoding="UTF-8"?><svg id="a" xmlns="http://www.w3.org/2000/svg" width="2048" height="2048" viewBox="0 0 2048 2048"><defs><style>.b{stroke-width:0px;}</style></defs><path class="b" d="m1240,656c1.7,0,3.3-.1,5,0,3.5.2,4.3-1.5,3.7-4.6-.9-5.2-1.6-10.5-2.5-15.7-1.3-7.6-1.3-7.6-9.2-7.6-126.7,0-253.3,0-380,0-1.5,0-3,0-4.5,0-2.9-.2-4.2,1.3-4.5,4.1-.6,5.6-1.4,11.2-2.2,16.8-1,7.1-1.1,7.1,6.2,7.1,65,0,130,0,195,0,64.3,0,128.7,0,193,0Zm38,704.9c-3.9,0-5.5,1.1-4.8,5.1.7,4.1,1,8.3,1.6,12.4,1,6.9,1,6.9,8.2,6.9,55.3,0,110.6,0,165.9,0,1.3,0,2.7,0,4,0,2.9.2,4.1-1.1,4.3-4.1.3-4.5,1.2-8.9,1.7-13.4.8-6.5.6-6.8-5.9-6.8-29,0-58,0-86.9,0-29.3,0-58.6,0-87.9,0Zm-1126.3,31.8c-5.6,0-6.1.6-5.3,6.1.5,3.9,1.7,7.9,1.6,11.8-.1,5.5,2.2,6.5,7.2,6.5,56.1-.2,112.2,0,168.4,0,1,0,2,0,3,0,2.5.2,3.6-1,3.8-3.4.5-4.8,1.2-9.6,1.7-14.4.7-6.2.3-6.5-6-6.5-29,0-58,0-86.9,0-29.1,0-58.3,0-87.4,0Zm213.7-841.8c-1.5,0-3,0-4.5,0-1.6,0-2.3.7-2.6,2.3-1,7.3.8,9.5,8,9.5,102.9,0,205.9,0,308.8,0,1.6,0,3.3,0,4.9,0,1,0,1.8-.4,2.3-1.5,2.6-5.5-.3-10.3-6.3-10.3-51.8,0-103.6,0-155.4,0s-103.6,0-155.4,0Zm284.7-5.1c8.1,0,7.7,0,7.4-7.7-.2-5.1-3.5-4.2-6.5-4.2-86.9,0-173.8,0-260.7,0-1.2,0-2.3,0-3.5,0-1.5,0-2.3.8-2.8,2.3-1.9,6.7.1,9.6,6.8,9.6,43.2,0,86.4,0,129.6,0,43.2,0,86.4,0,129.6,0Zm598.8,41.3h-401.8v28h401.8v-28Zm144.1,31.8l156.3,234.3s-104.6,137.4-126.7,197.3-13.7,280.4-13.7,280.4h-93.5c0,0,5.2-213.6-24.2-290.9s-113-184.6-113-184.6l137.2-230.9,77.6-5.7Zm-1108,36l137.2,230.9s-83.6,107.3-113,184.6c-29.4,77.3-24.2,291-24.2,291h-93.5c0,0,8.4-220.6-13.7-280.5-22.1-59.9-133-196.2-133-196.2l162.6-235.5,77.6,5.7Z"/></svg>