<?xml version="1.0" encoding="UTF-8"?><svg id="a" xmlns="http://www.w3.org/2000/svg" width="2048" height="2048" viewBox="0 0 2048 2048"><defs><style>.b{fill:#8e8e8e;stroke-width:0px;}</style></defs><path class="b" d="m1808.3,1359.1c-45.5-.4-87.1-5-127.9-15.6-10.1-2.6-20.3-5.3-30.5-7.9-3.5-.9-5.1-2.6-5.1-6.6-.2-28.1-.4-56.3-.9-84.4-.6-37.1-1.3-74.3-2.3-111.4-.8-27.9-2.2-55.9-4.7-83.7-2.3-25.8-5.6-51.5-9.4-77.2-5.5-37.5-12.4-74.7-20.2-111.8-.3-1.6-.6-3.3.5-4.8,17-25.4,25.1-55,39.4-81.7,12.9-24,29.5-45,50-63,16.7-14.7,35-27,53.5-39.1,2.4-1.6,4.7-1.9,7.5-1.3,31.2,6.6,62.4,6.7,93.5-.2,2.4-.5,4.4-.3,6.6,1.1,24.9,15.9,49.1,32.7,69.6,54.2,17.8,18.7,31.5,40.2,42.2,63.7,10,21.9,17.5,45,31.3,65,1.3,1.9,1.4,3.9.9,6.2-6.8,32.6-13.1,65.2-18.1,98.1-5.4,35.4-10,70.8-12.4,106.5-2.1,30.1-3.3,60.2-4.1,90.3-1.1,40.8-1.8,81.6-1.9,122.4,0,17.3-.6,34.6-.8,51.9,0,3.3-1.3,4.8-4.3,5.6-27.6,7.6-55.3,14.4-83.7,18.5-23.9,3.5-48,4.6-68.7,5.1Zm-768.5-483.8c-5.5-5.6-11.3-10.8-16.4-16.8-10.9-13-19.9-27.5-29.4-41.5-12.1-17.8-24.6-35.1-39.4-50.7-16.4-17.4-36-30.5-57.2-41.4-6.8-3.5-6.9-3.9-11.3,1.9-8,10.4-18.4,16.5-31.4,18.5-7.6,1.2-7.6,1.5-7.6,9.5,0,168.8,0,337.6,0,506.3,0,1.3,0,2.7,0,4-.3,3.4,1.3,4.8,4.7,4.8,6.8-.1,13.6.6,20.4.9,26.6,1.2,52.4,6.5,77.7,14.8,17.7,5.8,35,12.8,52.1,20.2,3.8,1.6,5,.9,5-3.2,0-8.7.6-17.3.8-25.9.5-17.3.7-34.6,1.3-51.9,1.1-29.4,2.4-58.9,3.8-88.3,1-21.6,1.8-43.2,3.3-64.8,1.7-25.6,4.4-51,7.6-76.4,3.5-28.1,7.9-56,12.8-83.8,1.8-10.5,3.8-20.9,5.8-31.4.3-2.2-1.4-3.3-2.6-4.6Zm-233.8-119.1q0-9.5-9.2-11.2c-9.2-1.7-17.4-5.4-24.1-12.1-3.6-3.6-6-9.7-10.9-10.3-4.9-.5-9.2,4.1-13.7,6.5-17.1,9.2-32.8,20.4-46.4,34.2-15.8,15.9-29,33.9-41.5,52.4-14.3,21.3-27.9,43.1-47.5,60.2-2.4,2.1-1.9,4.4-1.5,6.8,8.9,45.7,16,91.6,21.1,137.9,2.5,22.5,4.2,45,5.6,67.6,1.6,25.6,2.7,51.2,3.8,76.8,1.2,27.4,2.1,54.9,3,82.3.6,18.3.9,36.6,1.3,54.9.1,4.8,1,5.3,5.3,3.4,6.3-2.7,12.6-5.3,18.8-7.9,41.1-17.2,83.6-27.7,128.3-27.9,7.4,0,7.4,0,7.4-7.8,0-84.5,0-169,0-253.4,0-84.1,0-168.3,0-252.4Zm255.9-141.2c59,0,118,0,177,0,6.1,0,6.7-.6,5.9-6-.7-4.9-1.3-9.9-2.2-14.8-1.2-7.2-1.3-7.2-8.6-7.2-123.3,0-246.6,0-369.9,0-1.3,0-2.7,0-4,0-2.6-.1-3.9.8-4.2,3.6-.6,5.6-1.5,11.2-2.4,16.8-1.2,7.3-1,7.6,6.5,7.6,63,0,126,0,189,0,4.3,0,8.7,0,13,0ZM267.5,1734.6c0-4.9-.7-5.9-5.8-5.9-16.1-.3-32.3-.3-48.4,0-5.9.1-7.1,1.9-5.5,7.5.4,1.6.5,3.3,1.1,4.8,2.4,32.5,3.8,65.1,7.1,97.6.3,3.4,1.3,5,5.1,5,11.3-.2,22.7-.2,34,0,3.4,0,4.6-1.1,4.9-4.5,3.3-33,4.9-66,7.1-99.1.8-1.8.4-3.6.4-5.4Zm1.1-4.9c4.3-9.5,2.6-18.5-1.9-27.3-1-1.9-2-3.9-1.6-6.2,1.2-6.8.8-13.6.9-20.4,0-6.4-.3-6.7-6.8-6.8-2.2,0-4.3,0-6.5,0-1.7,0-3.1-.4-4.4-1.8-4.3-4.5-17.3-6.3-21.7-2-3.9,3.8-8,4-12.6,3.9-3.6-.1-5.1,1.5-5,5.1.2,4.5-.5,9.1.7,13.4,1.8,6.7-1.8,11.7-5,16.6-2.4,3.8-6.5.1-9.8,1-.5.1-1,0-1.5,0-3.8.4-4.3-1.6-3.2-4.6.4-1.1.9-2.1,1.4-3.2,2.2-4.3,1.7-5.4-3.3-5.4-7.7-.1-14.1,3.1-18.6,9.1-2.7,3.6-5.3,5.1-9.8,5-4.9-.1-6.7,3.3-4.5,7.9.3-1.6.3-3,.7-4.2.9-2.8,3.3-3,5.7-2.9,1.2,0,3.3-.4,3.1,1.5-.6,5.4,3,4.5,6.1,4.5,4.5,0,9,0,13.5,0,2.5,0,4.7,0,4.5-3.5-.2-2,1.3-2.5,3-2.5,2.3,0,4.7,0,7,0,3.2,0,4.2,1.1,3.2,4.3-1.9,5.8-1.5,11.5,1,17.1,1.9,4.3,3.8,8.5,5.7,12.7,0-1,0-2,0-3q-.6-7.2,6.5-7.2c13.9,0,27.8,0,41.8,0q9.4,0,9.9,9.2c1.5-3.3.1-7.1,1.5-10.3Zm560-458.8c-.3-15.1-.2-30.2-.2-45.3,0-12.3-.8-24.6-.9-36.9-.2-82.7,0-165.3-.2-248,0-16.8-.8-33.6-.9-50.4-.3-48.1-.2-96.2,0-144.3,0-4.7,0-9.5,0-14.2,0-2.6-.9-4-3.4-4.5-4.1-.9-2.8,2.3-2.8,4,0,38,.1,75.9.3,113.9.2,43.6.4,87.3.5,130.9.3,85.6.5,171.2.8,256.9,0,14.3.3,28.6.4,43,5.3.9,6.6,0,6.5-5Zm-2.2-537.7c0,64.3-.4,128.6.5,192.8.3,18.7.3,37.3.4,56,.3,85.3-.6,170.6.9,255.9.2,11.3-.2,22.6.4,33.9.2,3.1.3,5.3,4.2,4.1,1-1.9.5-3.9.5-5.9,0-23.7-.2-47.3-.3-71,0-20.8-.1-41.7-.2-62.5-.3-90.8-.6-181.6-.8-272.4-.1-40.5-.1-81-.2-121.5,0-4.3-.2-8.7-.1-13,0-2.1-.5-3.3-2.9-2.5-3,1.1-2.5,3.8-2.5,6Zm-3.5-6c2.5,2.2,2,5.1,2,7.9,0,49.3,0,98.6.1,147.9,0,10.8.3,21.6.5,32.4.2,10.4,0,20.9,0,31.3,0,12.4.3,24.9.3,37.4.1,69,0,137.9.1,206.9,0,4.6,1.3,9.4.6,13.9-1.3,9.3,0,18.6,0,27.8-.2,12.6-.2,25.2.4,37.8.2,3.5-1,5.5-4.8,5.2,3.6,1,7.2,1,10.8,0-3.2-.6-3-3.1-3-5.4,0-28.8-.5-57.6-.8-86.4-1-97.6.7-195.1-1-292.7-.9-52.4-.2-104.9-.2-157.4,0-2.3-.1-4.7,1-6.8-2,0-4,0-6,0Z"/></svg>