<?xml version="1.0" encoding="UTF-8"?><svg id="a" xmlns="http://www.w3.org/2000/svg" width="2048" height="2048" xmlns:xlink="http://www.w3.org/1999/xlink" viewBox="0 0 2048 2048"><defs><style>.c{fill:url(#b);stroke-width:0px;}</style><linearGradient id="b" x1="507.8" y1="1123.5" x2="2007" y2="1123.5" gradientUnits="userSpaceOnUse"><stop offset="0" stop-color="#fff"/><stop offset="0" stop-color="#ffa300"/><stop offset="1" stop-color="#ffa608"/></linearGradient></defs><path class="c" d="m1645.3,1331.6l19.5-97.1,280.3-3.8,19.6,103.6-319.4-2.7Zm159.5,57.5c-48.4-.6-95.8-7.7-142.4-20.6-1.3-.4-2.6-.6-3.9-1-14.4-3.6-14.6-3.9-14.2-18.8,0-2.7.4-5.3.3-8-.1-3.8.9-5,4.9-3.8,25.3,7.9,51.1,13.8,77.1,18.4,18,3.2,36.3,4.4,54.6,5.7,18.2,1.3,36.3.8,54.4-.3,27.1-1.6,53.9-5.6,80.3-12.1,15-3.7,30.1-7,44.8-11.8,3.4-1.1,4.6-.2,4.5,3.2-.2,6.8-.3,13.6-.3,20.4,0,3.2-2.1,3.7-4.4,4.4-22.2,6.4-44.7,11.7-67.4,15.9-25.1,4.7-50.4,6.6-75.9,7.4-4.2.1-8.3.6-12.5.8Zm-983.4-86.1c-.1,2.4-2,1.8-3.3,2-19.9,2.7-39.8,5.3-59.5,9.4-29.3,6.2-57,16.9-83.3,31.1-4.5,2.4-7,2-9.2-2.6-2-4.2-4.4-8.2-6.9-12.1-1.6-2.5-1.6-3.9,1.3-5.4,35.3-19,72.4-32.6,112.2-38.4,10-1.5,20-3,30-4.7,4.8-.8,8.3,0,10.4,4.9,2.1,4.5,4.7,8.8,7,13.2.5.9.9,1.8,1.3,2.7Zm30.4-23.5c39.3,4.8,77.9,11.6,114.2,27.6,11,4.8,21.6,10.4,32.3,15.7,3,1.5,3.4,2.9,1.7,5.7-2.7,4.2-5.3,8.5-7.4,13-1.8,3.7-3.5,4.4-7.2,2.4-14.7-7.7-29.7-15.1-45.4-20.8-21.9-7.8-44.4-12.7-67.3-16.1-10.2-1.6-20.4-2.8-30.7-4.1-3.5-.4-4.7-1.4-2.7-5,3.1-5.3,5.9-10.8,8.7-16.3.9-1.6,1.9-2.8,3.7-2.2Zm-338.1,84.3c-3.3-.1-4.7-2.9-5.6-5-1.1-2.4,1.9-2.4,3.4-3,27.2-11.6,55-21.6,83.3-30.1,1.1-.3,2.2-.9,3.3-1,3.5-.2,5.1,2.7,5.9,5.2.9,2.6-2.4,2.3-3.7,2.8-28.7,8.9-57,18.8-84.7,30.5-.6.3-1.2.5-1.8.7Zm106-16c0,1.9-1.8,1.9-3.2,2.3-10.6,3.5-21.1,7.1-31.8,10.3-18.3,5.5-35.8,13.2-53.7,20-2.1.8-3.6,1-5.4-.6-3.7-3.4-3.5-4.7,1-6.7,27.7-11.9,56.3-21.1,85-30.2,2.7-.9,7.7,2.1,8,4.8Zm-13.2-14.5c3,.6,4.4,3.3,5.2,5.5.8,2.1-2.3,2.1-3.8,2.6-28.6,9.2-57.2,18.5-84.8,30.3-2.7,1.1-7.8-2-7.7-4.7,0-1.9,1.8-1.6,2.9-2.1,25.7-10.9,51.9-20.5,78.6-28.5,3.2-1,6.3-2.1,9.5-3.2Zm546.3,41.2c0,3.1-5.3,5.8-8.4,4.6-13.3-5.2-26.5-10.7-39.9-15.5-14.6-5.2-29.4-9.6-44-14.5-1.6-.5-5.1-.2-3.9-2.9,1.1-2.4,2.5-6.2,7-4.7,19.6,6.8,39.7,12.2,59,20,8.9,3.6,17.9,7.1,26.9,10.7,1.3.5,3,.6,3.4,2.2Zm7.8-8.5c-.4,3.5-5.5,5.6-9.1,4.2-12.2-4.8-24.5-9.6-36.7-14.4-15.2-6-31.1-9.8-46.3-15.6-1.6-.6-5.5,0-4.1-3.3,1.1-2.5,2.9-5.7,7.3-4.2,17.4,6.1,35.4,10.6,52.5,17.5,10.8,4.4,21.7,8.5,32.5,12.9,1.6.6,3.6.9,4,2.9Zm-106.7-16.1c1.3.4,2.3.7,3.2,1,28.2,9,56.4,17.9,83.6,29.7,1.7.7,5,.2,4.3,3.5-.8,3.4-4.9,5.1-8.3,3.8-10.4-4.1-20.7-8.1-31.1-12.2-17.3-6.9-35.5-11.2-52.9-17.7-1.5-.6-4.5-.4-3.9-2.7.7-2.3,2.6-4.6,5-5.4Zm591-19.4l.3,1.1,77-378.9-114.9-92.2,37.5,469.9Zm362.2-472.6l-114.9,92.2,72.6,384.2,42.3-476.4Zm-42.7,475.2s-.7,2.1-4.5,3.4c-19.8,6.8-89.8,26.9-165.9,25.3-71.8-1.5-126.6-18.2-144.9-25.6-4.7-1.9-4-4.5-4-4.5"/></svg>