<?xml version="1.0" encoding="UTF-8"?><svg id="a" xmlns="http://www.w3.org/2000/svg" width="2048" height="2048" viewBox="0 0 2048 2048"><defs><style>.b{fill:none;stroke:#545454;stroke-miterlimit:10;}</style></defs><path class="b" d="m792,1133.2l13.4,23-13.2,23.1h-26.7c0,.1-13.4-22.9-13.4-22.9l13.2-23.1h26.7Zm-45.2,80.8h-26.7c0,.1-13.2,23.3-13.2,23.3l13.4,23h26.7c0-.1,13.2-23.3,13.2-23.3l-13.4-23Zm-33.8,1.7l-13.8,24.2h-27.8c0,.1-14-23.9-14-23.9l13.8-24.2h27.8c0-.1,14,23.9,14,23.9Zm-1.2,0l-13.4-23h-26.7c0,.1-13.2,23.3-13.2,23.3l13.4,23h26.7c0-.1,13.2-23.3,13.2-23.3Zm-8.9,27.5h-27.8c0,.1-13.8,24.3-13.8,24.3l14,24h11.2c.9-.4,1.8-.7,2.8-1.1h-13.4c0,0-13.4-23-13.4-23l13.2-23.1h26.7c0-.1,13.4,22.9,13.4,22.9l-10.1,17.7c.5-.1.9-.3,1.4-.4l9.9-17.2-14-24Zm44.2-80.8l14,24-13.8,24.2h-27.8c0,.1-14-23.9-14-23.9l13.8-24.2h27.8Zm12.9,24l-13.4-23h-26.7c0,.1-13.2,23.3-13.2,23.3l13.4,23h26.7c0-.1,13.2-23.3,13.2-23.3Zm-90-2.5l-14-24,13.8-24.2h27.8c0-.1,14,23.9,14,23.9l-13.8,24.2h-27.8Zm-12.9-24l13.4,23h26.7c0-.1,13.2-23.3,13.2-23.3l-13.4-23h-26.7c0,.1-13.2,23.3-13.2,23.3Zm88.4-49.8l14,24-13.8,24.2h-27.8c0,.1-14-23.9-14-23.9l13.8-24.2h27.8Zm12.9,24l-13.4-23h-26.7c0,.1-13.2,23.3-13.2,23.3l13.4,23h26.7c0-.1,13.2-23.3,13.2-23.3Zm34.2-1.8l13.4,23v2l-13.2,23.1h-27.8c0,.1-14-23.9-14-23.9l13.8-24.2h27.8Zm12.9,24l-13.4-23h-26.7c0,.1-13.2,23.3-13.2,23.3l13.4,23h26.7c0-.1,13.2-23.3,13.2-23.3Zm-39.7,29l-13.8,24.2,14,24h27.8c0-.1,12.3-21.6,12.3-21.6v-2l-12.9,22.5h-26.7c0,.1-13.4-22.9-13.4-22.9l13.2-23.1h26.7c0-.1,13.1,22.3,13.1,22.3,0-.7,0-1.3,0-2l-12.5-21.4h-27.8Zm.6,53h26.7c0-.1,13,22.2,13,22.2v-2l-12.5-21.4h-27.8c0,.1-13.8,24.3-13.8,24.3l6.7,11.4c.4,0,.7,0,1.1-.1l-6.6-11.3,13.2-23.1Zm39.7,23.9v-.2l-4.6,8c.4,0,.8,0,1.2,0l3.4-5.9c0-.5,0-1.1,0-1.8Zm-44.7-25.1l-13.8,24.2h-27.8c0,.1-14-23.9-14-23.9l13.8-24.2h27.8c0-.1,14,23.9,14,23.9Zm-1.2,0l-13.4-23h-26.7c0,.1-13.2,23.3-13.2,23.3l13.4,23h26.7c0-.1,13.2-23.3,13.2-23.3Zm-90.8,4.7l-14-24h-11.7c0,.4,0,.7,0,1.1h11.1s13.4,23,13.4,23l-13.2,23.1h-9.9c0,.4,0,.7,0,1h10.4s13.8-24.2,13.8-24.2Zm4.3,54.4l-.2.3c-.5.2-1,.4-1.5.6l.5-.9-13.4-23h-13.7c0-.3,0-.6,0-.9h14.3c0,0,14,24,14,24Zm75.8-29.5l4.1,7c-.4,0-.7.1-1.1.2l-3.6-6.1h-26.7c0,.1-8.4,14.8-8.4,14.8-.5.1-.9.3-1.4.4l9.2-16.1h27.8Zm-97.5-53.8h-8.4c0-.3,0-.6,0-1h7.9s13.2-23.2,13.2-23.2l-13.4-23h-9.5c0-.2,0-.4,0-.6,0-.1,0-.2,0-.3h10.1s14,24,14,24l-13.8,24.2Zm-.3-59.6h-10.5c0-.3,0-.6,0-1h10s13.2-23.2,13.2-23.2l-13.4-23h-12c0-.3,0-.6,0-.9h12.6c0,0,14,24,14,24l-13.8,24.2Zm19.7-23.7l-14-24,13.8-24.2h27.8c0-.1,14,23.9,14,23.9l-13.8,24.2h-27.8Zm-12.9-24l13.4,23h26.7c0-.1,13.2-23.3,13.2-23.3l-13.4-23h-26.7c0,.1-13.2,23.3-13.2,23.3Zm60.5,2.3l-14-24,13.8-24.2h27.8c0-.1,14,23.9,14,23.9l-13.8,24.2h-27.8Zm-12.9-24l13.4,23h26.7c0-.1,13.2-23.3,13.2-23.3l-13.4-23h-26.7c0,.1-13.2,23.3-13.2,23.3Zm59.5-2.8l-13.8,24.2,14,24h27.8c0-.1,12.3-21.6,12.3-21.6v-2l-12.8,22.5h-26.7c0,.1-13.4-22.9-13.4-22.9l13.2-23.1h26.7c0-.1,13,22.2,13,22.2v-2l-12.5-21.4h-27.8Zm122.1,52.1l13.2,23.1-13.4,23h-26.7c0-.1-13.2-23.3-13.2-23.3l13.4-23h26.7Zm5.2,103.7l13.2,23.1h26.7c0,.1,13.4-22.9,13.4-22.9l-13.2-23.1h-26.7c0-.1-13.4,22.9-13.4,22.9Zm61.2-45.4h27.8c0,.1,13.8,24.3,13.8,24.3l-14,24h-27.8c0-.1-13.8-24.3-13.8-24.3l14-24Zm.4,47.2h26.7c0,.1,13.4-22.9,13.4-22.9l-13.2-23.1h-26.7c0-.1-13.4,22.9-13.4,22.9l13.2,23.1Zm-18.3,28.4l9.9,17.2c.5.1.9.3,1.4.4l-10.1-17.7,13.4-23h26.7c0,.1,13.2,23.3,13.2,23.3l-13.4,23h-13.4c.9.3,1.8.6,2.8,1h11.2s14-24,14-24l-13.8-24.2h-27.8c0-.1-14,23.9-14,23.9Zm-2.4-104.7l13.8,24.2-14,24h-27.8c0-.1-13.8-24.3-13.8-24.3l14-24h27.8Zm-27.4,47.1h26.7c0,.1,13.4-22.9,13.4-22.9l-13.2-23.1h-26.7c0-.1-13.4,22.9-13.4,22.9l13.2,23.1Zm48.9-25.8l-13.8-24.2,14-24h27.8c0,.1,13.8,24.3,13.8,24.3l-14,24h-27.8Zm27.4-47.1h-26.7c0-.1-13.4,22.9-13.4,22.9l13.2,23.1h26.7c0,.1,13.4-22.9,13.4-22.9l-13.2-23.1Zm-47.4-26.6l13.8,24.2-14,24h-27.8c0-.1-13.8-24.3-13.8-24.3l14-24h27.8Zm-27.4,47.1h26.7c0,.1,13.4-22.9,13.4-22.9l-13.2-23.1h-26.7c0-.1-13.4,22.9-13.4,22.9l13.2,23.1Zm-19.6-24.8l13.8,24.2-14,24h-27.8c0-.1-13.2-23.3-13.2-23.3v-2s13.4-23,13.4-23h27.8Zm-27.4,47.1h26.7c0,.1,13.4-22.9,13.4-22.9l-13.2-23.1h-26.7c0-.1-13.4,22.9-13.4,22.9l13.2,23.1Zm-1.3,5.7l-12.5,21.4c0,.7,0,1.3,0,2l13.1-22.4h26.7c0,.1,13.2,23.3,13.2,23.3l-13.4,23h-26.7c0-.1-12.9-22.6-12.9-22.6v2s12.3,21.5,12.3,21.5h27.8c0,.1,14-23.9,14-23.9l-13.8-24.2h-27.8Zm40.4,76.3l-6.6,11.3c.4,0,.7,0,1.1.1l6.7-11.4-13.8-24.2h-27.8c0-.1-12.5,21.3-12.5,21.3v2s13-22.4,13-22.4h26.7c0,.1,13.2,23.3,13.2,23.3Zm-52.9,2.5l3.4,5.9c.4,0,.8,0,1.2,0l-4.6-8v.2c0,.7,0,1.2,0,1.8Zm58.7-50.9h27.8c0,.1,13.8,24.3,13.8,24.3l-14,24h-27.8c0-.1-13.8-24.3-13.8-24.3l14-24Zm.4,47.2h26.7c0,.1,13.4-22.9,13.4-22.9l-13.2-23.1h-26.7c0-.1-13.4,22.9-13.4,22.9l13.2,23.1Zm91.3,5.7h10.4c0-.3,0-.6,0-1h-9.9s-13.2-23.2-13.2-23.2l13.4-23h11.1c0-.3,0-.6,0-1h-11.7c0,0-14,24-14,24l13.8,24.2Zm-4.1,6.2h14.3c0,.4,0,.7,0,1.1h-13.7c0,0-13.4,23-13.4,23l.5.9c-.5-.2-1-.4-1.5-.6l-.2-.3,14-24Zm-62-5.4l9.2,16.1c-.5-.1-.9-.3-1.4-.4l-8.4-14.7h-26.7c0-.1-3.6,6-3.6,6-.4,0-.7-.1-1.1-.2l4.1-7h27.8Zm55.9-78.1l14-24h10.1c0,.2,0,.3,0,.4,0,.2,0,.5,0,.7h-9.5s-13.4,23-13.4,23l13.2,23.1h7.9c0,.4,0,.7,0,1h-8.4s-13.8-24.2-13.8-24.2Zm.3-59.6l14-24h12.6c0,.4,0,.7,0,1.1h-12c0,0-13.4,23-13.4,23l13.2,23.1h10c0,.4,0,.7,0,1h-10.5s-13.8-24.2-13.8-24.2Zm-33.7.4l-13.8-24.2,14-24h27.8c0,.1,13.8,24.3,13.8,24.3l-14,24h-27.8Zm27.4-47.1h-26.7c0-.1-13.4,22.9-13.4,22.9l13.2,23.1h26.7c0,.1,13.4-22.9,13.4-22.9l-13.2-23.1Zm-75.1,25.3l-13.8-24.2,14-24h27.8c0,.1,13.8,24.3,13.8,24.3l-14,24h-27.8Zm27.4-47.1h-26.7c0-.1-13.4,22.9-13.4,22.9l13.2,23.1h26.7c0,.1,13.4-22.9,13.4-22.9l-13.2-23.1Zm-74.1,20.2l-12.5,21.4v2s13-22.4,13-22.4h26.7c0,.1,13.2,23.3,13.2,23.3l-13.4,23h-26.7c0-.1-12.8-22.6-12.8-22.6v2s12.3,21.4,12.3,21.4h27.8c0,.1,14-23.9,14-23.9l-13.8-24.2h-27.8Zm264.9,99.7l-28.4-1-14.9,23.8-.2.2,13.2,24.8v.3c.1,0,28.5,1,28.5,1l14.9-23.8.2-.2-13.2-24.8v-.3Zm12.2,25l-8.4,13.4-6.1,9.7-26.3-.9h-1s-.1-.3-.1-.3l-10.8-20.3-1.9-3.5h0s0,0,0,0l8.4-13.4,6.1-9.7,27.2,1,12.8,24.1h0s0,0,0,0Zm-40-25l-6.1,9.7-8.4,13.4h0s1.9,3.5,1.9,3.5l10.8,20.3v.3c.1,0,1.1,0,1.1,0l26.3.9,6.1-9.7,8.4-13.4h0s-12.8-24.1-12.8-24.1l-27.2-1Zm25,47.1l-26.1-.9-12.2-23,13.8-22.1,26.1.9,12.2,23-13.8,22.1Zm16.2,29.9l-13.2-24.8v-.3c-.1,0-28.5-1-28.5-1l-14.9,23.8-.2.2,13.2,24.8v.3c.1,0,28.5,1,28.5,1l14.9-23.8.2-.2Zm-15.6,23.1l-27.2-1-8.7-16.4-4.1-7.7,7.2-11.5,7.2-11.5,27.2,1,12.8,24.1-7.2,11.5-7.2,11.5Zm1.7-47.2l-27.2-1-7.2,11.5-7.2,11.5,4.1,7.7,8.7,16.4,27.2,1,7.2-11.5,7.2-11.5-12.8-24.1Zm-2.2,46.1l-26.1-.9-12.2-23,13.8-22.1,26.1.9,12.2,23-13.8,22.1Zm-43.1,27.5l-11.7-.4c0-.3,0-.7,0-1l11.1.4h0s0,0,0,0l8.9-14.2,5.6-8.9h0s0,0,0,0l-12.8-24.1-12.8-.5c0-.3,0-.7,0-1l13.4.5,13.3,25.1-15.1,24.1Zm-.5-1l-11.1-.4c0-.3,0-.7,0-1l10.6.4,13.8-22.1-12.2-23-12.2-.4c0-.3,0-.7,0-1l12.8.5v.3c.1,0,12.8,23.8,12.8,23.8h0s-5.6,8.9-5.6,8.9l-8.9,14.2h0Zm46,27.7l-22.6-.8c-1-.4-2-.7-3-1.1l25.1.9,7.2-11.5,7.2-11.5-12.8-24.1-27.2-1-7.2,11.5-7.2,11.5,12.3,23.2c-.5-.2-.9-.3-1.4-.5l-12.1-22.8.2-.2,14.9-23.8,28.4,1v.3c.1,0,13.3,24.8,13.3,24.8l-.2.2-14.9,23.8Zm6.7-12.6l7.2-11.5-12.8-24.1-27.2-1-7.2,11.5-7.2,11.5,12.3,23.2c.9.3,1.7.6,2.6.9l25.1.9,7.2-11.5Zm-33.8,9.6l-12.2-23,13.8-22.1,26.1.9,12.2,23-13.8,22.1-26.1-.9Zm44-16.6l18.7.7v1l-18.2-.6-10.4,16.7-4,6.4h0s0,0,0,0l3.5,6.6c-.5-.2-1-.4-1.5-.6l-3.2-6.1.2-.2,14.9-23.8Zm.5,1l18.2.6v1l-17.6-.6-13.8,22.1,3.8,7.2c-.5-.2-1-.4-1.5-.6l-3.5-6.6h0s4-6.4,4-6.4l10.4-16.7Zm5.4-57.7l12.8.5v1l-12.2-.4-7.2,11.5-7.2,11.5,6.4,12,6.4,12h0s13.9.5,13.9.5v1l-14.5-.5v-.3c-.1,0-13.3-24.8-13.3-24.8l.2-.2,14.9-23.8Zm.5,1l12.2.4v1l-11.7-.4-13.8,22.1,12.2,23,13.3.5v1l-13.9-.5h0s-6.4-12-6.4-12l-6.4-12,7.2-11.5,7.2-11.5Zm-2.1-106.4l14.3.5v1l-13.8-.5h0s0,0,0,0l-8.9,14.2-5.6,8.9h0s0,0,0,0l12.8,24.1,15.4.5v1l-16-.6-13.3-25.1,15.1-24.1Zm.5,1l13.8.5v1l-13.2-.5-13.8,22.1,12.2,23,14.8.5v1l-15.4-.5v-.3c-.1,0-12.8-23.8-12.8-23.8h0s5.6-8.9,5.6-8.9l8.9-14.2h0Zm-20.6-28.7l-28.4-1-14.9,23.8-.2.2,13.3,25.1,28.4,1,14.9-23.8.2-.2-13.2-24.8v-.3Zm-2.3,48.1l-27.2-1-12.8-24.1h0s0,0,0,0l4-6.4,10.4-16.7,26.3.9h1s.1.3.1.3l12.6,23.8-7.2,11.5-7.2,11.5Zm1.8-46.9v-.3c-.1,0-1.1,0-1.1,0l-26.3-.9-10.4,16.7-4,6.4h0s12.8,24.1,12.8,24.1l27.2,1,7.2-11.5,7.2-11.5-12.6-23.8Zm-2.3,45.9l-26.1-.9-12.2-23,13.8-22.1,26.1.9,12.2,23-13.8,22.1Zm23.4-71.8l13.8.5c0,.3,0,.7,0,1l-13.2-.5-7.2,11.5-7.2,11.5,12.6,23.8v.3c.1,0,1.1,0,1.1,0l13.9.5v1l-15.5-.5v-.3c-.1,0-13.3-24.8-13.3-24.8l.2-.2,14.9-23.8Zm.5,1l13.2.5c0,.3,0,.7,0,1l-12.7-.4-13.8,22.1,12.2,23,14.3.5v1l-13.9-.5h-1s-.1-.3-.1-.3l-12.6-23.8,7.2-11.5,7.2-11.5Zm-2.9,102l16.1.6v1l-15.6-.6-7.2,11.5-7.2,11.5,6.4,12,6.4,12h0s17.2.6,17.2.6v1l-17.8-.6v-.3c-.1,0-13.3-24.8-13.3-24.8l.2-.2,14.9-23.8Zm.5,1l15.6.5v1l-15-.5-13.8,22.1,12.2,23,16.6.6v1l-17.2-.6h0s-6.4-12-6.4-12l-6.4-12,7.2-11.5,7.2-11.5Zm-50.9,26.2l-13.2-24.8v-.3c-.1,0-12.6-.4-12.6-.4v2s11.3.4,11.3.4l12.2,23-13.8,22.1-10.1-.4v2s11.2.4,11.2.4l14.9-23.8.2-.2Zm-15.6,23.1l-9.2-.3,9.2.3,5.9-9.5-5.9,9.5Zm-10.2-54.5v2s9.2.3,9.2.3l14.9-23.8.2-.2-13.2-24.8v-.3c-.1,0-11-.4-11-.4v2s9.6.3,9.6.3l12.2,23-13.8,22.1-8.1-.3Zm14.6-8.2l-5.9,9.5-7.7-.3h0s7.7.3,7.7.3l5.9-9.5Zm-2.8-96.2l12.2,23-13.8,22.1-10.2-.4v2s11.3.4,11.3.4l14.9-23.8.2-.2-13.3-25.1-13.4-.5v2s12.2.4,12.2.4Zm-1.1,46.2l-9.7-.3h0s9.7.3,9.7.3l12.4-19.9-12.4,19.9Zm14.4-23.1h0s-9.5-17.9-9.5-17.9l9.5,17.9Zm34.5,2.2l14.9-23.8.2-.2-13.2-24.8v-.3c-.1,0-28.5-1-28.5-1l-15.1,24.1,13.3,25.1,28.4,1Zm-26.1-49.1l27.2,1,8.7,16.4,4.1,7.7-8.9,14.3-5.5,8.8h0s0,0,0,0l-27.2-1h0s0,0,0,0l-6.4-12-6.4-12,7.2-11.5,7.2-11.5Zm-8.1,35.1l6.4,12h0s27.2,1,27.2,1h0s5.5-8.8,5.5-8.8l8.9-14.3-4.1-7.7-8.7-16.4-27.2-1-7.2,11.5-7.2,11.5,6.4,12Zm8.6-34.1l26.1.9,12.2,23-13.8,22.1-26.1-.9-12.2-23,13.8-22.1Zm47.4-21.9l10.7.4c0,.3,0,.7,0,1l-10.1-.4-6.1,9.7-8.4,13.4h0s0,0,0,0l12.8,24.1,11.8.4c0,.3,0,.7,0,1l-12.4-.4-13.3-25.1.2-.2,14.9-23.8Zm.5,1l10.1.4c0,.3,0,.7,0,1l-9.6-.3-13.8,22.1,12.2,23,11.2.4c0,.3,0,.7,0,1l-11.8-.4-12.8-24.1h0s8.4-13.4,8.4-13.4l6.1-9.7Zm-619.4,122.7l-13.2,24.8.2.2,14.9,23.8,28.4-1v-.3c.1,0,13.3-24.8,13.3-24.8l-.2-.2-14.9-23.8-28.4,1v.3Zm-12,24.8h0s12.8-24.1,12.8-24.1l27.2-1,6.1,9.7,8.4,13.4h0s0,0,0,0l-1.9,3.5-10.8,20.3v.3c-.1,0-1.1,0-1.1,0l-26.3.9-6.1-9.7-8.4-13.4h0Zm12.8-24.1l-12.8,24.1h0s8.4,13.4,8.4,13.4l6.1,9.7,26.3-.9h1s.1-.3.1-.3l10.8-20.3,1.9-3.5h0s-8.4-13.4-8.4-13.4l-6.1-9.7-27.2,1Zm-11.6,24l12.2-23,26.1-.9,13.8,22.1-12.2,23-26.1.9-13.8-22.1Zm-2.2,52.3l14.9,23.8,28.4-1v-.3c.1,0,13.3-24.8,13.3-24.8l-.2-.2-14.9-23.8-28.4,1v.3c-.1,0-13.3,24.8-13.3,24.8l.2.2Zm8.2,11.3l-7.2-11.5,12.8-24.1,27.2-1,7.2,11.5,7.2,11.5-4.1,7.7-8.7,16.4-27.2,1-7.2-11.5Zm-7.2-11.5l7.2,11.5,7.2,11.5,27.2-1,8.7-16.4,4.1-7.7-7.2-11.5-7.2-11.5-27.2,1-12.8,24.1Zm1.2,0l12.2-23,26.1-.9,13.8,22.1-12.2,23-26.1.9-13.8-22.1Zm41.8,25.5l13.3-25.1,13.4-.5c0,.3,0,.7,0,1l-12.8.5-12.8,24.1h0s0,0,0,0l5.6,8.9,8.9,14.2h0s0,0,0,0l11.1-.4c0,.3,0,.7,0,1l-11.7.4-15.1-24.1Zm15.6,23.1l-8.9-14.2-5.6-8.9h0s12.6-23.8,12.6-23.8v-.3c.1,0,12.9-.5,12.9-.5,0,.3,0,.7,0,1l-12.2.4-12.2,23,13.8,22.1,10.6-.4c0,.3,0,.7,0,1l-11.1.4h0Zm-60.9,3.9l-.2-.2,13.2-24.8v-.3c.1,0,28.5-1,28.5-1l14.9,23.8.2.2-12.1,22.8c-.5.2-.9.3-1.4.5l12.3-23.2-7.2-11.5-7.2-11.5-27.2,1-12.8,24.1,7.2,11.5,7.2,11.5,25.1-.9c-1,.4-2,.7-3,1.1l-22.6.8-14.9-23.8Zm15.4,22.8l25.1-.9c.9-.3,1.7-.6,2.6-.9l12.3-23.2-7.2-11.5-7.2-11.5-27.2,1-12.8,24.1,7.2,11.5,7.2,11.5Zm.5-1l-13.8-22.1,12.2-23,26.1-.9,13.8,22.1-12.2,23-26.1.9Zm-3.1,6.3l.2.2-3.2,6.1c-.5.2-1,.4-1.5.6l3.5-6.6h0s0,0,0,0l-4-6.4-10.4-16.7-18.2.6v-1s18.7-.7,18.7-.7l14.9,23.8Zm-5-6.1l4,6.4h0s-3.5,6.6-3.5,6.6c-.5.2-1,.4-1.5.6l3.8-7.2-13.8-22.1-17.6.6v-1s18.2-.6,18.2-.6l10.4,16.7Zm-.9-50.6l.2.2-13.2,24.8v.3c-.1,0-14.7.5-14.7.5v-1s13.9-.5,13.9-.5h0s0,0,0,0l6.4-12,6.4-12-7.2-11.5-7.2-11.5-12.2.4v-1s12.8-.5,12.8-.5l14.9,23.8Zm-8.2-11.3l7.2,11.5-6.4,12-6.4,12h0s-13.9.5-13.9.5v-1s13.3-.5,13.3-.5l12.2-23-13.8-22.1-11.7.4v-1s12.2-.4,12.2-.4l7.2,11.5Zm9.9-93.9l-13.3,25.1-16,.6v-1s15.4-.5,15.4-.5l12.8-24.1h0s0,0,0,0l-5.6-8.9-8.9-14.2h0s0,0,0,0l-13.8.5v-1s14.3-.5,14.3-.5l15.1,24.1Zm-15.6-23.1l8.9,14.2,5.6,8.9h0s-12.6,23.8-12.6,23.8v.3c-.1,0-15.6.5-15.6.5v-1s14.8-.5,14.8-.5l12.2-23-13.8-22.1-13.2.5v-1s13.8-.5,13.8-.5h0Zm20.4-28.5l-13.2,24.8.2.2,14.9,23.8,28.4-1,13.3-25.1-.2-.2-14.9-23.8-28.4,1v.3Zm-4.8,36.3l-7.2-11.5,12.6-23.8v-.3c.1,0,1.1,0,1.1,0l26.3-.9,10.4,16.7,4,6.4h0s0,0,0,0l-12.8,24.1-27.2,1-7.2-11.5Zm-7.2-11.5l7.2,11.5,7.2,11.5,27.2-1,12.8-24.1h0s-4-6.4-4-6.4l-10.4-16.7-26.3.9h-1s-.1.3-.1.3l-12.6,23.8Zm1.2,0l12.2-23,26.1-.9,13.8,22.1-12.2,23-26.1.9-13.8-22.1Zm5.4-25.8l.2.2-13.2,24.8v.3c-.1,0-15.7.5-15.7.5v-1s13.9-.5,13.9-.5h1s.1-.3.1-.3l12.6-23.8-7.2-11.5-7.2-11.5-13.2.5c0-.3,0-.7,0-1l13.8-.5,14.9,23.8Zm-8.2-11.3l7.2,11.5-12.6,23.8v.3c-.1,0-1.1,0-1.1,0l-13.9.5v-1s14.3-.5,14.3-.5l12.2-23-13.8-22.1-12.7.4c0-.3,0-.7,0-1l13.2-.5,7.2,11.5Zm10.5,114.3l.2.2-13.2,24.8v.3c-.1,0-18,.6-18,.6v-1s17.2-.6,17.2-.6h0s0,0,0,0l6.4-12,6.4-12-7.2-11.5-7.2-11.5-15.6.6v-1s16.1-.6,16.1-.6l14.9,23.8Zm-8.2-11.3l7.2,11.5-6.4,12-6.4,12h0s-17.2.6-17.2.6v-1s16.6-.6,16.6-.6l12.2-23-13.8-22.1-15,.5v-1s15.6-.5,15.6-.5l7.2,11.5Zm43.8,14.8l14.9,23.8,11.2-.4v-2s-10.1.4-10.1.4l-13.8-22.1,12.2-23,11.3-.4v-2s-12.5.4-12.5.4v.3c-.1,0-13.3,24.8-13.3,24.8l.2.2Zm9.5,13.4l5.9,9.5,9.2-.3-9.2.3-5.9-9.5Zm8-44.8l-13.8-22.1,12.2-23,9.6-.3v-2s-10.9.4-10.9.4v.3c-.1,0-13.3,24.8-13.3,24.8l.2.2,14.9,23.8,9.2-.3v-2s-8.1.3-8.1.3Zm-.5,1l7.7-.3h0s-7.7.3-7.7.3l-5.9-9.5,5.9,9.5Zm9-106.1v-2s-13.4.5-13.4.5l-13.3,25.1.2.2,14.9,23.8,11.3-.4v-2s-10.2.4-10.2.4l-13.8-22.1,12.2-23,12.1-.4Zm-23.5,26.8l12.4,19.9,9.7-.3h0s-9.7.3-9.7.3l-12.4-19.9Zm7.5-21.2l-9.5,17.9h0s9.5-17.9,9.5-17.9Zm-15.6,19.2l13.3-25.1-15.1-24.1-28.4,1v.3c-.1,0-13.3,24.8-13.3,24.8l.2.2,14.9,23.8,28.4-1Zm4.9-36.6l7.2,11.5-6.4,12-6.4,12h0s-27.2,1-27.2,1h0s0,0,0,0l-5.5-8.8-8.9-14.3,4.1-7.7,8.7-16.4,27.2-1,7.2,11.5Zm7.2,11.5l-7.2-11.5-7.2-11.5-27.2,1-8.7,16.4-4.1,7.7,8.9,14.3,5.5,8.8h0s27.2-1,27.2-1h0s6.4-12,6.4-12l6.4-12Zm-1.2,0l-12.2,23-26.1.9-13.8-22.1,12.2-23,26.1-.9,13.8,22.1Zm-46.4-20.1l.2.2-13.3,25.1-12.4.4c0-.3,0-.7,0-1l11.8-.4,12.8-24.1h0s0,0,0,0l-8.4-13.4-6.1-9.7-10.1.4c0-.3,0-.7,0-1l10.7-.4,14.9,23.8Zm-9.4-13.1l8.4,13.4h0s-12.8,24.1-12.8,24.1l-11.8.4c0-.3,0-.7,0-1l11.2-.4,12.2-23-13.8-22.1-9.6.3c0-.3,0-.7,0-1l10.1-.4,6.1,9.7Z"/></svg>