<?xml version="1.0" encoding="UTF-8"?><svg id="a" xmlns="http://www.w3.org/2000/svg" width="1997.3" height="1901.7" viewBox="0 0 1997.3 1901.7"><defs><style>.b{stroke-width:0px;}</style></defs><path class="b" d="m285.7,1900.6l-5.1-1-1.8-9.9c-2-10.7-1.7-24,.7-35.2l1.3-5.9,7-1.2c5.4-.9,102.5-1.2,434.5-1.3,404.2,0,434.2.1,442.1,2.5,3.5,1,5.2,29.2,2.8,44.2l-1.1,6.8-6.2,1.1c-8.1,1.5-866.3,1.4-874.1,0h0Z"/><polygon class="b" points="652 1792.2 652 1782.2 771.1 1782.2 890.2 1782.2 890.2 1792.2 890.2 1802.1 771.1 1802.1 652 1802.1 652 1792.2"/><path class="b" d="m1014.1,1789l-6.1-.9-2.6-8.7c-4.3-13.9-7.9-39.8-7.1-50.2l.7-8.7,6.1-1.4,6.1-1.4-5.6-.8-5.6-.8-2.6-8.1c-1.7-5.2-6.4-30.8-13.1-71.4-13.3-80.9-12.8-77.1-12.4-84.6l.3-6.4,7-2.9c3.8-1.6,11.9-4.2,17.9-5.8,25.5-6.8,30.6-8.4,44.8-13.6,15.3-5.7,34.7-15,48.8-23.6,18.8-11.4,38.6-26.7,74.2-57.3,11.2-9.7,25.6-21.7,31.9-26.8,13-10.5,38.5-27.7,50.3-34,4.4-2.3,8.4-4.6,9-5,2.7-2,33.2-15.2,42.4-18.4,22.3-7.8,45.2-12.6,66.3-14,4.9-.3,9.5-.8,10.2-1,1.4-.4,30.4,1.2,36.7,2.1,22.3,3.1,36.8,6.9,63.3,16.6,46.2,16.9,73.4,33.3,135.5,82,53.8,42.1,82.7,60,139,86.1,9.9,4.6,21.1,10.2,24.9,12.5l7,4.2.3,7c.3,6.5-.9,14.4-8.3,56.8-.8,4.8-4.7,26.8-8.5,49-3.9,22.2-8.2,44-9.6,48.5l-2.6,8.2-6,.9-6,.9,6.7,1.3,6.7,1.3v9.7c0,11.6-4.7,38.5-8.7,50-2.2,6.2-3.1,7.8-5.2,8.4-3.7,1.1-718.8,1.3-726.1.2h0Z"/><path class="b" d="m663.5,1778.9c-2.4-.7-5-2.6-6.9-4.8-3.8-4.7-3.2-7.8,2.2-11.4,4.8-3.2,16.5-4.5,28.3-3.2,11.3,1.2,14.6,3.4,14.6,9.8s-3.3,9-9.5,10c-7.2,1.2-24.3,1-28.7-.4Z"/><path class="b" d="m718.6,1778.4c-12.7-2.7-17-8.6-10.8-14.6,2.4-2.3,4.6-3.1,10.7-4.1,9.1-1.5,29.9-1.7,35.6-.4,2.2.5,5.3,1.1,6.8,1.4,2.7.5,6.1,2.7,7.8,5.1,1.6,2.2.7,6.2-2,8.7-5.6,5.3-31.7,7.4-48.3,3.9h0Z"/><path class="b" d="m43.1,1746.1c-3.6-.5-6.6-1.1-6.8-1.3-1-.9-5.2-15.2-6.5-22.4-.9-4.7-2.3-12-3.1-16.4-1-5.4-1.3-10.3-.9-15.1l.7-7.2,5.1-.7,5.1-.7-4.9-1.1-4.9-1.1-2.3-7.2c-1.3-4-2.8-10.2-3.4-14-.9-5.9-5.7-33.8-11.9-69-6.3-36.1-7.9-46.1-8.5-53l-.7-7.6,4.3-3.1c2.4-1.7,7.9-4.9,12.3-7,33.2-15.9,51.4-24.9,60.8-30.1,22.3-12.4,48.5-30.5,80.2-55.6,55.7-44,84.4-60.5,132-76.5,62.6-21,121-15.5,184.9,17.5,27.3,14.1,43.4,25.7,84.7,61.1,33.2,28.4,49.2,40.7,67.2,51.2,24.6,14.5,46.6,23.3,77.2,30.9,5.8,1.4,14.2,4,18.7,5.8l8.2,3.2v8.7c0,10.2-19.5,130.3-22.7,139.3-1.8,5.2-2.2,5.5-6.3,6.6l-4.4,1.1,4.7.7,4.7.7.6,8.1c.7,9.4-2.8,34.8-6.5,46.3l-2.2,6.8-8.1,1.2c-10.5,1.5-637.3,1.5-647.3,0h0Z"/><path class="b" d="m786.5,1512.5c-1.4-.2-6.5-.9-11.5-1.5-10.6-1.3-19.3-4.8-23.4-9.5-3.5-4-3.1-6.2,1.7-10.5,5-4.4,11.2-6.8,22.2-8.7,14-2.4,101.8-2.3,115.3,0,13.9,2.5,25.3,9.1,25.3,14.7s-4.3,7.2-10.4,10c-10.6,4.8-25.3,5.9-74.3,5.8-23.3,0-43.4-.3-44.8-.5h0Z"/><path class="b" d="m763.1,1421.8c-17-1.6-23.3-2.8-28.9-5.4-9.1-4.3-12-7.5-10.4-11.5,1.6-4.3,12.3-11.1,18.9-12.1,20.6-3,30.9-3.4,72.3-2.9,46.6.5,54.5,1.3,64.6,6.1,5.9,2.8,10.7,7.5,10.7,10.5s-3.7,6.8-9.4,9.5c-10.1,4.9-17.8,5.6-67.9,5.9-25.2.2-47.6.1-49.8,0h0Z"/><path class="b" d="m60,1335.7c-9.3-1.8-8.6-1.1-10-10.1-1.2-8.2-.9-38.4.5-47.3.7-4.6-.1-4.1,11.9-6.3,9.3-1.7,933.2-.9,939.4.8l4.6,1.3,1.2,6.3c1.5,8,1.3,41.2-.2,48.4l-1.1,5.5-6.5,1.2c-5,.9-112.6,1.2-470.9,1.1-256.1,0-466.4-.4-468.9-.9h0Z"/><path class="b" d="m1047.4,1335.4c-3.1-.6-6.1-1.6-6.6-2.1-4-4.6-4.2-53.9-.2-58.6.7-.8,2-1.1,11.5-2.8,9.6-1.6,932.4-.8,938.4.9l4.7,1.3,1.2,6.7c1.4,8.1.9,47.2-.8,51.1-1,2.3-2,2.7-8.9,3.7-10.9,1.7-930.9,1.5-939.3-.2Z"/><path class="b" d="m58,1257.6l-6.5-1.1-1.2-7c-1.7-9.9-1.9-782.7-.2-793.9l1.2-7.6,10.6-2.3c14.5-3.1,20.2-5.2,28.5-10.4,26-16.2,45.5-59,52.7-116.1,7.1-55.7,3.1-129.5-11.1-206.3-3.8-20.6-5.4-31.9-5.1-35.8.3-3.2.8-3.8,5.8-6.2,6-3,21.2-8,47.8-15.8,17.2-5,35.2-10.3,53.8-15.9,5.2-1.5,24.7-7.3,43.4-12.9s44.6-13.2,57.7-17.1c17.4-5.2,26-7.2,31.9-7.6l8-.6,2.2,7.8c1.2,4.3,2.9,12.9,3.7,19.1,6.4,49.1,24.7,87.8,54.4,115.4,24.1,22.3,60.6,35.9,91.1,33.9,13.3-.9,16-1.3,28.9-4.3,20-4.7,34.9-11,50.7-21.6,35.6-23.8,60.4-67.7,71-125.4.8-4.5,2.9-12.1,4.6-16.9,2.7-7.7,3.3-8.7,5.2-8.3,1.2.2,4.7.7,7.9,1.1,3.2.3,15.3,3.5,26.9,7.1,11.6,3.6,23.1,7.1,25.6,7.8,2.5.7,8.1,2.5,12.5,3.8,4.4,1.4,16,5,25.9,8,9.9,3,24.7,7.6,32.9,10.1,16.3,5.1,49.4,15.3,61.3,18.9,25,7.7,34.5,10.8,40.8,13.7l7.1,3.3v7.7c0,4.3-1.7,18.2-3.9,31.4-4.4,26.4-8.3,56.2-10.6,81-2.1,22.4-3,80.4-1.5,99.3,4.8,60.6,21,103.5,48.8,129.2,8.9,8.2,16.5,13.1,30.5,19.6,6.8,3.1,13.3,6.4,14.6,7.2l2.3,1.5.3,395.5c.2,315.8,0,396.9-1,402.5l-1.3,7-7,1.2c-9.7,1.7-931.6,1.6-941.2,0h0Z"/><path class="b" d="m1047.6,1257.8c-3-.5-6-1.4-6.6-1.9-3.5-2.8-3.5-12.5-3.2-411.5.2-215.1.7-392.1,1.2-393.3.6-1.5,4.2-3.7,11.4-6.9,15.6-7.1,23.4-12,31.2-19.8,14.5-14.5,25.6-35.6,32.6-62.3,3.4-12.9,7.8-35.3,8.6-44.3.3-3.3,1-10,1.6-14.9,2-17.2,2.2-86.3.5-114.6-2-32.1-3.9-53.5-7.6-84.2-2.3-19.2-2.5-29.2-.7-30.6,3.4-2.6,17.2-7.7,35.6-13.1,19.8-5.8,30.6-9,83.2-24.7,13.7-4.1,31.9-9.5,40.4-12s18.1-5.4,21.4-6.4c3.3-1,9.1-2.7,13-3.9s13.7-4,21.9-6.4c8.2-2.4,18.2-5,22.2-5.7l7.2-1.3,7.2,7.5c8.4,8.8,15.3,12.6,28.9,16.2,16,4.2,33.3,6.6,64,9,11,.8,22.6,1.7,25.9,2,7.5.6,51.1.6,57.8,0,2.7-.2,10.8-.9,17.9-1.5,7.1-.6,14.5-1.3,16.4-1.5,40.3-4.5,61.4-8.7,71.8-14.3,3.7-2,10.6-6.9,24.4-17.2,1.3-.9,14.9,2.4,34.8,8.6,8.2,2.5,18.3,5.7,22.4,6.9,19.1,5.8,42.2,13,50.8,15.7,10.6,3.4,48.9,15.2,55.8,17.2,2.5.7,8.1,2.5,12.5,3.8,14,4.4,44.8,13.8,46.8,14.3,1.1.3,5.4,2.1,9.6,4l7.6,3.5.4,7.1c.2,4.3-.7,15.5-2.4,28-20.8,158.2-15.6,234.6,19.5,286.9,11.3,16.8,25.4,29.9,48.7,45.2,8.2,5.4,13.1,9.3,13.7,10.9,1.5,3.9,1.1,791.6-.4,798.6l-1.1,5.5-7,1.2c-9,1.5-931.6,1.7-940.3.1h0Z"/></svg>